G04*
G04 #@! TF.GenerationSoftware,Altium Limited,Altium Designer,25.5.2 (35)*
G04*
G04 Layer_Physical_Order=4*
G04 Layer_Color=16711680*
%FSLAX25Y25*%
%MOIN*%
G70*
G04*
G04 #@! TF.SameCoordinates,1DACB3DC-ACE0-44E2-B579-3CE0BC83F536*
G04*
G04*
G04 #@! TF.FilePolarity,Positive*
G04*
G01*
G75*
%ADD17C,0.02500*%
%ADD19C,0.03000*%
%ADD20C,0.01000*%
%ADD22C,0.01500*%
%ADD25C,0.01200*%
%ADD118C,0.06850*%
G04:AMPARAMS|DCode=120|XSize=35.43mil|YSize=94.49mil|CornerRadius=17.72mil|HoleSize=0mil|Usage=FLASHONLY|Rotation=180.000|XOffset=0mil|YOffset=0mil|HoleType=Round|Shape=RoundedRectangle|*
%AMROUNDEDRECTD120*
21,1,0.03543,0.05906,0,0,180.0*
21,1,0.00000,0.09449,0,0,180.0*
1,1,0.03543,0.00000,0.02953*
1,1,0.03543,0.00000,0.02953*
1,1,0.03543,0.00000,-0.02953*
1,1,0.03543,0.00000,-0.02953*
%
%ADD120ROUNDEDRECTD120*%
G04:AMPARAMS|DCode=121|XSize=35.43mil|YSize=66.93mil|CornerRadius=17.72mil|HoleSize=0mil|Usage=FLASHONLY|Rotation=180.000|XOffset=0mil|YOffset=0mil|HoleType=Round|Shape=RoundedRectangle|*
%AMROUNDEDRECTD121*
21,1,0.03543,0.03150,0,0,180.0*
21,1,0.00000,0.06693,0,0,180.0*
1,1,0.03543,0.00000,0.01575*
1,1,0.03543,0.00000,0.01575*
1,1,0.03543,0.00000,-0.01575*
1,1,0.03543,0.00000,-0.01575*
%
%ADD121ROUNDEDRECTD121*%
%ADD122C,0.02559*%
%ADD136R,0.06850X0.06850*%
%ADD142C,0.04000*%
%ADD143C,0.00435*%
%ADD144C,0.02000*%
%ADD145C,0.05000*%
%ADD147C,0.03878*%
%ADD148C,0.05906*%
%ADD149C,0.06693*%
%ADD150C,0.05984*%
%ADD151C,0.05118*%
%ADD152R,0.05984X0.05984*%
%ADD153C,0.11811*%
%ADD154R,0.09843X0.09843*%
%ADD155C,0.05512*%
%ADD156R,0.05512X0.05512*%
%ADD157R,0.03878X0.03878*%
%ADD158C,0.11024*%
%ADD159C,0.09055*%
%ADD160R,0.06693X0.06693*%
%ADD161R,0.05118X0.05118*%
%ADD162C,0.09843*%
%ADD163C,0.05000*%
%ADD164C,0.04000*%
%ADD165C,0.03000*%
%ADD166C,0.02000*%
%ADD167C,0.20000*%
G36*
X460388Y216349D02*
X460579Y215886D01*
X458824Y214131D01*
X405914D01*
X405814Y214631D01*
X406416Y214881D01*
X407119Y215584D01*
X407440Y216357D01*
X460388Y216349D01*
D02*
G37*
G36*
X373765Y216362D02*
X373881Y216084D01*
X374584Y215381D01*
X375503Y215000D01*
X376497D01*
X377416Y215381D01*
X377904Y215869D01*
X385072D01*
X386348Y214593D01*
X386156Y214131D01*
X353404D01*
X353131Y214404D01*
Y215924D01*
X353572Y216365D01*
X373765Y216362D01*
D02*
G37*
G36*
X321322Y216371D02*
X322261Y215432D01*
X322018Y215033D01*
X321986Y215000D01*
X321003D01*
X320084Y214619D01*
X319596Y214131D01*
X307307D01*
X306682Y214007D01*
X306153Y213653D01*
X306031Y213531D01*
X297139D01*
X296805Y214031D01*
X297000Y214503D01*
Y215497D01*
X296809Y215959D01*
X297087Y216374D01*
X321322Y216371D01*
D02*
G37*
G36*
X329369Y213824D02*
Y204676D01*
X322324Y197631D01*
X320404D01*
X320064Y197971D01*
X320098Y198267D01*
X320159Y198509D01*
X320167Y198522D01*
X320654Y198846D01*
X328153Y206347D01*
X328507Y206876D01*
X328631Y207500D01*
Y213000D01*
X328507Y213624D01*
X328153Y214154D01*
X326721Y215586D01*
X326890Y216124D01*
X327042Y216151D01*
X329369Y213824D01*
D02*
G37*
G36*
X180150Y216393D02*
X180357Y215893D01*
X179881Y215416D01*
X179500Y214497D01*
Y213503D01*
X179881Y212584D01*
X180584Y211881D01*
X181503Y211500D01*
X182497D01*
X183416Y211881D01*
X184119Y212584D01*
X184500Y213503D01*
Y214193D01*
X186699Y216392D01*
X263313Y216380D01*
X268947Y210747D01*
X269476Y210393D01*
X270100Y210269D01*
X291369D01*
Y205404D01*
X290881Y204916D01*
X290500Y203997D01*
Y203003D01*
X290881Y202084D01*
X291584Y201381D01*
X292503Y201000D01*
X293497D01*
X294416Y201381D01*
X295119Y202084D01*
X295500Y203003D01*
Y203997D01*
X295119Y204916D01*
X294631Y205404D01*
Y210269D01*
X306707D01*
X307331Y210393D01*
X307860Y210747D01*
X307982Y210869D01*
X319596D01*
X320084Y210381D01*
X321003Y210000D01*
X321997D01*
X322916Y210381D01*
X323619Y211084D01*
X324000Y212003D01*
Y212986D01*
X324033Y213018D01*
X324432Y213261D01*
X325369Y212324D01*
Y208176D01*
X318824Y201631D01*
X304000D01*
X303376Y201507D01*
X302847Y201153D01*
X290343Y188650D01*
X289497Y189000D01*
X288503D01*
X287584Y188619D01*
X286881Y187916D01*
X286500Y186997D01*
Y186003D01*
X286881Y185084D01*
X287584Y184381D01*
X288503Y184000D01*
X289497D01*
X290416Y184381D01*
X291034Y184999D01*
X291154Y185023D01*
X291683Y185376D01*
X304676Y198369D01*
X316626D01*
X316833Y197869D01*
X316381Y197416D01*
X316000Y196497D01*
Y195503D01*
X316381Y194584D01*
X317084Y193881D01*
X318003Y193500D01*
X318997D01*
X319916Y193881D01*
X320404Y194369D01*
X323000D01*
X323624Y194493D01*
X324153Y194846D01*
X332154Y202847D01*
X332507Y203376D01*
X332631Y204000D01*
Y214500D01*
X332589Y214711D01*
X333050Y214957D01*
X336470Y211538D01*
Y123500D01*
X336590Y122586D01*
X336943Y121735D01*
X337504Y121004D01*
X354504Y104004D01*
X355235Y103443D01*
X356086Y103090D01*
X357000Y102970D01*
X561000D01*
X561914Y103090D01*
X562765Y103443D01*
X563496Y104004D01*
X581496Y122004D01*
X582057Y122735D01*
X582410Y123586D01*
X582530Y124500D01*
Y130500D01*
Y142500D01*
Y154500D01*
X582410Y155414D01*
X582057Y156265D01*
X581496Y156996D01*
X580765Y157557D01*
X579914Y157910D01*
X579000Y158030D01*
X578086Y157910D01*
X577235Y157557D01*
X576504Y156996D01*
X575943Y156265D01*
X575590Y155414D01*
X575470Y154500D01*
Y144794D01*
X564750D01*
X556639Y152905D01*
Y153187D01*
X556439Y153934D01*
X556052Y154605D01*
X555505Y155152D01*
X554834Y155539D01*
X554087Y155739D01*
X553313D01*
X552566Y155539D01*
X551895Y155152D01*
X551348Y154605D01*
X550961Y153934D01*
X550761Y153187D01*
Y152413D01*
X550961Y151666D01*
X551348Y150995D01*
X551895Y150448D01*
X552566Y150061D01*
X553151Y149904D01*
X562178Y140878D01*
X562922Y140381D01*
X563800Y140206D01*
X575470D01*
Y130500D01*
Y125962D01*
X559538Y110030D01*
X358462D01*
X343530Y124962D01*
Y213000D01*
X343530Y213000D01*
X343410Y213914D01*
X343057Y214765D01*
X342496Y215496D01*
X342087Y215905D01*
X342279Y216367D01*
X349869Y216366D01*
Y214404D01*
X349381Y213916D01*
X349000Y212997D01*
Y212003D01*
X349381Y211084D01*
X350084Y210381D01*
X351003Y210000D01*
X351997D01*
X352916Y210381D01*
X353404Y210869D01*
X402369D01*
Y206603D01*
X402402Y206437D01*
X402381Y206416D01*
X402000Y205497D01*
Y204503D01*
X402381Y203584D01*
X403084Y202881D01*
X404003Y202500D01*
X404997D01*
X405916Y202881D01*
X406619Y203584D01*
X407000Y204503D01*
Y205497D01*
X406619Y206416D01*
X405916Y207119D01*
X405631Y207237D01*
Y210869D01*
X459354D01*
X459557Y210499D01*
X459576Y210383D01*
X452824Y203631D01*
X428414D01*
X428314Y204131D01*
X428916Y204381D01*
X429619Y205084D01*
X430000Y206003D01*
Y206997D01*
X429619Y207916D01*
X428916Y208619D01*
X427997Y209000D01*
X427003D01*
X426084Y208619D01*
X425381Y207916D01*
X425000Y206997D01*
Y206003D01*
X425381Y205084D01*
X426084Y204381D01*
X426686Y204131D01*
X426586Y203631D01*
X414500D01*
X413876Y203507D01*
X413346Y203153D01*
X400693Y190500D01*
X400003D01*
X399084Y190119D01*
X398381Y189416D01*
X398000Y188497D01*
Y187503D01*
X398381Y186584D01*
X399084Y185881D01*
X400003Y185500D01*
X400997D01*
X401916Y185881D01*
X402619Y186584D01*
X403000Y187503D01*
Y188193D01*
X415176Y200369D01*
X453500D01*
X454124Y200493D01*
X454654Y200847D01*
X470154Y216347D01*
X483884Y216345D01*
X484076Y215883D01*
X435224Y167031D01*
X419060D01*
X418435Y166907D01*
X417906Y166553D01*
X417353Y166000D01*
X416503D01*
X415584Y165619D01*
X414881Y164916D01*
X414500Y163997D01*
Y163003D01*
X414881Y162084D01*
X415584Y161381D01*
X416503Y161000D01*
X417497D01*
X418416Y161381D01*
X419119Y162084D01*
X419500Y163003D01*
Y163533D01*
X419735Y163769D01*
X435900D01*
X436524Y163893D01*
X437053Y164246D01*
X489151Y216344D01*
X503869Y216342D01*
Y215500D01*
X503993Y214876D01*
X504347Y214347D01*
X529000Y189693D01*
Y189003D01*
X529381Y188084D01*
X530084Y187381D01*
X531003Y187000D01*
X531997D01*
X532916Y187381D01*
X533619Y188084D01*
X534000Y189003D01*
Y189997D01*
X533619Y190916D01*
X532916Y191619D01*
X531997Y192000D01*
X531307D01*
X507466Y215841D01*
X507673Y216341D01*
X521378Y216339D01*
X521570Y215877D01*
X520693Y215000D01*
X520003D01*
X519084Y214619D01*
X518381Y213916D01*
X518000Y212997D01*
Y212003D01*
X518381Y211084D01*
X519084Y210381D01*
X520003Y210000D01*
X520997D01*
X521916Y210381D01*
X522619Y211084D01*
X523000Y212003D01*
Y212693D01*
X526154Y215846D01*
X526482Y216338D01*
X538869Y216336D01*
Y197904D01*
X538381Y197416D01*
X538000Y196497D01*
Y195503D01*
X538381Y194584D01*
X539084Y193881D01*
X540003Y193500D01*
X540997D01*
X541916Y193881D01*
X542619Y194584D01*
X543000Y195503D01*
Y196497D01*
X542619Y197416D01*
X542131Y197904D01*
Y215982D01*
X542485Y216335D01*
X557369Y216333D01*
Y204476D01*
X525924Y173031D01*
X502404D01*
X501916Y173519D01*
X500997Y173900D01*
X500003D01*
X499084Y173519D01*
X498381Y172816D01*
X498000Y171897D01*
Y170903D01*
X498381Y169984D01*
X499084Y169281D01*
X500003Y168900D01*
X500997D01*
X501916Y169281D01*
X502404Y169769D01*
X526600D01*
X527224Y169893D01*
X527753Y170247D01*
X548068Y190561D01*
X548530Y190369D01*
Y183837D01*
X536893Y172200D01*
X536203D01*
X535284Y171819D01*
X534581Y171116D01*
X534200Y170197D01*
Y169203D01*
X534581Y168284D01*
X535284Y167581D01*
X536203Y167200D01*
X537197D01*
X538116Y167581D01*
X538819Y168284D01*
X539200Y169203D01*
Y169893D01*
X550299Y180992D01*
X550761Y180801D01*
Y179861D01*
X556639D01*
Y185739D01*
X551792D01*
Y192023D01*
X563754Y203984D01*
X564107Y204513D01*
X564231Y205137D01*
Y215978D01*
X564585Y216332D01*
X601290Y216326D01*
X611558Y206058D01*
X612220Y205616D01*
X613000Y205461D01*
X632655D01*
X634328Y203788D01*
X634000Y202997D01*
Y202003D01*
X634381Y201084D01*
X635084Y200381D01*
X636003Y200000D01*
X636997D01*
X637916Y200381D01*
X638619Y201084D01*
X639000Y202003D01*
Y202997D01*
X638619Y203916D01*
X638539Y203996D01*
Y204500D01*
X638539Y204500D01*
X638384Y205280D01*
X637942Y205942D01*
X635423Y208461D01*
X635630Y208961D01*
X744504D01*
X744584Y208881D01*
X745503Y208500D01*
X746497D01*
X747416Y208881D01*
X748119Y209584D01*
X748500Y210503D01*
Y211497D01*
X748119Y212416D01*
X747416Y213119D01*
X746497Y213500D01*
X745503D01*
X744584Y213119D01*
X744504Y213039D01*
X628282D01*
X628075Y213539D01*
X628619Y214084D01*
X629000Y215003D01*
Y215693D01*
X629629Y216322D01*
X766400Y216300D01*
X780974D01*
Y182600D01*
Y172053D01*
X747960Y139040D01*
X747479Y138413D01*
X747177Y137683D01*
X747074Y136900D01*
Y119553D01*
X737547Y110026D01*
X620753D01*
X610526Y120253D01*
Y138000D01*
X610423Y138783D01*
X610120Y139513D01*
X609640Y140140D01*
X574840Y174940D01*
X574213Y175420D01*
X573483Y175723D01*
X572700Y175826D01*
X553700D01*
X552917Y175723D01*
X552187Y175420D01*
X551560Y174940D01*
X551080Y174313D01*
X550777Y173583D01*
X550674Y172800D01*
X550777Y172017D01*
X551080Y171287D01*
X551560Y170660D01*
X552187Y170179D01*
X552917Y169877D01*
X553700Y169774D01*
X571447D01*
X604474Y136747D01*
Y119000D01*
X604577Y118217D01*
X604880Y117487D01*
X605360Y116860D01*
X617360Y104860D01*
X617987Y104379D01*
X618717Y104077D01*
X619500Y103974D01*
X738800D01*
X739583Y104077D01*
X740313Y104379D01*
X740940Y104860D01*
X752240Y116160D01*
X752720Y116787D01*
X753023Y117517D01*
X753068Y117859D01*
X753574Y117876D01*
X753758Y116955D01*
X754286Y115679D01*
X755054Y114530D01*
X756030Y113554D01*
X757179Y112786D01*
X758455Y112258D01*
X759809Y111988D01*
X761191D01*
X762545Y112258D01*
X763821Y112786D01*
X764970Y113554D01*
X765946Y114530D01*
X766714Y115679D01*
X767242Y116955D01*
X767512Y118309D01*
Y119691D01*
X767242Y121045D01*
X766714Y122321D01*
X765946Y123470D01*
X764970Y124446D01*
X763821Y125214D01*
X762545Y125742D01*
X761191Y126012D01*
X759809D01*
X758455Y125742D01*
X757179Y125214D01*
X756030Y124446D01*
X755054Y123470D01*
X754286Y122321D01*
X753758Y121045D01*
X753626Y120383D01*
X753126Y120432D01*
Y135647D01*
X754288Y136809D01*
X754712Y136526D01*
X754704Y136506D01*
X754472Y135342D01*
Y134154D01*
X754704Y132990D01*
X755158Y131893D01*
X755818Y130906D01*
X756658Y130066D01*
X757645Y129406D01*
X758742Y128952D01*
X759906Y128720D01*
X761094D01*
X762258Y128952D01*
X763355Y129406D01*
X764342Y130066D01*
X765182Y130906D01*
X765842Y131893D01*
X766296Y132990D01*
X766528Y134154D01*
Y135342D01*
X766296Y136506D01*
X765842Y137603D01*
X765182Y138590D01*
X764342Y139430D01*
X763355Y140090D01*
X762258Y140544D01*
X761094Y140776D01*
X759906D01*
X758742Y140544D01*
X758722Y140536D01*
X758439Y140960D01*
X786140Y168660D01*
X786621Y169287D01*
X786923Y170017D01*
X787026Y170800D01*
Y182600D01*
Y216300D01*
X789085D01*
X791017Y215916D01*
X792837Y215162D01*
X794475Y214068D01*
X795867Y212675D01*
X796962Y211037D01*
X797716Y209217D01*
X798100Y207285D01*
Y206300D01*
Y139700D01*
Y138715D01*
X797716Y136783D01*
X796962Y134963D01*
X795867Y133325D01*
X794475Y131932D01*
X792837Y130838D01*
X791017Y130084D01*
X789085Y129700D01*
X780500D01*
X779520Y129652D01*
X777597Y129269D01*
X775786Y128519D01*
X774156Y127430D01*
X772770Y126044D01*
X771681Y124414D01*
X770931Y122603D01*
X770548Y120680D01*
X770500Y119700D01*
Y111600D01*
Y110615D01*
X770116Y108683D01*
X769362Y106863D01*
X768267Y105225D01*
X766875Y103832D01*
X765237Y102738D01*
X763417Y101984D01*
X761485Y101600D01*
X141815D01*
X139883Y101984D01*
X138063Y102738D01*
X136425Y103832D01*
X135032Y105225D01*
X133938Y106863D01*
X133184Y108683D01*
X132800Y110615D01*
Y111600D01*
Y125500D01*
X132752Y126480D01*
X132369Y128403D01*
X131619Y130214D01*
X130530Y131844D01*
X129144Y133230D01*
X127514Y134319D01*
X125703Y135069D01*
X123780Y135452D01*
X122800Y135500D01*
X111015D01*
X109083Y135884D01*
X107263Y136638D01*
X105625Y137733D01*
X104233Y139125D01*
X103138Y140763D01*
X102384Y142583D01*
X102000Y144515D01*
Y145500D01*
Y206400D01*
Y207385D01*
X102384Y209317D01*
X103138Y211137D01*
X104233Y212775D01*
X105625Y214167D01*
X107263Y215262D01*
X109083Y216016D01*
X111015Y216400D01*
X134800D01*
X180150Y216393D01*
D02*
G37*
%LPC*%
G36*
X201997Y209000D02*
X201003D01*
X200084Y208619D01*
X199381Y207916D01*
X199000Y206997D01*
Y206003D01*
X199381Y205084D01*
X200084Y204381D01*
X201003Y204000D01*
X201997D01*
X202916Y204381D01*
X203619Y205084D01*
X204000Y206003D01*
Y206997D01*
X203619Y207916D01*
X202916Y208619D01*
X201997Y209000D01*
D02*
G37*
G36*
X315997Y207500D02*
X315003D01*
X314084Y207119D01*
X313381Y206416D01*
X313000Y205497D01*
Y204503D01*
X313381Y203584D01*
X314084Y202881D01*
X315003Y202500D01*
X315997D01*
X316916Y202881D01*
X317619Y203584D01*
X318000Y204503D01*
Y205497D01*
X317619Y206416D01*
X316916Y207119D01*
X315997Y207500D01*
D02*
G37*
G36*
X531497Y207000D02*
X530503D01*
X529584Y206619D01*
X528881Y205916D01*
X528500Y204997D01*
Y204003D01*
X528881Y203084D01*
X529584Y202381D01*
X530503Y202000D01*
X531497D01*
X532416Y202381D01*
X533119Y203084D01*
X533500Y204003D01*
Y204997D01*
X533119Y205916D01*
X532416Y206619D01*
X531497Y207000D01*
D02*
G37*
G36*
X731497Y206000D02*
X730503D01*
X729584Y205619D01*
X728881Y204916D01*
X728500Y203997D01*
Y203003D01*
X728881Y202084D01*
X729584Y201381D01*
X730503Y201000D01*
X731497D01*
X732416Y201381D01*
X733119Y202084D01*
X733500Y203003D01*
Y203997D01*
X733119Y204916D01*
X732416Y205619D01*
X731497Y206000D01*
D02*
G37*
G36*
X621997Y204000D02*
X621003D01*
X620084Y203619D01*
X619381Y202916D01*
X619000Y201997D01*
Y201003D01*
X619381Y200084D01*
X620084Y199381D01*
X621003Y199000D01*
X621997D01*
X622916Y199381D01*
X623619Y200084D01*
X624000Y201003D01*
Y201997D01*
X623619Y202916D01*
X622916Y203619D01*
X621997Y204000D01*
D02*
G37*
G36*
X421961Y199000D02*
X421039D01*
X420149Y198761D01*
X419351Y198301D01*
X418699Y197649D01*
X418238Y196851D01*
X418000Y195961D01*
Y195039D01*
X418238Y194149D01*
X418699Y193351D01*
X419351Y192699D01*
X420149Y192238D01*
X421039Y192000D01*
X421961D01*
X422851Y192238D01*
X423649Y192699D01*
X424301Y193351D01*
X424761Y194149D01*
X425000Y195039D01*
Y195961D01*
X424761Y196851D01*
X424301Y197649D01*
X423649Y198301D01*
X422851Y198761D01*
X421961Y199000D01*
D02*
G37*
G36*
X197961D02*
X197039D01*
X196149Y198761D01*
X195351Y198301D01*
X194699Y197649D01*
X194238Y196851D01*
X194000Y195961D01*
Y195039D01*
X194238Y194149D01*
X194699Y193351D01*
X195351Y192699D01*
X196149Y192238D01*
X197039Y192000D01*
X197961D01*
X198851Y192238D01*
X199649Y192699D01*
X200301Y193351D01*
X200762Y194149D01*
X201000Y195039D01*
Y195961D01*
X200762Y196851D01*
X200301Y197649D01*
X199649Y198301D01*
X198851Y198761D01*
X197961Y199000D01*
D02*
G37*
G36*
X309461Y197000D02*
X308539D01*
X307649Y196762D01*
X306851Y196301D01*
X306199Y195649D01*
X305738Y194851D01*
X305500Y193961D01*
Y193039D01*
X305738Y192149D01*
X306199Y191351D01*
X306851Y190699D01*
X307649Y190238D01*
X308539Y190000D01*
X309461D01*
X310351Y190238D01*
X311149Y190699D01*
X311801Y191351D01*
X312262Y192149D01*
X312500Y193039D01*
Y193961D01*
X312262Y194851D01*
X311801Y195649D01*
X311149Y196301D01*
X310351Y196762D01*
X309461Y197000D01*
D02*
G37*
G36*
X189395Y191500D02*
X188605D01*
X187842Y191296D01*
X187158Y190901D01*
X186599Y190342D01*
X186204Y189658D01*
X186000Y188895D01*
Y188105D01*
X186204Y187342D01*
X186599Y186658D01*
X187158Y186099D01*
X187842Y185704D01*
X188605Y185500D01*
X189395D01*
X190158Y185704D01*
X190842Y186099D01*
X191401Y186658D01*
X191796Y187342D01*
X192000Y188105D01*
Y188895D01*
X191796Y189658D01*
X191401Y190342D01*
X190842Y190901D01*
X190158Y191296D01*
X189395Y191500D01*
D02*
G37*
G36*
X413961Y192000D02*
X413039D01*
X412149Y191762D01*
X411351Y191301D01*
X410699Y190649D01*
X410239Y189851D01*
X410000Y188961D01*
Y188039D01*
X410239Y187149D01*
X410699Y186351D01*
X411351Y185699D01*
X412149Y185239D01*
X413039Y185000D01*
X413961D01*
X414851Y185239D01*
X415649Y185699D01*
X416301Y186351D01*
X416761Y187149D01*
X417000Y188039D01*
Y188961D01*
X416761Y189851D01*
X416301Y190649D01*
X415649Y191301D01*
X414851Y191762D01*
X413961Y192000D01*
D02*
G37*
G36*
X302497Y188500D02*
X301503D01*
X300584Y188119D01*
X299881Y187416D01*
X299500Y186497D01*
Y185503D01*
X299881Y184584D01*
X300584Y183881D01*
X301503Y183500D01*
X302497D01*
X303416Y183881D01*
X304119Y184584D01*
X304500Y185503D01*
Y186497D01*
X304119Y187416D01*
X303416Y188119D01*
X302497Y188500D01*
D02*
G37*
G36*
X719961Y180000D02*
X719039D01*
X718149Y179762D01*
X717351Y179301D01*
X716699Y178649D01*
X716238Y177851D01*
X716000Y176961D01*
Y176039D01*
X716238Y175149D01*
X716699Y174351D01*
X717351Y173699D01*
X718149Y173239D01*
X719039Y173000D01*
X719961D01*
X720851Y173239D01*
X721649Y173699D01*
X722301Y174351D01*
X722761Y175149D01*
X723000Y176039D01*
Y176961D01*
X722761Y177851D01*
X722301Y178649D01*
X721649Y179301D01*
X720851Y179762D01*
X719961Y180000D01*
D02*
G37*
G36*
X390961Y179000D02*
X390039D01*
X389149Y178761D01*
X388351Y178301D01*
X387699Y177649D01*
X387239Y176851D01*
X387000Y175961D01*
Y175039D01*
X387239Y174149D01*
X387699Y173351D01*
X388351Y172699D01*
X389149Y172239D01*
X390039Y172000D01*
X390961D01*
X391851Y172239D01*
X392649Y172699D01*
X393301Y173351D01*
X393761Y174149D01*
X394000Y175039D01*
Y175961D01*
X393761Y176851D01*
X393301Y177649D01*
X392649Y178301D01*
X391851Y178761D01*
X390961Y179000D01*
D02*
G37*
G36*
X166961D02*
X166039D01*
X165149Y178761D01*
X164351Y178301D01*
X163699Y177649D01*
X163239Y176851D01*
X163000Y175961D01*
Y175039D01*
X163239Y174149D01*
X163699Y173351D01*
X164351Y172699D01*
X165149Y172239D01*
X166039Y172000D01*
X166961D01*
X167851Y172239D01*
X168649Y172699D01*
X169301Y173351D01*
X169762Y174149D01*
X170000Y175039D01*
Y175961D01*
X169762Y176851D01*
X169301Y177649D01*
X168649Y178301D01*
X167851Y178761D01*
X166961Y179000D01*
D02*
G37*
G36*
X610461Y178000D02*
X609539D01*
X608649Y177761D01*
X607851Y177301D01*
X607199Y176649D01*
X606739Y175851D01*
X606500Y174961D01*
Y174039D01*
X606739Y173149D01*
X607199Y172351D01*
X607851Y171699D01*
X608649Y171239D01*
X609539Y171000D01*
X610461D01*
X611351Y171239D01*
X612149Y171699D01*
X612801Y172351D01*
X613262Y173149D01*
X613500Y174039D01*
Y174961D01*
X613262Y175851D01*
X612801Y176649D01*
X612149Y177301D01*
X611351Y177761D01*
X610461Y178000D01*
D02*
G37*
G36*
X279461Y177000D02*
X278539D01*
X277649Y176761D01*
X276851Y176301D01*
X276199Y175649D01*
X275739Y174851D01*
X275500Y173961D01*
Y173039D01*
X275739Y172149D01*
X276199Y171351D01*
X276851Y170699D01*
X277649Y170238D01*
X278539Y170000D01*
X279461D01*
X280351Y170238D01*
X281149Y170699D01*
X281801Y171351D01*
X282261Y172149D01*
X282500Y173039D01*
Y173961D01*
X282261Y174851D01*
X281801Y175649D01*
X281149Y176301D01*
X280351Y176761D01*
X279461Y177000D01*
D02*
G37*
G36*
X280497Y209000D02*
X279503D01*
X278584Y208619D01*
X277881Y207916D01*
X277500Y206997D01*
Y206307D01*
X237324Y166131D01*
X194904D01*
X194416Y166619D01*
X193497Y167000D01*
X192503D01*
X191584Y166619D01*
X190881Y165916D01*
X190500Y164997D01*
Y164003D01*
X190881Y163084D01*
X191584Y162381D01*
X192503Y162000D01*
X193497D01*
X194416Y162381D01*
X194904Y162869D01*
X238000D01*
X238624Y162993D01*
X239154Y163347D01*
X279807Y204000D01*
X280497D01*
X281416Y204381D01*
X282119Y205084D01*
X282500Y206003D01*
Y206997D01*
X282119Y207916D01*
X281416Y208619D01*
X280497Y209000D01*
D02*
G37*
G36*
X409440Y168428D02*
X408518D01*
X407628Y168189D01*
X406830Y167728D01*
X406179Y167077D01*
X405718Y166278D01*
X405479Y165388D01*
Y164467D01*
X405718Y163576D01*
X406179Y162778D01*
X406830Y162127D01*
X407628Y161666D01*
X408518Y161427D01*
X409440D01*
X410330Y161666D01*
X411128Y162127D01*
X411780Y162778D01*
X412241Y163576D01*
X412479Y164467D01*
Y165388D01*
X412241Y166278D01*
X411780Y167077D01*
X411128Y167728D01*
X410330Y168189D01*
X409440Y168428D01*
D02*
G37*
G36*
X185440D02*
X184518D01*
X183628Y168189D01*
X182830Y167728D01*
X182178Y167077D01*
X181718Y166278D01*
X181479Y165388D01*
Y164467D01*
X181718Y163576D01*
X182178Y162778D01*
X182830Y162127D01*
X183628Y161666D01*
X184518Y161427D01*
X185440D01*
X186330Y161666D01*
X187128Y162127D01*
X187780Y162778D01*
X188241Y163576D01*
X188479Y164467D01*
Y165388D01*
X188241Y166278D01*
X187780Y167077D01*
X187128Y167728D01*
X186330Y168189D01*
X185440Y168428D01*
D02*
G37*
G36*
X297940Y166428D02*
X297018D01*
X296128Y166189D01*
X295330Y165728D01*
X294678Y165076D01*
X294218Y164278D01*
X293979Y163388D01*
Y162467D01*
X294218Y161576D01*
X294678Y160778D01*
X295330Y160127D01*
X296128Y159666D01*
X297018Y159427D01*
X297940D01*
X298830Y159666D01*
X299628Y160127D01*
X300280Y160778D01*
X300741Y161576D01*
X300979Y162467D01*
Y163388D01*
X300741Y164278D01*
X300280Y165076D01*
X299628Y165728D01*
X298830Y166189D01*
X297940Y166428D01*
D02*
G37*
G36*
X332997Y186000D02*
X332003D01*
X331084Y185619D01*
X330381Y184916D01*
X330000Y183997D01*
Y183307D01*
X311724Y165031D01*
X306560D01*
X305936Y164907D01*
X305406Y164553D01*
X304853Y164000D01*
X304003D01*
X303084Y163619D01*
X302381Y162916D01*
X302000Y161997D01*
Y161003D01*
X302381Y160084D01*
X303084Y159381D01*
X304003Y159000D01*
X304997D01*
X305916Y159381D01*
X306619Y160084D01*
X307000Y161003D01*
Y161533D01*
X307236Y161769D01*
X312400D01*
X313024Y161893D01*
X313554Y162247D01*
X332307Y181000D01*
X332997D01*
X333916Y181381D01*
X334619Y182084D01*
X335000Y183003D01*
Y183997D01*
X334619Y184916D01*
X333916Y185619D01*
X332997Y186000D01*
D02*
G37*
G36*
X554087Y165739D02*
X553313D01*
X552566Y165539D01*
X551895Y165152D01*
X551348Y164605D01*
X550961Y163934D01*
X550761Y163187D01*
Y163105D01*
X538050Y150394D01*
X509432D01*
X508554Y150220D01*
X507810Y149722D01*
X504642Y146554D01*
X499194D01*
Y137861D01*
X506490D01*
X506740Y137428D01*
X506450Y136926D01*
X506153Y135820D01*
Y134676D01*
X506450Y133570D01*
X507022Y132579D01*
X507831Y131770D01*
X508822Y131198D01*
X509928Y130902D01*
X511072D01*
X512178Y131198D01*
X513169Y131770D01*
X513978Y132579D01*
X514550Y133570D01*
X514847Y134676D01*
Y135820D01*
X514550Y136926D01*
X513978Y137917D01*
X513169Y138726D01*
X512178Y139298D01*
X511072Y139594D01*
X509928D01*
X508822Y139298D01*
X508320Y139008D01*
X507887Y139258D01*
Y143310D01*
X510383Y145806D01*
X514204D01*
X514411Y145306D01*
X513982Y144877D01*
X513410Y143886D01*
X513113Y142780D01*
Y141636D01*
X513410Y140530D01*
X513982Y139539D01*
X514791Y138730D01*
X515782Y138158D01*
X516888Y137861D01*
X518032D01*
X519137Y138158D01*
X520129Y138730D01*
X520938Y139539D01*
X521510Y140530D01*
X521806Y141636D01*
Y142780D01*
X521510Y143886D01*
X520938Y144877D01*
X520509Y145306D01*
X520716Y145806D01*
X539000D01*
X539878Y145981D01*
X540622Y146478D01*
X554005Y159861D01*
X554087D01*
X554834Y160061D01*
X555505Y160448D01*
X556052Y160995D01*
X556439Y161666D01*
X556639Y162413D01*
Y163187D01*
X556439Y163934D01*
X556052Y164605D01*
X555505Y165152D01*
X554834Y165539D01*
X554087Y165739D01*
D02*
G37*
G36*
X405505Y146554D02*
X404360D01*
X403255Y146258D01*
X402263Y145686D01*
X401454Y144877D01*
X400882Y143886D01*
X400586Y142780D01*
Y141636D01*
X400882Y140530D01*
X401454Y139539D01*
X402263Y138730D01*
X403255Y138158D01*
X404360Y137861D01*
X405505D01*
X406610Y138158D01*
X407601Y138730D01*
X408410Y139539D01*
X408983Y140530D01*
X409279Y141636D01*
Y142780D01*
X408983Y143886D01*
X408410Y144877D01*
X407601Y145686D01*
X406610Y146258D01*
X405505Y146554D01*
D02*
G37*
G36*
X293518D02*
X292374D01*
X291268Y146258D01*
X290277Y145686D01*
X289468Y144877D01*
X288896Y143886D01*
X288600Y142780D01*
Y141636D01*
X288896Y140530D01*
X289468Y139539D01*
X290277Y138730D01*
X291268Y138158D01*
X292374Y137861D01*
X293518D01*
X294624Y138158D01*
X295615Y138730D01*
X296424Y139539D01*
X296996Y140530D01*
X297292Y141636D01*
Y142780D01*
X296996Y143886D01*
X296424Y144877D01*
X295615Y145686D01*
X294624Y146258D01*
X293518Y146554D01*
D02*
G37*
G36*
X181532D02*
X180388D01*
X179282Y146258D01*
X178291Y145686D01*
X177482Y144877D01*
X176910Y143886D01*
X176613Y142780D01*
Y141636D01*
X176910Y140530D01*
X177482Y139539D01*
X178291Y138730D01*
X179282Y138158D01*
X180388Y137861D01*
X181532D01*
X182638Y138158D01*
X183629Y138730D01*
X184438Y139539D01*
X185010Y140530D01*
X185306Y141636D01*
Y142780D01*
X185010Y143886D01*
X184438Y144877D01*
X183629Y145686D01*
X182638Y146258D01*
X181532Y146554D01*
D02*
G37*
G36*
X738505Y146054D02*
X737360D01*
X736255Y145758D01*
X735263Y145186D01*
X734454Y144377D01*
X733882Y143386D01*
X733586Y142280D01*
Y141136D01*
X733882Y140030D01*
X734454Y139039D01*
X735263Y138230D01*
X736255Y137658D01*
X737360Y137361D01*
X738505D01*
X739610Y137658D01*
X740601Y138230D01*
X741410Y139039D01*
X741983Y140030D01*
X742279Y141136D01*
Y142280D01*
X741983Y143386D01*
X741410Y144377D01*
X740601Y145186D01*
X739610Y145758D01*
X738505Y146054D01*
D02*
G37*
G36*
X632032D02*
X630888D01*
X629782Y145758D01*
X628791Y145186D01*
X627982Y144377D01*
X627410Y143386D01*
X627113Y142280D01*
Y141136D01*
X627410Y140030D01*
X627982Y139039D01*
X628791Y138230D01*
X629782Y137658D01*
X630888Y137361D01*
X632032D01*
X633138Y137658D01*
X634129Y138230D01*
X634938Y139039D01*
X635510Y140030D01*
X635806Y141136D01*
Y142280D01*
X635510Y143386D01*
X634938Y144377D01*
X634129Y145186D01*
X633138Y145758D01*
X632032Y146054D01*
D02*
G37*
G36*
X387448Y163250D02*
X386552D01*
X385725Y162908D01*
X385092Y162275D01*
X384750Y161448D01*
Y161138D01*
X384654Y161042D01*
X384268Y160464D01*
X384132Y159781D01*
Y138136D01*
X384268Y137454D01*
X384654Y136875D01*
X387543Y133986D01*
X388122Y133600D01*
X388805Y133464D01*
X393984D01*
X394494Y132579D01*
X395304Y131770D01*
X396295Y131198D01*
X397400Y130902D01*
X398545D01*
X399650Y131198D01*
X400641Y131770D01*
X401450Y132579D01*
X402023Y133570D01*
X402319Y134676D01*
Y135820D01*
X402023Y136926D01*
X401450Y137917D01*
X400641Y138726D01*
X399650Y139298D01*
X398545Y139594D01*
X397400D01*
X396295Y139298D01*
X395792Y139008D01*
X395359Y139258D01*
Y146554D01*
X387700D01*
Y158855D01*
X388275Y159092D01*
X388908Y159725D01*
X389250Y160552D01*
Y161448D01*
X388908Y162275D01*
X388275Y162908D01*
X387448Y163250D01*
D02*
G37*
G36*
X276497Y161500D02*
X275503D01*
X274584Y161119D01*
X273881Y160416D01*
X273500Y159497D01*
Y159023D01*
X270238Y155762D01*
X269851Y155183D01*
X269716Y154500D01*
Y140567D01*
X269851Y139884D01*
X270238Y139305D01*
X275557Y133986D01*
X275557Y133986D01*
X276136Y133600D01*
X276818Y133464D01*
X276818Y133464D01*
X281997D01*
X282508Y132579D01*
X283317Y131770D01*
X284309Y131198D01*
X285414Y130902D01*
X286558D01*
X287664Y131198D01*
X288655Y131770D01*
X289464Y132579D01*
X290037Y133570D01*
X290333Y134676D01*
Y135820D01*
X290037Y136926D01*
X289464Y137917D01*
X288655Y138726D01*
X287664Y139298D01*
X286558Y139594D01*
X285414D01*
X284309Y139298D01*
X283806Y139008D01*
X283373Y139258D01*
Y146554D01*
X274680D01*
Y140563D01*
X274218Y140372D01*
X273284Y141305D01*
Y153761D01*
X276023Y156500D01*
X276497D01*
X277416Y156881D01*
X278119Y157584D01*
X278500Y158503D01*
Y159497D01*
X278119Y160416D01*
X277416Y161119D01*
X276497Y161500D01*
D02*
G37*
G36*
X163997Y163500D02*
X163003D01*
X162084Y163119D01*
X161381Y162416D01*
X161000Y161497D01*
Y161023D01*
X157738Y157762D01*
X157352Y157183D01*
X157216Y156500D01*
Y141080D01*
X157352Y140397D01*
X157738Y139819D01*
X163570Y133986D01*
X164149Y133600D01*
X164832Y133464D01*
X170011D01*
X170522Y132579D01*
X171331Y131770D01*
X172322Y131198D01*
X173428Y130902D01*
X174572D01*
X175678Y131198D01*
X176669Y131770D01*
X177478Y132579D01*
X178050Y133570D01*
X178347Y134676D01*
Y135820D01*
X178050Y136926D01*
X177478Y137917D01*
X176669Y138726D01*
X175678Y139298D01*
X174572Y139594D01*
X173428D01*
X172322Y139298D01*
X171820Y139008D01*
X171387Y139258D01*
Y146554D01*
X162694D01*
Y140563D01*
X162232Y140372D01*
X160784Y141819D01*
Y155761D01*
X163523Y158500D01*
X163997D01*
X164916Y158881D01*
X165619Y159584D01*
X166000Y160503D01*
Y161497D01*
X165619Y162416D01*
X164916Y163119D01*
X163997Y163500D01*
D02*
G37*
G36*
X728359Y146054D02*
X719666D01*
Y137361D01*
X726962D01*
X727212Y136928D01*
X726922Y136426D01*
X726626Y135320D01*
Y134176D01*
X726922Y133070D01*
X727494Y132079D01*
X728304Y131270D01*
X729295Y130698D01*
X730400Y130402D01*
X731545D01*
X732650Y130698D01*
X733641Y131270D01*
X734450Y132079D01*
X735023Y133070D01*
X735319Y134176D01*
Y135320D01*
X735023Y136426D01*
X734450Y137417D01*
X733641Y138226D01*
X732650Y138798D01*
X731545Y139094D01*
X730400D01*
X729295Y138798D01*
X728792Y138508D01*
X728359Y138758D01*
Y146054D01*
D02*
G37*
G36*
X621887D02*
X613194D01*
Y137361D01*
X620490D01*
X620740Y136928D01*
X620450Y136426D01*
X620154Y135320D01*
Y134176D01*
X620450Y133070D01*
X621022Y132079D01*
X621831Y131270D01*
X622822Y130698D01*
X623928Y130402D01*
X625072D01*
X626178Y130698D01*
X627169Y131270D01*
X627978Y132079D01*
X628550Y133070D01*
X628847Y134176D01*
Y135320D01*
X628550Y136426D01*
X627978Y137417D01*
X627169Y138226D01*
X626178Y138798D01*
X625072Y139094D01*
X623928D01*
X622822Y138798D01*
X622320Y138508D01*
X621887Y138758D01*
Y146054D01*
D02*
G37*
G36*
X540621Y141276D02*
X539434D01*
X538269Y141044D01*
X537172Y140590D01*
X536185Y139930D01*
X535346Y139090D01*
X534686Y138103D01*
X534232Y137006D01*
X534000Y135842D01*
Y134654D01*
X534232Y133490D01*
X534686Y132393D01*
X535346Y131406D01*
X536185Y130566D01*
X537172Y129906D01*
X538269Y129452D01*
X539434Y129220D01*
X540621D01*
X541786Y129452D01*
X542883Y129906D01*
X543870Y130566D01*
X544709Y131406D01*
X545369Y132393D01*
X545823Y133490D01*
X546055Y134654D01*
Y135842D01*
X545823Y137006D01*
X545369Y138103D01*
X544709Y139090D01*
X543870Y139930D01*
X542883Y140590D01*
X541786Y141044D01*
X540621Y141276D01*
D02*
G37*
G36*
X481566D02*
X480379D01*
X479214Y141044D01*
X478117Y140590D01*
X477130Y139930D01*
X476291Y139090D01*
X475631Y138103D01*
X475176Y137006D01*
X474945Y135842D01*
Y134654D01*
X475176Y133490D01*
X475631Y132393D01*
X476291Y131406D01*
X477130Y130566D01*
X478117Y129906D01*
X479214Y129452D01*
X480379Y129220D01*
X481566D01*
X482731Y129452D01*
X483828Y129906D01*
X484815Y130566D01*
X485654Y131406D01*
X486314Y132393D01*
X486768Y133490D01*
X487000Y134654D01*
Y135842D01*
X486768Y137006D01*
X486314Y138103D01*
X485654Y139090D01*
X484815Y139930D01*
X483828Y140590D01*
X482731Y141044D01*
X481566Y141276D01*
D02*
G37*
G36*
X428094D02*
X426906D01*
X425742Y141044D01*
X424645Y140590D01*
X423658Y139930D01*
X422818Y139090D01*
X422158Y138103D01*
X421704Y137006D01*
X421472Y135842D01*
Y134654D01*
X421704Y133490D01*
X422158Y132393D01*
X422818Y131406D01*
X423658Y130566D01*
X424645Y129906D01*
X425742Y129452D01*
X426906Y129220D01*
X428094D01*
X429258Y129452D01*
X430355Y129906D01*
X431342Y130566D01*
X432182Y131406D01*
X432842Y132393D01*
X433296Y133490D01*
X433528Y134654D01*
Y135842D01*
X433296Y137006D01*
X432842Y138103D01*
X432182Y139090D01*
X431342Y139930D01*
X430355Y140590D01*
X429258Y141044D01*
X428094Y141276D01*
D02*
G37*
G36*
X369039D02*
X367851D01*
X366687Y141044D01*
X365590Y140590D01*
X364602Y139930D01*
X363763Y139090D01*
X363103Y138103D01*
X362649Y137006D01*
X362417Y135842D01*
Y134654D01*
X362649Y133490D01*
X363103Y132393D01*
X363763Y131406D01*
X364602Y130566D01*
X365590Y129906D01*
X366687Y129452D01*
X367851Y129220D01*
X369039D01*
X370203Y129452D01*
X371300Y129906D01*
X372287Y130566D01*
X373127Y131406D01*
X373786Y132393D01*
X374241Y133490D01*
X374472Y134654D01*
Y135842D01*
X374241Y137006D01*
X373786Y138103D01*
X373127Y139090D01*
X372287Y139930D01*
X371300Y140590D01*
X370203Y141044D01*
X369039Y141276D01*
D02*
G37*
G36*
X316107D02*
X314920D01*
X313756Y141044D01*
X312659Y140590D01*
X311671Y139930D01*
X310832Y139090D01*
X310172Y138103D01*
X309718Y137006D01*
X309486Y135842D01*
Y134654D01*
X309718Y133490D01*
X310172Y132393D01*
X310832Y131406D01*
X311671Y130566D01*
X312659Y129906D01*
X313756Y129452D01*
X314920Y129220D01*
X316107D01*
X317272Y129452D01*
X318369Y129906D01*
X319356Y130566D01*
X320196Y131406D01*
X320855Y132393D01*
X321310Y133490D01*
X321541Y134654D01*
Y135842D01*
X321310Y137006D01*
X320855Y138103D01*
X320196Y139090D01*
X319356Y139930D01*
X318369Y140590D01*
X317272Y141044D01*
X316107Y141276D01*
D02*
G37*
G36*
X257052D02*
X255865D01*
X254700Y141044D01*
X253604Y140590D01*
X252616Y139930D01*
X251777Y139090D01*
X251117Y138103D01*
X250663Y137006D01*
X250431Y135842D01*
Y134654D01*
X250663Y133490D01*
X251117Y132393D01*
X251777Y131406D01*
X252616Y130566D01*
X253604Y129906D01*
X254700Y129452D01*
X255865Y129220D01*
X257052D01*
X258217Y129452D01*
X259314Y129906D01*
X260301Y130566D01*
X261141Y131406D01*
X261800Y132393D01*
X262255Y133490D01*
X262486Y134654D01*
Y135842D01*
X262255Y137006D01*
X261800Y138103D01*
X261141Y139090D01*
X260301Y139930D01*
X259314Y140590D01*
X258217Y141044D01*
X257052Y141276D01*
D02*
G37*
G36*
X204121D02*
X202934D01*
X201769Y141044D01*
X200672Y140590D01*
X199685Y139930D01*
X198846Y139090D01*
X198186Y138103D01*
X197732Y137006D01*
X197500Y135842D01*
Y134654D01*
X197732Y133490D01*
X198186Y132393D01*
X198846Y131406D01*
X199685Y130566D01*
X200672Y129906D01*
X201769Y129452D01*
X202934Y129220D01*
X204121D01*
X205286Y129452D01*
X206383Y129906D01*
X207370Y130566D01*
X208209Y131406D01*
X208869Y132393D01*
X209324Y133490D01*
X209555Y134654D01*
Y135842D01*
X209324Y137006D01*
X208869Y138103D01*
X208209Y139090D01*
X207370Y139930D01*
X206383Y140590D01*
X205286Y141044D01*
X204121Y141276D01*
D02*
G37*
G36*
X145066D02*
X143879D01*
X142714Y141044D01*
X141617Y140590D01*
X140630Y139930D01*
X139790Y139090D01*
X139131Y138103D01*
X138677Y137006D01*
X138445Y135842D01*
Y134654D01*
X138677Y133490D01*
X139131Y132393D01*
X139790Y131406D01*
X140630Y130566D01*
X141617Y129906D01*
X142714Y129452D01*
X143879Y129220D01*
X145066D01*
X146231Y129452D01*
X147328Y129906D01*
X148315Y130566D01*
X149154Y131406D01*
X149814Y132393D01*
X150268Y133490D01*
X150500Y134654D01*
Y135842D01*
X150268Y137006D01*
X149814Y138103D01*
X149154Y139090D01*
X148315Y139930D01*
X147328Y140590D01*
X146231Y141044D01*
X145066Y141276D01*
D02*
G37*
G36*
X702038Y140776D02*
X700851D01*
X699687Y140544D01*
X698590Y140090D01*
X697603Y139430D01*
X696763Y138590D01*
X696103Y137603D01*
X695649Y136506D01*
X695417Y135342D01*
Y134154D01*
X695649Y132990D01*
X696103Y131893D01*
X696763Y130906D01*
X697603Y130066D01*
X698590Y129406D01*
X699687Y128952D01*
X700851Y128720D01*
X702038D01*
X703203Y128952D01*
X704300Y129406D01*
X705287Y130066D01*
X706127Y130906D01*
X706786Y131893D01*
X707241Y132990D01*
X707472Y134154D01*
Y135342D01*
X707241Y136506D01*
X706786Y137603D01*
X706127Y138590D01*
X705287Y139430D01*
X704300Y140090D01*
X703203Y140544D01*
X702038Y140776D01*
D02*
G37*
G36*
X654621D02*
X653434D01*
X652269Y140544D01*
X651172Y140090D01*
X650185Y139430D01*
X649346Y138590D01*
X648686Y137603D01*
X648232Y136506D01*
X648000Y135342D01*
Y134154D01*
X648232Y132990D01*
X648686Y131893D01*
X649346Y130906D01*
X650185Y130066D01*
X651172Y129406D01*
X652269Y128952D01*
X653434Y128720D01*
X654621D01*
X655786Y128952D01*
X656883Y129406D01*
X657870Y130066D01*
X658709Y130906D01*
X659369Y131893D01*
X659824Y132990D01*
X660055Y134154D01*
Y135342D01*
X659824Y136506D01*
X659369Y137603D01*
X658709Y138590D01*
X657870Y139430D01*
X656883Y140090D01*
X655786Y140544D01*
X654621Y140776D01*
D02*
G37*
G36*
X595566D02*
X594379D01*
X593214Y140544D01*
X592117Y140090D01*
X591130Y139430D01*
X590290Y138590D01*
X589631Y137603D01*
X589177Y136506D01*
X588945Y135342D01*
Y134154D01*
X589177Y132990D01*
X589631Y131893D01*
X590290Y130906D01*
X591130Y130066D01*
X592117Y129406D01*
X593214Y128952D01*
X594379Y128720D01*
X595566D01*
X596731Y128952D01*
X597828Y129406D01*
X598815Y130066D01*
X599654Y130906D01*
X600314Y131893D01*
X600768Y132990D01*
X601000Y134154D01*
Y135342D01*
X600768Y136506D01*
X600314Y137603D01*
X599654Y138590D01*
X598815Y139430D01*
X597828Y140090D01*
X596731Y140544D01*
X595566Y140776D01*
D02*
G37*
G36*
X245461Y131500D02*
X244539D01*
X243649Y131262D01*
X242851Y130801D01*
X242199Y130149D01*
X241739Y129351D01*
X241500Y128461D01*
Y127539D01*
X241739Y126649D01*
X242199Y125851D01*
X242851Y125199D01*
X243649Y124739D01*
X244539Y124500D01*
X245461D01*
X246351Y124739D01*
X247149Y125199D01*
X247801Y125851D01*
X248261Y126649D01*
X248500Y127539D01*
Y128461D01*
X248261Y129351D01*
X247801Y130149D01*
X247149Y130801D01*
X246351Y131262D01*
X245461Y131500D01*
D02*
G37*
G36*
X504112Y132635D02*
X502968D01*
X501862Y132338D01*
X500871Y131766D01*
X500062Y130957D01*
X499490Y129966D01*
X499194Y128860D01*
Y127716D01*
X499490Y126611D01*
X500062Y125619D01*
X500871Y124810D01*
X501862Y124238D01*
X502968Y123942D01*
X504112D01*
X505218Y124238D01*
X506209Y124810D01*
X507018Y125619D01*
X507590Y126611D01*
X507887Y127716D01*
Y128860D01*
X507590Y129966D01*
X507018Y130957D01*
X506209Y131766D01*
X505218Y132338D01*
X504112Y132635D01*
D02*
G37*
G36*
X391585D02*
X390440D01*
X389335Y132338D01*
X388344Y131766D01*
X387535Y130957D01*
X386962Y129966D01*
X386666Y128860D01*
Y127716D01*
X386962Y126611D01*
X387535Y125619D01*
X388344Y124810D01*
X389335Y124238D01*
X390440Y123942D01*
X391585D01*
X392690Y124238D01*
X393681Y124810D01*
X394491Y125619D01*
X395063Y126611D01*
X395359Y127716D01*
Y128860D01*
X395063Y129966D01*
X394491Y130957D01*
X393681Y131766D01*
X392690Y132338D01*
X391585Y132635D01*
D02*
G37*
G36*
X279599D02*
X278454D01*
X277349Y132338D01*
X276358Y131766D01*
X275548Y130957D01*
X274976Y129966D01*
X274680Y128860D01*
Y127716D01*
X274976Y126611D01*
X275548Y125619D01*
X276358Y124810D01*
X277349Y124238D01*
X278454Y123942D01*
X279599D01*
X280704Y124238D01*
X281695Y124810D01*
X282504Y125619D01*
X283077Y126611D01*
X283373Y127716D01*
Y128860D01*
X283077Y129966D01*
X282504Y130957D01*
X281695Y131766D01*
X280704Y132338D01*
X279599Y132635D01*
D02*
G37*
G36*
X167612D02*
X166468D01*
X165363Y132338D01*
X164371Y131766D01*
X163562Y130957D01*
X162990Y129966D01*
X162694Y128860D01*
Y127716D01*
X162990Y126611D01*
X163562Y125619D01*
X164371Y124810D01*
X165363Y124238D01*
X166468Y123942D01*
X167612D01*
X168718Y124238D01*
X169709Y124810D01*
X170518Y125619D01*
X171090Y126611D01*
X171387Y127716D01*
Y128860D01*
X171090Y129966D01*
X170518Y130957D01*
X169709Y131766D01*
X168718Y132338D01*
X167612Y132635D01*
D02*
G37*
G36*
X724585Y132135D02*
X723440D01*
X722335Y131838D01*
X721344Y131266D01*
X720535Y130457D01*
X719962Y129466D01*
X719666Y128360D01*
Y127216D01*
X719962Y126110D01*
X720535Y125119D01*
X721344Y124310D01*
X722335Y123738D01*
X723440Y123442D01*
X724585D01*
X725690Y123738D01*
X726681Y124310D01*
X727491Y125119D01*
X728063Y126110D01*
X728359Y127216D01*
Y128360D01*
X728063Y129466D01*
X727491Y130457D01*
X726681Y131266D01*
X725690Y131838D01*
X724585Y132135D01*
D02*
G37*
G36*
X618112D02*
X616968D01*
X615863Y131838D01*
X614871Y131266D01*
X614062Y130457D01*
X613490Y129466D01*
X613194Y128360D01*
Y127216D01*
X613490Y126110D01*
X614062Y125119D01*
X614871Y124310D01*
X615863Y123738D01*
X616968Y123442D01*
X618112D01*
X619218Y123738D01*
X620209Y124310D01*
X621018Y125119D01*
X621590Y126110D01*
X621887Y127216D01*
Y128360D01*
X621590Y129466D01*
X621018Y130457D01*
X620209Y131266D01*
X619218Y131838D01*
X618112Y132135D01*
D02*
G37*
G36*
X463997Y127000D02*
X463003D01*
X462084Y126619D01*
X461381Y125916D01*
X461000Y124997D01*
Y124003D01*
X461381Y123084D01*
X462084Y122381D01*
X463003Y122000D01*
X463997D01*
X464916Y122381D01*
X465619Y123084D01*
X466000Y124003D01*
Y124997D01*
X465619Y125916D01*
X464916Y126619D01*
X463997Y127000D01*
D02*
G37*
G36*
X664997Y126500D02*
X664003D01*
X663084Y126119D01*
X662381Y125416D01*
X662000Y124497D01*
Y123503D01*
X662381Y122584D01*
X663084Y121881D01*
X664003Y121500D01*
X664997D01*
X665916Y121881D01*
X666619Y122584D01*
X667000Y123503D01*
Y124497D01*
X666619Y125416D01*
X665916Y126119D01*
X664997Y126500D01*
D02*
G37*
G36*
X540718Y126512D02*
X539337D01*
X537982Y126242D01*
X536706Y125714D01*
X535558Y124946D01*
X534581Y123970D01*
X533814Y122821D01*
X533285Y121545D01*
X533016Y120191D01*
Y118809D01*
X533285Y117455D01*
X533814Y116179D01*
X534581Y115030D01*
X535558Y114054D01*
X536706Y113286D01*
X537982Y112758D01*
X539337Y112488D01*
X540718D01*
X542073Y112758D01*
X543349Y113286D01*
X544497Y114054D01*
X545474Y115030D01*
X546241Y116179D01*
X546770Y117455D01*
X547039Y118809D01*
Y120191D01*
X546770Y121545D01*
X546241Y122821D01*
X545474Y123970D01*
X544497Y124946D01*
X543349Y125714D01*
X542073Y126242D01*
X540718Y126512D01*
D02*
G37*
G36*
X481663D02*
X480282D01*
X478927Y126242D01*
X477651Y125714D01*
X476503Y124946D01*
X475526Y123970D01*
X474759Y122821D01*
X474230Y121545D01*
X473961Y120191D01*
Y118809D01*
X474230Y117455D01*
X474759Y116179D01*
X475526Y115030D01*
X476503Y114054D01*
X477651Y113286D01*
X478927Y112758D01*
X480282Y112488D01*
X481663D01*
X483018Y112758D01*
X484294Y113286D01*
X485442Y114054D01*
X486419Y115030D01*
X487186Y116179D01*
X487715Y117455D01*
X487984Y118809D01*
Y120191D01*
X487715Y121545D01*
X487186Y122821D01*
X486419Y123970D01*
X485442Y124946D01*
X484294Y125714D01*
X483018Y126242D01*
X481663Y126512D01*
D02*
G37*
G36*
X428191D02*
X426809D01*
X425455Y126242D01*
X424179Y125714D01*
X423030Y124946D01*
X422054Y123970D01*
X421286Y122821D01*
X420758Y121545D01*
X420488Y120191D01*
Y118809D01*
X420758Y117455D01*
X421286Y116179D01*
X422054Y115030D01*
X423030Y114054D01*
X424179Y113286D01*
X425455Y112758D01*
X426809Y112488D01*
X428191D01*
X429545Y112758D01*
X430821Y113286D01*
X431970Y114054D01*
X432946Y115030D01*
X433714Y116179D01*
X434242Y117455D01*
X434512Y118809D01*
Y120191D01*
X434242Y121545D01*
X433714Y122821D01*
X432946Y123970D01*
X431970Y124946D01*
X430821Y125714D01*
X429545Y126242D01*
X428191Y126512D01*
D02*
G37*
G36*
X369135D02*
X367754D01*
X366400Y126242D01*
X365124Y125714D01*
X363975Y124946D01*
X362999Y123970D01*
X362231Y122821D01*
X361702Y121545D01*
X361433Y120191D01*
Y118809D01*
X361702Y117455D01*
X362231Y116179D01*
X362999Y115030D01*
X363975Y114054D01*
X365124Y113286D01*
X366400Y112758D01*
X367754Y112488D01*
X369135D01*
X370490Y112758D01*
X371766Y113286D01*
X372915Y114054D01*
X373891Y115030D01*
X374659Y116179D01*
X375187Y117455D01*
X375457Y118809D01*
Y120191D01*
X375187Y121545D01*
X374659Y122821D01*
X373891Y123970D01*
X372915Y124946D01*
X371766Y125714D01*
X370490Y126242D01*
X369135Y126512D01*
D02*
G37*
G36*
X316204D02*
X314823D01*
X313469Y126242D01*
X312192Y125714D01*
X311044Y124946D01*
X310067Y123970D01*
X309300Y122821D01*
X308771Y121545D01*
X308502Y120191D01*
Y118809D01*
X308771Y117455D01*
X309300Y116179D01*
X310067Y115030D01*
X311044Y114054D01*
X312192Y113286D01*
X313469Y112758D01*
X314823Y112488D01*
X316204D01*
X317559Y112758D01*
X318835Y113286D01*
X319984Y114054D01*
X320960Y115030D01*
X321728Y116179D01*
X322256Y117455D01*
X322526Y118809D01*
Y120191D01*
X322256Y121545D01*
X321728Y122821D01*
X320960Y123970D01*
X319984Y124946D01*
X318835Y125714D01*
X317559Y126242D01*
X316204Y126512D01*
D02*
G37*
G36*
X257149D02*
X255768D01*
X254413Y126242D01*
X253137Y125714D01*
X251989Y124946D01*
X251012Y123970D01*
X250245Y122821D01*
X249716Y121545D01*
X249447Y120191D01*
Y118809D01*
X249716Y117455D01*
X250245Y116179D01*
X251012Y115030D01*
X251989Y114054D01*
X253137Y113286D01*
X254413Y112758D01*
X255768Y112488D01*
X257149D01*
X258504Y112758D01*
X259780Y113286D01*
X260928Y114054D01*
X261905Y115030D01*
X262672Y116179D01*
X263201Y117455D01*
X263471Y118809D01*
Y120191D01*
X263201Y121545D01*
X262672Y122821D01*
X261905Y123970D01*
X260928Y124946D01*
X259780Y125714D01*
X258504Y126242D01*
X257149Y126512D01*
D02*
G37*
G36*
X204218D02*
X202837D01*
X201482Y126242D01*
X200206Y125714D01*
X199058Y124946D01*
X198081Y123970D01*
X197314Y122821D01*
X196785Y121545D01*
X196516Y120191D01*
Y118809D01*
X196785Y117455D01*
X197314Y116179D01*
X198081Y115030D01*
X199058Y114054D01*
X200206Y113286D01*
X201482Y112758D01*
X202837Y112488D01*
X204218D01*
X205573Y112758D01*
X206849Y113286D01*
X207997Y114054D01*
X208974Y115030D01*
X209741Y116179D01*
X210270Y117455D01*
X210539Y118809D01*
Y120191D01*
X210270Y121545D01*
X209741Y122821D01*
X208974Y123970D01*
X207997Y124946D01*
X206849Y125714D01*
X205573Y126242D01*
X204218Y126512D01*
D02*
G37*
G36*
X145163D02*
X143782D01*
X142427Y126242D01*
X141151Y125714D01*
X140003Y124946D01*
X139026Y123970D01*
X138259Y122821D01*
X137730Y121545D01*
X137461Y120191D01*
Y118809D01*
X137730Y117455D01*
X138259Y116179D01*
X139026Y115030D01*
X140003Y114054D01*
X141151Y113286D01*
X142427Y112758D01*
X143782Y112488D01*
X145163D01*
X146518Y112758D01*
X147794Y113286D01*
X148942Y114054D01*
X149919Y115030D01*
X150686Y116179D01*
X151215Y117455D01*
X151484Y118809D01*
Y120191D01*
X151215Y121545D01*
X150686Y122821D01*
X149919Y123970D01*
X148942Y124946D01*
X147794Y125714D01*
X146518Y126242D01*
X145163Y126512D01*
D02*
G37*
G36*
X702136Y126012D02*
X700754D01*
X699400Y125742D01*
X698124Y125214D01*
X696975Y124446D01*
X695998Y123470D01*
X695231Y122321D01*
X694702Y121045D01*
X694433Y119691D01*
Y118309D01*
X694702Y116955D01*
X695231Y115679D01*
X695998Y114530D01*
X696975Y113554D01*
X698124Y112786D01*
X699400Y112258D01*
X700754Y111988D01*
X702136D01*
X703490Y112258D01*
X704766Y112786D01*
X705915Y113554D01*
X706891Y114530D01*
X707659Y115679D01*
X708187Y116955D01*
X708457Y118309D01*
Y119691D01*
X708187Y121045D01*
X707659Y122321D01*
X706891Y123470D01*
X705915Y124446D01*
X704766Y125214D01*
X703490Y125742D01*
X702136Y126012D01*
D02*
G37*
G36*
X654718D02*
X653337D01*
X651982Y125742D01*
X650706Y125214D01*
X649558Y124446D01*
X648581Y123470D01*
X647814Y122321D01*
X647285Y121045D01*
X647016Y119691D01*
Y118309D01*
X647285Y116955D01*
X647814Y115679D01*
X648581Y114530D01*
X649558Y113554D01*
X650706Y112786D01*
X651982Y112258D01*
X653337Y111988D01*
X654718D01*
X656073Y112258D01*
X657349Y112786D01*
X658497Y113554D01*
X659474Y114530D01*
X660241Y115679D01*
X660770Y116955D01*
X661039Y118309D01*
Y119691D01*
X660770Y121045D01*
X660241Y122321D01*
X659474Y123470D01*
X658497Y124446D01*
X657349Y125214D01*
X656073Y125742D01*
X654718Y126012D01*
D02*
G37*
G36*
X595663D02*
X594282D01*
X592927Y125742D01*
X591651Y125214D01*
X590503Y124446D01*
X589526Y123470D01*
X588759Y122321D01*
X588230Y121045D01*
X587961Y119691D01*
Y118309D01*
X588230Y116955D01*
X588759Y115679D01*
X589526Y114530D01*
X590503Y113554D01*
X591651Y112786D01*
X592927Y112258D01*
X594282Y111988D01*
X595663D01*
X597018Y112258D01*
X598294Y112786D01*
X599442Y113554D01*
X600419Y114530D01*
X601186Y115679D01*
X601715Y116955D01*
X601984Y118309D01*
Y119691D01*
X601715Y121045D01*
X601186Y122321D01*
X600419Y123470D01*
X599442Y124446D01*
X598294Y125214D01*
X597018Y125742D01*
X595663Y126012D01*
D02*
G37*
%LPD*%
D17*
X563800Y142500D02*
X578865D01*
X553600Y152700D02*
X563800Y142500D01*
X539000Y148100D02*
X553700Y162800D01*
X509432Y148100D02*
X539000D01*
X503540Y142208D02*
X509432Y148100D01*
D19*
X382944Y317544D02*
X383500Y318100D01*
X382944Y310144D02*
Y317544D01*
X375500Y302700D02*
X382944Y310144D01*
D20*
X261187Y404002D02*
Y404165D01*
X267589Y397600D02*
X276400D01*
X260620Y404732D02*
Y405154D01*
Y404732D02*
X261187Y404165D01*
Y404002D02*
X267589Y397600D01*
X232936Y415236D02*
X246397D01*
X229100Y411400D02*
X232936Y415236D01*
X246397D02*
X250013Y411620D01*
Y411457D02*
Y411620D01*
X250580Y410468D02*
Y410890D01*
X250013Y411457D02*
X250580Y410890D01*
X666500Y287000D02*
X671425Y291925D01*
Y311425D01*
X676000Y316000D02*
Y322000D01*
X671425Y311425D02*
X676000Y316000D01*
D22*
X159000Y156500D02*
X163500Y161000D01*
X667500Y230000D02*
X686500D01*
X657000Y240500D02*
X667500Y230000D01*
X657000Y240500D02*
Y259000D01*
X271500Y154500D02*
X276000Y159000D01*
X276818Y135248D02*
X285986D01*
X271500Y140567D02*
X276818Y135248D01*
X271500Y140567D02*
Y154500D01*
X385916Y159781D02*
X387000Y160865D01*
Y161000D01*
X388805Y135248D02*
X397972D01*
X385916Y138136D02*
Y159781D01*
Y138136D02*
X388805Y135248D01*
X159000Y141080D02*
X164832Y135248D01*
X174000D01*
X159000Y141080D02*
Y156500D01*
D25*
X526600Y171400D02*
X559000Y203800D01*
X500500Y171400D02*
X526600D01*
X550161Y183161D02*
Y192698D01*
X562600Y205137D02*
Y224600D01*
X536700Y169700D02*
X550161Y183161D01*
Y192698D02*
X562600Y205137D01*
X529300Y257900D02*
Y276500D01*
X525300Y280500D02*
X529300Y276500D01*
Y257900D02*
X562600Y224600D01*
X525000Y257400D02*
X559000Y223400D01*
Y203800D02*
Y223400D01*
X525000Y257400D02*
Y276000D01*
X376000Y217500D02*
Y222500D01*
X378600Y225100D02*
Y231700D01*
X376000Y222500D02*
X378600Y225100D01*
X351500Y212500D02*
Y216600D01*
X358400Y223500D02*
Y229900D01*
X351500Y216600D02*
X358400Y223500D01*
X182000Y214000D02*
X186500Y218500D01*
X545939Y269147D02*
X546995Y268092D01*
X590513Y270000D02*
X591000D01*
X546995Y268092D02*
X588605D01*
X590513Y270000D01*
X550987Y261000D02*
X551987Y260000D01*
X550500Y261000D02*
X550987D01*
X551987Y260000D02*
X578500D01*
X709000Y343000D02*
X713000Y347000D01*
X666000Y343000D02*
X709000D01*
X593500Y318000D02*
X641000D01*
X666000Y343000D01*
X631500Y323000D02*
X655500Y347000D01*
X598000Y323000D02*
X631500D01*
X637500Y226500D02*
Y252500D01*
X626500Y215500D02*
X637500Y226500D01*
X550500Y281000D02*
X609000D01*
X629000Y261000D01*
X637500Y252500D01*
X415500Y360500D02*
Y367000D01*
Y360500D02*
X501500Y274500D01*
X578500Y260000D02*
X582000Y256500D01*
X505500Y215500D02*
X531500Y189500D01*
X505500Y215500D02*
Y228500D01*
X504000Y233500D02*
Y237677D01*
X435900Y165400D02*
X504000Y233500D01*
X419060Y165400D02*
X435900D01*
X500900Y239800D02*
X501500Y240400D01*
X500900Y236500D02*
Y239800D01*
X501500Y240400D02*
Y247000D01*
X504000Y237677D02*
X505000Y238677D01*
X491900Y240400D02*
Y240500D01*
X495000Y232000D02*
Y249513D01*
X453500Y202000D02*
X491900Y240400D01*
X495000Y249513D02*
X497000Y251513D01*
Y252000D01*
X623000Y271500D02*
X631013D01*
X589500Y327000D02*
X604500Y342000D01*
Y348500D01*
X633013Y269500D02*
X633500D01*
X631013Y271500D02*
X633013Y269500D01*
X619500Y276000D02*
X632013D01*
X633513Y274500D01*
X634000D01*
X535500D02*
X554616D01*
X554716Y274400D01*
X400500Y188000D02*
X414500Y202000D01*
X453500D01*
X318500Y196000D02*
X323000D01*
X331000Y204000D01*
X320500Y225000D02*
X331000Y214500D01*
Y204000D02*
Y214500D01*
X286000Y218500D02*
Y229000D01*
X291000Y234000D01*
X193000Y164500D02*
X238000D01*
X280000Y206500D01*
X602600Y274400D02*
X608500Y268500D01*
X556000Y277500D02*
X605000D01*
X554716Y274400D02*
X602600D01*
X605000Y277500D02*
X628000Y254500D01*
X537000Y269147D02*
X545939D01*
X501500Y247000D02*
X505500Y251000D01*
X505000Y238677D02*
Y246000D01*
X512500Y253500D01*
X525000Y236500D02*
X540500Y221000D01*
Y196000D02*
Y221000D01*
X522000Y236500D02*
X525000D01*
Y217000D02*
Y231000D01*
X404000Y206603D02*
Y212500D01*
X404156Y205344D02*
X404500Y205000D01*
X404000Y206603D02*
X404156Y206447D01*
Y205344D02*
Y206447D01*
X399327Y217000D02*
X405000D01*
X392500Y217500D02*
Y227000D01*
X385748Y217500D02*
X388848Y214400D01*
X396727D01*
X399327Y217000D01*
X351500Y212500D02*
X404000D01*
X459500D01*
X487000Y240000D01*
X376000Y217500D02*
X385748D01*
X319500Y200000D02*
X327000Y207500D01*
X290530Y186530D02*
X304000Y200000D01*
X319500D01*
X293000Y203500D02*
Y211900D01*
X273000Y215000D02*
X294500D01*
X307307Y212500D02*
X321500D01*
X293000Y211900D02*
X306707D01*
X307307Y212500D01*
X270100Y211900D02*
X293000D01*
X263500Y218500D02*
X270100Y211900D01*
X186500Y218500D02*
X263500D01*
X314500Y225500D02*
X327000Y213000D01*
Y207500D02*
Y213000D01*
X520500Y212500D02*
X525000Y217000D01*
X599500Y290000D02*
X653500D01*
X666500Y277000D01*
X628000Y222000D02*
Y254500D01*
X417160Y163500D02*
X419060Y165400D01*
X417000Y163500D02*
X417160D01*
X487000Y240000D02*
Y246000D01*
X312400Y163400D02*
X332500Y183500D01*
X306560Y163400D02*
X312400D01*
X304660Y161500D02*
X306560Y163400D01*
X304500Y161500D02*
X304660D01*
X289000Y186500D02*
X289030Y186530D01*
X290530D01*
X280500Y218500D02*
Y233000D01*
X287000Y239500D01*
X510500Y349500D02*
X523500Y336500D01*
Y324500D02*
Y336500D01*
X528000Y324000D02*
X551847Y347847D01*
Y348347D01*
X552000Y348500D01*
D118*
X666500Y267000D02*
D03*
X676500Y257000D02*
D03*
X666500Y287000D02*
D03*
Y247000D02*
D03*
Y297000D02*
D03*
X676500Y267000D02*
D03*
Y277000D02*
D03*
Y287000D02*
D03*
Y297000D02*
D03*
X666500Y257000D02*
D03*
Y277000D02*
D03*
D120*
X272628Y409012D02*
D03*
X238572D02*
D03*
D121*
X272628Y422319D02*
D03*
X238572D02*
D03*
D122*
X267313Y410468D02*
D03*
Y405154D02*
D03*
X243887Y410468D02*
D03*
Y405154D02*
D03*
X263966D02*
D03*
X260620D02*
D03*
X257273D02*
D03*
X253927D02*
D03*
X250580D02*
D03*
X247234D02*
D03*
Y410468D02*
D03*
X250580D02*
D03*
X253927D02*
D03*
X257273D02*
D03*
X260620D02*
D03*
X263966D02*
D03*
D136*
X676500Y247000D02*
D03*
D142*
X572700Y172800D02*
X607500Y138000D01*
X553700Y172800D02*
X572700D01*
X759500Y409500D02*
X784000Y385000D01*
X493400Y407500D02*
X493600Y407700D01*
X607500Y119000D02*
Y138000D01*
Y119000D02*
X619500Y107000D01*
X490700Y422600D02*
X493600Y419700D01*
X252900Y306600D02*
Y314400D01*
Y321500D01*
Y376400D01*
X269400Y392900D01*
X278400D02*
X308100Y422600D01*
X269400Y392900D02*
X278400D01*
X308100Y422600D02*
X490700D01*
X619500Y107000D02*
X738800D01*
X493600Y407700D02*
Y419700D01*
X738800Y107000D02*
X750100Y118300D01*
Y136900D01*
X784000Y170800D02*
Y182600D01*
X750100Y136900D02*
X784000Y170800D01*
Y385000D01*
D143*
X257125Y410321D02*
X257273Y410468D01*
X257125Y408537D02*
Y410321D01*
X253927Y405338D02*
X257125Y408537D01*
X253927Y405154D02*
Y405338D01*
X251800Y395400D02*
X253927Y397527D01*
Y405154D01*
X563529Y341565D02*
X566033Y339061D01*
Y303169D02*
Y339061D01*
X563168Y341565D02*
X563529D01*
X565000Y302000D02*
Y302136D01*
X566033Y303169D01*
X562000Y340533D02*
X562136D01*
X563168Y341565D01*
X566967Y303169D02*
Y339448D01*
Y303169D02*
X568000Y302136D01*
X563916Y342500D02*
X566967Y339448D01*
X568000Y302000D02*
Y302136D01*
X562136Y343533D02*
X563168Y342500D01*
X563916D01*
X562000Y343533D02*
X562136D01*
D144*
X284100Y382800D02*
X287000Y379900D01*
X283000Y382800D02*
X284100D01*
X282100Y383700D02*
X283000Y382800D01*
X276900Y384300D02*
X277500Y383700D01*
X282100D01*
X657000Y296500D02*
X666500Y287000D01*
X594000Y296500D02*
X657000D01*
X502500Y281500D02*
X506300Y285300D01*
X582800D01*
X594000Y296500D01*
X281600Y343400D02*
X288600Y350400D01*
Y366100D01*
X279000Y375700D02*
X288600Y366100D01*
X278800Y375700D02*
X279000D01*
X287000Y379900D02*
X351400D01*
X368900Y397400D01*
X495700D01*
X676500Y247000D02*
X717900D01*
X765600Y294700D01*
Y383000D01*
X740200Y408400D02*
X765600Y383000D01*
X506700Y408400D02*
X740200D01*
X495700Y397400D02*
X506700Y408400D01*
X706000Y267000D02*
X713700Y259300D01*
X676500Y267000D02*
X706000D01*
X660800Y242000D02*
Y251300D01*
Y242000D02*
X667800Y235000D01*
X660800Y251300D02*
X666500Y257000D01*
X667800Y235000D02*
X686500D01*
X578700Y288700D02*
X592000Y302000D01*
X517571Y288700D02*
X578700D01*
X516500Y289500D02*
X516771D01*
X517571Y288700D01*
X618400Y211000D02*
X746000D01*
X572500Y256900D02*
X618400Y211000D01*
X666500Y297000D02*
Y322500D01*
X592000Y302000D02*
X661500D01*
X666500Y297000D01*
X589922Y230578D02*
X613000Y207500D01*
X589922Y230578D02*
Y231078D01*
X566500Y254500D02*
X589922Y231078D01*
X613000Y207500D02*
X633500D01*
X610500Y286000D02*
X637500D01*
X666500Y257000D01*
X636500Y202500D02*
Y204500D01*
X633500Y207500D02*
X636500Y204500D01*
D145*
X579000Y142500D02*
Y154500D01*
Y130500D02*
Y142500D01*
Y124500D02*
Y130500D01*
X561000Y106500D02*
X579000Y124500D01*
X340000Y123500D02*
Y213000D01*
X313800Y239200D02*
X340000Y213000D01*
Y123500D02*
X357000Y106500D01*
X561000D01*
X312000Y310500D02*
X313800Y308700D01*
Y239200D02*
Y308700D01*
D147*
X553700Y172800D02*
D03*
Y152800D02*
D03*
Y162800D02*
D03*
D148*
X192400Y330000D02*
D03*
X690600Y329100D02*
D03*
X371000Y336200D02*
D03*
X208600Y330000D02*
D03*
X383500Y318100D02*
D03*
X343800Y336200D02*
D03*
X287300Y390000D02*
D03*
X281800Y252200D02*
D03*
D149*
X737932Y127788D02*
D03*
X730972Y119000D02*
D03*
X631460Y127788D02*
D03*
X624500Y119000D02*
D03*
X517460Y128288D02*
D03*
X510500Y119500D02*
D03*
X404932Y128288D02*
D03*
X397972Y119500D02*
D03*
X292946Y128288D02*
D03*
X285986Y119500D02*
D03*
X180960Y128288D02*
D03*
X174000Y119500D02*
D03*
X517460Y142208D02*
D03*
X510500Y135248D02*
D03*
X503540Y128288D02*
D03*
X624500Y134748D02*
D03*
X617540Y127788D02*
D03*
X631460Y141708D02*
D03*
X285986Y135248D02*
D03*
X292946Y142208D02*
D03*
X397972Y135248D02*
D03*
X404932Y142208D02*
D03*
X174000Y135248D02*
D03*
X180960Y142208D02*
D03*
X730972Y134748D02*
D03*
X724013Y127788D02*
D03*
X737932Y141708D02*
D03*
X391013Y128288D02*
D03*
X279026D02*
D03*
X167040D02*
D03*
D150*
X177654Y373492D02*
D03*
X189465D02*
D03*
Y361681D02*
D03*
X154032D02*
D03*
X165842D02*
D03*
X177654D02*
D03*
X165842Y373492D02*
D03*
D151*
X131063Y321700D02*
D03*
D152*
X154032Y373492D02*
D03*
D153*
X181000Y390500D02*
D03*
X162496D02*
D03*
D154*
X467961Y384500D02*
D03*
D155*
X670539Y394500D02*
D03*
X725579D02*
D03*
X618000Y395000D02*
D03*
X566309Y394500D02*
D03*
X513270Y395000D02*
D03*
D156*
X680382Y394500D02*
D03*
X627843Y395000D02*
D03*
X576152Y394500D02*
D03*
X523112Y395000D02*
D03*
X735421Y394500D02*
D03*
D157*
X553700Y182800D02*
D03*
D158*
X540028Y119500D02*
D03*
X480972D02*
D03*
X654028Y119000D02*
D03*
X594972D02*
D03*
X701445D02*
D03*
X760500D02*
D03*
X368445Y119500D02*
D03*
X427500D02*
D03*
X256459D02*
D03*
X315514D02*
D03*
X144472D02*
D03*
X203528D02*
D03*
D159*
X540028Y135248D02*
D03*
X480972D02*
D03*
X654028Y134748D02*
D03*
X594972D02*
D03*
X701445D02*
D03*
X760500D02*
D03*
X368445Y135248D02*
D03*
X427500D02*
D03*
X256459D02*
D03*
X315514D02*
D03*
X144472D02*
D03*
X203528D02*
D03*
D160*
X503540Y142208D02*
D03*
X617540Y141708D02*
D03*
X724013D02*
D03*
X391013Y142208D02*
D03*
X279026D02*
D03*
X167040D02*
D03*
D161*
X138937Y321700D02*
D03*
D162*
X438039Y384500D02*
D03*
D163*
X759500Y409500D02*
D03*
X171400Y253400D02*
D03*
X710000Y176500D02*
D03*
X600500Y174500D02*
D03*
X419000Y176500D02*
D03*
X419500Y169500D02*
D03*
X329000Y329000D02*
D03*
X350500Y315500D02*
D03*
Y310500D02*
D03*
Y305500D02*
D03*
X278200Y358400D02*
D03*
X272800Y341000D02*
D03*
X350500Y300500D02*
D03*
X368500Y297500D02*
D03*
X350500Y295000D02*
D03*
X350700Y286400D02*
D03*
X302000Y294200D02*
D03*
Y299200D02*
D03*
Y289200D02*
D03*
X121000Y397000D02*
D03*
X229000Y394500D02*
D03*
X246500Y360100D02*
D03*
X238500Y360000D02*
D03*
X268900Y316500D02*
D03*
X163800Y305600D02*
D03*
X119100Y301900D02*
D03*
X126600Y290500D02*
D03*
X394500Y199500D02*
D03*
X387000Y197500D02*
D03*
X302000Y284200D02*
D03*
X283000Y197500D02*
D03*
X381000Y177000D02*
D03*
X390500Y165500D02*
D03*
X307500Y174500D02*
D03*
X308000Y167500D02*
D03*
X279000Y163500D02*
D03*
X215800Y254500D02*
D03*
X177700Y285200D02*
D03*
X238300Y254400D02*
D03*
X275500Y195500D02*
D03*
X124600Y281900D02*
D03*
X124200Y272700D02*
D03*
X170500Y199500D02*
D03*
X163000Y197500D02*
D03*
X160500Y242800D02*
D03*
X269500Y175000D02*
D03*
X221000Y129000D02*
D03*
X195000Y176500D02*
D03*
X157000Y177000D02*
D03*
X195500Y169500D02*
D03*
X166500Y165500D02*
D03*
X197500Y195500D02*
D03*
X184979Y164927D02*
D03*
X166500Y175500D02*
D03*
X421500Y195500D02*
D03*
X375500Y302700D02*
D03*
X362500Y294000D02*
D03*
X413500Y188500D02*
D03*
X309000Y193500D02*
D03*
X390500Y175500D02*
D03*
X408979Y164927D02*
D03*
X297479Y162927D02*
D03*
X279000Y173500D02*
D03*
X245000Y128000D02*
D03*
X276900Y384300D02*
D03*
X719500Y176500D02*
D03*
X610000Y174500D02*
D03*
X226500Y369500D02*
D03*
D164*
X493500Y416400D02*
D03*
X493400Y411900D02*
D03*
Y407500D02*
D03*
X252900Y314400D02*
D03*
Y321500D02*
D03*
Y306600D02*
D03*
X611500Y249000D02*
D03*
X423500Y374500D02*
D03*
X763500Y201500D02*
D03*
X710000Y204000D02*
D03*
X710500Y188500D02*
D03*
X654000Y199500D02*
D03*
X600500Y202000D02*
D03*
X601000Y186500D02*
D03*
X764500Y169000D02*
D03*
X758000D02*
D03*
X655000Y167000D02*
D03*
X649500Y166500D02*
D03*
X239500Y322100D02*
D03*
X189000Y188500D02*
D03*
X644200Y239500D02*
D03*
X606300Y239300D02*
D03*
D165*
X683500Y354000D02*
D03*
X631500Y354500D02*
D03*
X578500Y355000D02*
D03*
X527000Y355500D02*
D03*
X740000Y353500D02*
D03*
X670000Y315500D02*
D03*
X556600Y264900D02*
D03*
X540800Y298200D02*
D03*
X494900Y311400D02*
D03*
X468800Y290700D02*
D03*
X440400Y288400D02*
D03*
X476029Y279435D02*
D03*
X483748Y257751D02*
D03*
X454200Y270700D02*
D03*
X454400Y265200D02*
D03*
X709500Y235000D02*
D03*
X540500Y236500D02*
D03*
X756500Y159500D02*
D03*
X690000Y124500D02*
D03*
X647000Y157500D02*
D03*
X520500Y229500D02*
D03*
X523500Y203000D02*
D03*
X515500Y200500D02*
D03*
X455900Y236000D02*
D03*
X510600Y233000D02*
D03*
X523500Y191000D02*
D03*
X513800Y168000D02*
D03*
X508500Y189500D02*
D03*
X537100Y153900D02*
D03*
X491200Y152900D02*
D03*
X439000Y126500D02*
D03*
X305000Y406000D02*
D03*
X284000Y410000D02*
D03*
X329000Y286500D02*
D03*
X263700Y377700D02*
D03*
X234300Y390000D02*
D03*
X209500Y370000D02*
D03*
X413900Y283300D02*
D03*
X408500Y267700D02*
D03*
X330100Y275200D02*
D03*
X306500Y276500D02*
D03*
X306000Y266000D02*
D03*
X279467Y270500D02*
D03*
X278439Y263797D02*
D03*
X500500Y171400D02*
D03*
X536700Y169700D02*
D03*
X525300Y280500D02*
D03*
X276400Y397600D02*
D03*
X229100Y411400D02*
D03*
X525000Y276000D02*
D03*
X182000Y214000D02*
D03*
X201500Y206500D02*
D03*
X193000Y164500D02*
D03*
X163500Y161000D02*
D03*
X749500Y343300D02*
D03*
X671500Y337500D02*
D03*
X556600Y271200D02*
D03*
X612000Y264000D02*
D03*
X551200Y248400D02*
D03*
X535500Y303000D02*
D03*
X498000Y287500D02*
D03*
X693000Y232500D02*
D03*
X517500D02*
D03*
X514000Y235500D02*
D03*
X531000Y204500D02*
D03*
X492900Y296700D02*
D03*
X444100Y276100D02*
D03*
X431800Y276000D02*
D03*
X419700Y275600D02*
D03*
X484994Y253623D02*
D03*
X427500Y206500D02*
D03*
X330500Y291000D02*
D03*
Y281500D02*
D03*
X315500Y205000D02*
D03*
X302000Y186000D02*
D03*
X463500Y124500D02*
D03*
X550500Y261000D02*
D03*
X378600Y231700D02*
D03*
X676000Y322000D02*
D03*
X502500Y281500D02*
D03*
X281600Y343400D02*
D03*
X278800Y375700D02*
D03*
X251800Y395400D02*
D03*
X250600Y390600D02*
D03*
X731000Y203500D02*
D03*
X621500Y201500D02*
D03*
X579000Y130500D02*
D03*
X664500Y124000D02*
D03*
X579000Y154500D02*
D03*
Y142500D02*
D03*
X321500Y327500D02*
D03*
X322500Y323000D02*
D03*
X317000D02*
D03*
X312000Y321000D02*
D03*
Y315500D02*
D03*
X307000Y321000D02*
D03*
X312000Y310500D02*
D03*
X713000Y347000D02*
D03*
X593500Y318000D02*
D03*
X655500Y347000D02*
D03*
X598000Y323000D02*
D03*
X626500Y215500D02*
D03*
X629000Y261000D02*
D03*
X550500Y281000D02*
D03*
X713700Y259300D02*
D03*
X358400Y229900D02*
D03*
X628000Y254500D02*
D03*
X572500Y256900D02*
D03*
X505500Y228500D02*
D03*
X500900Y236500D02*
D03*
X495000Y232000D02*
D03*
X491900Y240500D02*
D03*
X623000Y271500D02*
D03*
X501500Y274500D02*
D03*
X589500Y327000D02*
D03*
X619500Y276000D02*
D03*
X535500Y274500D02*
D03*
X666500Y322500D02*
D03*
X516500Y289500D02*
D03*
X400500Y188000D02*
D03*
X318500Y196000D02*
D03*
X320500Y225000D02*
D03*
X286000Y218500D02*
D03*
X291000Y234000D02*
D03*
X280000Y206500D02*
D03*
X556000Y277500D02*
D03*
X566500Y254500D02*
D03*
X537000Y269147D02*
D03*
X497000Y252000D02*
D03*
X505500Y251000D02*
D03*
X512500Y253500D02*
D03*
X525000Y231000D02*
D03*
X522000Y236500D02*
D03*
X487000Y246000D02*
D03*
X405000Y217000D02*
D03*
X404500Y205000D02*
D03*
X392500Y217500D02*
D03*
X376000D02*
D03*
X293000Y203500D02*
D03*
X294500Y215000D02*
D03*
X273000D02*
D03*
X280500Y218500D02*
D03*
X287000Y239500D02*
D03*
X520500Y212500D02*
D03*
X531500Y189500D02*
D03*
X540500Y196000D02*
D03*
X599500Y290000D02*
D03*
X610500Y286000D02*
D03*
X686500Y235000D02*
D03*
X634000Y274500D02*
D03*
X591000Y270000D02*
D03*
X686500Y230000D02*
D03*
X657000Y259000D02*
D03*
X633500Y269500D02*
D03*
X608500Y268500D02*
D03*
X415500Y367000D02*
D03*
X628000Y222000D02*
D03*
X417000Y163500D02*
D03*
X582000Y256500D02*
D03*
X392500Y227000D02*
D03*
X332500Y183500D02*
D03*
X304500Y161500D02*
D03*
X321500Y212500D02*
D03*
X314500Y225500D02*
D03*
X289000Y186500D02*
D03*
X276000Y159000D02*
D03*
X351500Y212500D02*
D03*
X510500Y349500D02*
D03*
X523500Y324500D02*
D03*
X552000Y348500D02*
D03*
X528000Y324000D02*
D03*
X604500Y348500D02*
D03*
X636500Y202500D02*
D03*
X746000Y211000D02*
D03*
D166*
X562000Y340533D02*
D03*
X565000Y302000D02*
D03*
X562000Y343533D02*
D03*
X568000Y302000D02*
D03*
X387000Y161000D02*
D03*
D167*
X114500Y114000D02*
D03*
X785500D02*
D03*
Y416500D02*
D03*
X114500D02*
D03*
M02*
