M48
;Layer_Color=9474304
;FILE_FORMAT=2:5
INCH,LZ
;TYPE=PLATED
T01F00S00C0.01500
T02F00S00C0.01575
T03F00S00C0.02000
T05F00S00C0.02500
T06F00S00C0.02800
T07F00S00C0.03000
T08F00S00C0.03150
T09F00S00C0.03543
T10F00S00C0.03937
T11F00S00C0.04016
T12F00S00C0.04488
T13F00S00C0.05118
T14F00S00C0.12500
%
T01
X0439Y01265
X04635Y01245
X04912Y01529
X05371Y01539
X0579Y01545
Y01425
Y01305
X06645Y0124
X069Y01245
X0647Y01575
X06365Y02025
X06265Y02155
X0628Y0222
Y02545
X0629Y0261
X06335Y02695
X0634Y02745
X0657Y0259
X06865Y0235
Y023
X0693Y02325
X07095Y0235
X07137Y02593
X0731Y02035
X0746Y0211
X07565Y01595
X06215Y02015
X0623Y02715
X06195Y0276
X06085Y02685
X0612Y0264
X06105Y0286
X05995Y029
X0591Y027
X0582Y02565
X05725Y02569
X05665Y02545
X05566Y02649
Y02712
X0556Y02775
X05505Y0281
Y0261
X05512Y02484
X05405Y02365
X0522
X05205Y02295
X05175Y02325
X0514Y02355
X05106Y0233
X05055Y02285
X05009Y02365
X0495Y0232
X04919Y02405
X0487Y0246
X0484994Y0253623
X0483748Y0257751
X0497Y0252
X05055Y0251
X05125Y02535
X05015Y02745
X05025Y02815
X0498Y02875
X04929Y02967
X04949Y03114
X05165Y02895
X05253Y02805
X0525Y0276
X05355Y02745
X0537Y0269147
X05408Y02982
X05355Y0303
X0565Y0302
X0568
X04688Y02907
X0476029Y0279435
X0525Y0231
X05205Y02125
X05235Y0203
X0531Y02045
X05315Y01895
X05235Y0191
X05085Y01895
X05155Y02005
X05405Y0196
X05367Y01697
X05138Y0168
X05005Y01714
X0417Y01635
X0387Y0161
X04005Y0188
X04045Y0205
X0405Y0217
X03925Y02175
Y0227
X03786Y02317
X0376Y02175
X03515Y02125
X03584Y02299
X03205Y0225
X03145Y02255
X03215Y02125
X03155Y0205
X03185Y0196
X03325Y01835
X03301Y02752
X03305Y02815
X0329Y02865
X03305Y0291
X04139Y02833
X04197Y02756
X04318Y0276
X04441Y02761
X04542Y02707
X04544Y02652
X04559Y0236
X04275Y02065
X04085Y02677
X04404Y02884
X03065Y02765
X0306Y0266
X0278439Y0263797
X0279467Y02705
X0287Y02395
X0291Y0234
X0286Y02185
X02805
X0273Y0215
X028Y02065
X0293Y02035
X02945Y0215
X0289Y01865
X0302Y0186
X03045Y01615
X0276Y0159
X0193Y01645
X01635Y0161
X0182Y0214
X02015Y02065
X0312Y03105
Y03155
Y0321
X0307
X02816Y03434
X02788Y03757
X02637Y03777
X02506Y03906
X02518Y03954
X02343Y039
X02291Y04114
X0284Y041
X02764Y03976
X0305Y0406
X02095Y037
X03215Y03275
X03225Y0323
X0317
X04155Y0367
X05105Y03495
X0527Y03555
X0552Y03485
X0562Y0343533
Y0340533
X05785Y0355
X06045Y03485
X0598Y0323
X05935Y0318
X05895Y0327
X0528Y0324
X05235Y03245
X06315Y03545
X06555Y0347
X06715Y03375
X0676Y0322
X06665Y03225
X067Y03155
X06835Y0354
X0713Y0347
X074Y03535
X07495Y03433
T02
X0243887Y0405154
X0247234
X025058
X0253927
X0257273
X026062
X0263966
X0267313
Y0410468
X0263966
X026062
X0257273
X0253927
X025058
X0247234
X0243887
T03
X06495Y01665
X0655Y0167
X0654Y01995
X06442Y02395
X071Y0204
X07105Y01885
X07635Y02015
X07645Y0169
X0758
X0601Y01865
X06005Y0202
X06063Y02393
X06115Y0249
X02529Y03066
X0189Y01885
X02395Y03221
X02529Y03215
Y03144
X04235Y03745
X04934Y04075
Y04119
X04935Y04164
T05
X05537Y01528
Y01628
Y01728
Y01828
X03685Y02975
T06
X0221Y0129
X0245Y0128
X03905Y01655
Y01755
X0381Y0177
X0387Y01975
X03945Y01995
X04135Y01885
X04215Y01955
X0419Y01765
X04195Y01695
X0408979Y0164927
X03755Y03027
X03625Y0294
X03505Y0295
Y03005
Y03055
Y03105
X03507Y02864
X0302Y02842
Y02892
Y02942
Y02992
X02383Y02544
X02158Y02545
X01714Y02534
X01605Y02428
X0163Y01975
X01705Y01995
X01665Y01755
Y01655
X0184979Y0164927
X01955Y01695
X0195Y01765
X01975Y01955
X0157Y0177
X02695Y0175
X0279Y01735
Y01635
X0297479Y0162927
X0308Y01675
X03075Y01745
X0309Y01935
X0283Y01975
X02755Y01955
X01777Y02852
X01638Y03056
X01191Y03019
X01266Y02905
X01246Y02819
X01242Y02727
X0121Y0397
X0229Y03945
X02265Y03695
X02385Y036
X02465Y03601
X02782Y03584
X02728Y0341
X02689Y03165
X02769Y03843
X0329Y0329
X03505Y03155
X07595Y04095
T07
X071Y01765
X07195
X061Y01745
X06005
T08
X0131063Y03217
X0138937
X0438039Y03845
X0467961
T09
X051327Y0395
X0523112
X0566309Y03945
X0576152
X0618Y0395
X0627843
X0670539Y03945
X0680382
X0725579
X0735421
T10
X02818Y02522
X02873Y039
X02086Y033
X01924
X03438Y03362
X0371
X03835Y03181
X06906Y03291
T11
X0154032Y0361681
Y0373492
X0165842
Y0361681
X0177654
Y0373492
X0189465
Y0361681
T12
X06665Y0247
X06765
Y0257
Y0267
X06665
Y0257
Y0277
Y0287
Y0297
X06765
Y0287
Y0277
T13
X0174Y01195
X018096Y0128288
X0174Y0135248
X018096Y0142208
X016704
Y0128288
X0279026
X0292946
X0285986Y0135248
X0292946Y0142208
X0279026
X0285986Y01195
X0397972
X0404932Y0128288
X0397972Y0135248
X0404932Y0142208
X0391013
Y0128288
X050354
X051746
Y0142208
X05105Y0135248
X050354Y0142208
X05105Y01195
X06245Y0119
Y0134748
X061754Y0127788
Y0141708
X063146
Y0127788
X0724013
X0737932
X0730972Y0134748
X0724013Y0141708
X0737932
X0730972Y0119
T14
X01145Y0114
X07855
X01145Y04165
X07855
M30
