G04*
G04 #@! TF.GenerationSoftware,Altium Limited,Altium Designer,25.5.2 (35)*
G04*
G04 Layer_Color=32768*
%FSLAX25Y25*%
%MOIN*%
G70*
G04*
G04 #@! TF.SameCoordinates,1DACB3DC-ACE0-44E2-B579-3CE0BC83F536*
G04*
G04*
G04 #@! TF.FilePolarity,Positive*
G04*
G01*
G75*
G36*
X169149Y322631D02*
X169168Y322629D01*
X169192Y322627D01*
X169217Y322623D01*
X169245Y322619D01*
X169304Y322605D01*
X169335Y322596D01*
X169368Y322584D01*
X169400Y322570D01*
X169431Y322556D01*
X169462Y322537D01*
X169492Y322517D01*
X169494Y322515D01*
X169498Y322511D01*
X169507Y322505D01*
X169517Y322496D01*
X169529Y322484D01*
X169545Y322470D01*
X169560Y322452D01*
X169578Y322433D01*
X169596Y322411D01*
X169613Y322388D01*
X169631Y322360D01*
X169649Y322333D01*
X169666Y322302D01*
X169682Y322268D01*
X169697Y322231D01*
X169709Y322194D01*
X169513Y322147D01*
Y322149D01*
X169511Y322154D01*
X169507Y322162D01*
X169503Y322174D01*
X169498Y322188D01*
X169492Y322203D01*
X169474Y322239D01*
X169453Y322278D01*
X169427Y322317D01*
X169396Y322354D01*
X169378Y322370D01*
X169360Y322386D01*
X169358D01*
X169357Y322390D01*
X169351Y322394D01*
X169343Y322397D01*
X169333Y322403D01*
X169321Y322409D01*
X169292Y322425D01*
X169255Y322439D01*
X169211Y322450D01*
X169162Y322458D01*
X169108Y322462D01*
X169090D01*
X169078Y322460D01*
X169064D01*
X169047Y322458D01*
X169027Y322454D01*
X169006Y322452D01*
X168961Y322443D01*
X168912Y322427D01*
X168863Y322405D01*
X168839Y322394D01*
X168816Y322378D01*
X168814D01*
X168810Y322374D01*
X168804Y322370D01*
X168796Y322362D01*
X168776Y322345D01*
X168753Y322319D01*
X168725Y322288D01*
X168698Y322249D01*
X168672Y322205D01*
X168653Y322154D01*
Y322152D01*
X168651Y322149D01*
X168649Y322141D01*
X168645Y322131D01*
X168641Y322117D01*
X168637Y322102D01*
X168633Y322084D01*
X168629Y322066D01*
X168622Y322021D01*
X168614Y321972D01*
X168608Y321919D01*
X168606Y321864D01*
Y321862D01*
Y321857D01*
Y321847D01*
Y321833D01*
X168608Y321815D01*
X168610Y321796D01*
Y321774D01*
X168614Y321751D01*
X168620Y321698D01*
X168629Y321643D01*
X168643Y321584D01*
X168661Y321529D01*
Y321527D01*
X168663Y321523D01*
X168667Y321515D01*
X168672Y321506D01*
X168678Y321494D01*
X168684Y321480D01*
X168704Y321449D01*
X168729Y321414D01*
X168759Y321378D01*
X168794Y321345D01*
X168835Y321316D01*
X168837D01*
X168841Y321312D01*
X168847Y321310D01*
X168857Y321304D01*
X168867Y321300D01*
X168880Y321294D01*
X168912Y321280D01*
X168951Y321267D01*
X168994Y321257D01*
X169041Y321249D01*
X169092Y321245D01*
X169108D01*
X169119Y321247D01*
X169135Y321249D01*
X169151Y321251D01*
X169170Y321253D01*
X169190Y321257D01*
X169235Y321269D01*
X169282Y321286D01*
X169307Y321296D01*
X169331Y321310D01*
X169354Y321323D01*
X169376Y321341D01*
X169378Y321343D01*
X169382Y321345D01*
X169388Y321351D01*
X169396Y321359D01*
X169404Y321369D01*
X169415Y321382D01*
X169427Y321396D01*
X169439Y321414D01*
X169453Y321431D01*
X169466Y321453D01*
X169478Y321476D01*
X169492Y321502D01*
X169503Y321531D01*
X169515Y321561D01*
X169525Y321592D01*
X169535Y321627D01*
X169735Y321576D01*
Y321574D01*
X169731Y321567D01*
X169727Y321553D01*
X169723Y321535D01*
X169715Y321515D01*
X169705Y321492D01*
X169696Y321466D01*
X169682Y321437D01*
X169668Y321408D01*
X169650Y321376D01*
X169633Y321347D01*
X169611Y321316D01*
X169590Y321284D01*
X169564Y321255D01*
X169537Y321227D01*
X169507Y321202D01*
X169505Y321200D01*
X169500Y321196D01*
X169492Y321190D01*
X169478Y321182D01*
X169462Y321172D01*
X169443Y321161D01*
X169421Y321151D01*
X169398Y321139D01*
X169368Y321126D01*
X169339Y321116D01*
X169306Y321104D01*
X169270Y321094D01*
X169233Y321086D01*
X169194Y321080D01*
X169153Y321076D01*
X169109Y321075D01*
X169086D01*
X169068Y321076D01*
X169049Y321078D01*
X169023Y321080D01*
X168998Y321082D01*
X168968Y321086D01*
X168906Y321098D01*
X168839Y321116D01*
X168806Y321127D01*
X168772Y321141D01*
X168741Y321155D01*
X168712Y321172D01*
X168710Y321175D01*
X168706Y321176D01*
X168698Y321182D01*
X168686Y321192D01*
X168674Y321202D01*
X168659Y321214D01*
X168643Y321229D01*
X168625Y321247D01*
X168606Y321265D01*
X168588Y321286D01*
X168569Y321310D01*
X168549Y321337D01*
X168529Y321365D01*
X168512Y321394D01*
X168494Y321427D01*
X168478Y321461D01*
Y321463D01*
X168474Y321468D01*
X168471Y321480D01*
X168467Y321494D01*
X168461Y321512D01*
X168453Y321531D01*
X168447Y321555D01*
X168439Y321582D01*
X168431Y321612D01*
X168426Y321643D01*
X168418Y321676D01*
X168412Y321710D01*
X168404Y321786D01*
X168400Y321864D01*
Y321866D01*
Y321874D01*
Y321888D01*
X168402Y321904D01*
Y321925D01*
X168404Y321949D01*
X168408Y321974D01*
X168412Y322004D01*
X168416Y322035D01*
X168422Y322068D01*
X168437Y322137D01*
X168459Y322205D01*
X168473Y322241D01*
X168488Y322274D01*
X168490Y322276D01*
X168492Y322282D01*
X168498Y322292D01*
X168506Y322303D01*
X168514Y322317D01*
X168525Y322335D01*
X168539Y322352D01*
X168555Y322374D01*
X168590Y322417D01*
X168635Y322460D01*
X168686Y322503D01*
X168716Y322523D01*
X168745Y322541D01*
X168747Y322543D01*
X168753Y322545D01*
X168763Y322548D01*
X168774Y322554D01*
X168790Y322562D01*
X168808Y322570D01*
X168829Y322578D01*
X168853Y322588D01*
X168880Y322596D01*
X168908Y322603D01*
X168970Y322619D01*
X169039Y322629D01*
X169074Y322633D01*
X169133D01*
X169149Y322631D01*
D02*
G37*
G36*
X170891Y322443D02*
X170889Y322441D01*
X170885Y322435D01*
X170877Y322427D01*
X170866Y322415D01*
X170854Y322399D01*
X170838Y322380D01*
X170821Y322358D01*
X170801Y322335D01*
X170779Y322307D01*
X170758Y322276D01*
X170734Y322243D01*
X170709Y322205D01*
X170683Y322168D01*
X170658Y322125D01*
X170632Y322082D01*
X170605Y322035D01*
X170603Y322033D01*
X170599Y322023D01*
X170591Y322009D01*
X170581Y321992D01*
X170570Y321968D01*
X170558Y321941D01*
X170542Y321909D01*
X170527Y321874D01*
X170509Y321837D01*
X170491Y321796D01*
X170474Y321753D01*
X170456Y321708D01*
X170421Y321614D01*
X170389Y321514D01*
Y321512D01*
X170387Y321506D01*
X170384Y321494D01*
X170380Y321480D01*
X170376Y321463D01*
X170370Y321441D01*
X170366Y321417D01*
X170360Y321390D01*
X170354Y321361D01*
X170346Y321329D01*
X170340Y321294D01*
X170336Y321259D01*
X170327Y321182D01*
X170319Y321100D01*
X170129D01*
Y321102D01*
Y321108D01*
Y321118D01*
X170131Y321131D01*
Y321149D01*
X170133Y321169D01*
X170135Y321192D01*
X170139Y321220D01*
X170142Y321249D01*
X170146Y321282D01*
X170152Y321318D01*
X170158Y321355D01*
X170166Y321394D01*
X170176Y321437D01*
X170186Y321480D01*
X170197Y321527D01*
Y321531D01*
X170201Y321539D01*
X170205Y321553D01*
X170209Y321570D01*
X170217Y321594D01*
X170225Y321619D01*
X170235Y321649D01*
X170246Y321682D01*
X170258Y321719D01*
X170274Y321757D01*
X170305Y321839D01*
X170344Y321925D01*
X170387Y322013D01*
X170389Y322015D01*
X170393Y322023D01*
X170399Y322037D01*
X170409Y322053D01*
X170421Y322072D01*
X170434Y322096D01*
X170450Y322123D01*
X170468Y322151D01*
X170507Y322213D01*
X170552Y322280D01*
X170603Y322347D01*
X170654Y322409D01*
X169917D01*
Y322588D01*
X170891D01*
Y322443D01*
D02*
G37*
G36*
X230889Y255393D02*
X230916Y255391D01*
X230947Y255389D01*
X230983Y255387D01*
X231018Y255383D01*
X231055Y255379D01*
X231134Y255370D01*
X231208Y255354D01*
X231243Y255344D01*
X231277Y255332D01*
X231279D01*
X231284Y255330D01*
X231292Y255327D01*
X231304Y255321D01*
X231320Y255315D01*
X231335Y255307D01*
X231373Y255285D01*
X231416Y255260D01*
X231459Y255226D01*
X231500Y255189D01*
X231537Y255144D01*
Y255142D01*
X231541Y255138D01*
X231545Y255132D01*
X231551Y255123D01*
X231557Y255111D01*
X231565Y255097D01*
X231573Y255080D01*
X231580Y255062D01*
X231598Y255019D01*
X231612Y254970D01*
X231622Y254915D01*
X231624Y254886D01*
X231626Y254854D01*
Y254837D01*
X231624Y254825D01*
X231622Y254809D01*
X231620Y254793D01*
X231618Y254774D01*
X231614Y254752D01*
X231602Y254707D01*
X231584Y254658D01*
X231573Y254635D01*
X231559Y254611D01*
X231545Y254588D01*
X231527Y254566D01*
X231525Y254564D01*
X231524Y254562D01*
X231518Y254556D01*
X231510Y254548D01*
X231500Y254539D01*
X231486Y254529D01*
X231473Y254519D01*
X231457Y254507D01*
X231437Y254495D01*
X231418Y254484D01*
X231394Y254474D01*
X231369Y254462D01*
X231343Y254452D01*
X231314Y254445D01*
X231284Y254439D01*
X231251Y254433D01*
X231237Y254611D01*
X231239D01*
X231243Y254613D01*
X231249D01*
X231257Y254615D01*
X231280Y254621D01*
X231306Y254631D01*
X231337Y254641D01*
X231367Y254656D01*
X231394Y254674D01*
X231418Y254695D01*
X231420Y254699D01*
X231426Y254707D01*
X231435Y254721D01*
X231445Y254740D01*
X231455Y254764D01*
X231465Y254791D01*
X231471Y254825D01*
X231473Y254860D01*
Y254874D01*
X231471Y254889D01*
X231469Y254911D01*
X231463Y254932D01*
X231457Y254958D01*
X231447Y254983D01*
X231435Y255009D01*
X231433Y255011D01*
X231428Y255021D01*
X231420Y255032D01*
X231408Y255046D01*
X231392Y255064D01*
X231375Y255082D01*
X231355Y255099D01*
X231331Y255115D01*
X231328Y255117D01*
X231320Y255123D01*
X231304Y255129D01*
X231284Y255138D01*
X231259Y255150D01*
X231230Y255162D01*
X231194Y255174D01*
X231155Y255183D01*
X231153D01*
X231149Y255185D01*
X231143D01*
X231136Y255187D01*
X231126Y255189D01*
X231114Y255191D01*
X231084Y255197D01*
X231051Y255203D01*
X231012Y255207D01*
X230971Y255209D01*
X230928Y255211D01*
X230926D01*
X230918D01*
X230906D01*
X230890D01*
X230894Y255209D01*
X230904Y255201D01*
X230922Y255187D01*
X230941Y255170D01*
X230965Y255148D01*
X230989Y255123D01*
X231012Y255091D01*
X231034Y255058D01*
Y255056D01*
X231035Y255054D01*
X231039Y255048D01*
X231041Y255040D01*
X231051Y255023D01*
X231061Y254995D01*
X231071Y254966D01*
X231081Y254931D01*
X231086Y254891D01*
X231088Y254850D01*
Y254833D01*
X231086Y254819D01*
X231084Y254803D01*
X231081Y254784D01*
X231077Y254764D01*
X231071Y254740D01*
X231065Y254717D01*
X231055Y254691D01*
X231045Y254666D01*
X231032Y254639D01*
X231016Y254611D01*
X230998Y254586D01*
X230977Y254560D01*
X230953Y254535D01*
X230951Y254533D01*
X230947Y254529D01*
X230940Y254523D01*
X230928Y254515D01*
X230916Y254505D01*
X230898Y254493D01*
X230879Y254482D01*
X230857Y254470D01*
X230834Y254458D01*
X230806Y254446D01*
X230777Y254435D01*
X230745Y254425D01*
X230712Y254417D01*
X230675Y254411D01*
X230638Y254407D01*
X230596Y254405D01*
X230594D01*
X230587D01*
X230575D01*
X230559Y254407D01*
X230540Y254409D01*
X230516Y254413D01*
X230491Y254417D01*
X230465Y254423D01*
X230406Y254439D01*
X230375Y254448D01*
X230344Y254462D01*
X230314Y254478D01*
X230283Y254495D01*
X230255Y254515D01*
X230228Y254539D01*
X230226Y254540D01*
X230222Y254544D01*
X230214Y254552D01*
X230206Y254562D01*
X230195Y254576D01*
X230183Y254591D01*
X230171Y254611D01*
X230157Y254633D01*
X230144Y254654D01*
X230132Y254682D01*
X230120Y254709D01*
X230108Y254738D01*
X230101Y254770D01*
X230093Y254805D01*
X230089Y254840D01*
X230087Y254878D01*
Y254891D01*
X230089Y254903D01*
Y254915D01*
X230091Y254931D01*
X230097Y254966D01*
X230106Y255007D01*
X230120Y255052D01*
X230140Y255099D01*
X230167Y255146D01*
Y255148D01*
X230171Y255152D01*
X230175Y255158D01*
X230181Y255166D01*
X230201Y255187D01*
X230224Y255215D01*
X230257Y255244D01*
X230295Y255276D01*
X230340Y255305D01*
X230393Y255330D01*
X230395D01*
X230399Y255332D01*
X230408Y255336D01*
X230420Y255340D01*
X230436Y255346D01*
X230453Y255350D01*
X230475Y255356D01*
X230500Y255364D01*
X230530Y255370D01*
X230561Y255376D01*
X230594Y255379D01*
X230634Y255385D01*
X230675Y255389D01*
X230718Y255393D01*
X230765Y255395D01*
X230816D01*
X230820D01*
X230828D01*
X230843D01*
X230863D01*
X230889Y255393D01*
D02*
G37*
G36*
X231134Y254231D02*
X231147Y254227D01*
X231165Y254223D01*
X231185Y254215D01*
X231208Y254205D01*
X231234Y254196D01*
X231263Y254182D01*
X231292Y254168D01*
X231324Y254151D01*
X231353Y254133D01*
X231384Y254111D01*
X231416Y254090D01*
X231445Y254064D01*
X231473Y254037D01*
X231498Y254007D01*
X231500Y254005D01*
X231504Y254000D01*
X231510Y253992D01*
X231518Y253978D01*
X231527Y253962D01*
X231539Y253943D01*
X231549Y253921D01*
X231561Y253898D01*
X231575Y253868D01*
X231584Y253839D01*
X231596Y253805D01*
X231606Y253770D01*
X231614Y253733D01*
X231620Y253694D01*
X231624Y253653D01*
X231626Y253609D01*
Y253586D01*
X231624Y253568D01*
X231622Y253549D01*
X231620Y253523D01*
X231618Y253498D01*
X231614Y253468D01*
X231602Y253406D01*
X231584Y253339D01*
X231573Y253306D01*
X231559Y253272D01*
X231545Y253241D01*
X231527Y253212D01*
X231525Y253210D01*
X231524Y253206D01*
X231518Y253198D01*
X231508Y253186D01*
X231498Y253174D01*
X231486Y253159D01*
X231471Y253143D01*
X231453Y253125D01*
X231435Y253106D01*
X231414Y253088D01*
X231390Y253069D01*
X231363Y253049D01*
X231335Y253029D01*
X231306Y253012D01*
X231273Y252994D01*
X231239Y252978D01*
X231237D01*
X231231Y252975D01*
X231220Y252971D01*
X231206Y252967D01*
X231188Y252961D01*
X231169Y252953D01*
X231145Y252947D01*
X231118Y252939D01*
X231088Y252931D01*
X231057Y252925D01*
X231024Y252918D01*
X230990Y252912D01*
X230914Y252904D01*
X230836Y252900D01*
X230834D01*
X230826D01*
X230812D01*
X230796Y252902D01*
X230775D01*
X230751Y252904D01*
X230726Y252908D01*
X230696Y252912D01*
X230665Y252916D01*
X230632Y252922D01*
X230563Y252937D01*
X230495Y252959D01*
X230459Y252973D01*
X230426Y252988D01*
X230424Y252990D01*
X230418Y252992D01*
X230408Y252998D01*
X230397Y253006D01*
X230383Y253014D01*
X230365Y253025D01*
X230348Y253039D01*
X230326Y253055D01*
X230283Y253090D01*
X230240Y253135D01*
X230197Y253186D01*
X230177Y253216D01*
X230159Y253245D01*
X230157Y253247D01*
X230155Y253253D01*
X230152Y253263D01*
X230146Y253274D01*
X230138Y253290D01*
X230130Y253308D01*
X230122Y253329D01*
X230112Y253353D01*
X230104Y253380D01*
X230097Y253408D01*
X230081Y253470D01*
X230071Y253539D01*
X230067Y253574D01*
Y253633D01*
X230069Y253649D01*
X230071Y253668D01*
X230073Y253692D01*
X230077Y253717D01*
X230081Y253745D01*
X230095Y253804D01*
X230104Y253835D01*
X230116Y253868D01*
X230130Y253900D01*
X230144Y253931D01*
X230163Y253962D01*
X230183Y253992D01*
X230185Y253994D01*
X230189Y253998D01*
X230195Y254007D01*
X230205Y254017D01*
X230216Y254029D01*
X230230Y254045D01*
X230248Y254060D01*
X230267Y254078D01*
X230289Y254096D01*
X230312Y254113D01*
X230340Y254131D01*
X230367Y254149D01*
X230399Y254166D01*
X230432Y254182D01*
X230469Y254198D01*
X230506Y254209D01*
X230553Y254013D01*
X230551D01*
X230545Y254011D01*
X230538Y254007D01*
X230526Y254004D01*
X230512Y253998D01*
X230497Y253992D01*
X230461Y253974D01*
X230422Y253953D01*
X230383Y253927D01*
X230346Y253896D01*
X230330Y253878D01*
X230314Y253860D01*
Y253858D01*
X230310Y253856D01*
X230306Y253851D01*
X230303Y253843D01*
X230297Y253833D01*
X230291Y253821D01*
X230275Y253792D01*
X230261Y253755D01*
X230250Y253711D01*
X230242Y253662D01*
X230238Y253608D01*
Y253590D01*
X230240Y253578D01*
Y253564D01*
X230242Y253547D01*
X230246Y253527D01*
X230248Y253506D01*
X230257Y253461D01*
X230273Y253412D01*
X230295Y253363D01*
X230306Y253339D01*
X230322Y253315D01*
Y253314D01*
X230326Y253310D01*
X230330Y253304D01*
X230338Y253296D01*
X230355Y253276D01*
X230381Y253253D01*
X230412Y253225D01*
X230451Y253198D01*
X230495Y253172D01*
X230545Y253153D01*
X230547D01*
X230551Y253151D01*
X230559Y253149D01*
X230569Y253145D01*
X230583Y253141D01*
X230598Y253137D01*
X230616Y253133D01*
X230634Y253129D01*
X230679Y253121D01*
X230728Y253114D01*
X230781Y253108D01*
X230836Y253106D01*
X230838D01*
X230843D01*
X230853D01*
X230867D01*
X230885Y253108D01*
X230904Y253110D01*
X230926D01*
X230949Y253114D01*
X231002Y253119D01*
X231057Y253129D01*
X231116Y253143D01*
X231171Y253161D01*
X231173D01*
X231177Y253163D01*
X231185Y253167D01*
X231194Y253172D01*
X231206Y253178D01*
X231220Y253184D01*
X231251Y253204D01*
X231286Y253229D01*
X231322Y253259D01*
X231355Y253294D01*
X231384Y253335D01*
Y253337D01*
X231388Y253341D01*
X231390Y253347D01*
X231396Y253357D01*
X231400Y253366D01*
X231406Y253380D01*
X231420Y253412D01*
X231433Y253451D01*
X231443Y253494D01*
X231451Y253541D01*
X231455Y253592D01*
Y253608D01*
X231453Y253619D01*
X231451Y253635D01*
X231449Y253651D01*
X231447Y253670D01*
X231443Y253690D01*
X231431Y253735D01*
X231414Y253782D01*
X231404Y253807D01*
X231390Y253831D01*
X231377Y253854D01*
X231359Y253876D01*
X231357Y253878D01*
X231355Y253882D01*
X231349Y253888D01*
X231341Y253896D01*
X231331Y253904D01*
X231318Y253915D01*
X231304Y253927D01*
X231286Y253939D01*
X231269Y253953D01*
X231247Y253966D01*
X231224Y253978D01*
X231198Y253992D01*
X231169Y254004D01*
X231139Y254015D01*
X231108Y254025D01*
X231073Y254035D01*
X231124Y254235D01*
X231126D01*
X231134Y254231D01*
D02*
G37*
G36*
X222602Y255693D02*
X222620Y255691D01*
X222639Y255687D01*
X222659Y255683D01*
X222682Y255677D01*
X222708Y255672D01*
X222733Y255662D01*
X222761Y255650D01*
X222788Y255638D01*
X222816Y255621D01*
X222843Y255603D01*
X222869Y255581D01*
X222894Y255558D01*
X222896Y255556D01*
X222900Y255552D01*
X222906Y255544D01*
X222914Y255532D01*
X222925Y255519D01*
X222935Y255503D01*
X222947Y255483D01*
X222959Y255462D01*
X222973Y255436D01*
X222984Y255411D01*
X222994Y255381D01*
X223004Y255348D01*
X223014Y255315D01*
X223020Y255278D01*
X223024Y255240D01*
X223025Y255199D01*
Y255178D01*
X223024Y255162D01*
X223022Y255142D01*
X223018Y255121D01*
X223014Y255097D01*
X223010Y255070D01*
X222994Y255013D01*
X222982Y254984D01*
X222971Y254952D01*
X222955Y254923D01*
X222937Y254893D01*
X222918Y254866D01*
X222894Y254839D01*
X222892Y254837D01*
X222888Y254833D01*
X222880Y254827D01*
X222871Y254817D01*
X222857Y254807D01*
X222841Y254795D01*
X222824Y254784D01*
X222804Y254772D01*
X222780Y254758D01*
X222757Y254746D01*
X222729Y254735D01*
X222700Y254725D01*
X222669Y254715D01*
X222635Y254709D01*
X222600Y254705D01*
X222565Y254703D01*
X222563D01*
X222559D01*
X222551D01*
X222539Y254705D01*
X222528D01*
X222514Y254707D01*
X222479Y254713D01*
X222439Y254721D01*
X222400Y254735D01*
X222359Y254752D01*
X222320Y254778D01*
X222318D01*
X222316Y254782D01*
X222304Y254791D01*
X222287Y254809D01*
X222265Y254833D01*
X222243Y254862D01*
X222220Y254899D01*
X222200Y254941D01*
X222185Y254990D01*
Y254988D01*
X222183Y254984D01*
X222181Y254978D01*
X222177Y254970D01*
X222167Y254950D01*
X222153Y254925D01*
X222136Y254897D01*
X222116Y254868D01*
X222091Y254842D01*
X222063Y254819D01*
X222059Y254817D01*
X222049Y254811D01*
X222032Y254801D01*
X222010Y254791D01*
X221983Y254782D01*
X221951Y254772D01*
X221916Y254766D01*
X221877Y254764D01*
X221875D01*
X221869D01*
X221861D01*
X221849Y254766D01*
X221836Y254768D01*
X221818Y254770D01*
X221781Y254780D01*
X221738Y254794D01*
X221714Y254803D01*
X221691Y254813D01*
X221667Y254827D01*
X221644Y254842D01*
X221622Y254860D01*
X221601Y254882D01*
X221599Y254884D01*
X221595Y254888D01*
X221591Y254893D01*
X221583Y254903D01*
X221575Y254915D01*
X221565Y254929D01*
X221553Y254946D01*
X221544Y254966D01*
X221534Y254986D01*
X221522Y255009D01*
X221512Y255036D01*
X221504Y255064D01*
X221497Y255093D01*
X221491Y255125D01*
X221489Y255160D01*
X221487Y255195D01*
Y255215D01*
X221489Y255229D01*
X221491Y255244D01*
X221493Y255264D01*
X221497Y255285D01*
X221501Y255309D01*
X221514Y255360D01*
X221524Y255385D01*
X221536Y255413D01*
X221550Y255438D01*
X221563Y255466D01*
X221583Y255489D01*
X221603Y255513D01*
X221604Y255515D01*
X221608Y255519D01*
X221614Y255525D01*
X221622Y255532D01*
X221634Y255540D01*
X221648Y255552D01*
X221663Y255562D01*
X221679Y255574D01*
X221720Y255595D01*
X221767Y255615D01*
X221795Y255623D01*
X221822Y255628D01*
X221851Y255632D01*
X221881Y255634D01*
X221883D01*
X221885D01*
X221891D01*
X221899D01*
X221918Y255632D01*
X221944Y255627D01*
X221973Y255621D01*
X222002Y255611D01*
X222034Y255597D01*
X222065Y255577D01*
X222069Y255575D01*
X222077Y255568D01*
X222091Y255554D01*
X222108Y255536D01*
X222128Y255513D01*
X222147Y255483D01*
X222167Y255450D01*
X222185Y255411D01*
Y255413D01*
X222187Y255417D01*
X222189Y255425D01*
X222193Y255434D01*
X222198Y255446D01*
X222204Y255458D01*
X222220Y255489D01*
X222239Y255525D01*
X222265Y255560D01*
X222294Y255593D01*
X222330Y255623D01*
X222332D01*
X222334Y255627D01*
X222340Y255628D01*
X222347Y255634D01*
X222357Y255640D01*
X222369Y255646D01*
X222396Y255660D01*
X222432Y255672D01*
X222473Y255683D01*
X222520Y255691D01*
X222571Y255695D01*
X222573D01*
X222579D01*
X222588D01*
X222602Y255693D01*
D02*
G37*
G36*
X222533Y254531D02*
X222547Y254527D01*
X222565Y254523D01*
X222585Y254515D01*
X222608Y254505D01*
X222634Y254496D01*
X222663Y254482D01*
X222692Y254468D01*
X222724Y254450D01*
X222753Y254433D01*
X222784Y254411D01*
X222816Y254390D01*
X222845Y254364D01*
X222873Y254337D01*
X222898Y254307D01*
X222900Y254305D01*
X222904Y254300D01*
X222910Y254292D01*
X222918Y254278D01*
X222927Y254262D01*
X222939Y254243D01*
X222949Y254221D01*
X222961Y254198D01*
X222974Y254168D01*
X222984Y254139D01*
X222996Y254105D01*
X223006Y254070D01*
X223014Y254033D01*
X223020Y253994D01*
X223024Y253953D01*
X223025Y253909D01*
Y253886D01*
X223024Y253868D01*
X223022Y253849D01*
X223020Y253823D01*
X223018Y253798D01*
X223014Y253768D01*
X223002Y253706D01*
X222984Y253639D01*
X222973Y253606D01*
X222959Y253572D01*
X222945Y253541D01*
X222927Y253512D01*
X222925Y253510D01*
X222924Y253506D01*
X222918Y253498D01*
X222908Y253486D01*
X222898Y253474D01*
X222886Y253459D01*
X222871Y253443D01*
X222853Y253425D01*
X222835Y253406D01*
X222814Y253388D01*
X222790Y253369D01*
X222763Y253349D01*
X222735Y253329D01*
X222706Y253312D01*
X222673Y253294D01*
X222639Y253278D01*
X222637D01*
X222632Y253274D01*
X222620Y253271D01*
X222606Y253267D01*
X222588Y253261D01*
X222569Y253253D01*
X222545Y253247D01*
X222518Y253239D01*
X222488Y253231D01*
X222457Y253225D01*
X222424Y253218D01*
X222390Y253212D01*
X222314Y253204D01*
X222236Y253200D01*
X222234D01*
X222226D01*
X222212D01*
X222196Y253202D01*
X222175D01*
X222151Y253204D01*
X222126Y253208D01*
X222096Y253212D01*
X222065Y253216D01*
X222032Y253222D01*
X221963Y253237D01*
X221895Y253259D01*
X221859Y253273D01*
X221826Y253288D01*
X221824Y253290D01*
X221818Y253292D01*
X221808Y253298D01*
X221797Y253306D01*
X221783Y253314D01*
X221765Y253325D01*
X221748Y253339D01*
X221726Y253355D01*
X221683Y253390D01*
X221640Y253435D01*
X221597Y253486D01*
X221577Y253516D01*
X221559Y253545D01*
X221557Y253547D01*
X221555Y253553D01*
X221552Y253563D01*
X221546Y253574D01*
X221538Y253590D01*
X221530Y253608D01*
X221522Y253629D01*
X221512Y253653D01*
X221504Y253680D01*
X221497Y253708D01*
X221481Y253770D01*
X221471Y253839D01*
X221467Y253874D01*
Y253933D01*
X221469Y253949D01*
X221471Y253968D01*
X221473Y253992D01*
X221477Y254017D01*
X221481Y254045D01*
X221495Y254104D01*
X221504Y254135D01*
X221516Y254168D01*
X221530Y254200D01*
X221544Y254231D01*
X221563Y254262D01*
X221583Y254292D01*
X221585Y254294D01*
X221589Y254298D01*
X221595Y254307D01*
X221604Y254317D01*
X221616Y254329D01*
X221630Y254345D01*
X221648Y254360D01*
X221667Y254378D01*
X221689Y254396D01*
X221712Y254413D01*
X221740Y254431D01*
X221767Y254449D01*
X221798Y254466D01*
X221832Y254482D01*
X221869Y254498D01*
X221906Y254509D01*
X221953Y254313D01*
X221951D01*
X221946Y254311D01*
X221938Y254307D01*
X221926Y254304D01*
X221912Y254298D01*
X221897Y254292D01*
X221861Y254274D01*
X221822Y254253D01*
X221783Y254227D01*
X221746Y254196D01*
X221730Y254178D01*
X221714Y254160D01*
Y254158D01*
X221710Y254156D01*
X221706Y254151D01*
X221703Y254143D01*
X221697Y254133D01*
X221691Y254121D01*
X221675Y254092D01*
X221661Y254055D01*
X221650Y254011D01*
X221642Y253962D01*
X221638Y253908D01*
Y253890D01*
X221640Y253878D01*
Y253864D01*
X221642Y253847D01*
X221646Y253827D01*
X221648Y253806D01*
X221657Y253761D01*
X221673Y253712D01*
X221695Y253663D01*
X221706Y253639D01*
X221722Y253615D01*
Y253614D01*
X221726Y253610D01*
X221730Y253604D01*
X221738Y253596D01*
X221755Y253576D01*
X221781Y253553D01*
X221812Y253525D01*
X221851Y253498D01*
X221895Y253472D01*
X221946Y253453D01*
X221948D01*
X221951Y253451D01*
X221959Y253449D01*
X221969Y253445D01*
X221983Y253441D01*
X221998Y253437D01*
X222016Y253433D01*
X222034Y253429D01*
X222079Y253421D01*
X222128Y253414D01*
X222181Y253408D01*
X222236Y253406D01*
X222238D01*
X222243D01*
X222253D01*
X222267D01*
X222285Y253408D01*
X222304Y253410D01*
X222326D01*
X222349Y253414D01*
X222402Y253419D01*
X222457Y253429D01*
X222516Y253443D01*
X222571Y253461D01*
X222573D01*
X222577Y253463D01*
X222585Y253467D01*
X222594Y253472D01*
X222606Y253478D01*
X222620Y253484D01*
X222651Y253504D01*
X222686Y253529D01*
X222722Y253559D01*
X222755Y253594D01*
X222784Y253635D01*
Y253637D01*
X222788Y253641D01*
X222790Y253647D01*
X222796Y253657D01*
X222800Y253666D01*
X222806Y253680D01*
X222820Y253712D01*
X222833Y253751D01*
X222843Y253794D01*
X222851Y253841D01*
X222855Y253892D01*
Y253908D01*
X222853Y253919D01*
X222851Y253935D01*
X222849Y253951D01*
X222847Y253970D01*
X222843Y253990D01*
X222831Y254035D01*
X222814Y254082D01*
X222804Y254107D01*
X222790Y254131D01*
X222777Y254154D01*
X222759Y254176D01*
X222757Y254178D01*
X222755Y254182D01*
X222749Y254188D01*
X222741Y254196D01*
X222731Y254204D01*
X222718Y254215D01*
X222704Y254227D01*
X222686Y254239D01*
X222669Y254253D01*
X222647Y254266D01*
X222624Y254278D01*
X222598Y254292D01*
X222569Y254304D01*
X222539Y254315D01*
X222508Y254325D01*
X222473Y254335D01*
X222524Y254535D01*
X222526D01*
X222533Y254531D01*
D02*
G37*
G36*
X520905Y227024D02*
X520921Y227022D01*
X520936Y227020D01*
X520956Y227018D01*
X520978Y227014D01*
X521023Y227002D01*
X521072Y226984D01*
X521095Y226973D01*
X521119Y226959D01*
X521142Y226945D01*
X521164Y226927D01*
X521166Y226925D01*
X521168Y226924D01*
X521174Y226918D01*
X521181Y226910D01*
X521191Y226900D01*
X521201Y226886D01*
X521211Y226873D01*
X521223Y226857D01*
X521234Y226837D01*
X521246Y226818D01*
X521256Y226794D01*
X521268Y226769D01*
X521278Y226743D01*
X521285Y226714D01*
X521291Y226684D01*
X521297Y226651D01*
X521119Y226637D01*
Y226639D01*
X521117Y226643D01*
Y226649D01*
X521115Y226657D01*
X521109Y226680D01*
X521099Y226706D01*
X521089Y226737D01*
X521074Y226767D01*
X521056Y226794D01*
X521034Y226818D01*
X521031Y226820D01*
X521023Y226826D01*
X521009Y226835D01*
X520989Y226845D01*
X520966Y226855D01*
X520938Y226865D01*
X520905Y226871D01*
X520870Y226873D01*
X520856D01*
X520841Y226871D01*
X520819Y226869D01*
X520797Y226863D01*
X520772Y226857D01*
X520746Y226847D01*
X520721Y226835D01*
X520719Y226833D01*
X520709Y226828D01*
X520697Y226820D01*
X520684Y226808D01*
X520666Y226792D01*
X520648Y226775D01*
X520631Y226755D01*
X520615Y226731D01*
X520613Y226728D01*
X520607Y226720D01*
X520601Y226704D01*
X520592Y226684D01*
X520580Y226659D01*
X520568Y226630D01*
X520556Y226594D01*
X520546Y226555D01*
Y226553D01*
X520544Y226549D01*
Y226543D01*
X520543Y226536D01*
X520541Y226526D01*
X520539Y226514D01*
X520533Y226484D01*
X520527Y226451D01*
X520523Y226412D01*
X520521Y226371D01*
X520519Y226328D01*
Y226326D01*
Y226318D01*
Y226306D01*
Y226290D01*
X520521Y226294D01*
X520529Y226304D01*
X520543Y226322D01*
X520560Y226341D01*
X520582Y226365D01*
X520607Y226389D01*
X520639Y226412D01*
X520672Y226434D01*
X520674D01*
X520676Y226435D01*
X520682Y226439D01*
X520690Y226441D01*
X520707Y226451D01*
X520735Y226461D01*
X520764Y226471D01*
X520799Y226481D01*
X520838Y226486D01*
X520880Y226488D01*
X520897D01*
X520911Y226486D01*
X520927Y226484D01*
X520946Y226481D01*
X520966Y226477D01*
X520989Y226471D01*
X521013Y226465D01*
X521038Y226455D01*
X521064Y226445D01*
X521091Y226432D01*
X521119Y226416D01*
X521144Y226398D01*
X521170Y226377D01*
X521195Y226353D01*
X521197Y226351D01*
X521201Y226347D01*
X521207Y226340D01*
X521215Y226328D01*
X521225Y226316D01*
X521236Y226298D01*
X521248Y226279D01*
X521260Y226257D01*
X521272Y226234D01*
X521283Y226206D01*
X521295Y226177D01*
X521305Y226145D01*
X521313Y226112D01*
X521319Y226075D01*
X521323Y226038D01*
X521325Y225996D01*
Y225994D01*
Y225987D01*
Y225975D01*
X521323Y225959D01*
X521321Y225940D01*
X521317Y225916D01*
X521313Y225891D01*
X521307Y225865D01*
X521291Y225806D01*
X521281Y225775D01*
X521268Y225744D01*
X521252Y225714D01*
X521234Y225683D01*
X521215Y225655D01*
X521191Y225628D01*
X521189Y225626D01*
X521185Y225622D01*
X521178Y225614D01*
X521168Y225606D01*
X521154Y225595D01*
X521138Y225583D01*
X521119Y225571D01*
X521097Y225557D01*
X521076Y225544D01*
X521048Y225532D01*
X521021Y225520D01*
X520991Y225508D01*
X520960Y225501D01*
X520925Y225493D01*
X520890Y225489D01*
X520852Y225487D01*
X520838D01*
X520827Y225489D01*
X520815D01*
X520799Y225491D01*
X520764Y225497D01*
X520723Y225506D01*
X520678Y225520D01*
X520631Y225540D01*
X520584Y225567D01*
X520582D01*
X520578Y225571D01*
X520572Y225575D01*
X520564Y225581D01*
X520543Y225601D01*
X520515Y225624D01*
X520486Y225657D01*
X520454Y225695D01*
X520425Y225740D01*
X520400Y225793D01*
Y225795D01*
X520398Y225799D01*
X520394Y225808D01*
X520390Y225820D01*
X520384Y225836D01*
X520380Y225853D01*
X520374Y225875D01*
X520366Y225900D01*
X520360Y225930D01*
X520354Y225961D01*
X520351Y225994D01*
X520345Y226034D01*
X520341Y226075D01*
X520337Y226118D01*
X520335Y226165D01*
Y226216D01*
Y226220D01*
Y226228D01*
Y226243D01*
Y226263D01*
X520337Y226289D01*
X520339Y226316D01*
X520341Y226347D01*
X520343Y226383D01*
X520347Y226418D01*
X520351Y226455D01*
X520360Y226534D01*
X520376Y226608D01*
X520386Y226643D01*
X520398Y226677D01*
Y226679D01*
X520400Y226684D01*
X520403Y226692D01*
X520409Y226704D01*
X520415Y226720D01*
X520423Y226735D01*
X520445Y226773D01*
X520470Y226816D01*
X520503Y226859D01*
X520541Y226900D01*
X520586Y226937D01*
X520588D01*
X520592Y226941D01*
X520597Y226945D01*
X520607Y226951D01*
X520619Y226957D01*
X520633Y226965D01*
X520650Y226973D01*
X520668Y226980D01*
X520711Y226998D01*
X520760Y227012D01*
X520815Y227022D01*
X520844Y227024D01*
X520876Y227026D01*
X520893D01*
X520905Y227024D01*
D02*
G37*
G36*
X523332D02*
X523351Y227022D01*
X523377Y227020D01*
X523402Y227018D01*
X523432Y227014D01*
X523494Y227002D01*
X523561Y226984D01*
X523594Y226973D01*
X523628Y226959D01*
X523659Y226945D01*
X523688Y226927D01*
X523690Y226925D01*
X523694Y226924D01*
X523702Y226918D01*
X523714Y226908D01*
X523726Y226898D01*
X523741Y226886D01*
X523757Y226871D01*
X523775Y226853D01*
X523794Y226835D01*
X523812Y226814D01*
X523831Y226790D01*
X523851Y226763D01*
X523871Y226735D01*
X523888Y226706D01*
X523906Y226673D01*
X523922Y226639D01*
Y226637D01*
X523925Y226631D01*
X523929Y226620D01*
X523933Y226606D01*
X523939Y226588D01*
X523947Y226569D01*
X523953Y226545D01*
X523961Y226518D01*
X523969Y226488D01*
X523975Y226457D01*
X523982Y226424D01*
X523988Y226390D01*
X523996Y226314D01*
X524000Y226236D01*
Y226234D01*
Y226226D01*
Y226212D01*
X523998Y226196D01*
Y226175D01*
X523996Y226151D01*
X523992Y226126D01*
X523988Y226096D01*
X523984Y226065D01*
X523978Y226032D01*
X523963Y225963D01*
X523941Y225895D01*
X523927Y225859D01*
X523912Y225826D01*
X523910Y225824D01*
X523908Y225818D01*
X523902Y225808D01*
X523894Y225797D01*
X523886Y225783D01*
X523875Y225765D01*
X523861Y225748D01*
X523845Y225726D01*
X523810Y225683D01*
X523765Y225640D01*
X523714Y225597D01*
X523684Y225577D01*
X523655Y225559D01*
X523653Y225557D01*
X523647Y225555D01*
X523637Y225552D01*
X523626Y225546D01*
X523610Y225538D01*
X523592Y225530D01*
X523571Y225522D01*
X523547Y225512D01*
X523520Y225504D01*
X523492Y225497D01*
X523430Y225481D01*
X523361Y225471D01*
X523326Y225467D01*
X523267D01*
X523251Y225469D01*
X523232Y225471D01*
X523208Y225473D01*
X523183Y225477D01*
X523155Y225481D01*
X523096Y225495D01*
X523065Y225504D01*
X523032Y225516D01*
X523000Y225530D01*
X522969Y225544D01*
X522938Y225563D01*
X522908Y225583D01*
X522906Y225585D01*
X522902Y225589D01*
X522893Y225595D01*
X522883Y225605D01*
X522871Y225616D01*
X522855Y225630D01*
X522840Y225648D01*
X522822Y225667D01*
X522804Y225689D01*
X522787Y225712D01*
X522769Y225740D01*
X522752Y225767D01*
X522734Y225799D01*
X522718Y225832D01*
X522703Y225869D01*
X522691Y225906D01*
X522887Y225953D01*
Y225951D01*
X522889Y225945D01*
X522893Y225938D01*
X522896Y225926D01*
X522902Y225912D01*
X522908Y225897D01*
X522926Y225861D01*
X522948Y225822D01*
X522973Y225783D01*
X523004Y225746D01*
X523022Y225730D01*
X523040Y225714D01*
X523042D01*
X523043Y225710D01*
X523049Y225706D01*
X523057Y225703D01*
X523067Y225697D01*
X523079Y225691D01*
X523108Y225675D01*
X523145Y225661D01*
X523189Y225650D01*
X523238Y225642D01*
X523292Y225638D01*
X523310D01*
X523322Y225640D01*
X523336D01*
X523353Y225642D01*
X523373Y225646D01*
X523394Y225648D01*
X523439Y225657D01*
X523488Y225673D01*
X523537Y225695D01*
X523561Y225706D01*
X523585Y225722D01*
X523586D01*
X523590Y225726D01*
X523596Y225730D01*
X523604Y225738D01*
X523624Y225755D01*
X523647Y225781D01*
X523675Y225812D01*
X523702Y225851D01*
X523728Y225895D01*
X523747Y225945D01*
Y225947D01*
X523749Y225951D01*
X523751Y225959D01*
X523755Y225969D01*
X523759Y225983D01*
X523763Y225998D01*
X523767Y226016D01*
X523771Y226034D01*
X523778Y226079D01*
X523786Y226128D01*
X523792Y226181D01*
X523794Y226236D01*
Y226238D01*
Y226243D01*
Y226253D01*
Y226267D01*
X523792Y226285D01*
X523790Y226304D01*
Y226326D01*
X523786Y226349D01*
X523780Y226402D01*
X523771Y226457D01*
X523757Y226516D01*
X523739Y226571D01*
Y226573D01*
X523737Y226577D01*
X523733Y226585D01*
X523728Y226594D01*
X523722Y226606D01*
X523716Y226620D01*
X523696Y226651D01*
X523671Y226686D01*
X523641Y226722D01*
X523606Y226755D01*
X523565Y226784D01*
X523563D01*
X523559Y226788D01*
X523553Y226790D01*
X523543Y226796D01*
X523533Y226800D01*
X523520Y226806D01*
X523488Y226820D01*
X523449Y226833D01*
X523406Y226843D01*
X523359Y226851D01*
X523308Y226855D01*
X523292D01*
X523281Y226853D01*
X523265Y226851D01*
X523249Y226849D01*
X523230Y226847D01*
X523210Y226843D01*
X523165Y226831D01*
X523118Y226814D01*
X523093Y226804D01*
X523069Y226790D01*
X523045Y226777D01*
X523024Y226759D01*
X523022Y226757D01*
X523018Y226755D01*
X523012Y226749D01*
X523004Y226741D01*
X522997Y226731D01*
X522985Y226718D01*
X522973Y226704D01*
X522961Y226686D01*
X522948Y226669D01*
X522934Y226647D01*
X522922Y226624D01*
X522908Y226598D01*
X522896Y226569D01*
X522885Y226539D01*
X522875Y226508D01*
X522865Y226473D01*
X522665Y226524D01*
Y226526D01*
X522669Y226534D01*
X522673Y226547D01*
X522677Y226565D01*
X522685Y226585D01*
X522695Y226608D01*
X522704Y226634D01*
X522718Y226663D01*
X522732Y226692D01*
X522750Y226724D01*
X522767Y226753D01*
X522789Y226784D01*
X522810Y226816D01*
X522836Y226845D01*
X522863Y226873D01*
X522893Y226898D01*
X522895Y226900D01*
X522900Y226904D01*
X522908Y226910D01*
X522922Y226918D01*
X522938Y226927D01*
X522957Y226939D01*
X522979Y226949D01*
X523002Y226961D01*
X523032Y226975D01*
X523061Y226984D01*
X523095Y226996D01*
X523130Y227006D01*
X523167Y227014D01*
X523206Y227020D01*
X523247Y227024D01*
X523290Y227026D01*
X523314D01*
X523332Y227024D01*
D02*
G37*
G36*
X522522Y226996D02*
Y226988D01*
Y226976D01*
X522520Y226959D01*
X522518Y226939D01*
X522514Y226918D01*
X522508Y226896D01*
X522501Y226873D01*
Y226871D01*
X522499Y226869D01*
X522497Y226863D01*
X522493Y226855D01*
X522485Y226835D01*
X522471Y226810D01*
X522454Y226779D01*
X522434Y226745D01*
X522408Y226710D01*
X522379Y226673D01*
X522377Y226671D01*
X522375Y226669D01*
X522369Y226663D01*
X522363Y226655D01*
X522344Y226634D01*
X522316Y226606D01*
X522283Y226573D01*
X522242Y226534D01*
X522193Y226490D01*
X522136Y226443D01*
X522134Y226441D01*
X522126Y226434D01*
X522113Y226424D01*
X522097Y226410D01*
X522077Y226392D01*
X522054Y226373D01*
X522028Y226351D01*
X522003Y226328D01*
X521948Y226277D01*
X521893Y226224D01*
X521868Y226196D01*
X521844Y226171D01*
X521822Y226147D01*
X521805Y226124D01*
X521803Y226122D01*
X521801Y226118D01*
X521797Y226112D01*
X521791Y226104D01*
X521785Y226093D01*
X521777Y226081D01*
X521760Y226051D01*
X521744Y226018D01*
X521730Y225981D01*
X521721Y225940D01*
X521717Y225920D01*
Y225900D01*
Y225899D01*
Y225895D01*
Y225891D01*
X521719Y225883D01*
X521721Y225861D01*
X521726Y225836D01*
X521736Y225806D01*
X521750Y225777D01*
X521770Y225746D01*
X521797Y225716D01*
X521801Y225712D01*
X521811Y225704D01*
X521828Y225693D01*
X521852Y225677D01*
X521881Y225663D01*
X521916Y225652D01*
X521958Y225644D01*
X522003Y225640D01*
X522016D01*
X522024Y225642D01*
X522036D01*
X522050Y225644D01*
X522079Y225650D01*
X522113Y225659D01*
X522150Y225673D01*
X522185Y225693D01*
X522216Y225720D01*
X522220Y225724D01*
X522228Y225734D01*
X522242Y225753D01*
X522256Y225777D01*
X522271Y225810D01*
X522285Y225848D01*
X522293Y225891D01*
X522297Y225942D01*
X522487Y225922D01*
Y225920D01*
X522485Y225912D01*
Y225902D01*
X522483Y225887D01*
X522479Y225869D01*
X522475Y225850D01*
X522469Y225826D01*
X522461Y225802D01*
X522444Y225749D01*
X522432Y225722D01*
X522418Y225697D01*
X522403Y225669D01*
X522385Y225644D01*
X522365Y225620D01*
X522342Y225599D01*
X522340Y225597D01*
X522336Y225595D01*
X522328Y225589D01*
X522318Y225581D01*
X522305Y225573D01*
X522289Y225563D01*
X522271Y225553D01*
X522250Y225542D01*
X522226Y225532D01*
X522201Y225522D01*
X522173Y225512D01*
X522142Y225504D01*
X522111Y225497D01*
X522075Y225491D01*
X522038Y225489D01*
X521999Y225487D01*
X521977D01*
X521964Y225489D01*
X521944Y225491D01*
X521922Y225493D01*
X521899Y225497D01*
X521873Y225503D01*
X521818Y225516D01*
X521791Y225526D01*
X521762Y225538D01*
X521732Y225552D01*
X521705Y225569D01*
X521679Y225587D01*
X521654Y225608D01*
X521652Y225610D01*
X521648Y225614D01*
X521642Y225620D01*
X521634Y225630D01*
X521625Y225642D01*
X521613Y225655D01*
X521603Y225671D01*
X521589Y225691D01*
X521577Y225710D01*
X521568Y225734D01*
X521546Y225785D01*
X521538Y225812D01*
X521532Y225842D01*
X521528Y225873D01*
X521526Y225906D01*
Y225910D01*
Y225922D01*
X521528Y225940D01*
X521530Y225963D01*
X521536Y225989D01*
X521542Y226020D01*
X521552Y226051D01*
X521564Y226085D01*
X521566Y226089D01*
X521572Y226100D01*
X521579Y226118D01*
X521593Y226140D01*
X521611Y226167D01*
X521632Y226198D01*
X521658Y226234D01*
X521687Y226269D01*
Y226271D01*
X521691Y226273D01*
X521697Y226279D01*
X521703Y226287D01*
X521713Y226296D01*
X521724Y226308D01*
X521738Y226322D01*
X521756Y226338D01*
X521773Y226355D01*
X521795Y226375D01*
X521818Y226398D01*
X521844Y226422D01*
X521873Y226447D01*
X521903Y226473D01*
X521938Y226502D01*
X521973Y226534D01*
X521975Y226536D01*
X521981Y226539D01*
X521989Y226547D01*
X522001Y226555D01*
X522013Y226567D01*
X522028Y226581D01*
X522062Y226610D01*
X522099Y226641D01*
X522134Y226673D01*
X522150Y226686D01*
X522163Y226700D01*
X522177Y226714D01*
X522187Y226724D01*
X522189Y226726D01*
X522195Y226731D01*
X522203Y226741D01*
X522214Y226755D01*
X522226Y226769D01*
X522240Y226786D01*
X522265Y226822D01*
X521524D01*
Y227000D01*
X522522D01*
Y226996D01*
D02*
G37*
%LPC*%
G36*
X230616Y255189D02*
X230587D01*
X230585D01*
X230579D01*
X230571D01*
X230561Y255187D01*
X230547D01*
X230532Y255185D01*
X230495Y255180D01*
X230455Y255170D01*
X230412Y255154D01*
X230371Y255132D01*
X230351Y255121D01*
X230334Y255105D01*
X230332D01*
X230330Y255101D01*
X230318Y255089D01*
X230304Y255072D01*
X230287Y255048D01*
X230269Y255019D01*
X230254Y254983D01*
X230244Y254942D01*
X230242Y254921D01*
X230240Y254899D01*
Y254887D01*
X230242Y254878D01*
X230244Y254868D01*
X230246Y254856D01*
X230252Y254827D01*
X230265Y254793D01*
X230283Y254756D01*
X230295Y254738D01*
X230308Y254721D01*
X230324Y254703D01*
X230342Y254686D01*
X230344D01*
X230346Y254682D01*
X230351Y254678D01*
X230359Y254672D01*
X230369Y254664D01*
X230381Y254656D01*
X230397Y254648D01*
X230412Y254641D01*
X230450Y254625D01*
X230495Y254609D01*
X230545Y254599D01*
X230573Y254597D01*
X230602Y254595D01*
X230604D01*
X230608D01*
X230616D01*
X230626Y254597D01*
X230640D01*
X230653Y254599D01*
X230687Y254605D01*
X230724Y254617D01*
X230763Y254631D01*
X230802Y254652D01*
X230820Y254664D01*
X230838Y254680D01*
Y254682D01*
X230841Y254684D01*
X230851Y254695D01*
X230865Y254713D01*
X230881Y254738D01*
X230898Y254770D01*
X230912Y254807D01*
X230922Y254848D01*
X230924Y254872D01*
X230926Y254895D01*
Y254907D01*
X230924Y254917D01*
Y254927D01*
X230922Y254940D01*
X230914Y254970D01*
X230904Y255003D01*
X230889Y255038D01*
X230867Y255072D01*
X230853Y255089D01*
X230838Y255105D01*
X230836Y255107D01*
X230834Y255109D01*
X230828Y255113D01*
X230820Y255119D01*
X230812Y255125D01*
X230800Y255132D01*
X230773Y255148D01*
X230738Y255162D01*
X230695Y255176D01*
X230644Y255185D01*
X230616Y255189D01*
D02*
G37*
G36*
X221881Y255444D02*
X221879D01*
X221877D01*
X221871D01*
X221863Y255442D01*
X221846Y255440D01*
X221822Y255436D01*
X221795Y255427D01*
X221765Y255415D01*
X221738Y255397D01*
X221710Y255374D01*
X221706Y255370D01*
X221699Y255362D01*
X221689Y255346D01*
X221675Y255325D01*
X221661Y255299D01*
X221652Y255270D01*
X221644Y255236D01*
X221640Y255199D01*
Y255189D01*
X221642Y255182D01*
X221644Y255162D01*
X221648Y255136D01*
X221657Y255109D01*
X221669Y255080D01*
X221685Y255050D01*
X221708Y255023D01*
X221712Y255021D01*
X221720Y255013D01*
X221736Y255001D01*
X221753Y254990D01*
X221779Y254976D01*
X221806Y254966D01*
X221838Y254958D01*
X221871Y254954D01*
X221873D01*
X221875D01*
X221881D01*
X221889Y254956D01*
X221908Y254958D01*
X221932Y254962D01*
X221959Y254970D01*
X221989Y254982D01*
X222018Y254999D01*
X222045Y255021D01*
X222047Y255025D01*
X222055Y255033D01*
X222067Y255048D01*
X222079Y255070D01*
X222091Y255095D01*
X222102Y255127D01*
X222110Y255162D01*
X222112Y255201D01*
Y255211D01*
X222110Y255219D01*
X222108Y255238D01*
X222104Y255262D01*
X222096Y255289D01*
X222085Y255319D01*
X222067Y255348D01*
X222045Y255376D01*
X222042Y255380D01*
X222034Y255387D01*
X222020Y255397D01*
X222000Y255411D01*
X221977Y255423D01*
X221948Y255434D01*
X221916Y255442D01*
X221881Y255444D01*
D02*
G37*
G36*
X222596Y255505D02*
X222573D01*
X222571D01*
X222567D01*
X222559D01*
X222549Y255503D01*
X222539D01*
X222526Y255501D01*
X222494Y255493D01*
X222459Y255483D01*
X222422Y255468D01*
X222385Y255446D01*
X222367Y255432D01*
X222351Y255417D01*
X222349D01*
X222347Y255413D01*
X222338Y255401D01*
X222324Y255381D01*
X222306Y255356D01*
X222290Y255323D01*
X222277Y255285D01*
X222267Y255242D01*
X222263Y255219D01*
Y255182D01*
X222265Y255172D01*
Y255160D01*
X222267Y255148D01*
X222273Y255117D01*
X222285Y255084D01*
X222300Y255046D01*
X222320Y255011D01*
X222334Y254993D01*
X222349Y254978D01*
X222353Y254974D01*
X222365Y254964D01*
X222383Y254950D01*
X222408Y254937D01*
X222439Y254921D01*
X222477Y254907D01*
X222518Y254897D01*
X222541Y254895D01*
X222565Y254893D01*
X222569D01*
X222579D01*
X222594Y254895D01*
X222614Y254897D01*
X222637Y254901D01*
X222665Y254909D01*
X222692Y254917D01*
X222720Y254929D01*
X222724Y254931D01*
X222731Y254937D01*
X222745Y254944D01*
X222761Y254956D01*
X222779Y254972D01*
X222798Y254991D01*
X222816Y255015D01*
X222833Y255040D01*
X222835Y255044D01*
X222839Y255054D01*
X222845Y255068D01*
X222853Y255087D01*
X222861Y255113D01*
X222867Y255138D01*
X222871Y255168D01*
X222873Y255199D01*
Y255213D01*
X222871Y255221D01*
Y255233D01*
X222869Y255246D01*
X222863Y255278D01*
X222851Y255311D01*
X222837Y255348D01*
X222816Y255385D01*
X222804Y255403D01*
X222788Y255419D01*
X222786Y255421D01*
X222784Y255423D01*
X222773Y255432D01*
X222755Y255446D01*
X222729Y255462D01*
X222698Y255477D01*
X222661Y255491D01*
X222620Y255501D01*
X222596Y255505D01*
D02*
G37*
G36*
X520835Y226326D02*
X520823D01*
X520813Y226324D01*
X520803D01*
X520789Y226322D01*
X520760Y226314D01*
X520727Y226304D01*
X520691Y226289D01*
X520658Y226267D01*
X520641Y226253D01*
X520625Y226238D01*
X520623Y226236D01*
X520621Y226234D01*
X520617Y226228D01*
X520611Y226220D01*
X520605Y226212D01*
X520597Y226200D01*
X520582Y226173D01*
X520568Y226138D01*
X520554Y226095D01*
X520544Y226044D01*
X520541Y226016D01*
Y225987D01*
Y225985D01*
Y225979D01*
Y225971D01*
X520543Y225961D01*
Y225947D01*
X520544Y225932D01*
X520550Y225895D01*
X520560Y225855D01*
X520576Y225812D01*
X520597Y225771D01*
X520609Y225751D01*
X520625Y225734D01*
Y225732D01*
X520629Y225730D01*
X520641Y225718D01*
X520658Y225704D01*
X520682Y225687D01*
X520711Y225669D01*
X520746Y225654D01*
X520788Y225644D01*
X520809Y225642D01*
X520831Y225640D01*
X520842D01*
X520852Y225642D01*
X520862Y225644D01*
X520874Y225646D01*
X520903Y225652D01*
X520936Y225665D01*
X520974Y225683D01*
X520991Y225695D01*
X521009Y225708D01*
X521027Y225724D01*
X521044Y225742D01*
Y225744D01*
X521048Y225746D01*
X521052Y225751D01*
X521058Y225759D01*
X521066Y225769D01*
X521074Y225781D01*
X521082Y225797D01*
X521089Y225812D01*
X521105Y225850D01*
X521121Y225895D01*
X521131Y225945D01*
X521133Y225973D01*
X521135Y226002D01*
Y226004D01*
Y226008D01*
Y226016D01*
X521133Y226026D01*
Y226040D01*
X521131Y226053D01*
X521125Y226087D01*
X521113Y226124D01*
X521099Y226163D01*
X521078Y226202D01*
X521066Y226220D01*
X521050Y226238D01*
X521048D01*
X521046Y226241D01*
X521034Y226251D01*
X521017Y226265D01*
X520991Y226281D01*
X520960Y226298D01*
X520923Y226312D01*
X520882Y226322D01*
X520858Y226324D01*
X520835Y226326D01*
D02*
G37*
%LPD*%
M02*
