M48
;Layer_Color=9474304
;FILE_FORMAT=2:5
INCH,LZ
;TYPE=NON_PLATED
T15F00S00C0.09055
T16F00S00C0.11024
T17F00S00C0.11811
%
T15
X0144472Y0135248
X0203528
X0256459
X0315514
X0368445
X04275
X0480972
X0540028
X0594972Y0134748
X0654028
X0701445
X07605
T16
X0144472Y01195
X0203528
X0256459
X0315514
X0368445
X04275
X0480972
X0540028
X0594972Y0119
X0654028
X0701445
X07605
T17
X0162496Y03905
X0181
M30
