G04*
G04 #@! TF.GenerationSoftware,Altium Limited,Altium Designer,25.5.2 (35)*
G04*
G04 Layer_Color=12632256*
%FSLAX25Y25*%
%MOIN*%
G70*
G04*
G04 #@! TF.SameCoordinates,1DACB3DC-ACE0-44E2-B579-3CE0BC83F536*
G04*
G04*
G04 #@! TF.FilePolarity,Positive*
G04*
G01*
G75*
%ADD118C,0.06850*%
G04:AMPARAMS|DCode=120|XSize=35.43mil|YSize=94.49mil|CornerRadius=17.72mil|HoleSize=0mil|Usage=FLASHONLY|Rotation=180.000|XOffset=0mil|YOffset=0mil|HoleType=Round|Shape=RoundedRectangle|*
%AMROUNDEDRECTD120*
21,1,0.03543,0.05906,0,0,180.0*
21,1,0.00000,0.09449,0,0,180.0*
1,1,0.03543,0.00000,0.02953*
1,1,0.03543,0.00000,0.02953*
1,1,0.03543,0.00000,-0.02953*
1,1,0.03543,0.00000,-0.02953*
%
%ADD120ROUNDEDRECTD120*%
G04:AMPARAMS|DCode=121|XSize=35.43mil|YSize=66.93mil|CornerRadius=17.72mil|HoleSize=0mil|Usage=FLASHONLY|Rotation=180.000|XOffset=0mil|YOffset=0mil|HoleType=Round|Shape=RoundedRectangle|*
%AMROUNDEDRECTD121*
21,1,0.03543,0.03150,0,0,180.0*
21,1,0.00000,0.06693,0,0,180.0*
1,1,0.03543,0.00000,0.01575*
1,1,0.03543,0.00000,0.01575*
1,1,0.03543,0.00000,-0.01575*
1,1,0.03543,0.00000,-0.01575*
%
%ADD121ROUNDEDRECTD121*%
%ADD122C,0.02559*%
%ADD136R,0.06850X0.06850*%
%ADD147C,0.03878*%
%ADD148C,0.05906*%
%ADD149C,0.06693*%
%ADD150C,0.05984*%
%ADD151C,0.05118*%
%ADD153C,0.11811*%
%ADD155C,0.05512*%
%ADD156R,0.05512X0.05512*%
%ADD157R,0.03878X0.03878*%
%ADD158C,0.11024*%
%ADD159C,0.09055*%
%ADD161R,0.05118X0.05118*%
%ADD162C,0.09843*%
D118*
X666500Y267000D02*
D03*
X676500Y257000D02*
D03*
X666500Y287000D02*
D03*
Y247000D02*
D03*
Y297000D02*
D03*
X676500Y267000D02*
D03*
Y277000D02*
D03*
Y287000D02*
D03*
Y297000D02*
D03*
X666500Y257000D02*
D03*
Y277000D02*
D03*
D120*
X272628Y409012D02*
D03*
X238572D02*
D03*
D121*
X272628Y422319D02*
D03*
X238572D02*
D03*
D122*
X267313Y410468D02*
D03*
Y405154D02*
D03*
X243887Y410468D02*
D03*
Y405154D02*
D03*
X263966D02*
D03*
X260620D02*
D03*
X257273D02*
D03*
X253927D02*
D03*
X250580D02*
D03*
X247234D02*
D03*
Y410468D02*
D03*
X250580D02*
D03*
X253927D02*
D03*
X257273D02*
D03*
X260620D02*
D03*
X263966D02*
D03*
D136*
X676500Y247000D02*
D03*
D147*
X553700Y172800D02*
D03*
Y152800D02*
D03*
Y162800D02*
D03*
D148*
X192400Y330000D02*
D03*
X690600Y329100D02*
D03*
X371000Y336200D02*
D03*
X208600Y330000D02*
D03*
X383500Y318100D02*
D03*
X343800Y336200D02*
D03*
X287300Y390000D02*
D03*
X281800Y252200D02*
D03*
D149*
X737932Y127788D02*
D03*
X730972Y119000D02*
D03*
X631460Y127788D02*
D03*
X624500Y119000D02*
D03*
X517460Y128288D02*
D03*
X510500Y119500D02*
D03*
X404932Y128288D02*
D03*
X397972Y119500D02*
D03*
X292946Y128288D02*
D03*
X285986Y119500D02*
D03*
X180960Y128288D02*
D03*
X174000Y119500D02*
D03*
X517460Y142208D02*
D03*
X510500Y135248D02*
D03*
X503540Y128288D02*
D03*
Y142208D02*
D03*
X624500Y134748D02*
D03*
X617540Y127788D02*
D03*
X631460Y141708D02*
D03*
X617540D02*
D03*
X285986Y135248D02*
D03*
X292946Y142208D02*
D03*
X397972Y135248D02*
D03*
X404932Y142208D02*
D03*
X174000Y135248D02*
D03*
X180960Y142208D02*
D03*
X730972Y134748D02*
D03*
X724013Y141708D02*
D03*
Y127788D02*
D03*
X737932Y141708D02*
D03*
X391013Y142208D02*
D03*
Y128288D02*
D03*
X279026Y142208D02*
D03*
Y128288D02*
D03*
X167040Y142208D02*
D03*
Y128288D02*
D03*
D150*
X177654Y373492D02*
D03*
X189465D02*
D03*
Y361681D02*
D03*
X154032Y373492D02*
D03*
Y361681D02*
D03*
X165842D02*
D03*
X177654D02*
D03*
X165842Y373492D02*
D03*
D151*
X131063Y321700D02*
D03*
D153*
X181000Y390500D02*
D03*
X162496D02*
D03*
D155*
X670539Y394500D02*
D03*
X725579D02*
D03*
X618000Y395000D02*
D03*
X566309Y394500D02*
D03*
X513270Y395000D02*
D03*
D156*
X680382Y394500D02*
D03*
X627843Y395000D02*
D03*
X576152Y394500D02*
D03*
X523112Y395000D02*
D03*
X735421Y394500D02*
D03*
D157*
X553700Y182800D02*
D03*
D158*
X540028Y119500D02*
D03*
X480972D02*
D03*
X654028Y119000D02*
D03*
X594972D02*
D03*
X701445D02*
D03*
X760500D02*
D03*
X368445Y119500D02*
D03*
X427500D02*
D03*
X256459D02*
D03*
X315514D02*
D03*
X144472D02*
D03*
X203528D02*
D03*
D159*
X540028Y135248D02*
D03*
X480972D02*
D03*
X654028Y134748D02*
D03*
X594972D02*
D03*
X701445D02*
D03*
X760500D02*
D03*
X368445Y135248D02*
D03*
X427500D02*
D03*
X256459D02*
D03*
X315514D02*
D03*
X144472D02*
D03*
X203528D02*
D03*
D161*
X138937Y321700D02*
D03*
D162*
X467961Y384500D02*
D03*
X438039D02*
D03*
M02*
