G04*
G04 #@! TF.GenerationSoftware,Altium Limited,Altium Designer,25.5.2 (35)*
G04*
G04 Layer_Color=8388736*
%FSLAX25Y25*%
%MOIN*%
G70*
G04*
G04 #@! TF.SameCoordinates,1DACB3DC-ACE0-44E2-B579-3CE0BC83F536*
G04*
G04*
G04 #@! TF.FilePolarity,Positive*
G04*
G01*
G75*
%ADD187C,0.00394*%
D187*
X193600Y247232D02*
Y251168D01*
X191631Y249200D02*
X195569D01*
X253631Y421000D02*
X257569D01*
X255600Y419031D02*
Y422968D01*
X180677Y180532D02*
Y184468D01*
X178709Y182500D02*
X182646D01*
X500732Y306700D02*
X504669D01*
X502700Y304731D02*
Y308668D01*
X287300Y333631D02*
Y337568D01*
X285332Y335600D02*
X289268D01*
X270731Y331400D02*
X274669D01*
X272700Y329432D02*
Y333368D01*
X273932Y315500D02*
X277869D01*
X275900Y313531D02*
Y317469D01*
X287600Y320932D02*
Y324868D01*
X285631Y322900D02*
X289568D01*
X271500Y368131D02*
Y372069D01*
X269531Y370100D02*
X273468D01*
X281132Y366300D02*
X285068D01*
X283100Y364332D02*
Y368268D01*
X239831Y369100D02*
X243769D01*
X241800Y367131D02*
Y371069D01*
X253700Y366932D02*
Y370868D01*
X251731Y368900D02*
X255668D01*
X240732Y390600D02*
X244669D01*
X242700Y388632D02*
Y392568D01*
X669531Y330500D02*
X673468D01*
X671500Y328532D02*
Y332469D01*
X215032Y369500D02*
X218969D01*
X217000Y367531D02*
Y371468D01*
X417500Y204532D02*
Y208469D01*
X415531Y206500D02*
X419468D01*
X306500Y203031D02*
Y206968D01*
X304532Y205000D02*
X308469D01*
X190532Y206500D02*
X194468D01*
X192500Y204532D02*
Y208469D01*
X700500Y230532D02*
Y234469D01*
X698531Y232500D02*
X702468D01*
X454000Y123531D02*
Y127469D01*
X452032Y125500D02*
X455969D01*
X232000Y124531D02*
Y128469D01*
X230031Y126500D02*
X233968D01*
X293177Y178532D02*
Y182468D01*
X291209Y180500D02*
X295146D01*
X671500Y270031D02*
Y273969D01*
X669531Y272000D02*
X673468D01*
X402709Y182500D02*
X406646D01*
X404677Y180532D02*
Y184468D01*
X676532Y125500D02*
X680469D01*
X678500Y123531D02*
Y127469D01*
M02*
