<?xml version="1.0" encoding="UTF-8"?>
<!DOCTYPE svg PUBLIC "-//W3C//DTD SVG 1.1//EN" "http://www.w3.org/Graphics/SVG/1.1/DTD/svg11.dtd">

<svg xmlns="http://www.w3.org/2000/svg" xmlns:xlink="http://www.w3.org/1999/xlink" xmlns:xs="http://www.w3.org/2001/XMLSchema" xmlns:wb="http://www.ti.com/webench" version="1.1" width="100%" height="100%" viewBox="0 0 1400.0 560.0" preserveAspectRatio="xMidYMid meet">
  <defs>
    <g id="WB_CONTINUATION">
      <circle xmlns="" opacity="0.01" fill="#ffffff" stroke="#000000" stroke-width="0" cx="0" cy="0" r="14" />
      <line fill="none" stroke="#CC0000" stroke-width="2" x1="0" y1="10" x2="0" y2="-10" />
      <line fill="none" stroke="#CC0000" stroke-width="2" x1="-10" y1="-10" x2="10" y2="-10" />
    </g>
    <g id="WB_BLOCK_IO">
      <circle xmlns="" opacity="0.01" fill="#ffffff" stroke="#000000" stroke-width="0" cx="0" cy="0" r="14" />
      <line stroke="#CC0000" fill="none" stroke-width="2" x1="-5" y1="0" x2="5" y2="0" />
    </g>
    <g id="WB_STARTUP_VOLTAGE_SOURCE">
      <circle xmlns="" opacity="0.01" fill="#ffffff" stroke="#000000" stroke-width="0" cx="0" cy="0" r="14" />
      <circle fill-opacity="0.01" fill="#CC0000" stroke="#CC0000" stroke-width="2" cx="0" cy="0" r="14" />
      <polyline fill="none" stroke="#CC0000" stroke-width="2" points="-6,-11 -6,7 5,9 5,12 " />
      <line fill="none" stroke="#CC0000" stroke-width="2" x1="16" y1="-12" x2="16" y2="-18" />
      <line fill="none" stroke="#CC0000" stroke-width="2" x1="-17" y1="-12" x2="-17" y2="-18" />
      <line fill="none" stroke="#CC0000" stroke-width="2" x1="-14" y1="-15" x2="-20" y2="-15" />
      <line fill="none" stroke="#CC0000" stroke-width="2" x1="-15" y1="0" x2="-30" y2="0" />
      <line fill="none" stroke="#CC0000" stroke-width="2" x1="30" y1="0" x2="15" y2="0" />
    </g>
    <g id="WB_SOURCE_RESISTOR">
      <circle xmlns="" opacity="0.01" fill="#ffffff" stroke="#000000" stroke-width="0" cx="0" cy="0" r="14" />
      <polyline fill="none" stroke="#CC0000" stroke-width="2" stroke-linecap="round" stroke-linejoin="round" points="30,0 20,0 15,-6 7.5,6 0,-6 -7.5,6 -15,-6 -20,0 -30,0" />
    </g>
    <g id="WB_PRIM_STARTUP_VOLTAGE_SOURCE">
      <circle xmlns="" opacity="0.01" fill="#ffffff" stroke="#000000" stroke-width="0" cx="0" cy="0" r="14" />
      <circle fill-opacity="0.01" fill="#CC0000" stroke="#CC0000" stroke-width="2" cx="0" cy="0" r="14" />
      <polyline fill="none" stroke="#CC0000" stroke-width="2" points="-6,-11 -6,7 5,9 5,12 " />
      <line fill="none" stroke="#CC0000" stroke-width="2" x1="16" y1="-12" x2="16" y2="-18" />
      <line fill="none" stroke="#CC0000" stroke-width="2" x1="-17" y1="-12" x2="-17" y2="-18" />
      <line fill="none" stroke="#CC0000" stroke-width="2" x1="-14" y1="-15" x2="-20" y2="-15" />
      <line fill="none" stroke="#CC0000" stroke-width="2" x1="-15" y1="0" x2="-30" y2="0" />
      <line fill="none" stroke="#CC0000" stroke-width="2" x1="30" y1="0" x2="15" y2="0" />
    </g>
    <g id="WB_CURRENT_PROBE">
      <circle xmlns="" opacity="0.01" fill="#ffffff" stroke="#000000" stroke-width="0" cx="0" cy="0" r="14" />
      <line stroke="#CC0000" stroke-width="2" stroke-linecap="square" stroke-linejoin="round" x1="-16" y1="0" x2="-10" y2="0" />
      <polyline stroke="#CC0000" stroke-width="2" stroke-linecap="square" stroke-linejoin="round" points="6,0 3,-3.5 3,3.5 6,0 -6,0 " />
      <line stroke="#CC0000" stroke-width="2" stroke-linecap="square" stroke-linejoin="round" x1="10" y1="0" x2="16" y2="0" />
      <rect stroke-width="1" x="-9.5" y="-7" fill="none" stroke="#CC0000" width="19" height="14" />
    </g>
    <g id="WB_PWL_CURRENT_LOAD">
      <circle xmlns="" opacity="0.01" fill="#ffffff" stroke="#000000" stroke-width="0" cx="0" cy="0" r="14" />
      <circle fill-opacity="0.01" fill="#CC0000" stroke="#CC0000" stroke-width="2" cx="0" cy="0" r="14" />
      <line y1="0" x2="-20" stroke="#CC0000" x1="-30" fill="none" stroke-width="2" y2="0" />
      <line y1="0" x2="20" stroke="#CC0000" x1="30" fill="none" stroke-width="2" y2="0" />
      <polyline stroke="#CC0000" points="-7,6 4,8  " stroke-linejoin="round" fill="none" stroke-width="2" stroke-linecap="round" />
      <polyline stroke="#CC0000" points="-7,-6 4,-8  " stroke-linejoin="round" fill="none" stroke-width="2" stroke-linecap="round" />
      <polyline stroke="#CC0000" points="-20,0 -15,0  " stroke-linejoin="round" fill="none" stroke-width="2" stroke-linecap="round" />
      <polyline stroke="#CC0000" points="20,0 15,0  " stroke-linejoin="round" fill="none" stroke-width="2" stroke-linecap="round" />
      <polyline stroke="#CC0000" points="-7,-6 -7,6  " stroke-linejoin="round" fill="none" stroke-width="2" stroke-linecap="round" />
      <polyline stroke="#CC0000" points="4,-8 4,-11  " stroke-linejoin="round" fill="none" stroke-width="2" stroke-linecap="round" />
      <polyline stroke="#CC0000" points="4,8 4,11  " stroke-linejoin="round" fill="none" stroke-width="2" stroke-linecap="round" />
      <line x1="23" y1="-13" x2="23" y2="-7" stroke="#CC0000" fill="none" stroke-width="2" stroke-linecap="round" />
      <line x1="-23" y1="-13" x2="-23" y2="-7" stroke="#CC0000" fill="none" stroke-width="2" stroke-linecap="round" />
      <line x1="-26" y1="-10" x2="-20" y2="-10" stroke="#CC0000" fill="none" stroke-width="2" stroke-linecap="round" />
    </g>
    <g id="WB_RESISTOR">
      <circle xmlns="" opacity="0.01" fill="#ffffff" stroke="#000000" stroke-width="0" cx="0" cy="0" r="14" />
      <polyline fill="none" stroke="#115566" stroke-width="2" stroke-linecap="round" stroke-linejoin="round" points="30,0 20,0 15,-6 7.5,6 0,-6 -7.5,6 -15,-6 -20,0 -30,0" />
    </g>
    <g id="WB_CAP_POLARIZED">
      <circle xmlns="" opacity="0.01" fill="#ffffff" stroke="#000000" stroke-width="0" cx="0" cy="0" r="14" />
      <path fill="none" stroke="#115566" stroke-width="2" stroke-linecap="round" stroke-linejoin="round" d="M-6.5,12c0.2,0,1.1 -1,2.5 -3c1.5 -2,2.3 -5,2.5 -9c-0.2 -4 -1 -7 -2.5 -9c-1.4 -2 -2.3 -3 -2.5 -3" />
      <line fill="none" stroke="#115566" stroke-width="2" x1="4" y1="13" x2="4" y2="-13" />
      <line fill="none" stroke="#115566" stroke-width="2" x1="-30" y1="0" x2="-2" y2="0" />
      <line fill="none" stroke="#115566" stroke-width="2" x1="4" y1="0" x2="30" y2="0" />
      <line fill="none" stroke="#115566" stroke-width="2" x1="14" y1="10" x2="14" y2="6" />
      <line fill="none" stroke="#115566" stroke-width="2" x1="12" y1="8" x2="16" y2="8" />
    </g>
    <g id="WB_CAPACITOR">
      <circle xmlns="" opacity="0.01" fill="#ffffff" stroke="#000000" stroke-width="0" cx="0" cy="0" r="14" />
      <line y1="0" x2="20" stroke="#115566" x1="30" fill="none" stroke-width="2" y2="0" />
      <line y1="0" x2="-20" stroke="#115566" x1="-30" fill="none" stroke-width="2" y2="0" />
      <polyline stroke="#115566" points="3,12 3,-12  " stroke-linejoin="round" fill="none" stroke-width="2" stroke-linecap="round" />
      <polyline stroke="#115566" points="-20,0 -3,0  " stroke-linejoin="round" fill="none" stroke-width="2" stroke-linecap="round" />
      <polyline stroke="#115566" points="3,0 20,0  " stroke-linejoin="round" fill="none" stroke-width="2" stroke-linecap="round" />
      <polyline stroke="#115566" points="-3,12 -3,-12  " stroke-linejoin="round" fill="none" stroke-width="2" stroke-linecap="round" />
    </g>
    <g id="WB_CAP_OUTPUT">
      <circle xmlns="" opacity="0.01" fill="#ffffff" stroke="#000000" stroke-width="0" cx="0" cy="0" r="14" />
      <path fill="none" stroke="#CC0000" stroke-width="2" stroke-linecap="round" stroke-linejoin="round" d="M-6.5,12c0.2,0,1.1 -1,2.5 -3c1.5 -2,2.3 -5,2.5 -9c-0.2 -4 -1 -7 -2.5 -9c-1.4 -2 -2.3 -3 -2.5 -3" />
      <line fill="none" stroke="#CC0000" stroke-width="2" x1="4" y1="13" x2="4" y2="-13" />
      <line fill="none" stroke="#CC0000" stroke-width="2" x1="-30" y1="0" x2="-2" y2="0" />
      <line fill="none" stroke="#CC0000" stroke-width="2" x1="4" y1="0" x2="30" y2="0" />
      <line fill="none" stroke="#CC0000" stroke-width="2" x1="14" y1="10" x2="14" y2="6" />
      <line fill="none" stroke="#CC0000" stroke-width="2" x1="12" y1="8" x2="16" y2="8" />
    </g>
    <g id="WB_VOLTAGE_PROBE">
      <circle xmlns="" opacity="0.01" fill="#ffffff" stroke="#000000" stroke-width="0" cx="0" cy="0" r="14" />
      <rect stroke-width="1" width="20" stroke="#CC0000" x="-10" height="19.5" y="-30" fill="#CC0000" fill-opacity="0.01" />
      <polyline stroke="#CC0000" points="7,-27 4,-22 3,-26 0,-18 -1,-22 -5,-14  " stroke-linejoin="round" fill="none" stroke-width="2" stroke-linecap="round" />
      <line y1="0" x2="0" stroke="#CC0000" x1="0" fill="none" stroke-width="2" y2="-10" />
    </g>
    <g id="WB_PRIM_DC_VOLTAGE_SOURCE">
      <circle xmlns="" opacity="0.01" fill="#ffffff" stroke="#000000" stroke-width="0" cx="0" cy="0" r="14" />
      <line fill="none" stroke="#CC0000" stroke-width="2" x1="-8" y1="0" x2="-30" y2="0" />
      <line fill="none" stroke="#CC0000" stroke-width="2" x1="-7" y1="12" x2="-7" y2="-12" />
      <line fill="none" stroke="#CC0000" stroke-width="2" x1="4" y1="12" x2="4" y2="-12" />
      <line fill="none" stroke="#CC0000" stroke-width="2" x1="30" y1="0" x2="11" y2="0" />
      <line fill="none" stroke="#CC0000" stroke-width="2" x1="-2" y1="5" x2="-2" y2="-5" />
      <line fill="none" stroke="#CC0000" stroke-width="2" x1="-1" y1="5" x2="-1" y2="-5" />
      <line fill="none" stroke="#CC0000" stroke-width="2" x1="-14" y1="-9" x2="-14" y2="-15" />
      <line fill="none" stroke="#CC0000" stroke-width="2" x1="-11" y1="-12" x2="-17" y2="-12" />
      <line fill="none" stroke="#CC0000" stroke-width="2" x1="13" y1="-10" x2="13" y2="-15" />
      <line fill="none" stroke="#CC0000" stroke-width="2" x1="10" y1="5" x2="10" y2="-5" />
      <line fill="none" stroke="#CC0000" stroke-width="2" x1="9" y1="5" x2="9" y2="-5" />
    </g>
    <g id="WB_GND">
      <circle xmlns="" opacity="0.01" fill="#ffffff" stroke="#000000" stroke-width="0" cx="0" cy="0" r="14" />
      <line fill="none" stroke="black" stroke-width="2" x1="0" y1="-10" x2="0" y2="0" />
      <line fill="none" stroke="black" stroke-width="2" x1="-13" y1="0" x2="13" y2="0" />
      <line fill="none" stroke="black" stroke-width="2" x1="-9" y1="4" x2="9" y2="4" />
      <line fill="none" stroke="black" stroke-width="2" x1="-3" y1="8" x2="3" y2="8" />
    </g>
    <g id="WB_TPS54561">
      <circle xmlns="" opacity="0.01" fill="#ffffff" stroke="#000000" stroke-width="0" cx="0" cy="0" r="14" />
      <rect width="140" height="260" x="-70" y="-130" stroke="#000000" stroke-width="4" fill="#F2F2F2" stroke-linecap="round" stroke-linejoin="round" />
      <text id="partNumber_label" x="0" y="-24" style="font-family:arial;font-weight:bold;font-size:16;text-anchor:middle;">TPS54561</text>
      <line fill="none" stroke="#000000" stroke-width="2" stroke-linecap="round" stroke-linejoin="round" x1="80" y1="-80" x2="70" y2="-80" />
      <text id="1" x="64" y="-76" style="font-family:arial;font-weight:normal;font-size:11;text-anchor:end;">BOOT</text>
      <line fill="none" stroke="#000000" stroke-width="2" stroke-linecap="round" stroke-linejoin="round" x1="-80" y1="-100" x2="-70" y2="-100" />
      <text id="2" x="-64" y="-96" style="font-family:arial;font-weight:normal;font-size:11;text-anchor:start;">VIN</text>
      <line fill="none" stroke="#000000" stroke-width="2" stroke-linecap="round" stroke-linejoin="round" x1="-80" y1="-25" x2="-70" y2="-25" />
      <text id="3" x="-64" y="-21" style="font-family:arial;font-weight:normal;font-size:11;text-anchor:start;">EN</text>
      <line fill="none" stroke="#000000" stroke-width="2" stroke-linecap="round" stroke-linejoin="round" x1="-80" y1="50" x2="-70" y2="50" />
      <text id="4" x="-64" y="54" style="font-family:arial;font-weight:normal;font-size:11;text-anchor:start;">SS</text>
      <line fill="none" stroke="#000000" stroke-width="2" stroke-linecap="round" stroke-linejoin="round" x1="-80" y1="80" x2="-70" y2="80" />
      <text id="5" x="-64" y="84" style="font-family:arial;font-weight:normal;font-size:11;text-anchor:start;">RT</text>
      <line fill="none" stroke="#000000" stroke-width="2" stroke-linecap="round" stroke-linejoin="round" x1="80" y1="-100" x2="70" y2="-100" />
      <text id="6" x="64" y="-96" style="font-family:arial;font-weight:normal;font-size:11;text-anchor:end;">PWRGD</text>
      <line fill="none" stroke="#000000" stroke-width="2" stroke-linecap="round" stroke-linejoin="round" x1="80" y1="80" x2="70" y2="80" />
      <text id="7" x="64" y="84" style="font-family:arial;font-weight:normal;font-size:11;text-anchor:end;">FB</text>
      <line fill="none" stroke="#000000" stroke-width="2" stroke-linecap="round" stroke-linejoin="round" x1="-80" y1="20" x2="-70" y2="20" />
      <text id="8" x="-64" y="24" style="font-family:arial;font-weight:normal;font-size:11;text-anchor:start;">COMP</text>
      <line fill="none" stroke="#000000" stroke-width="2" stroke-linecap="round" stroke-linejoin="round" x1="80" y1="110" x2="70" y2="110" />
      <text id="9" x="64" y="114" style="font-family:arial;font-weight:normal;font-size:11;text-anchor:end;">GND</text>
      <line fill="none" stroke="#000000" stroke-width="2" stroke-linecap="round" stroke-linejoin="round" x1="80" y1="-40" x2="70" y2="-40" />
      <text id="10" x="64" y="-36" style="font-family:arial;font-weight:normal;font-size:11;text-anchor:end;">SW</text>
    </g>
    <g id="WB_ZENER">
      <circle xmlns="" opacity="0.01" fill="#ffffff" stroke="#000000" stroke-width="0" cx="0" cy="0" r="14" />
      <path fill="#CC0000" d="M-11,0L10,-12,10,12 -11,0" />
      <line fill="none" stroke="#CC0000" stroke-width="2" x1="30" y1="0" x2="-30" y2="0" />
      <polyline fill="none" stroke="#CC0000" stroke-width="2" points="-8,-12 -10,-10 -10,10 -12,12" />
    </g>
    <g id="WB_INDUCTOR">
      <circle xmlns="" opacity="0.01" fill="#ffffff" stroke="#000000" stroke-width="0" cx="0" cy="0" r="14" />
      <path fill="none" stroke="#115566" stroke-width="2" stroke-linecap="round" stroke-linejoin="round" d="M-10,0c0-0.6-0.2-1.8-0.6-3.3c-0.5-2.4-2-3.7-4.4-4c-2.4,0.3-3.8,1.6-4.3,4c-0.6,2.3-0.8,3.6-0.7,3M-20,0H-30" />
      <path fill="none" stroke="#115566" stroke-width="2" stroke-linecap="round" stroke-linejoin="round" d="M0,0c0-0.6-0.2-1.8-0.6-3.3c-0.5-2.4-2-3.7-4.4-4c-2.4,0.3-3.8,1.6-4.3,4c-0.6,2.3-0.8,3.6-0.7,4" />
      <path fill="none" stroke="#115566" stroke-width="2" stroke-linecap="round" stroke-linejoin="round" d="M10,0c0-0.6-0.2-1.8-0.6-3.3c-0.5-2.4-2-3.7-4.4-4c-2.4,0.3-3.8,1.6-4.3,4c-0.6,2.3-0.8,3.6-0.7,4" />
      <path fill="none" stroke="#115566" stroke-width="2" stroke-linecap="round" stroke-linejoin="round" d="M30,0H20c0-0.6-0.2-1.8-0.6-3.3c-0.5-2.4-2-3.7-4.4-4c-2.4,0.3-3.8,1.6-4.3,4c-0.6,2.3-0.8,3.6-0.7,4" />
      <path fill="none" stroke="#115566" stroke-width="2" stroke-linecap="round" stroke-linejoin="round" d=" M10,0 c0.1,0.4,0.1,0.6,0,0.7" />
      <path fill="none" stroke="#115566" stroke-width="2" stroke-linecap="round" stroke-linejoin="round" d=" M0,0  c0.1,0.4,0.1,0.6,0,0.7" />
      <path fill="none" stroke="#115566" stroke-width="2" stroke-linecap="round" stroke-linejoin="round" d=" M-10,0c0.1,0.4,0.1,0.6,0,0.7" />
    </g>
    <g id="WB_DIODE_SCHOTTKY">
      <circle xmlns="" opacity="0.01" fill="#ffffff" stroke="#000000" stroke-width="0" cx="0" cy="0" r="14" />
      <line x1="-30" y1="0" x2="30" y2="0" stroke="#115566" fill="none" stroke-width="2" />
      <polygon stroke="#115566" points="8,-10 -8,0 8,10" stroke-linejoin="round" fill="#115566" stroke-width="2" stroke-linecap="round" />
      <polyline stroke="#115566" points="-11,-8 -11,-10 -8,-10 -8,10 -5,10 -5,8" stroke-linejoin="round" fill="none" stroke-width="2" stroke-linecap="round" />
    </g>
    <g id="WB_CURRENT_LOAD">
      <circle xmlns="" opacity="0.01" fill="#ffffff" stroke="#000000" stroke-width="0" cx="0" cy="0" r="14" />
      <path fill="none" stroke="#CC0000" stroke-width="2" stroke-linecap="round" stroke-linejoin="round" d="M-15,0c 0.1, 4.2, 1.6, 7.7, 4.4, 10.6c 2.8, 2.8, 6.4, 4.3, 10.6, 4.4c 4.3-0.1, 7.8-1.6, 10.6 -4.4c 2.9-2.9, 4.3-6.4, 4.4-10.6" />
      <path fill="none" stroke="#CC0000" stroke-width="2" stroke-linecap="round" stroke-linejoin="round" d="M15,0c -0.1,-4.2,-1.6,-7.7,-4.4,-10.6c-2.8,-2.8,-6.4,-4.3,-10.6,-4.4c-4.3,0.1 -7.8,1.6 -10.6,4.4c-2.9,2.9 -4.3,6.4 -4.4,10.6" />
      <line fill="none" stroke="#CC0000" stroke-width="2" x1="30" y1="0" x2="15" y2="0" />
      <line fill="none" stroke="#CC0000" stroke-width="2" x1="-15" y1="0" x2="-30" y2="0" />
      <line fill="none" stroke="#CC0000" stroke-width="2" stroke-linecap="round" stroke-linejoin="round" x1="3" y1="7" x2="12" y2="0" />
      <line fill="none" stroke="#CC0000" stroke-width="2" stroke-linecap="round" stroke-linejoin="round" x1="3" y1="-7" x2="12" y2="0" />
      <line fill="none" stroke="#CC0000" stroke-width="2" stroke-linecap="round" stroke-linejoin="round" x1="12" y1="0" x2="-12" y2="0" />
    </g>
    <g id="WB_PWL_VOLTAGE_SOURCE">
      <circle xmlns="" opacity="0.01" fill="#ffffff" stroke="#000000" stroke-width="0" cx="0" cy="0" r="14" />
      <circle fill-opacity="0.01" fill="#CC0000" stroke="#CC0000" stroke-width="2" cx="0" cy="0" r="14" />
      <line y1="0" x2="-20" stroke="#CC0000" x1="-30" fill="none" stroke-width="2" y2="0" />
      <line y1="0" x2="20" stroke="#CC0000" x1="30" fill="none" stroke-width="2" y2="0" />
      <polyline stroke="#CC0000" points="-7,6 4,8  " stroke-linejoin="round" fill="none" stroke-width="2" stroke-linecap="round" />
      <polyline stroke="#CC0000" points="-7,-6 4,-8  " stroke-linejoin="round" fill="none" stroke-width="2" stroke-linecap="round" />
      <polyline stroke="#CC0000" points="-20,0 -15,0  " stroke-linejoin="round" fill="none" stroke-width="2" stroke-linecap="round" />
      <polyline stroke="#CC0000" points="20,0 15,0  " stroke-linejoin="round" fill="none" stroke-width="2" stroke-linecap="round" />
      <polyline stroke="#CC0000" points="-7,-6 -7,6  " stroke-linejoin="round" fill="none" stroke-width="2" stroke-linecap="round" />
      <polyline stroke="#CC0000" points="4,-8 4,-11  " stroke-linejoin="round" fill="none" stroke-width="2" stroke-linecap="round" />
      <polyline stroke="#CC0000" points="4,8 4,11  " stroke-linejoin="round" fill="none" stroke-width="2" stroke-linecap="round" />
      <line x1="23" y1="-13" x2="23" y2="-7" stroke="#CC0000" fill="none" stroke-width="2" stroke-linecap="round" />
      <line x1="-23" y1="-13" x2="-23" y2="-7" stroke="#CC0000" fill="none" stroke-width="2" stroke-linecap="round" />
      <line x1="-26" y1="-10" x2="-20" y2="-10" stroke="#CC0000" fill="none" stroke-width="2" stroke-linecap="round" />
    </g>
    <g id="WB_PRIM_PWL_VOLTAGE_SOURCE">
      <circle xmlns="" opacity="0.01" fill="#ffffff" stroke="#000000" stroke-width="0" cx="0" cy="0" r="14" />
      <circle fill-opacity="0.01" fill="#CC0000" stroke="#CC0000" stroke-width="2" cx="0" cy="0" r="14" />
      <line x1="-30" y1="0" x2="-15" y2="0" stroke="#CC0000" fill="none" stroke-width="2" />
      <line x1="30" y1="0" x2="15" y2="0" stroke="#CC0000" fill="none" stroke-width="2" />
      <polyline stroke="#CC0000" points="0,13 0,8 -7,6 -7,0 7,-4 0,-8 0,-13" stroke-linejoin="round" fill="none" stroke-width="2" stroke-linecap="round" />
      <line x1="23" y1="-13" x2="23" y2="-7" stroke="#CC0000" fill="none" stroke-width="2" stroke-linecap="round" />
      <line x1="-23" y1="-13" x2="-23" y2="-7" stroke="#CC0000" fill="none" stroke-width="2" stroke-linecap="round" />
      <line x1="-26" y1="-10" x2="-20" y2="-10" stroke="#CC0000" fill="none" stroke-width="2" stroke-linecap="round" />
    </g>
    <g id="WB_LOAD_RESISTOR">
      <circle xmlns="" opacity="0.01" fill="#ffffff" stroke="#000000" stroke-width="0" cx="0" cy="0" r="14" />
      <polyline fill="none" stroke="#CC0000" stroke-width="2" stroke-linecap="round" stroke-linejoin="round" points="30,0 20,0 15,-6 7.5,6 0,-6 -7.5,6 -15,-6 -20,0 -30,0" />
    </g>
    <g id="WB_PRIMITIVE_CAPACITOR">
      <circle xmlns="" opacity="0.01" fill="#ffffff" stroke="#000000" stroke-width="0" cx="0" cy="0" r="14" />
      <line y1="0" x2="20" stroke="#CC0000" x1="30" fill="none" stroke-width="2" y2="0" />
      <line y1="0" x2="-20" stroke="#CC0000" x1="-30" fill="none" stroke-width="2" y2="0" />
      <polyline stroke="#CC0000" points="3,12 3,-12  " stroke-linejoin="round" fill="none" stroke-width="2" stroke-linecap="round" />
      <polyline stroke="#CC0000" points="-20,0 -3,0  " stroke-linejoin="round" fill="none" stroke-width="2" stroke-linecap="round" />
      <polyline stroke="#CC0000" points="3,0 20,0  " stroke-linejoin="round" fill="none" stroke-width="2" stroke-linecap="round" />
      <polyline stroke="#CC0000" points="-3,12 -3,-12  " stroke-linejoin="round" fill="none" stroke-width="2" stroke-linecap="round" />
    </g>
    <g id="WB_PRIMITIVE_INDUCTOR">
      <circle xmlns="" opacity="0.01" fill="#ffffff" stroke="#000000" stroke-width="0" cx="0" cy="0" r="14" />
      <path fill="none" stroke="#CC0000" stroke-width="2" stroke-linecap="round" stroke-linejoin="round" d="M-10,0c0-0.6-0.2-1.8-0.6-3.3c-0.5-2.4-2-3.7-4.4-4c-2.4,0.3-3.8,1.6-4.3,4c-0.6,2.3-0.8,3.6-0.7,3M-20,0H-30" />
      <path fill="none" stroke="#CC0000" stroke-width="2" stroke-linecap="round" stroke-linejoin="round" d="M0,0c0-0.6-0.2-1.8-0.6-3.3c-0.5-2.4-2-3.7-4.4-4c-2.4,0.3-3.8,1.6-4.3,4c-0.6,2.3-0.8,3.6-0.7,4" />
      <path fill="none" stroke="#CC0000" stroke-width="2" stroke-linecap="round" stroke-linejoin="round" d="M10,0c0-0.6-0.2-1.8-0.6-3.3c-0.5-2.4-2-3.7-4.4-4c-2.4,0.3-3.8,1.6-4.3,4c-0.6,2.3-0.8,3.6-0.7,4" />
      <path fill="none" stroke="#CC0000" stroke-width="2" stroke-linecap="round" stroke-linejoin="round" d="M30,0H20c0-0.6-0.2-1.8-0.6-3.3c-0.5-2.4-2-3.7-4.4-4c-2.4,0.3-3.8,1.6-4.3,4c-0.6,2.3-0.8,3.6-0.7,4" />
      <path fill="none" stroke="#CC0000" stroke-width="2" stroke-linecap="round" stroke-linejoin="round" d=" M10,0 c0.1,0.4,0.1,0.6,0,0.7" />
      <path fill="none" stroke="#CC0000" stroke-width="2" stroke-linecap="round" stroke-linejoin="round" d=" M0,0  c0.1,0.4,0.1,0.6,0,0.7" />
      <path fill="none" stroke="#CC0000" stroke-width="2" stroke-linecap="round" stroke-linejoin="round" d=" M-10,0c0.1,0.4,0.1,0.6,0,0.7" />
    </g>
    <g id="WB_PRIM_AC_VOLTAGE_SOURCE">
      <circle xmlns="" opacity="0.01" fill="#ffffff" stroke="#000000" stroke-width="0" cx="0" cy="0" r="14" />
      <circle fill-opacity="0.01" fill="#CC0000" stroke="#CC0000" stroke-width="2" cx="0" cy="0" r="14" />
      <line y1="0" x2="-20" stroke="#CC0000" x1="-30" fill="none" stroke-width="2" y2="0" />
      <line y1="0" x2="20" stroke="#CC0000" x1="30" fill="none" stroke-width="2" y2="0" />
      <polyline stroke="#CC0000" points="-20,0 -15,0  " stroke-linejoin="round" fill="none" stroke-width="2" stroke-linecap="round" />
      <polyline stroke="#CC0000" points="20,0 15,0  " stroke-linejoin="round" fill="none" stroke-width="2" stroke-linecap="round" />
      <path stroke="#CC0000" d="M0,10A5,5 0 0,1 0,0 " fill="none" stroke-width="2" stroke-linecap="round" />
      <path stroke="#CC0000" d="M0-10A5,5 0 1,1 0,0 " fill="none" stroke-width="2" stroke-linecap="round" />
      <line x1="23" y1="-13" x2="23" y2="-7" stroke="#CC0000" fill="none" stroke-width="2" stroke-linecap="round" />
      <line x1="-23" y1="-13" x2="-23" y2="-7" stroke="#CC0000" fill="none" stroke-width="2" stroke-linecap="round" />
      <line x1="-26" y1="-10" x2="-20" y2="-10" stroke="#CC0000" fill="none" stroke-width="2" stroke-linecap="round" />
    </g>
    <g id="WB_PRIMITIVE_BATTERY">
      <circle xmlns="" opacity="0.01" fill="#ffffff" stroke="#000000" stroke-width="0" cx="0" cy="0" r="14" />
      <line fill="none" stroke="#CC0000" stroke-width="2" x1="-8" y1="0" x2="-30" y2="0" />
      <line fill="none" stroke="#CC0000" stroke-width="2" x1="-7" y1="12" x2="-7" y2="-12" />
      <line fill="none" stroke="#CC0000" stroke-width="2" x1="4" y1="12" x2="4" y2="-12" />
      <line fill="none" stroke="#CC0000" stroke-width="2" x1="30" y1="0" x2="11" y2="0" />
      <line fill="none" stroke="#CC0000" stroke-width="2" x1="-2" y1="5" x2="-2" y2="-5" />
      <line fill="none" stroke="#CC0000" stroke-width="2" x1="-1" y1="5" x2="-1" y2="-5" />
      <line fill="none" stroke="#CC0000" stroke-width="2" x1="-14" y1="-9" x2="-14" y2="-15" />
      <line fill="none" stroke="#CC0000" stroke-width="2" x1="-11" y1="-12" x2="-17" y2="-12" />
      <line fill="none" stroke="#CC0000" stroke-width="2" x1="13" y1="-10" x2="13" y2="-15" />
      <line fill="none" stroke="#CC0000" stroke-width="2" x1="10" y1="5" x2="10" y2="-5" />
      <line fill="none" stroke="#CC0000" stroke-width="2" x1="9" y1="5" x2="9" y2="-5" />
    </g>
    <g id="WB_BATTERY">
      <circle xmlns="" opacity="0.01" fill="#ffffff" stroke="#000000" stroke-width="0" cx="0" cy="0" r="14" />
      <line fill="none" stroke="#CC0000" stroke-width="2" x1="-8" y1="0" x2="-30" y2="0" />
      <line fill="none" stroke="#CC0000" stroke-width="2" x1="-7" y1="12" x2="-7" y2="-12" />
      <line fill="none" stroke="#CC0000" stroke-width="2" x1="4" y1="12" x2="4" y2="-12" />
      <line fill="none" stroke="#CC0000" stroke-width="2" x1="30" y1="0" x2="11" y2="0" />
      <line fill="none" stroke="#CC0000" stroke-width="2" x1="-2" y1="5" x2="-2" y2="-5" />
      <line fill="none" stroke="#CC0000" stroke-width="2" x1="-1" y1="5" x2="-1" y2="-5" />
      <line fill="none" stroke="#CC0000" stroke-width="2" x1="-14" y1="-9" x2="-14" y2="-15" />
      <line fill="none" stroke="#CC0000" stroke-width="2" x1="-11" y1="-12" x2="-17" y2="-12" />
      <line fill="none" stroke="#CC0000" stroke-width="2" x1="13" y1="-10" x2="13" y2="-15" />
      <line fill="none" stroke="#CC0000" stroke-width="2" x1="10" y1="5" x2="10" y2="-5" />
      <line fill="none" stroke="#CC0000" stroke-width="2" x1="9" y1="5" x2="9" y2="-5" />
    </g>
  </defs>
  <use id="Rcomp" class="comp" xlink:href="#WB_RESISTOR" x="380.0" y="320.0" transform="rotate(-90, 380.0, 320.0)" partNo="RC0201FR-0718K7L" thermalId="0201" resistance="18.7kOhm" manufacturer="Yageo" />
  <text for="Rcomp" x="395.0" y="320.0" style="font-family:arial;font-size:13px;stroke-width:0.5;stroke:#115566;fill:#115566;">Rcomp</text>
  <text for="Rcomp" x="395.0" y="330.0" style="font-family:arial;font-size:10px;stroke-width:0.1;stroke:#CC0000;fill:#CC0000;">18.7kOhm</text>
  <use id="Rt" class="comp" xlink:href="#WB_RESISTOR" x="565.0" y="420.0" transform="rotate(-90, 565.0, 420.0)" partNo="CRCW0402274KFKED" thermalId="0402" resistance="274kOhm" manufacturer="Vishay-Dale" />
  <text for="Rt" x="580.0" y="420.0" style="font-family:arial;font-size:13px;stroke-width:0.5;stroke:#115566;fill:#115566;">Rt</text>
  <text for="Rt" x="580.0" y="430.0" style="font-family:arial;font-size:10px;stroke-width:0.1;stroke:#CC0000;fill:#CC0000;">274kOhm</text>
  <use id="Cout" class="comp" xlink:href="#WB_CAP_POLARIZED" x="1090.0" y="350.0" transform="rotate(-90, 1090.0, 350.0)" cap="47uF" partNo="16SVPG47M" thermalId="CAPSMT_62_B45" esr="25mOhm" manufacturer="Panasonic" />
  <text for="Cout" x="1105.0" y="350.0" style="font-family:arial;font-size:13px;stroke-width:0.5;stroke:#115566;fill:#115566;">Cout</text>
  <text for="Cout" x="1105.0" y="360.0" style="font-family:arial;font-size:10px;stroke-width:0.1;stroke:#CC0000;fill:#CC0000;">47uF</text>
  <text for="Cout" x="1105.0" y="370.0" style="font-family:arial;font-size:10px;stroke-width:0.1;stroke:#CC0000;fill:#CC0000;">25mOhm</text>
  <use id="Ccomp" class="comp" xlink:href="#WB_CAPACITOR" x="380.0" y="380.0" transform="rotate(-90, 380.0, 380.0)" cap="22nF" partNo="CGA4J2C0G1H223J125AA" thermalId="0805" esr="0Ohm" manufacturer="TDK" />
  <text for="Ccomp" x="395.0" y="380.0" style="font-family:arial;font-size:13px;stroke-width:0.5;stroke:#115566;fill:#115566;">Ccomp</text>
  <text for="Ccomp" x="395.0" y="390.0" style="font-family:arial;font-size:10px;stroke-width:0.1;stroke:#CC0000;fill:#CC0000;">22nF</text>
  <text for="Ccomp" x="395.0" y="400.0" style="font-family:arial;font-size:10px;stroke-width:0.1;stroke:#CC0000;fill:#CC0000;">0Ohm</text>
  <use id="Rfbb" class="comp" xlink:href="#WB_RESISTOR" x="1010.0" y="410.0" transform="rotate(-90, 1010.0, 410.0)" partNo="CRCW040210K5FKED" thermalId="0402" resistance="10.5kOhm" manufacturer="Vishay-Dale" />
  <text for="Rfbb" x="1025.0" y="410.0" style="font-family:arial;font-size:13px;stroke-width:0.5;stroke:#115566;fill:#115566;">Rfbb</text>
  <text for="Rfbb" x="1025.0" y="420.0" style="font-family:arial;font-size:10px;stroke-width:0.1;stroke:#CC0000;fill:#CC0000;">10.5kOhm</text>
  <use id="Vdc_5V" class="other" xlink:href="#WB_PRIM_DC_VOLTAGE_SOURCE" x="885.0" y="110.0" />
  <text for="Vdc_5V" x="865.0" y="95.0" style="font-family:arial;font-size:13px;stroke-width:0.5;stroke:#CC0000;fill:#CC0000;">Vdc_5V</text>
  <use id="Cin" class="comp" xlink:href="#WB_CAPACITOR" x="190.0" y="280.0" transform="rotate(-90, 190.0, 280.0)" cap="2.2uF" partNo="C3225X7R2A225K230AB" thermalId="1210_250" esr="1.73mOhm" manufacturer="TDK" />
  <text for="Cin" x="205.0" y="280.0" style="font-family:arial;font-size:13px;stroke-width:0.5;stroke:#115566;fill:#115566;">Cin</text>
  <text for="Cin" x="205.0" y="290.0" style="font-family:arial;font-size:10px;stroke-width:0.1;stroke:#CC0000;fill:#CC0000;">2.2uF</text>
  <text for="Cin" x="205.0" y="300.0" style="font-family:arial;font-size:10px;stroke-width:0.1;stroke:#CC0000;fill:#CC0000;">1.73mOhm</text>
  <text for="Cin" x="205.0" y="310.0" style="font-family:arial;font-size:10px;stroke-width:0.1;stroke:#CC0000;fill:#CC0000;">Qty=3</text>
  <use id="Ccomp2" class="comp" xlink:href="#WB_CAPACITOR" x="455.0" y="360.0" transform="rotate(-90, 455.0, 360.0)" cap="18pF" partNo="CC0805JRNPO9BN180" thermalId="0805" esr="0Ohm" manufacturer="Yageo" />
  <text for="Ccomp2" x="470.0" y="360.0" style="font-family:arial;font-size:13px;stroke-width:0.5;stroke:#115566;fill:#115566;">Ccomp2</text>
  <text for="Ccomp2" x="470.0" y="370.0" style="font-family:arial;font-size:10px;stroke-width:0.1;stroke:#CC0000;fill:#CC0000;">18pF</text>
  <text for="Ccomp2" x="470.0" y="380.0" style="font-family:arial;font-size:10px;stroke-width:0.1;stroke:#CC0000;fill:#CC0000;">0Ohm</text>
  <use id="GND2" class="other" xlink:href="#WB_GND" x="855.0" y="330.0" />
  <use id="GND3" class="other" xlink:href="#WB_GND" x="970.0" y="135.0" />
  <use id="Rpg" class="comp" xlink:href="#WB_RESISTOR" x="755.0" y="140.0" transform="rotate(270, 755.0, 140.0)" partNo="CRCW04021K00FKED" thermalId="0402" resistance="1kOhm" manufacturer="Vishay-Dale" />
  <text for="Rpg" x="770.0" y="140.0" style="font-family:arial;font-size:13px;stroke-width:0.5;stroke:#115566;fill:#115566;">Rpg</text>
  <text for="Rpg" x="770.0" y="150.0" style="font-family:arial;font-size:10px;stroke-width:0.1;stroke:#CC0000;fill:#CC0000;">1kOhm</text>
  <use id="Css" class="comp" xlink:href="#WB_CAPACITOR" x="550.0" y="320.0" cap="2.7nF" partNo="C2012C0G1H272J060AA" thermalId="0805" esr="0Ohm" manufacturer="TDK" />
  <text for="Css" x="530.0" y="305.0" style="font-family:arial;font-size:13px;stroke-width:0.5;stroke:#115566;fill:#115566;">Css</text>
  <text for="Css" x="530.0" y="340.0" style="font-family:arial;font-size:10px;stroke-width:0.1;stroke:#CC0000;fill:#CC0000;">2.7nF</text>
  <text for="Css" x="530.0" y="350.0" style="font-family:arial;font-size:10px;stroke-width:0.1;stroke:#CC0000;fill:#CC0000;">0Ohm</text>
  <use id="U1" class="comp" xlink:href="#WB_TPS54561" x="660.0" y="270.0" />
  <text for="U1" x="640.0" y="270.0" style="font-family:arial;font-size:13px;stroke-width:0.5;stroke:#115566;fill:#115566;">U1</text>
  <use id="L1" class="comp" xlink:href="#WB_INDUCTOR" x="965.0" y="230.0" partNo="MSS1038-104MLB" thermalId="MSS1038" l="100uH" dcr="273.6mOhm" manufacturer="Coilcraft" />
  <text for="L1" x="945.0" y="215.0" style="font-family:arial;font-size:13px;stroke-width:0.5;stroke:#115566;fill:#115566;">L1</text>
  <text for="L1" x="945.0" y="250.0" style="font-family:arial;font-size:10px;stroke-width:0.1;stroke:#CC0000;fill:#CC0000;">100uH</text>
  <text for="L1" x="945.0" y="260.0" style="font-family:arial;font-size:10px;stroke-width:0.1;stroke:#CC0000;fill:#CC0000;">273.6mOhm</text>
  <use id="D1" class="comp" xlink:href="#WB_DIODE_SCHOTTKY" x="855.0" y="290.0" transform="rotate(-270, 855.0, 290.0)" vfatio="850mV" partNo="SK310A-TP" io="3A" thermalId="SMA" vrrm="" manufacturer="Micro Commercial Components" />
  <text for="D1" x="870.0" y="290.0" style="font-family:arial;font-size:13px;stroke-width:0.5;stroke:#115566;fill:#115566;">D1</text>
  <text for="D1" x="870.0" y="300.0" style="font-family:arial;font-size:10px;stroke-width:0.1;stroke:#CC0000;fill:#CC0000;">850mV</text>
  <text for="D1" x="870.0" y="310.0" style="font-family:arial;font-size:10px;stroke-width:0.1;stroke:#CC0000;fill:#CC0000;">3A</text>
  <use id="Rfbt" class="comp" xlink:href="#WB_RESISTOR" x="1010.0" y="290.0" transform="rotate(-90, 1010.0, 290.0)" partNo="CRCW0402147KFKED" thermalId="0402" resistance="147kOhm" manufacturer="Vishay-Dale" />
  <text for="Rfbt" x="1025.0" y="290.0" style="font-family:arial;font-size:13px;stroke-width:0.5;stroke:#115566;fill:#115566;">Rfbt</text>
  <text for="Rfbt" x="1025.0" y="300.0" style="font-family:arial;font-size:10px;stroke-width:0.1;stroke:#CC0000;fill:#CC0000;">147kOhm</text>
  <use id="Cboot" class="comp" xlink:href="#WB_CAPACITOR" x="840.0" y="190.0" cap="100nF" partNo="GRM155R71A104KA01D" thermalId="0402" esr="1mOhm" manufacturer="MuRata" />
  <text for="Cboot" x="820.0" y="175.0" style="font-family:arial;font-size:13px;stroke-width:0.5;stroke:#115566;fill:#115566;">Cboot</text>
  <text for="Cboot" x="820.0" y="210.0" style="font-family:arial;font-size:10px;stroke-width:0.1;stroke:#CC0000;fill:#CC0000;">100nF</text>
  <text for="Cboot" x="820.0" y="220.0" style="font-family:arial;font-size:10px;stroke-width:0.1;stroke:#CC0000;fill:#CC0000;">1mOhm</text>
  <use id="GND" class="other" xlink:href="#WB_GND" x="665.0" y="460.0" />
  <use id="Vin" class="other" xlink:href="#WB_BATTERY" x="100.0" y="310.0" transform="rotate(-270, 100.0, 310.0)" />
  <text for="Vin" x="115.0" y="310.0" style="font-family:arial;font-size:13px;stroke-width:0.5;stroke:#CC0000;fill:#CC0000;">Vin</text>
  <use id="Iout" class="other" xlink:href="#WB_CURRENT_LOAD" x="1285.0" y="370.0" transform="rotate(-270, 1285.0, 370.0)" />
  <text for="Iout" x="1300.0" y="370.0" style="font-family:arial;font-size:13px;stroke-width:0.5;stroke:#CC0000;fill:#CC0000;">Iout</text>
  <line x1="855.0" y1="260.0" x2="855.0" y2="230.0" stroke="#000000" stroke-width="2" fill="none" />
  <line x1="1090.0" y1="380.0" x2="1090.0" y2="450.0" stroke="#000000" stroke-width="2" fill="none" />
  <line x1="755.0" y1="170.0" x2="740.0" y2="170.0" stroke="#000000" stroke-width="2" fill="none" />
  <line x1="870.0" y1="190.0" x2="880.0" y2="190.0" stroke="#000000" stroke-width="2" fill="none" />
  <line x1="1010.0" y1="380.0" x2="1010.0" y2="320.0" stroke="#000000" stroke-width="2" fill="none" />
  <line x1="740.0" y1="350.0" x2="1010.0" y2="350.0" stroke="#000000" stroke-width="2" fill="none" />
  <line x1="880.0" y1="190.0" x2="880.0" y2="230.0" stroke="#000000" stroke-width="2" fill="none" />
  <line x1="740.0" y1="190.0" x2="810.0" y2="190.0" stroke="#000000" stroke-width="2" fill="none" />
  <line x1="740.0" y1="380.0" x2="765.0" y2="380.0" stroke="#000000" stroke-width="2" fill="none" />
  <line x1="190.0" y1="310.0" x2="190.0" y2="450.0" stroke="#000000" stroke-width="2" fill="none" />
  <line x1="565.0" y1="350.0" x2="565.0" y2="390.0" stroke="#000000" stroke-width="2" fill="none" />
  <line x1="580.0" y1="290.0" x2="380.0" y2="290.0" stroke="#000000" stroke-width="2" fill="none" />
  <line x1="380.0" y1="450.0" x2="380.0" y2="410.0" stroke="#000000" stroke-width="2" fill="none" />
  <line x1="915.0" y1="110.0" x2="970.0" y2="110.0" stroke="#000000" stroke-width="2" fill="none" />
  <line x1="190.0" y1="170.0" x2="190.0" y2="250.0" stroke="#000000" stroke-width="2" fill="none" />
  <line x1="1010.0" y1="260.0" x2="1010.0" y2="230.0" stroke="#000000" stroke-width="2" fill="none" />
  <line x1="855.0" y1="110.0" x2="755.0" y2="110.0" stroke="#000000" stroke-width="2" fill="none" />
  <line x1="970.0" y1="125.0" x2="970.0" y2="110.0" stroke="#000000" stroke-width="2" fill="none" />
  <line x1="455.0" y1="450.0" x2="455.0" y2="390.0" stroke="#000000" stroke-width="2" fill="none" />
  <line x1="455.0" y1="330.0" x2="455.0" y2="290.0" stroke="#000000" stroke-width="2" fill="none" />
  <line x1="580.0" y1="350.0" x2="565.0" y2="350.0" stroke="#000000" stroke-width="2" fill="none" />
  <line x1="1010.0" y1="450.0" x2="1010.0" y2="440.0" stroke="#000000" stroke-width="2" fill="none" />
  <line x1="580.0" y1="245.0" x2="525.0" y2="245.0" stroke="#000000" stroke-width="2" fill="none" />
  <line x1="765.0" y1="450.0" x2="765.0" y2="380.0" stroke="#000000" stroke-width="2" fill="none" />
  <line x1="520.0" y1="320.0" x2="520.0" y2="450.0" stroke="#000000" stroke-width="2" fill="none" />
  <line x1="1090.0" y1="320.0" x2="1090.0" y2="230.0" stroke="#000000" stroke-width="2" fill="none" />
  <line x1="995.0" y1="230.0" x2="1285.0" y2="230.0" stroke="#000000" stroke-width="2" fill="none" />
  <line x1="100.0" y1="170.0" x2="580.0" y2="170.0" stroke="#000000" stroke-width="2" fill="none" />
  <line x1="740.0" y1="230.0" x2="935.0" y2="230.0" stroke="#000000" stroke-width="2" fill="none" />
  <line x1="100.0" y1="450.0" x2="1285.0" y2="450.0" stroke="#000000" stroke-width="2" fill="none" />
  <line x1="100.0" y1="280.0" x2="100.0" y2="170.0" stroke="#000000" stroke-width="2" fill="none" />
  <line x1="100.0" y1="450.0" x2="100.0" y2="340.0" stroke="#000000" stroke-width="2" fill="none" />
  <line x1="1285.0" y1="340.0" x2="1285.0" y2="230.0" stroke="#000000" stroke-width="2" fill="none" />
  <line x1="1285.0" y1="450.0" x2="1285.0" y2="400.0" stroke="#000000" stroke-width="2" fill="none" />
  <line x1="380.0" y1="350.0" x2="380.0" y2="350.0" stroke="#000000" stroke-width="2" fill="none" />
  <line x1="580.0" y1="320.0" x2="580.0" y2="320.0" stroke="#000000" stroke-width="2" fill="none" />
  <line x1="855.0" y1="320.0" x2="855.0" y2="320.0" stroke="#000000" stroke-width="2" fill="none" />
  <circle cx="1010.0" cy="350.0" r="5" stroke="#000000" stroke-width="0" fill="#000000" />
  <circle cx="455.0" cy="290.0" r="5" stroke="#000000" stroke-width="0" fill="#000000" />
  <circle cx="1010.0" cy="230.0" r="5" stroke="#000000" stroke-width="0" fill="#000000" />
  <circle cx="1090.0" cy="230.0" r="5" stroke="#000000" stroke-width="0" fill="#000000" />
  <circle cx="190.0" cy="170.0" r="5" stroke="#000000" stroke-width="0" fill="#000000" />
  <circle cx="855.0" cy="230.0" r="5" stroke="#000000" stroke-width="0" fill="#000000" />
  <circle cx="880.0" cy="230.0" r="5" stroke="#000000" stroke-width="0" fill="#000000" />
  <circle cx="1090.0" cy="450.0" r="5" stroke="#000000" stroke-width="0" fill="#000000" />
  <circle cx="190.0" cy="450.0" r="5" stroke="#000000" stroke-width="0" fill="#000000" />
  <circle cx="380.0" cy="450.0" r="5" stroke="#000000" stroke-width="0" fill="#000000" />
  <circle cx="455.0" cy="450.0" r="5" stroke="#000000" stroke-width="0" fill="#000000" />
  <circle cx="1010.0" cy="450.0" r="5" stroke="#000000" stroke-width="0" fill="#000000" />
  <circle cx="765.0" cy="450.0" r="5" stroke="#000000" stroke-width="0" fill="#000000" />
  <circle cx="520.0" cy="450.0" r="5" stroke="#000000" stroke-width="0" fill="#000000" />
  <circle cx="565.0" cy="450.0" r="5" stroke="#000000" stroke-width="0" fill="#000000" />
  <circle cx="665.0" cy="450.0" r="5" stroke="#000000" stroke-width="0" fill="#000000" />
</svg>

