G04*
G04 #@! TF.GenerationSoftware,Altium Limited,Altium Designer,25.5.2 (35)*
G04*
G04 Layer_Color=8388736*
%FSLAX25Y25*%
%MOIN*%
G70*
G04*
G04 #@! TF.SameCoordinates,1DACB3DC-ACE0-44E2-B579-3CE0BC83F536*
G04*
G04*
G04 #@! TF.FilePolarity,Negative*
G04*
G01*
G75*
%ADD28R,0.15700X0.27600*%
%ADD30R,0.06550X0.02100*%
%ADD31R,0.13780X0.06299*%
G04:AMPARAMS|DCode=37|XSize=35.84mil|YSize=13.08mil|CornerRadius=6.54mil|HoleSize=0mil|Usage=FLASHONLY|Rotation=90.000|XOffset=0mil|YOffset=0mil|HoleType=Round|Shape=RoundedRectangle|*
%AMROUNDEDRECTD37*
21,1,0.03584,0.00000,0,0,90.0*
21,1,0.02276,0.01308,0,0,90.0*
1,1,0.01308,0.00000,0.01138*
1,1,0.01308,0.00000,-0.01138*
1,1,0.01308,0.00000,-0.01138*
1,1,0.01308,0.00000,0.01138*
%
%ADD37ROUNDEDRECTD37*%
%ADD40R,0.05800X0.01100*%
%ADD41R,0.01100X0.05800*%
%ADD43R,0.03985X0.04560*%
%ADD46R,0.02200X0.06300*%
%ADD48R,0.04100X0.05100*%
G04:AMPARAMS|DCode=53|XSize=35.84mil|YSize=13.08mil|CornerRadius=6.54mil|HoleSize=0mil|Usage=FLASHONLY|Rotation=180.000|XOffset=0mil|YOffset=0mil|HoleType=Round|Shape=RoundedRectangle|*
%AMROUNDEDRECTD53*
21,1,0.03584,0.00000,0,0,180.0*
21,1,0.02276,0.01308,0,0,180.0*
1,1,0.01308,-0.01138,0.00000*
1,1,0.01308,0.01138,0.00000*
1,1,0.01308,0.01138,0.00000*
1,1,0.01308,-0.01138,0.00000*
%
%ADD53ROUNDEDRECTD53*%
%ADD60R,0.03700X0.02800*%
%ADD62R,0.03500X0.02200*%
%ADD68R,0.04331X0.02362*%
%ADD69R,0.05300X0.11000*%
%ADD70R,0.01378X0.05512*%
%ADD73R,0.04560X0.03985*%
%ADD76R,0.03584X0.01308*%
%ADD77R,0.05100X0.05100*%
%ADD78R,0.01308X0.03584*%
%ADD81R,0.04540X0.04343*%
%ADD82R,0.06115X0.06509*%
G04:AMPARAMS|DCode=83|XSize=59.18mil|YSize=37.92mil|CornerRadius=7.74mil|HoleSize=0mil|Usage=FLASHONLY|Rotation=90.000|XOffset=0mil|YOffset=0mil|HoleType=Round|Shape=RoundedRectangle|*
%AMROUNDEDRECTD83*
21,1,0.05918,0.02244,0,0,90.0*
21,1,0.04370,0.03792,0,0,90.0*
1,1,0.01548,0.01122,0.02185*
1,1,0.01548,0.01122,-0.02185*
1,1,0.01548,-0.01122,-0.02185*
1,1,0.01548,-0.01122,0.02185*
%
%ADD83ROUNDEDRECTD83*%
G04:AMPARAMS|DCode=84|XSize=59.18mil|YSize=37.92mil|CornerRadius=7.74mil|HoleSize=0mil|Usage=FLASHONLY|Rotation=180.000|XOffset=0mil|YOffset=0mil|HoleType=Round|Shape=RoundedRectangle|*
%AMROUNDEDRECTD84*
21,1,0.05918,0.02244,0,0,180.0*
21,1,0.04370,0.03792,0,0,180.0*
1,1,0.01548,-0.02185,0.01122*
1,1,0.01548,0.02185,0.01122*
1,1,0.01548,0.02185,-0.01122*
1,1,0.01548,-0.02185,-0.01122*
%
%ADD84ROUNDEDRECTD84*%
%ADD85R,0.03162X0.07887*%
%ADD86R,0.05524X0.06706*%
G04:AMPARAMS|DCode=87|XSize=29.65mil|YSize=57.21mil|CornerRadius=5.95mil|HoleSize=0mil|Usage=FLASHONLY|Rotation=90.000|XOffset=0mil|YOffset=0mil|HoleType=Round|Shape=RoundedRectangle|*
%AMROUNDEDRECTD87*
21,1,0.02965,0.04532,0,0,90.0*
21,1,0.01776,0.05721,0,0,90.0*
1,1,0.01190,0.02266,0.00888*
1,1,0.01190,0.02266,-0.00888*
1,1,0.01190,-0.02266,-0.00888*
1,1,0.01190,-0.02266,0.00888*
%
%ADD87ROUNDEDRECTD87*%
G04:AMPARAMS|DCode=88|XSize=37.92mil|YSize=34mil|CornerRadius=7.25mil|HoleSize=0mil|Usage=FLASHONLY|Rotation=270.000|XOffset=0mil|YOffset=0mil|HoleType=Round|Shape=RoundedRectangle|*
%AMROUNDEDRECTD88*
21,1,0.03792,0.01950,0,0,270.0*
21,1,0.02342,0.03400,0,0,270.0*
1,1,0.01450,-0.00975,-0.01171*
1,1,0.01450,-0.00975,0.01171*
1,1,0.01450,0.00975,0.01171*
1,1,0.01450,0.00975,-0.01171*
%
%ADD88ROUNDEDRECTD88*%
G04:AMPARAMS|DCode=89|XSize=37.92mil|YSize=34mil|CornerRadius=7.25mil|HoleSize=0mil|Usage=FLASHONLY|Rotation=180.000|XOffset=0mil|YOffset=0mil|HoleType=Round|Shape=RoundedRectangle|*
%AMROUNDEDRECTD89*
21,1,0.03792,0.01950,0,0,180.0*
21,1,0.02342,0.03400,0,0,180.0*
1,1,0.01450,-0.01171,0.00975*
1,1,0.01450,0.01171,0.00975*
1,1,0.01450,0.01171,-0.00975*
1,1,0.01450,-0.01171,-0.00975*
%
%ADD89ROUNDEDRECTD89*%
%ADD90R,0.05524X0.04737*%
%ADD91R,0.07887X0.03162*%
%ADD92R,0.06706X0.05524*%
%ADD93R,0.04737X0.05524*%
%ADD94R,0.04737X0.05918*%
G04:AMPARAMS|DCode=95|XSize=85.56mil|YSize=31.62mil|CornerRadius=6.95mil|HoleSize=0mil|Usage=FLASHONLY|Rotation=90.000|XOffset=0mil|YOffset=0mil|HoleType=Round|Shape=RoundedRectangle|*
%AMROUNDEDRECTD95*
21,1,0.08556,0.01772,0,0,90.0*
21,1,0.07165,0.03162,0,0,90.0*
1,1,0.01391,0.00886,0.03583*
1,1,0.01391,0.00886,-0.03583*
1,1,0.01391,-0.00886,-0.03583*
1,1,0.01391,-0.00886,0.03583*
%
%ADD95ROUNDEDRECTD95*%
%ADD96R,0.04540X0.04540*%
%ADD97R,0.04540X0.04540*%
G04:AMPARAMS|DCode=98|XSize=29.65mil|YSize=27.69mil|CornerRadius=6.46mil|HoleSize=0mil|Usage=FLASHONLY|Rotation=270.000|XOffset=0mil|YOffset=0mil|HoleType=Round|Shape=RoundedRectangle|*
%AMROUNDEDRECTD98*
21,1,0.02965,0.01476,0,0,270.0*
21,1,0.01673,0.02769,0,0,270.0*
1,1,0.01292,-0.00738,-0.00837*
1,1,0.01292,-0.00738,0.00837*
1,1,0.01292,0.00738,0.00837*
1,1,0.01292,0.00738,-0.00837*
%
%ADD98ROUNDEDRECTD98*%
%ADD99R,0.14000X0.17500*%
%ADD100R,0.04737X0.03556*%
%ADD101R,0.03556X0.03162*%
%ADD102R,0.03800X0.02100*%
%ADD103R,0.04343X0.03950*%
%ADD104R,0.03950X0.03950*%
%ADD105R,0.04737X0.03950*%
%ADD106R,0.03543X0.01575*%
%ADD107R,0.06706X0.06902*%
%ADD108R,0.03950X0.04343*%
%ADD109R,0.06312X0.04737*%
%ADD110R,0.17335X0.06706*%
%ADD111R,0.04147X0.03556*%
%ADD112R,0.06706X0.17335*%
%ADD113R,0.03359X0.03359*%
%ADD114R,0.03359X0.03359*%
%ADD115R,0.05131X0.04737*%
%ADD116C,0.04678*%
%ADD117C,0.06706*%
%ADD118C,0.06850*%
%ADD119C,0.07087*%
G04:AMPARAMS|DCode=120|XSize=35.43mil|YSize=94.49mil|CornerRadius=17.72mil|HoleSize=0mil|Usage=FLASHONLY|Rotation=180.000|XOffset=0mil|YOffset=0mil|HoleType=Round|Shape=RoundedRectangle|*
%AMROUNDEDRECTD120*
21,1,0.03543,0.05906,0,0,180.0*
21,1,0.00000,0.09449,0,0,180.0*
1,1,0.03543,0.00000,0.02953*
1,1,0.03543,0.00000,0.02953*
1,1,0.03543,0.00000,-0.02953*
1,1,0.03543,0.00000,-0.02953*
%
%ADD120ROUNDEDRECTD120*%
G04:AMPARAMS|DCode=121|XSize=35.43mil|YSize=66.93mil|CornerRadius=17.72mil|HoleSize=0mil|Usage=FLASHONLY|Rotation=180.000|XOffset=0mil|YOffset=0mil|HoleType=Round|Shape=RoundedRectangle|*
%AMROUNDEDRECTD121*
21,1,0.03543,0.03150,0,0,180.0*
21,1,0.00000,0.06693,0,0,180.0*
1,1,0.03543,0.00000,0.01575*
1,1,0.03543,0.00000,0.01575*
1,1,0.03543,0.00000,-0.01575*
1,1,0.03543,0.00000,-0.01575*
%
%ADD121ROUNDEDRECTD121*%
%ADD122C,0.02559*%
%ADD123C,0.06584*%
%ADD124C,0.05918*%
%ADD125R,0.06584X0.06584*%
%ADD126C,0.12411*%
%ADD127R,0.10642X0.10642*%
%ADD128C,0.06312*%
%ADD129R,0.06312X0.06312*%
%ADD130R,0.04678X0.04678*%
%ADD131C,0.11824*%
%ADD132C,0.09855*%
%ADD133R,0.07087X0.07087*%
%ADD134R,0.05918X0.05918*%
%ADD135C,0.10642*%
%ADD136R,0.06850X0.06850*%
%ADD137C,0.05800*%
%ADD138C,0.04800*%
%ADD139C,0.03800*%
%ADD140C,0.02800*%
%ADD141C,0.20800*%
D28*
X192350Y292100D02*
D03*
X231650D02*
D03*
D30*
X270875Y300500D02*
D03*
Y295500D02*
D03*
X342625Y315500D02*
D03*
Y305500D02*
D03*
Y310500D02*
D03*
Y300500D02*
D03*
X293125D02*
D03*
Y295500D02*
D03*
Y290500D02*
D03*
Y285500D02*
D03*
X320375Y305500D02*
D03*
Y310500D02*
D03*
Y315500D02*
D03*
X270875Y290500D02*
D03*
Y285500D02*
D03*
X320375Y300500D02*
D03*
D31*
X204624Y249200D02*
D03*
X182576D02*
D03*
D37*
X671500Y327347D02*
D03*
Y333653D02*
D03*
X674059Y327347D02*
D03*
X668941Y333653D02*
D03*
X674059D02*
D03*
D40*
X543550Y268016D02*
D03*
X491450Y260142D02*
D03*
Y266047D02*
D03*
Y264079D02*
D03*
X543550Y269984D02*
D03*
Y250299D02*
D03*
X491450Y287701D02*
D03*
Y258173D02*
D03*
Y275890D02*
D03*
Y256205D02*
D03*
Y262110D02*
D03*
X543550Y283764D02*
D03*
Y279827D02*
D03*
Y275890D02*
D03*
Y273921D02*
D03*
Y271953D02*
D03*
Y266047D02*
D03*
Y262110D02*
D03*
Y260142D02*
D03*
Y258173D02*
D03*
Y256205D02*
D03*
Y254236D02*
D03*
Y252268D02*
D03*
X491450Y254236D02*
D03*
Y268016D02*
D03*
Y269984D02*
D03*
Y271953D02*
D03*
Y273921D02*
D03*
Y281795D02*
D03*
Y283764D02*
D03*
Y285732D02*
D03*
Y279827D02*
D03*
Y277858D02*
D03*
X543550Y281795D02*
D03*
X491450Y250299D02*
D03*
X543550Y264079D02*
D03*
X491450Y252268D02*
D03*
X543550Y287701D02*
D03*
Y285732D02*
D03*
Y277858D02*
D03*
D41*
X536201Y295050D02*
D03*
Y242950D02*
D03*
X510610D02*
D03*
X500768Y295050D02*
D03*
X498799D02*
D03*
X534232D02*
D03*
X514547Y242950D02*
D03*
X512579D02*
D03*
X514547Y295050D02*
D03*
X530295D02*
D03*
X532264D02*
D03*
X516516D02*
D03*
X518484D02*
D03*
X520453D02*
D03*
X522421D02*
D03*
X526358D02*
D03*
X528327D02*
D03*
X534232Y242950D02*
D03*
X532264D02*
D03*
X530295D02*
D03*
X528327D02*
D03*
X526358D02*
D03*
X524390D02*
D03*
X522421D02*
D03*
X520453D02*
D03*
X518484D02*
D03*
X516516D02*
D03*
X508642D02*
D03*
X506673D02*
D03*
X504705D02*
D03*
X502736D02*
D03*
X500768D02*
D03*
X502736Y295050D02*
D03*
X510610D02*
D03*
X512579D02*
D03*
X506673D02*
D03*
X508642D02*
D03*
X498799Y242950D02*
D03*
X524390Y295050D02*
D03*
X504705D02*
D03*
D43*
X502700Y309956D02*
D03*
X283100Y363044D02*
D03*
X275900Y312244D02*
D03*
X241800Y365844D02*
D03*
X272700Y334656D02*
D03*
X502700Y303444D02*
D03*
X272700Y328144D02*
D03*
X275900Y318756D02*
D03*
X283100Y369556D02*
D03*
X241800Y372356D02*
D03*
D46*
X423275Y382100D02*
D03*
X419500Y389000D02*
D03*
X415725Y382100D02*
D03*
D48*
X467150Y282200D02*
D03*
X460250Y273200D02*
D03*
X467150D02*
D03*
D53*
X703653Y232500D02*
D03*
X681653Y125500D02*
D03*
X450847D02*
D03*
X239547Y390600D02*
D03*
X213847Y369500D02*
D03*
X228847Y126500D02*
D03*
X457153Y122941D02*
D03*
Y128059D02*
D03*
X697347Y232500D02*
D03*
X457153Y125500D02*
D03*
X235153Y126500D02*
D03*
X239547Y388041D02*
D03*
X245853D02*
D03*
Y393159D02*
D03*
Y390600D02*
D03*
X675347Y125500D02*
D03*
X220153Y369500D02*
D03*
X213847Y366941D02*
D03*
X220153D02*
D03*
Y372059D02*
D03*
X703653Y235059D02*
D03*
X697347Y229941D02*
D03*
Y235059D02*
D03*
X450847Y122941D02*
D03*
X228847Y123941D02*
D03*
X235153Y129059D02*
D03*
Y123941D02*
D03*
X675347Y122941D02*
D03*
Y128059D02*
D03*
X681653D02*
D03*
D60*
X530910Y156458D02*
D03*
X490710Y158958D02*
D03*
X524390Y161841D02*
D03*
Y156342D02*
D03*
X517910Y156258D02*
D03*
Y161758D02*
D03*
X530910Y161959D02*
D03*
X503710Y158958D02*
D03*
Y164459D02*
D03*
X490710D02*
D03*
X497190Y164442D02*
D03*
Y158941D02*
D03*
D62*
X426000Y172969D02*
D03*
X384000Y173048D02*
D03*
X314500Y170969D02*
D03*
X202000Y172969D02*
D03*
X272500Y171048D02*
D03*
X160000Y173048D02*
D03*
X202000Y165669D02*
D03*
X160000Y165748D02*
D03*
X272500Y163748D02*
D03*
X314500Y163669D02*
D03*
X384000Y165748D02*
D03*
X426000Y165669D02*
D03*
D68*
X177330Y290560D02*
D03*
X166700Y298040D02*
D03*
X177330D02*
D03*
Y294300D02*
D03*
X166700Y290560D02*
D03*
Y294300D02*
D03*
D69*
X136250Y301600D02*
D03*
X147950D02*
D03*
D70*
X397000Y193819D02*
D03*
Y171181D02*
D03*
X285500Y191819D02*
D03*
Y169181D02*
D03*
X173000Y193819D02*
D03*
Y171181D02*
D03*
X175559D02*
D03*
X185795D02*
D03*
Y193819D02*
D03*
X175559D02*
D03*
X180677D02*
D03*
X183236D02*
D03*
X178118D02*
D03*
X188354Y171181D02*
D03*
X180677D02*
D03*
X178118D02*
D03*
X183236D02*
D03*
X188354Y193819D02*
D03*
X412354D02*
D03*
X300854Y191819D02*
D03*
X407236Y171181D02*
D03*
X295736Y169181D02*
D03*
X402118Y193819D02*
D03*
X290618Y191819D02*
D03*
Y169181D02*
D03*
X293177D02*
D03*
X402118Y171181D02*
D03*
X404677D02*
D03*
X399559Y193819D02*
D03*
X298295Y191819D02*
D03*
X288059Y169181D02*
D03*
X298295D02*
D03*
X300854D02*
D03*
X295736Y191819D02*
D03*
X293177D02*
D03*
X288059D02*
D03*
X407236Y193819D02*
D03*
X404677D02*
D03*
X409795D02*
D03*
X412354Y171181D02*
D03*
X409795D02*
D03*
X399559D02*
D03*
D73*
X420756Y206500D02*
D03*
X195756D02*
D03*
X309756Y205000D02*
D03*
X414244Y206500D02*
D03*
X303244Y205000D02*
D03*
X189244Y206500D02*
D03*
D76*
X239547Y393159D02*
D03*
X213847Y372059D02*
D03*
X703653Y229941D02*
D03*
X450847Y128059D02*
D03*
X228847Y129059D02*
D03*
X681653Y122941D02*
D03*
D77*
X460750Y282200D02*
D03*
D78*
X668941Y327347D02*
D03*
D81*
X539020Y407701D02*
D03*
X643020D02*
D03*
X751020Y406701D02*
D03*
X590520Y407201D02*
D03*
X226600Y321998D02*
D03*
X695020Y406701D02*
D03*
X444000Y280504D02*
D03*
X431872D02*
D03*
X419745D02*
D03*
X359000Y300299D02*
D03*
X444000Y268103D02*
D03*
X431872D02*
D03*
X419745D02*
D03*
X315500Y328299D02*
D03*
X695020Y394299D02*
D03*
X292000Y402299D02*
D03*
X121000Y364799D02*
D03*
X359000Y312701D02*
D03*
X292000Y414701D02*
D03*
X643020Y395299D02*
D03*
X226600Y334400D02*
D03*
X315500Y340701D02*
D03*
X590520Y394799D02*
D03*
X751020Y394299D02*
D03*
X539020Y395299D02*
D03*
X121000Y377201D02*
D03*
D82*
X175739Y313000D02*
D03*
X637539Y239500D02*
D03*
X612661Y239400D02*
D03*
X168061Y313000D02*
D03*
X620339Y239400D02*
D03*
X629861Y239500D02*
D03*
D83*
X176904Y321600D02*
D03*
X169857D02*
D03*
D84*
X222500Y261704D02*
D03*
X231100Y261404D02*
D03*
X222500Y254657D02*
D03*
X231100Y254357D02*
D03*
D85*
X734000Y370500D02*
D03*
X678000D02*
D03*
X626000Y371500D02*
D03*
X573500Y371000D02*
D03*
X522000Y371500D02*
D03*
X726520Y370500D02*
D03*
X730260Y378374D02*
D03*
X674260D02*
D03*
X670520Y370500D02*
D03*
X618520Y371500D02*
D03*
X622260Y379374D02*
D03*
X569760Y378874D02*
D03*
X566020Y371000D02*
D03*
X518260Y379374D02*
D03*
X514520Y371500D02*
D03*
D86*
X734654Y359500D02*
D03*
X678653D02*
D03*
X626653Y360500D02*
D03*
X574154Y360000D02*
D03*
X522653Y360500D02*
D03*
X404634Y274300D02*
D03*
X396366D02*
D03*
X726386Y359500D02*
D03*
X670386D02*
D03*
X618386Y360500D02*
D03*
X565886Y360000D02*
D03*
X514386Y360500D02*
D03*
D87*
X606835Y249000D02*
D03*
Y264000D02*
D03*
Y259000D02*
D03*
Y254000D02*
D03*
X586165Y259000D02*
D03*
Y254000D02*
D03*
Y264000D02*
D03*
Y249000D02*
D03*
D88*
X545356Y302700D02*
D03*
X495456Y306700D02*
D03*
X495556Y301100D02*
D03*
X508844Y221000D02*
D03*
X177744Y157500D02*
D03*
X183256D02*
D03*
X490044Y301100D02*
D03*
X489944Y306700D02*
D03*
X539844Y302700D02*
D03*
X514356Y221000D02*
D03*
X401744Y157500D02*
D03*
X407256D02*
D03*
X290244Y155500D02*
D03*
X295756D02*
D03*
D89*
X550900Y265844D02*
D03*
X550000Y236544D02*
D03*
X478900Y256556D02*
D03*
X436400Y240244D02*
D03*
X421677Y183444D02*
D03*
X387177Y189456D02*
D03*
X310177Y181444D02*
D03*
X163177Y189456D02*
D03*
X275677Y187456D02*
D03*
X197677Y183444D02*
D03*
X163177Y183944D02*
D03*
X197677Y188956D02*
D03*
X550900Y271356D02*
D03*
X550000Y242056D02*
D03*
X478900Y251044D02*
D03*
X421677Y188956D02*
D03*
X310177Y186956D02*
D03*
X387177Y183944D02*
D03*
X275677Y181944D02*
D03*
X436400Y245756D02*
D03*
D90*
X475200Y290756D02*
D03*
X475800Y274456D02*
D03*
Y268944D02*
D03*
X475200Y285244D02*
D03*
D91*
X458063Y292260D02*
D03*
X430700Y289300D02*
D03*
X403963Y283660D02*
D03*
X465937Y296000D02*
D03*
X438574Y293040D02*
D03*
X430700Y296780D02*
D03*
X411837Y287400D02*
D03*
X403963Y291140D02*
D03*
X458063Y299740D02*
D03*
D92*
X446900Y289666D02*
D03*
X421900Y288266D02*
D03*
Y296534D02*
D03*
X446900Y297934D02*
D03*
D93*
X461744Y265400D02*
D03*
X527256Y219500D02*
D03*
X142644Y290400D02*
D03*
X142744Y281900D02*
D03*
Y272700D02*
D03*
X521744Y219500D02*
D03*
X148256Y281900D02*
D03*
X148156Y290400D02*
D03*
X148256Y272700D02*
D03*
X467256Y265400D02*
D03*
X631244Y165500D02*
D03*
X636756D02*
D03*
X746256Y167500D02*
D03*
X740744D02*
D03*
D94*
X713047Y200000D02*
D03*
X713547Y183000D02*
D03*
X603547Y198000D02*
D03*
X604047Y181000D02*
D03*
X719453Y183000D02*
D03*
X609953Y181000D02*
D03*
X718953Y200000D02*
D03*
X609453Y198000D02*
D03*
D95*
X761000Y196244D02*
D03*
Y176756D02*
D03*
X756000D02*
D03*
X651500Y194244D02*
D03*
Y174756D02*
D03*
X646500D02*
D03*
X731000Y196244D02*
D03*
X621500Y194244D02*
D03*
X626500D02*
D03*
X736000Y196244D02*
D03*
X751000Y176756D02*
D03*
X731000D02*
D03*
X736000D02*
D03*
X741000D02*
D03*
X746000D02*
D03*
X641500Y174756D02*
D03*
X621500D02*
D03*
X626500D02*
D03*
X631500D02*
D03*
X636500D02*
D03*
X726000Y196244D02*
D03*
X746000D02*
D03*
X751000D02*
D03*
X756000D02*
D03*
X726000Y176756D02*
D03*
X741000Y196244D02*
D03*
X616500Y194244D02*
D03*
Y174756D02*
D03*
X631500Y194244D02*
D03*
X636500D02*
D03*
X641500D02*
D03*
X646500D02*
D03*
D96*
X713539Y193000D02*
D03*
X604039Y191000D02*
D03*
X626461Y157000D02*
D03*
X621539D02*
D03*
X718461Y193000D02*
D03*
X731039Y159000D02*
D03*
X735961D02*
D03*
X608961Y191000D02*
D03*
D97*
X753000Y164039D02*
D03*
X643500Y162039D02*
D03*
Y166961D02*
D03*
X753000Y168961D02*
D03*
D98*
X520772Y226500D02*
D03*
X509728D02*
D03*
X513272D02*
D03*
X517228D02*
D03*
X177228Y304700D02*
D03*
X180772D02*
D03*
D99*
X519500Y197000D02*
D03*
D100*
X467711Y235216D02*
D03*
X444089D02*
D03*
X467711Y249783D02*
D03*
X444089D02*
D03*
D101*
X455900Y232658D02*
D03*
Y252343D02*
D03*
D102*
X504050Y189500D02*
D03*
X534950Y204500D02*
D03*
X504050D02*
D03*
Y194500D02*
D03*
X534950Y189500D02*
D03*
Y194500D02*
D03*
Y199500D02*
D03*
X504050D02*
D03*
D103*
X510400Y164056D02*
D03*
Y158544D02*
D03*
D104*
X322000Y334547D02*
D03*
X300000Y406047D02*
D03*
X368500Y304047D02*
D03*
X121000Y389953D02*
D03*
X236000Y328147D02*
D03*
X438000Y271548D02*
D03*
Y277453D02*
D03*
X426000Y271547D02*
D03*
Y277453D02*
D03*
X413600Y271547D02*
D03*
Y277453D02*
D03*
X300000Y411953D02*
D03*
X368500Y309953D02*
D03*
X236000Y334053D02*
D03*
X322000Y340453D02*
D03*
X121000Y384047D02*
D03*
D105*
X280000Y406453D02*
D03*
X229000Y401047D02*
D03*
X280000Y400547D02*
D03*
X229000Y406953D02*
D03*
D106*
X282969Y335600D02*
D03*
X283269Y322900D02*
D03*
X267169Y370100D02*
D03*
X249369Y368900D02*
D03*
X291631Y338159D02*
D03*
Y335600D02*
D03*
Y333041D02*
D03*
X282969D02*
D03*
Y338159D02*
D03*
X291931Y325459D02*
D03*
Y322900D02*
D03*
Y320341D02*
D03*
X283269D02*
D03*
Y325459D02*
D03*
X275831Y372659D02*
D03*
Y370100D02*
D03*
Y367541D02*
D03*
X267169D02*
D03*
Y372659D02*
D03*
X258031Y371459D02*
D03*
Y368900D02*
D03*
Y366341D02*
D03*
X249369D02*
D03*
Y371459D02*
D03*
D107*
X344043Y291000D02*
D03*
Y281500D02*
D03*
X292043Y276500D02*
D03*
X292543Y266000D02*
D03*
X336957Y291000D02*
D03*
Y281500D02*
D03*
X285457Y266000D02*
D03*
X284957Y276500D02*
D03*
D108*
X325256Y284500D02*
D03*
Y278200D02*
D03*
X274756Y270500D02*
D03*
X273356Y263700D02*
D03*
X516456Y149700D02*
D03*
X510944D02*
D03*
X168744Y348000D02*
D03*
X174256D02*
D03*
X325256Y291000D02*
D03*
X319744Y278200D02*
D03*
X267844Y263700D02*
D03*
X274756Y276500D02*
D03*
X269244D02*
D03*
X319744Y291000D02*
D03*
X269244Y270500D02*
D03*
X319744Y284500D02*
D03*
D109*
X157200Y305540D02*
D03*
Y298060D02*
D03*
D110*
X145900Y242800D02*
D03*
X713700Y266600D02*
D03*
X713300Y277200D02*
D03*
X785500Y197600D02*
D03*
X786100Y175300D02*
D03*
D111*
X195500Y153858D02*
D03*
Y158780D02*
D03*
X166500Y158398D02*
D03*
Y153476D02*
D03*
X279000Y151476D02*
D03*
Y156398D02*
D03*
X308000Y156780D02*
D03*
Y151858D02*
D03*
X390500Y158398D02*
D03*
Y153476D02*
D03*
X419500Y153858D02*
D03*
Y158780D02*
D03*
D112*
X399900Y243200D02*
D03*
X378800Y243500D02*
D03*
X217700Y189900D02*
D03*
X329700Y195700D02*
D03*
X437900Y190800D02*
D03*
X587800Y218500D02*
D03*
X358600Y242100D02*
D03*
X602600Y218300D02*
D03*
X573100Y218800D02*
D03*
D113*
X292069Y344000D02*
D03*
X288131D02*
D03*
X273369Y377300D02*
D03*
X269431D02*
D03*
D114*
X415500Y370532D02*
D03*
Y374468D02*
D03*
D115*
X745000Y153744D02*
D03*
Y159256D02*
D03*
X722500Y153244D02*
D03*
Y158756D02*
D03*
X635500Y151744D02*
D03*
Y157256D02*
D03*
X613000Y151244D02*
D03*
Y156756D02*
D03*
D116*
X553700Y172800D02*
D03*
Y152800D02*
D03*
Y162800D02*
D03*
D117*
X192400Y330000D02*
D03*
X690600Y329100D02*
D03*
X371000Y336200D02*
D03*
X208600Y330000D02*
D03*
X383500Y318100D02*
D03*
X343800Y336200D02*
D03*
X287300Y390000D02*
D03*
X281800Y252200D02*
D03*
D118*
X666500Y267000D02*
D03*
X676500Y257000D02*
D03*
X666500Y287000D02*
D03*
Y247000D02*
D03*
Y297000D02*
D03*
X676500Y267000D02*
D03*
Y277000D02*
D03*
Y287000D02*
D03*
Y297000D02*
D03*
X666500Y257000D02*
D03*
Y277000D02*
D03*
D119*
X737932Y127788D02*
D03*
X730972Y119000D02*
D03*
X631460Y127788D02*
D03*
X624500Y119000D02*
D03*
X517460Y128288D02*
D03*
X510500Y119500D02*
D03*
X404932Y128288D02*
D03*
X397972Y119500D02*
D03*
X292946Y128288D02*
D03*
X285986Y119500D02*
D03*
X180960Y128288D02*
D03*
X174000Y119500D02*
D03*
X517460Y142208D02*
D03*
X510500Y135248D02*
D03*
X503540Y128288D02*
D03*
X624500Y134748D02*
D03*
X617540Y127788D02*
D03*
X631460Y141708D02*
D03*
X285986Y135248D02*
D03*
X292946Y142208D02*
D03*
X397972Y135248D02*
D03*
X404932Y142208D02*
D03*
X174000Y135248D02*
D03*
X180960Y142208D02*
D03*
X730972Y134748D02*
D03*
X724013Y127788D02*
D03*
X737932Y141708D02*
D03*
X391013Y128288D02*
D03*
X279026D02*
D03*
X167040D02*
D03*
D120*
X272628Y409012D02*
D03*
X238572D02*
D03*
D121*
X272628Y422319D02*
D03*
X238572D02*
D03*
D122*
X267313Y410468D02*
D03*
Y405154D02*
D03*
X243887Y410468D02*
D03*
Y405154D02*
D03*
X263966D02*
D03*
X260620D02*
D03*
X257273D02*
D03*
X253927D02*
D03*
X250580D02*
D03*
X247234D02*
D03*
Y410468D02*
D03*
X250580D02*
D03*
X253927D02*
D03*
X257273D02*
D03*
X260620D02*
D03*
X263966D02*
D03*
D123*
X177654Y373492D02*
D03*
X189465D02*
D03*
Y361681D02*
D03*
X154032D02*
D03*
X165842D02*
D03*
X177654D02*
D03*
X165842Y373492D02*
D03*
D124*
X131063Y321700D02*
D03*
D125*
X154032Y373492D02*
D03*
D126*
X181000Y390500D02*
D03*
X162496D02*
D03*
D127*
X467961Y384500D02*
D03*
D128*
X670539Y394500D02*
D03*
X725579D02*
D03*
X618000Y395000D02*
D03*
X566309Y394500D02*
D03*
X513270Y395000D02*
D03*
D129*
X680382Y394500D02*
D03*
X627843Y395000D02*
D03*
X576152Y394500D02*
D03*
X523112Y395000D02*
D03*
X735421Y394500D02*
D03*
D130*
X553700Y182800D02*
D03*
D131*
X540028Y119500D02*
D03*
X480972D02*
D03*
X654028Y119000D02*
D03*
X594972D02*
D03*
X701445D02*
D03*
X760500D02*
D03*
X368445Y119500D02*
D03*
X427500D02*
D03*
X256459D02*
D03*
X315514D02*
D03*
X144472D02*
D03*
X203528D02*
D03*
D132*
X540028Y135248D02*
D03*
X480972D02*
D03*
X654028Y134748D02*
D03*
X594972D02*
D03*
X701445D02*
D03*
X760500D02*
D03*
X368445Y135248D02*
D03*
X427500D02*
D03*
X256459D02*
D03*
X315514D02*
D03*
X144472D02*
D03*
X203528D02*
D03*
D133*
X503540Y142208D02*
D03*
X617540Y141708D02*
D03*
X724013D02*
D03*
X391013Y142208D02*
D03*
X279026D02*
D03*
X167040D02*
D03*
D134*
X138937Y321700D02*
D03*
D135*
X438039Y384500D02*
D03*
D136*
X676500Y247000D02*
D03*
D137*
X759500Y409500D02*
D03*
X171400Y253400D02*
D03*
X710000Y176500D02*
D03*
X600500Y174500D02*
D03*
X419000Y176500D02*
D03*
X419500Y169500D02*
D03*
X329000Y329000D02*
D03*
X350500Y315500D02*
D03*
Y310500D02*
D03*
Y305500D02*
D03*
X278200Y358400D02*
D03*
X272800Y341000D02*
D03*
X350500Y300500D02*
D03*
X368500Y297500D02*
D03*
X350500Y295000D02*
D03*
X350700Y286400D02*
D03*
X302000Y294200D02*
D03*
Y299200D02*
D03*
Y289200D02*
D03*
X121000Y397000D02*
D03*
X229000Y394500D02*
D03*
X246500Y360100D02*
D03*
X238500Y360000D02*
D03*
X268900Y316500D02*
D03*
X163800Y305600D02*
D03*
X119100Y301900D02*
D03*
X126600Y290500D02*
D03*
X394500Y199500D02*
D03*
X387000Y197500D02*
D03*
X302000Y284200D02*
D03*
X283000Y197500D02*
D03*
X381000Y177000D02*
D03*
X390500Y165500D02*
D03*
X307500Y174500D02*
D03*
X308000Y167500D02*
D03*
X279000Y163500D02*
D03*
X215800Y254500D02*
D03*
X177700Y285200D02*
D03*
X238300Y254400D02*
D03*
X275500Y195500D02*
D03*
X124600Y281900D02*
D03*
X124200Y272700D02*
D03*
X170500Y199500D02*
D03*
X163000Y197500D02*
D03*
X160500Y242800D02*
D03*
X269500Y175000D02*
D03*
X221000Y129000D02*
D03*
X195000Y176500D02*
D03*
X157000Y177000D02*
D03*
X195500Y169500D02*
D03*
X166500Y165500D02*
D03*
X197500Y195500D02*
D03*
X184979Y164927D02*
D03*
X166500Y175500D02*
D03*
X421500Y195500D02*
D03*
X375500Y302700D02*
D03*
X362500Y294000D02*
D03*
X413500Y188500D02*
D03*
X309000Y193500D02*
D03*
X390500Y175500D02*
D03*
X408979Y164927D02*
D03*
X297479Y162927D02*
D03*
X279000Y173500D02*
D03*
X245000Y128000D02*
D03*
X276900Y384300D02*
D03*
X719500Y176500D02*
D03*
X610000Y174500D02*
D03*
X226500Y369500D02*
D03*
D138*
X493500Y416400D02*
D03*
X493400Y411900D02*
D03*
Y407500D02*
D03*
X252900Y314400D02*
D03*
Y321500D02*
D03*
Y306600D02*
D03*
X611500Y249000D02*
D03*
X423500Y374500D02*
D03*
X763500Y201500D02*
D03*
X710000Y204000D02*
D03*
X710500Y188500D02*
D03*
X654000Y199500D02*
D03*
X600500Y202000D02*
D03*
X601000Y186500D02*
D03*
X764500Y169000D02*
D03*
X758000D02*
D03*
X655000Y167000D02*
D03*
X649500Y166500D02*
D03*
X239500Y322100D02*
D03*
X189000Y188500D02*
D03*
X644200Y239500D02*
D03*
X606300Y239300D02*
D03*
D139*
X683500Y354000D02*
D03*
X631500Y354500D02*
D03*
X578500Y355000D02*
D03*
X527000Y355500D02*
D03*
X740000Y353500D02*
D03*
X670000Y315500D02*
D03*
X556600Y264900D02*
D03*
X540800Y298200D02*
D03*
X494900Y311400D02*
D03*
X468800Y290700D02*
D03*
X440400Y288400D02*
D03*
X476029Y279435D02*
D03*
X483748Y257751D02*
D03*
X454200Y270700D02*
D03*
X454400Y265200D02*
D03*
X709500Y235000D02*
D03*
X540500Y236500D02*
D03*
X756500Y159500D02*
D03*
X690000Y124500D02*
D03*
X647000Y157500D02*
D03*
X520500Y229500D02*
D03*
X523500Y203000D02*
D03*
X515500Y200500D02*
D03*
X455900Y236000D02*
D03*
X510600Y233000D02*
D03*
X523500Y191000D02*
D03*
X513800Y168000D02*
D03*
X508500Y189500D02*
D03*
X537100Y153900D02*
D03*
X491200Y152900D02*
D03*
X439000Y126500D02*
D03*
X305000Y406000D02*
D03*
X284000Y410000D02*
D03*
X329000Y286500D02*
D03*
X263700Y377700D02*
D03*
X234300Y390000D02*
D03*
X209500Y370000D02*
D03*
X413900Y283300D02*
D03*
X408500Y267700D02*
D03*
X330100Y275200D02*
D03*
X306500Y276500D02*
D03*
X306000Y266000D02*
D03*
X279467Y270500D02*
D03*
X278439Y263797D02*
D03*
X500500Y171400D02*
D03*
X536700Y169700D02*
D03*
X525300Y280500D02*
D03*
X276400Y397600D02*
D03*
X229100Y411400D02*
D03*
X525000Y276000D02*
D03*
X182000Y214000D02*
D03*
X201500Y206500D02*
D03*
X193000Y164500D02*
D03*
X163500Y161000D02*
D03*
X749500Y343300D02*
D03*
X671500Y337500D02*
D03*
X556600Y271200D02*
D03*
X612000Y264000D02*
D03*
X551200Y248400D02*
D03*
X535500Y303000D02*
D03*
X498000Y287500D02*
D03*
X693000Y232500D02*
D03*
X517500D02*
D03*
X514000Y235500D02*
D03*
X531000Y204500D02*
D03*
X492900Y296700D02*
D03*
X444100Y276100D02*
D03*
X431800Y276000D02*
D03*
X419700Y275600D02*
D03*
X484994Y253623D02*
D03*
X427500Y206500D02*
D03*
X330500Y291000D02*
D03*
Y281500D02*
D03*
X315500Y205000D02*
D03*
X302000Y186000D02*
D03*
X463500Y124500D02*
D03*
X550500Y261000D02*
D03*
X378600Y231700D02*
D03*
X676000Y322000D02*
D03*
X502500Y281500D02*
D03*
X281600Y343400D02*
D03*
X278800Y375700D02*
D03*
X251800Y395400D02*
D03*
X250600Y390600D02*
D03*
X731000Y203500D02*
D03*
X621500Y201500D02*
D03*
X579000Y130500D02*
D03*
X664500Y124000D02*
D03*
X579000Y154500D02*
D03*
Y142500D02*
D03*
X321500Y327500D02*
D03*
X322500Y323000D02*
D03*
X317000D02*
D03*
X312000Y321000D02*
D03*
Y315500D02*
D03*
X307000Y321000D02*
D03*
X312000Y310500D02*
D03*
X713000Y347000D02*
D03*
X593500Y318000D02*
D03*
X655500Y347000D02*
D03*
X598000Y323000D02*
D03*
X626500Y215500D02*
D03*
X629000Y261000D02*
D03*
X550500Y281000D02*
D03*
X713700Y259300D02*
D03*
X358400Y229900D02*
D03*
X628000Y254500D02*
D03*
X572500Y256900D02*
D03*
X505500Y228500D02*
D03*
X500900Y236500D02*
D03*
X495000Y232000D02*
D03*
X491900Y240500D02*
D03*
X623000Y271500D02*
D03*
X501500Y274500D02*
D03*
X589500Y327000D02*
D03*
X619500Y276000D02*
D03*
X535500Y274500D02*
D03*
X666500Y322500D02*
D03*
X516500Y289500D02*
D03*
X400500Y188000D02*
D03*
X318500Y196000D02*
D03*
X320500Y225000D02*
D03*
X286000Y218500D02*
D03*
X291000Y234000D02*
D03*
X280000Y206500D02*
D03*
X556000Y277500D02*
D03*
X566500Y254500D02*
D03*
X537000Y269147D02*
D03*
X497000Y252000D02*
D03*
X505500Y251000D02*
D03*
X512500Y253500D02*
D03*
X525000Y231000D02*
D03*
X522000Y236500D02*
D03*
X487000Y246000D02*
D03*
X405000Y217000D02*
D03*
X404500Y205000D02*
D03*
X392500Y217500D02*
D03*
X376000D02*
D03*
X293000Y203500D02*
D03*
X294500Y215000D02*
D03*
X273000D02*
D03*
X280500Y218500D02*
D03*
X287000Y239500D02*
D03*
X520500Y212500D02*
D03*
X531500Y189500D02*
D03*
X540500Y196000D02*
D03*
X599500Y290000D02*
D03*
X610500Y286000D02*
D03*
X686500Y235000D02*
D03*
X634000Y274500D02*
D03*
X591000Y270000D02*
D03*
X686500Y230000D02*
D03*
X657000Y259000D02*
D03*
X633500Y269500D02*
D03*
X608500Y268500D02*
D03*
X415500Y367000D02*
D03*
X628000Y222000D02*
D03*
X417000Y163500D02*
D03*
X582000Y256500D02*
D03*
X392500Y227000D02*
D03*
X332500Y183500D02*
D03*
X304500Y161500D02*
D03*
X321500Y212500D02*
D03*
X314500Y225500D02*
D03*
X289000Y186500D02*
D03*
X276000Y159000D02*
D03*
X351500Y212500D02*
D03*
X510500Y349500D02*
D03*
X523500Y324500D02*
D03*
X552000Y348500D02*
D03*
X528000Y324000D02*
D03*
X604500Y348500D02*
D03*
X636500Y202500D02*
D03*
X746000Y211000D02*
D03*
D140*
X562000Y340533D02*
D03*
X565000Y302000D02*
D03*
X562000Y343533D02*
D03*
X568000Y302000D02*
D03*
X387000Y161000D02*
D03*
D141*
X114500Y114000D02*
D03*
X785500D02*
D03*
Y416500D02*
D03*
X114500D02*
D03*
M02*
