G04*
G04 #@! TF.GenerationSoftware,Altium Limited,Altium Designer,25.5.2 (35)*
G04*
G04 Layer_Color=32896*
%FSLAX25Y25*%
%MOIN*%
G70*
G04*
G04 #@! TF.SameCoordinates,1DACB3DC-ACE0-44E2-B579-3CE0BC83F536*
G04*
G04*
G04 #@! TF.FilePolarity,Positive*
G04*
G01*
G75*
%ADD20C,0.01000*%
%ADD25C,0.01200*%
%ADD186C,0.01600*%
G36*
X233050Y314288D02*
X231173D01*
Y312411D01*
X233050D01*
Y299273D01*
X231173D01*
Y306781D01*
X229296D01*
Y308658D01*
X225542D01*
Y306781D01*
X227419D01*
Y304904D01*
X229296D01*
Y304435D01*
Y304200D01*
Y303027D01*
X227419D01*
Y304904D01*
X225542D01*
Y306546D01*
Y306781D01*
X223665D01*
Y304904D01*
X225542D01*
Y301150D01*
X229296D01*
Y299273D01*
X231173D01*
Y291765D01*
X233050D01*
Y289889D01*
X231173D01*
Y291765D01*
X223665D01*
Y289889D01*
X227419D01*
Y288012D01*
X229296D01*
Y289889D01*
X231173D01*
Y286135D01*
X233050D01*
Y284258D01*
X234927D01*
Y282381D01*
X236804D01*
Y288012D01*
X240558D01*
Y286135D01*
X238681D01*
Y284258D01*
X242435D01*
Y282381D01*
X238681D01*
Y280504D01*
X240558D01*
Y279565D01*
Y279331D01*
Y278627D01*
X244311D01*
Y282381D01*
X248065D01*
Y278627D01*
X246188D01*
Y276750D01*
X248065D01*
Y275812D01*
Y275577D01*
Y274873D01*
X246188D01*
Y276750D01*
X244311D01*
Y271119D01*
X246188D01*
Y266427D01*
Y266192D01*
Y263612D01*
X244311D01*
Y265489D01*
X242435D01*
Y267365D01*
X244311D01*
Y271119D01*
X242435D01*
Y272996D01*
X240558D01*
Y271119D01*
X242435D01*
Y269242D01*
X238681D01*
Y265489D01*
X236804D01*
Y261735D01*
X229296D01*
Y263612D01*
X227419D01*
Y261735D01*
X221789D01*
Y263612D01*
X218035D01*
Y265489D01*
X216158D01*
Y263612D01*
X214281D01*
Y265489D01*
X212404D01*
Y267365D01*
X210527D01*
Y269242D01*
X212404D01*
Y267365D01*
X219912D01*
Y269242D01*
X212404D01*
Y272292D01*
Y272527D01*
Y272996D01*
X210527D01*
Y271119D01*
X208650D01*
Y278627D01*
X206773D01*
Y280504D01*
X204896D01*
Y282381D01*
X203019D01*
Y284258D01*
X201142D01*
Y286604D01*
Y286839D01*
Y288012D01*
X197389D01*
Y280504D01*
X199265D01*
Y282381D01*
X201142D01*
Y278627D01*
X203019D01*
Y276750D01*
X197389D01*
Y280504D01*
X195511D01*
Y276750D01*
X193635D01*
Y284258D01*
X195511D01*
Y286135D01*
X193635D01*
Y295519D01*
X195511D01*
Y297396D01*
X197389D01*
Y295519D01*
X199265D01*
Y299273D01*
X203019D01*
Y301150D01*
X208650D01*
Y297396D01*
X210527D01*
Y295519D01*
X212404D01*
Y291765D01*
X210527D01*
Y293642D01*
X208650D01*
Y288012D01*
X216158D01*
Y286135D01*
X214281D01*
Y284258D01*
X216158D01*
Y282381D01*
X219912D01*
Y280504D01*
X221789D01*
Y279331D01*
Y279096D01*
Y278627D01*
X223665D01*
Y280504D01*
X221789D01*
Y282381D01*
X227419D01*
Y280504D01*
X225542D01*
Y276750D01*
X223665D01*
Y274873D01*
X221789D01*
Y272996D01*
X216158D01*
Y274873D01*
X212404D01*
Y272996D01*
X214281D01*
Y271119D01*
X223665D01*
Y267365D01*
X231173D01*
Y265489D01*
X229296D01*
Y263612D01*
X234927D01*
Y265489D01*
X233050D01*
Y267365D01*
X231173D01*
Y269242D01*
X229296D01*
Y271119D01*
X231173D01*
Y272996D01*
X225542D01*
Y274873D01*
X227419D01*
Y278627D01*
X229296D01*
Y276750D01*
X231173D01*
Y278627D01*
X229296D01*
Y280504D01*
X231173D01*
Y282381D01*
X229296D01*
Y284258D01*
X231173D01*
Y286135D01*
X225542D01*
Y288012D01*
X221789D01*
Y286135D01*
X225542D01*
Y284258D01*
X221789D01*
Y286135D01*
X218035D01*
Y288012D01*
X216158D01*
Y291765D01*
X214281D01*
Y295519D01*
X212404D01*
Y297396D01*
X210527D01*
Y301150D01*
X212404D01*
Y299039D01*
Y298804D01*
Y297396D01*
X214281D01*
Y297162D01*
Y296927D01*
Y295519D01*
X216158D01*
Y291765D01*
X218035D01*
Y289889D01*
X219912D01*
Y293642D01*
X223665D01*
Y297396D01*
X221789D01*
Y295519D01*
X218035D01*
Y297396D01*
X214281D01*
Y299273D01*
X216158D01*
Y301150D01*
X212404D01*
Y304904D01*
X214281D01*
Y303027D01*
X216158D01*
Y301619D01*
Y301385D01*
Y301150D01*
X218035D01*
Y303027D01*
X216158D01*
Y306781D01*
X219912D01*
Y308658D01*
X223665D01*
Y312411D01*
X225542D01*
Y314288D01*
X221789D01*
Y316165D01*
X227419D01*
Y312411D01*
X229296D01*
Y316165D01*
X233050D01*
Y314288D01*
D02*
G37*
G36*
X219912D02*
X221789D01*
Y310535D01*
X219912D01*
Y312411D01*
X218035D01*
Y308658D01*
X216158D01*
Y314288D01*
X214281D01*
Y312411D01*
X210527D01*
Y314288D01*
X212404D01*
Y316165D01*
X219912D01*
Y314288D01*
D02*
G37*
G36*
X210527Y308658D02*
X212404D01*
Y306781D01*
X208650D01*
Y310535D01*
X210527D01*
Y308658D01*
D02*
G37*
G36*
X248065Y312411D02*
Y312177D01*
Y303027D01*
X234927D01*
Y316165D01*
X248065D01*
Y312411D01*
D02*
G37*
G36*
X210527Y303027D02*
X208650D01*
Y304904D01*
X210527D01*
Y303027D01*
D02*
G37*
G36*
X206773Y310535D02*
Y310300D01*
Y303027D01*
X193635D01*
Y316165D01*
X206773D01*
Y310535D01*
D02*
G37*
G36*
X197389Y299273D02*
X193635D01*
Y301150D01*
X197389D01*
Y299273D01*
D02*
G37*
G36*
X248065Y298335D02*
Y298100D01*
Y297396D01*
X246188D01*
Y299273D01*
X248065D01*
Y298335D01*
D02*
G37*
G36*
X242435Y299273D02*
X244311D01*
Y295519D01*
X248065D01*
Y291765D01*
X246188D01*
Y293642D01*
X244311D01*
Y294815D01*
Y295050D01*
Y295519D01*
X242435D01*
Y293642D01*
X244311D01*
Y291765D01*
X242435D01*
Y289889D01*
X248065D01*
Y288012D01*
X244311D01*
Y286135D01*
X242435D01*
Y288012D01*
X240558D01*
Y291765D01*
X238681D01*
Y293642D01*
X234927D01*
Y295519D01*
X236804D01*
Y297396D01*
X234927D01*
Y299273D01*
X238681D01*
Y301150D01*
X242435D01*
Y299273D01*
D02*
G37*
G36*
X234927Y292235D02*
Y292000D01*
Y291765D01*
X233050D01*
Y293642D01*
X234927D01*
Y292235D01*
D02*
G37*
G36*
Y287777D02*
Y287542D01*
Y286135D01*
X233050D01*
Y288012D01*
X234927D01*
Y287777D01*
D02*
G37*
G36*
X204896Y278627D02*
X206773D01*
Y276750D01*
X204896D01*
Y278627D01*
X203019D01*
Y280504D01*
X204896D01*
Y278627D01*
D02*
G37*
G36*
X248065Y271119D02*
X246188D01*
Y272996D01*
X248065D01*
Y271119D01*
D02*
G37*
G36*
X225542D02*
X223665D01*
Y272996D01*
X225542D01*
Y271119D01*
D02*
G37*
G36*
X242435Y263612D02*
X244311D01*
Y261735D01*
X238681D01*
Y262204D01*
Y262439D01*
Y263612D01*
X240558D01*
Y265489D01*
X242435D01*
Y263612D01*
D02*
G37*
G36*
X212404D02*
X210527D01*
Y261735D01*
X208650D01*
Y265489D01*
X212404D01*
Y263612D01*
D02*
G37*
G36*
X206773Y261735D02*
X193635D01*
Y274873D01*
X206773D01*
Y261735D01*
D02*
G37*
G36*
X387500Y371675D02*
X387200Y367375D01*
X386725Y367450D01*
X385650Y370650D01*
X381400D01*
Y358675D01*
Y358175D01*
Y357725D01*
Y357325D01*
Y357000D01*
X381425Y356725D01*
Y356525D01*
Y356400D01*
Y356350D01*
X381450Y356250D01*
X381475Y356175D01*
X381600Y356075D01*
X381700Y356025D01*
X381725Y356000D01*
X381750D01*
X383525Y355475D01*
X383475Y354950D01*
X382825D01*
X382225Y354975D01*
X378025D01*
X377575Y354950D01*
X376925D01*
X376950Y355475D01*
X378725Y356000D01*
X378825Y356025D01*
X378900Y356075D01*
X379000Y356200D01*
X379050Y356300D01*
Y356350D01*
Y356725D01*
Y357100D01*
Y357500D01*
Y357850D01*
Y358175D01*
Y358450D01*
Y358550D01*
Y358625D01*
Y358650D01*
Y358675D01*
Y370650D01*
X374825D01*
X374050Y367375D01*
X373575Y367450D01*
X372825Y371675D01*
X372900Y371750D01*
X374000D01*
X375050Y371725D01*
X385200D01*
X385600Y371750D01*
X387425D01*
X387500Y371675D01*
D02*
G37*
G36*
X371475Y371250D02*
X370000Y370775D01*
X369825Y370675D01*
X369750Y370550D01*
X369700Y370425D01*
Y370400D01*
Y370375D01*
Y370050D01*
X369675Y369725D01*
Y369400D01*
Y369075D01*
Y368800D01*
Y368575D01*
Y368425D01*
Y368400D01*
Y368375D01*
Y358650D01*
Y358150D01*
Y357700D01*
Y357275D01*
Y356950D01*
X369700Y356650D01*
Y356450D01*
Y356325D01*
Y356275D01*
X369725Y356175D01*
X369750Y356100D01*
X369875Y355975D01*
X369975Y355925D01*
X370000Y355900D01*
X370025D01*
X371500Y355475D01*
X371475Y354950D01*
X370900D01*
X370350Y354975D01*
X366525D01*
X366150Y354950D01*
X365625D01*
X365675Y355475D01*
X367000Y355875D01*
X367100Y355925D01*
X367175Y355975D01*
X367250Y356125D01*
X367300Y356250D01*
Y356275D01*
Y356300D01*
Y356675D01*
X367325Y357075D01*
Y357450D01*
Y357825D01*
Y358150D01*
Y358425D01*
Y358525D01*
Y358600D01*
Y358625D01*
Y358650D01*
Y363275D01*
X358600D01*
Y358650D01*
Y358150D01*
Y357700D01*
Y357300D01*
Y356950D01*
X358625Y356675D01*
Y356475D01*
Y356350D01*
Y356300D01*
Y356200D01*
X358675Y356100D01*
X358775Y355975D01*
X358875Y355900D01*
X358900Y355875D01*
X358925D01*
X360300Y355475D01*
X360250Y354950D01*
X359725D01*
X359225Y354975D01*
X355400D01*
X355000Y354950D01*
X354425D01*
X354450Y355475D01*
X355900Y355900D01*
X356000Y355950D01*
X356075Y356000D01*
X356175Y356125D01*
X356225Y356225D01*
Y356275D01*
Y356650D01*
X356250Y357050D01*
Y357450D01*
Y357825D01*
Y358150D01*
Y358425D01*
Y358525D01*
Y358600D01*
Y358625D01*
Y358650D01*
Y368375D01*
Y368800D01*
Y369200D01*
Y369525D01*
X356225Y369825D01*
Y370050D01*
Y370225D01*
Y370350D01*
Y370375D01*
X356175Y370575D01*
X356075Y370700D01*
X355975Y370750D01*
X355925Y370775D01*
X354425Y371250D01*
X354475Y371775D01*
X355025Y371750D01*
X356050D01*
X356500Y371725D01*
X358450D01*
X358950Y371750D01*
X359750D01*
X359925Y371775D01*
X360300D01*
X360275Y371250D01*
X358925Y370825D01*
X358825Y370800D01*
X358750Y370725D01*
X358650Y370600D01*
X358625Y370500D01*
Y370475D01*
Y370450D01*
Y370125D01*
X358600Y369775D01*
Y369425D01*
Y369100D01*
Y368825D01*
Y368625D01*
Y368475D01*
Y368450D01*
Y368425D01*
Y364375D01*
X367325D01*
Y368425D01*
Y368850D01*
Y369225D01*
Y369575D01*
X367300Y369875D01*
Y370125D01*
Y370300D01*
Y370400D01*
Y370450D01*
X367275Y370550D01*
X367250Y370625D01*
X367150Y370750D01*
X367050Y370800D01*
X367000Y370825D01*
X365625Y371250D01*
X365700Y371775D01*
X366225Y371750D01*
X367200D01*
X367625Y371725D01*
X369600D01*
X370100Y371750D01*
X370950D01*
X371100Y371775D01*
X371500D01*
X371475Y371250D01*
D02*
G37*
G36*
X352025D02*
X350550Y370775D01*
X350375Y370675D01*
X350300Y370550D01*
X350250Y370425D01*
Y370400D01*
Y370375D01*
Y370075D01*
Y369775D01*
Y369650D01*
Y369550D01*
Y369500D01*
Y369475D01*
X350225Y369100D01*
Y368750D01*
Y368600D01*
Y368475D01*
Y368400D01*
Y368375D01*
Y358650D01*
Y358150D01*
Y357925D01*
Y357750D01*
X350250Y357575D01*
Y357450D01*
Y357375D01*
Y357350D01*
Y356925D01*
Y356750D01*
Y356600D01*
Y356450D01*
Y356350D01*
Y356300D01*
Y356275D01*
X350275Y356175D01*
X350300Y356100D01*
X350425Y355975D01*
X350525Y355925D01*
X350550Y355900D01*
X350575D01*
X352050Y355475D01*
X352025Y354950D01*
X351450D01*
X350925Y354975D01*
X342325D01*
X341925Y354950D01*
X340450D01*
X340375Y355000D01*
X340100Y359175D01*
X340650Y359075D01*
X342100Y356050D01*
X347875D01*
Y356525D01*
Y357000D01*
Y357450D01*
Y357850D01*
Y358175D01*
Y358450D01*
Y358550D01*
Y358625D01*
Y358650D01*
Y358675D01*
Y363050D01*
X344925D01*
X344550Y363025D01*
X344000D01*
X343900Y363000D01*
X343825Y362975D01*
X343700Y362850D01*
X343650Y362750D01*
X343625Y362725D01*
Y362700D01*
X343175Y361050D01*
X342525Y361100D01*
X342550Y361675D01*
Y362175D01*
Y362600D01*
X342575Y362950D01*
Y363200D01*
Y363400D01*
Y363525D01*
Y363550D01*
Y363875D01*
Y364275D01*
X342550Y364675D01*
Y365100D01*
Y365450D01*
X342525Y365750D01*
Y365875D01*
Y365950D01*
Y366000D01*
Y366025D01*
X343175D01*
X343600Y364375D01*
X343650Y364275D01*
X343700Y364200D01*
X343825Y364100D01*
X343950Y364050D01*
X347875D01*
Y370650D01*
X342350D01*
X341600Y367875D01*
X341125Y367975D01*
X340425Y371675D01*
X340500Y371750D01*
X341600D01*
X342650Y371725D01*
X350150D01*
X350650Y371750D01*
X351500D01*
X351650Y371775D01*
X352050D01*
X352025Y371250D01*
D02*
G37*
G36*
X338050D02*
X336575Y370775D01*
X336400Y370675D01*
X336325Y370550D01*
X336275Y370425D01*
Y370400D01*
Y370375D01*
Y370050D01*
X336250Y369725D01*
Y369400D01*
Y369075D01*
Y368800D01*
Y368575D01*
Y368425D01*
Y368400D01*
Y368375D01*
Y358650D01*
Y358150D01*
Y357700D01*
Y357275D01*
Y356950D01*
X336275Y356650D01*
Y356450D01*
Y356325D01*
Y356275D01*
X336300Y356175D01*
X336325Y356100D01*
X336450Y355975D01*
X336550Y355925D01*
X336575Y355900D01*
X336600D01*
X338075Y355475D01*
X338050Y354950D01*
X337500D01*
X337000Y354975D01*
X333950D01*
X333600Y354950D01*
X333075D01*
X333100Y355500D01*
X334550Y355900D01*
X334650Y355950D01*
X334700Y356000D01*
X334800Y356150D01*
X334850Y356275D01*
Y356300D01*
Y356325D01*
Y356700D01*
Y357075D01*
Y357475D01*
Y357850D01*
Y358175D01*
Y358450D01*
Y358550D01*
Y358625D01*
Y358650D01*
Y358675D01*
Y368350D01*
X324075Y354900D01*
X323050Y354975D01*
Y368375D01*
Y368800D01*
Y369200D01*
Y369525D01*
Y369825D01*
Y370050D01*
Y370200D01*
Y370325D01*
Y370350D01*
X323000Y370550D01*
X322900Y370675D01*
X322800Y370750D01*
X322750Y370775D01*
X321250Y371250D01*
X321275Y371775D01*
X321800Y371750D01*
X322725D01*
X323075Y371725D01*
X324550D01*
X324950Y371750D01*
X325700D01*
X326000Y371775D01*
X326250D01*
X326225Y371225D01*
X324800Y370800D01*
X324700Y370750D01*
X324625Y370700D01*
X324525Y370575D01*
X324475Y370475D01*
Y370450D01*
Y370425D01*
Y370100D01*
X324450Y369775D01*
Y369425D01*
Y369125D01*
Y368850D01*
Y368625D01*
Y368475D01*
Y368450D01*
Y368425D01*
Y359175D01*
X334550Y371775D01*
X334950Y371750D01*
X335150D01*
X335300Y371725D01*
X336400D01*
X336800Y371750D01*
X337550D01*
X337825Y371775D01*
X338075D01*
X338050Y371250D01*
D02*
G37*
G36*
X396525Y371825D02*
X402650Y357200D01*
X402750Y356975D01*
X402850Y356800D01*
X402925Y356625D01*
X403000Y356500D01*
X403075Y356400D01*
X403100Y356325D01*
X403150Y356300D01*
Y356275D01*
X403325Y356075D01*
X403550Y355950D01*
X403650Y355900D01*
X403725Y355850D01*
X403775Y355825D01*
X403800D01*
X405000Y355475D01*
X404925Y354950D01*
X404450D01*
X404000Y354975D01*
X400750D01*
X400375Y354950D01*
X399775D01*
X399800Y355500D01*
X400900Y355800D01*
X401050Y355850D01*
X401150Y355925D01*
X401225Y355950D01*
X401250Y355975D01*
X401300Y356075D01*
X401325Y356175D01*
X401350Y356275D01*
Y356300D01*
X401325Y356500D01*
X401275Y356675D01*
X401250Y356850D01*
X401225Y356875D01*
Y356900D01*
X401175Y357050D01*
X401100Y357250D01*
X400975Y357600D01*
X400900Y357750D01*
X400875Y357875D01*
X400825Y357950D01*
Y357975D01*
X399550Y361175D01*
X393775D01*
X392650Y357950D01*
X392575Y357725D01*
X392500Y357525D01*
X392450Y357350D01*
X392400Y357200D01*
X392350Y357075D01*
X392325Y357000D01*
X392300Y356950D01*
Y356925D01*
X392225Y356675D01*
X392200Y356475D01*
X392175Y356350D01*
Y356300D01*
X392200Y356150D01*
X392225Y356050D01*
X392250Y356000D01*
X392275Y355975D01*
X392375Y355900D01*
X392475Y355850D01*
X392575Y355825D01*
X392625Y355800D01*
X393750Y355475D01*
X393700Y354950D01*
X393025D01*
X392425Y354975D01*
X388500D01*
X388125Y354950D01*
X387550D01*
X387575Y355475D01*
X388725Y355800D01*
X389025Y355925D01*
X389250Y356075D01*
X389375Y356175D01*
X389425Y356225D01*
X389500Y356350D01*
X389600Y356525D01*
X389775Y356900D01*
X389850Y357075D01*
X389900Y357225D01*
X389925Y357325D01*
X389950Y357350D01*
X395300Y372025D01*
X396525Y371825D01*
D02*
G37*
G36*
X312750D02*
X318875Y357200D01*
X318975Y356975D01*
X319075Y356800D01*
X319150Y356625D01*
X319225Y356500D01*
X319300Y356400D01*
X319325Y356325D01*
X319375Y356300D01*
Y356275D01*
X319550Y356075D01*
X319775Y355950D01*
X319875Y355900D01*
X319950Y355850D01*
X320000Y355825D01*
X320025D01*
X321225Y355475D01*
X321150Y354950D01*
X320675D01*
X320225Y354975D01*
X316975D01*
X316600Y354950D01*
X316000D01*
X316025Y355500D01*
X317125Y355800D01*
X317275Y355850D01*
X317375Y355925D01*
X317450Y355950D01*
X317475Y355975D01*
X317525Y356075D01*
X317550Y356175D01*
X317575Y356275D01*
Y356300D01*
X317550Y356500D01*
X317500Y356675D01*
X317475Y356850D01*
X317450Y356875D01*
Y356900D01*
X317400Y357050D01*
X317325Y357250D01*
X317200Y357600D01*
X317125Y357750D01*
X317100Y357875D01*
X317050Y357950D01*
Y357975D01*
X315775Y361175D01*
X310000D01*
X308875Y357950D01*
X308800Y357725D01*
X308725Y357525D01*
X308675Y357350D01*
X308625Y357200D01*
X308575Y357075D01*
X308550Y357000D01*
X308525Y356950D01*
Y356925D01*
X308450Y356675D01*
X308425Y356475D01*
X308400Y356350D01*
Y356300D01*
X308425Y356150D01*
X308450Y356050D01*
X308475Y356000D01*
X308500Y355975D01*
X308600Y355900D01*
X308700Y355850D01*
X308800Y355825D01*
X308850Y355800D01*
X309975Y355475D01*
X309925Y354950D01*
X309250D01*
X308650Y354975D01*
X304725D01*
X304350Y354950D01*
X303775D01*
X303800Y355475D01*
X304950Y355800D01*
X305250Y355925D01*
X305475Y356075D01*
X305600Y356175D01*
X305650Y356225D01*
X305725Y356350D01*
X305825Y356525D01*
X306000Y356900D01*
X306075Y357075D01*
X306125Y357225D01*
X306150Y357325D01*
X306175Y357350D01*
X311525Y372025D01*
X312750Y371825D01*
D02*
G37*
G36*
X372250Y410225D02*
X370775Y409750D01*
X370600Y409650D01*
X370525Y409525D01*
X370475Y409400D01*
Y409375D01*
Y409350D01*
Y409050D01*
Y408750D01*
Y408625D01*
Y408525D01*
Y408475D01*
Y408450D01*
X370450Y408075D01*
Y407725D01*
Y407575D01*
Y407450D01*
Y407375D01*
Y407350D01*
Y397625D01*
Y397125D01*
Y396900D01*
Y396725D01*
X370475Y396550D01*
Y396425D01*
Y396350D01*
Y396325D01*
Y395900D01*
Y395725D01*
Y395575D01*
Y395425D01*
Y395325D01*
Y395275D01*
Y395250D01*
X370500Y395150D01*
X370525Y395075D01*
X370650Y394950D01*
X370750Y394900D01*
X370775Y394875D01*
X370800D01*
X372275Y394450D01*
X372250Y393925D01*
X371675D01*
X371150Y393950D01*
X362550D01*
X362150Y393925D01*
X360675D01*
X360600Y393975D01*
X360325Y398150D01*
X360875Y398050D01*
X362325Y395025D01*
X368100D01*
Y395500D01*
Y395975D01*
Y396425D01*
Y396825D01*
Y397150D01*
Y397425D01*
Y397525D01*
Y397600D01*
Y397625D01*
Y397650D01*
Y402025D01*
X365150D01*
X364775Y402000D01*
X364225D01*
X364125Y401975D01*
X364050Y401950D01*
X363925Y401825D01*
X363875Y401725D01*
X363850Y401700D01*
Y401675D01*
X363400Y400025D01*
X362750Y400075D01*
X362775Y400650D01*
Y401150D01*
Y401575D01*
X362800Y401925D01*
Y402175D01*
Y402375D01*
Y402500D01*
Y402525D01*
Y402850D01*
Y403250D01*
X362775Y403650D01*
Y404075D01*
Y404425D01*
X362750Y404725D01*
Y404850D01*
Y404925D01*
Y404975D01*
Y405000D01*
X363400D01*
X363825Y403350D01*
X363875Y403250D01*
X363925Y403175D01*
X364050Y403075D01*
X364175Y403025D01*
X368100D01*
Y409625D01*
X362575D01*
X361825Y406850D01*
X361350Y406950D01*
X360650Y410650D01*
X360725Y410725D01*
X361825D01*
X362875Y410700D01*
X370375D01*
X370875Y410725D01*
X371725D01*
X371875Y410750D01*
X372275D01*
X372250Y410225D01*
D02*
G37*
G36*
X340750D02*
X339275Y409750D01*
X339100Y409650D01*
X339025Y409525D01*
X338975Y409400D01*
Y409375D01*
Y409350D01*
Y409050D01*
Y408750D01*
Y408625D01*
Y408525D01*
Y408475D01*
Y408450D01*
X338950Y408075D01*
Y407725D01*
Y407575D01*
Y407450D01*
Y407375D01*
Y407350D01*
Y397625D01*
Y397125D01*
Y396900D01*
Y396725D01*
X338975Y396550D01*
Y396425D01*
Y396350D01*
Y396325D01*
Y395900D01*
Y395725D01*
Y395575D01*
Y395425D01*
Y395325D01*
Y395275D01*
Y395250D01*
X339000Y395150D01*
X339025Y395075D01*
X339150Y394950D01*
X339250Y394900D01*
X339275Y394875D01*
X339300D01*
X340775Y394450D01*
X340750Y393925D01*
X340175D01*
X339650Y393950D01*
X335750D01*
X335350Y393925D01*
X334800D01*
X334825Y394450D01*
X336175Y394850D01*
X336300Y394900D01*
X336400Y394975D01*
X336475Y395050D01*
X336525Y395100D01*
X336600Y395225D01*
Y395275D01*
Y395650D01*
Y395975D01*
Y396125D01*
Y396225D01*
Y396300D01*
Y396325D01*
Y396775D01*
Y397000D01*
Y397200D01*
Y397375D01*
Y397500D01*
Y397600D01*
Y397625D01*
Y407400D01*
Y407800D01*
Y408000D01*
Y408150D01*
Y408275D01*
Y408400D01*
Y408450D01*
Y408475D01*
Y408825D01*
Y409125D01*
Y409250D01*
Y409325D01*
Y409375D01*
Y409400D01*
X336575Y409500D01*
X336550Y409575D01*
X336425Y409700D01*
X336325Y409750D01*
X336275Y409775D01*
X334800Y410225D01*
X334825Y410750D01*
X335400Y410725D01*
X336450D01*
X336900Y410700D01*
X338875D01*
X339375Y410725D01*
X340225D01*
X340375Y410750D01*
X340775D01*
X340750Y410225D01*
D02*
G37*
G36*
X349150Y411000D02*
X349925Y410925D01*
X350650Y410800D01*
X351325Y410650D01*
X351950Y410475D01*
X352525Y410250D01*
X353050Y410050D01*
X353550Y409825D01*
X353975Y409575D01*
X354350Y409375D01*
X354650Y409175D01*
X354925Y408975D01*
X355125Y408825D01*
X355275Y408700D01*
X355375Y408625D01*
X355400Y408600D01*
X355850Y408125D01*
X356250Y407625D01*
X356600Y407100D01*
X356900Y406550D01*
X357125Y406000D01*
X357350Y405450D01*
X357525Y404900D01*
X357650Y404375D01*
X357750Y403875D01*
X357850Y403425D01*
X357900Y403000D01*
X357925Y402650D01*
X357950Y402350D01*
X357975Y402150D01*
Y402000D01*
Y401950D01*
X357950Y401225D01*
X357875Y400525D01*
X357750Y399900D01*
X357575Y399300D01*
X357400Y398725D01*
X357200Y398225D01*
X356975Y397750D01*
X356725Y397350D01*
X356500Y396975D01*
X356275Y396650D01*
X356075Y396375D01*
X355875Y396125D01*
X355725Y395950D01*
X355600Y395825D01*
X355525Y395750D01*
X355500Y395725D01*
X355000Y395325D01*
X354500Y395000D01*
X353950Y394700D01*
X353400Y394450D01*
X352825Y394225D01*
X352275Y394050D01*
X351725Y393900D01*
X351200Y393775D01*
X350725Y393675D01*
X350250Y393625D01*
X349850Y393575D01*
X349500Y393525D01*
X349200D01*
X348975Y393500D01*
X348800D01*
X348025Y393525D01*
X347225Y393600D01*
X346475Y393675D01*
X345775Y393800D01*
X345475Y393850D01*
X345175Y393900D01*
X344925Y393950D01*
X344725Y393975D01*
X344550Y394025D01*
X344400Y394050D01*
X344325Y394075D01*
X344300D01*
X344225Y394150D01*
Y398000D01*
Y398400D01*
Y398600D01*
Y398750D01*
Y398875D01*
Y399000D01*
Y399050D01*
Y399075D01*
Y399450D01*
Y399750D01*
Y399875D01*
Y399975D01*
Y400025D01*
Y400050D01*
X344200Y400150D01*
X344175Y400225D01*
X344050Y400350D01*
X343950Y400400D01*
X343900Y400425D01*
X342600Y400825D01*
X342650Y401350D01*
X343150Y401325D01*
X344125D01*
X344550Y401300D01*
X346500D01*
X347000Y401325D01*
X347850D01*
X348000Y401350D01*
X348400D01*
X348375Y400825D01*
X346900Y400350D01*
X346725Y400250D01*
X346650Y400125D01*
X346600Y400000D01*
Y399975D01*
Y399950D01*
Y399650D01*
Y399350D01*
Y399225D01*
Y399125D01*
Y399075D01*
Y399050D01*
X346575Y398675D01*
Y398325D01*
Y398175D01*
Y398050D01*
Y397975D01*
Y397950D01*
Y394750D01*
X347325Y394600D01*
X347675Y394550D01*
X347975Y394525D01*
X348250D01*
X348450Y394500D01*
X348625D01*
X349200Y394525D01*
X349725Y394600D01*
X350225Y394700D01*
X350700Y394825D01*
X351150Y395000D01*
X351550Y395175D01*
X351925Y395375D01*
X352250Y395575D01*
X352550Y395750D01*
X352800Y395950D01*
X353025Y396125D01*
X353225Y396300D01*
X353350Y396425D01*
X353475Y396525D01*
X353525Y396600D01*
X353550Y396625D01*
X353875Y397050D01*
X354150Y397475D01*
X354375Y397950D01*
X354600Y398425D01*
X354775Y398900D01*
X354900Y399375D01*
X355025Y399850D01*
X355125Y400300D01*
X355200Y400725D01*
X355250Y401125D01*
X355300Y401475D01*
X355325Y401775D01*
Y402025D01*
X355350Y402225D01*
Y402325D01*
Y402375D01*
X355325Y403025D01*
X355275Y403650D01*
X355200Y404225D01*
X355075Y404750D01*
X354950Y405250D01*
X354825Y405725D01*
X354675Y406150D01*
X354500Y406525D01*
X354350Y406850D01*
X354200Y407150D01*
X354075Y407400D01*
X353925Y407600D01*
X353825Y407775D01*
X353750Y407875D01*
X353700Y407950D01*
X353675Y407975D01*
X353350Y408325D01*
X353000Y408650D01*
X352625Y408925D01*
X352225Y409150D01*
X351850Y409350D01*
X351450Y409525D01*
X351075Y409650D01*
X350700Y409775D01*
X350350Y409850D01*
X350025Y409925D01*
X349750Y409975D01*
X349500Y410000D01*
X349275D01*
X349125Y410025D01*
X349000D01*
X348525Y410000D01*
X348025Y409975D01*
X347575Y409900D01*
X347150Y409825D01*
X346775Y409750D01*
X346500Y409700D01*
X346400Y409675D01*
X346325Y409650D01*
X346275Y409625D01*
X346250D01*
X345425Y406475D01*
X344950Y406550D01*
X344200Y410425D01*
X344275Y410525D01*
X345050Y410700D01*
X345800Y410825D01*
X346500Y410900D01*
X347100Y410975D01*
X347375D01*
X347600Y411000D01*
X347825D01*
X348000Y411025D01*
X348325D01*
X349150Y411000D01*
D02*
G37*
G36*
X382225Y410800D02*
X388350Y396175D01*
X388450Y395950D01*
X388550Y395775D01*
X388625Y395600D01*
X388700Y395475D01*
X388775Y395375D01*
X388800Y395300D01*
X388850Y395275D01*
Y395250D01*
X389025Y395050D01*
X389250Y394925D01*
X389350Y394875D01*
X389425Y394825D01*
X389475Y394800D01*
X389500D01*
X390700Y394450D01*
X390625Y393925D01*
X390150D01*
X389700Y393950D01*
X386450D01*
X386075Y393925D01*
X385475D01*
X385500Y394475D01*
X386600Y394775D01*
X386750Y394825D01*
X386850Y394900D01*
X386925Y394925D01*
X386950Y394950D01*
X387000Y395050D01*
X387025Y395150D01*
X387050Y395250D01*
Y395275D01*
X387025Y395475D01*
X386975Y395650D01*
X386950Y395825D01*
X386925Y395850D01*
Y395875D01*
X386875Y396025D01*
X386800Y396225D01*
X386675Y396575D01*
X386600Y396725D01*
X386575Y396850D01*
X386525Y396925D01*
Y396950D01*
X385250Y400150D01*
X379475D01*
X378350Y396925D01*
X378275Y396700D01*
X378200Y396500D01*
X378150Y396325D01*
X378100Y396175D01*
X378050Y396050D01*
X378025Y395975D01*
X378000Y395925D01*
Y395900D01*
X377925Y395650D01*
X377900Y395450D01*
X377875Y395325D01*
Y395275D01*
X377900Y395125D01*
X377925Y395025D01*
X377950Y394975D01*
X377975Y394950D01*
X378075Y394875D01*
X378175Y394825D01*
X378275Y394800D01*
X378325Y394775D01*
X379450Y394450D01*
X379400Y393925D01*
X378725D01*
X378125Y393950D01*
X374200D01*
X373825Y393925D01*
X373250D01*
X373275Y394450D01*
X374425Y394775D01*
X374725Y394900D01*
X374950Y395050D01*
X375075Y395150D01*
X375125Y395200D01*
X375200Y395325D01*
X375300Y395500D01*
X375475Y395875D01*
X375550Y396050D01*
X375600Y396200D01*
X375625Y396300D01*
X375650Y396325D01*
X381000Y411000D01*
X382225Y410800D01*
D02*
G37*
G36*
X326700Y411000D02*
X327150Y410975D01*
X327600Y410925D01*
X328025Y410850D01*
X328425Y410750D01*
X328800Y410650D01*
X329150Y410550D01*
X329450Y410425D01*
X329725Y410325D01*
X329975Y410200D01*
X330200Y410100D01*
X330375Y410025D01*
X330525Y409925D01*
X330625Y409875D01*
X330675Y409850D01*
X330700Y409825D01*
X331025Y409600D01*
X331300Y409325D01*
X331525Y409075D01*
X331750Y408800D01*
X331925Y408525D01*
X332050Y408250D01*
X332175Y407975D01*
X332275Y407700D01*
X332400Y407225D01*
X332450Y407000D01*
X332475Y406825D01*
Y406675D01*
X332500Y406575D01*
Y406500D01*
Y406475D01*
X332475Y406075D01*
X332450Y405725D01*
X332375Y405400D01*
X332300Y405125D01*
X332250Y404875D01*
X332175Y404725D01*
X332150Y404600D01*
X332125Y404575D01*
X331975Y404275D01*
X331800Y404025D01*
X331625Y403800D01*
X331475Y403600D01*
X331325Y403425D01*
X331200Y403300D01*
X331125Y403225D01*
X331100Y403200D01*
X330600Y402825D01*
X330375Y402650D01*
X330150Y402500D01*
X329950Y402400D01*
X329800Y402300D01*
X329700Y402250D01*
X329675Y402225D01*
X329075Y401925D01*
X328800Y401800D01*
X328550Y401675D01*
X328325Y401575D01*
X328175Y401500D01*
X328050Y401475D01*
X328025Y401450D01*
X327500Y401200D01*
X327250Y401100D01*
X327050Y401000D01*
X326850Y400900D01*
X326725Y400825D01*
X326625Y400800D01*
X326600Y400775D01*
X326100Y400500D01*
X325900Y400375D01*
X325700Y400250D01*
X325550Y400150D01*
X325450Y400075D01*
X325375Y400025D01*
X325350Y400000D01*
X324975Y399675D01*
X324825Y399500D01*
X324700Y399350D01*
X324600Y399200D01*
X324525Y399100D01*
X324500Y399025D01*
X324475Y399000D01*
X324375Y398775D01*
X324275Y398550D01*
X324225Y398325D01*
X324200Y398100D01*
X324175Y397925D01*
X324150Y397775D01*
Y397675D01*
Y397650D01*
X324200Y397150D01*
X324300Y396700D01*
X324475Y396300D01*
X324650Y395975D01*
X324850Y395725D01*
X325025Y395550D01*
X325125Y395450D01*
X325175Y395400D01*
X325575Y395150D01*
X326025Y394950D01*
X326500Y394825D01*
X326925Y394725D01*
X327325Y394675D01*
X327500Y394650D01*
X327650D01*
X327775Y394625D01*
X327950D01*
X328450Y394650D01*
X328925Y394700D01*
X329350Y394775D01*
X329750Y394875D01*
X330075Y394975D01*
X330325Y395050D01*
X330425Y395075D01*
X330500Y395100D01*
X330525Y395125D01*
X330550D01*
X331400Y398525D01*
X331950Y398425D01*
X332525Y394350D01*
X332450Y394250D01*
X331600Y394050D01*
X330825Y393900D01*
X330100Y393775D01*
X329775Y393725D01*
X329475Y393700D01*
X329200Y393675D01*
X328950Y393650D01*
X328750D01*
X328550Y393625D01*
X328225D01*
X327675Y393650D01*
X327175Y393675D01*
X326675Y393750D01*
X326225Y393825D01*
X325800Y393925D01*
X325400Y394025D01*
X325025Y394125D01*
X324700Y394250D01*
X324400Y394375D01*
X324150Y394475D01*
X323925Y394575D01*
X323750Y394675D01*
X323600Y394750D01*
X323475Y394825D01*
X323425Y394850D01*
X323400Y394875D01*
X323075Y395125D01*
X322775Y395400D01*
X322525Y395675D01*
X322325Y395975D01*
X322125Y396275D01*
X321975Y396575D01*
X321850Y396875D01*
X321750Y397175D01*
X321675Y397450D01*
X321625Y397700D01*
X321575Y397925D01*
X321550Y398125D01*
X321525Y398300D01*
Y398425D01*
Y398500D01*
Y398525D01*
X321550Y398900D01*
X321575Y399225D01*
X321650Y399525D01*
X321725Y399775D01*
X321800Y399975D01*
X321850Y400150D01*
X321900Y400250D01*
X321925Y400275D01*
X322075Y400550D01*
X322250Y400800D01*
X322400Y401025D01*
X322575Y401225D01*
X322700Y401375D01*
X322825Y401475D01*
X322900Y401550D01*
X322925Y401575D01*
X323400Y401950D01*
X323650Y402125D01*
X323850Y402250D01*
X324050Y402375D01*
X324200Y402450D01*
X324300Y402500D01*
X324325Y402525D01*
X324900Y402800D01*
X325175Y402950D01*
X325425Y403050D01*
X325650Y403150D01*
X325800Y403225D01*
X325900Y403250D01*
X325950Y403275D01*
X326500Y403525D01*
X326750Y403650D01*
X326950Y403750D01*
X327150Y403850D01*
X327275Y403925D01*
X327375Y403950D01*
X327400Y403975D01*
X327900Y404250D01*
X328100Y404375D01*
X328300Y404500D01*
X328450Y404600D01*
X328575Y404675D01*
X328650Y404725D01*
X328675Y404750D01*
X329050Y405100D01*
X329200Y405275D01*
X329325Y405425D01*
X329425Y405575D01*
X329500Y405675D01*
X329525Y405750D01*
X329550Y405775D01*
X329650Y406000D01*
X329725Y406250D01*
X329800Y406475D01*
X329825Y406700D01*
X329850Y406875D01*
X329875Y407025D01*
Y407125D01*
Y407150D01*
X329825Y407650D01*
X329725Y408075D01*
X329575Y408425D01*
X329400Y408750D01*
X329250Y408975D01*
X329100Y409150D01*
X329000Y409275D01*
X328950Y409300D01*
X328575Y409550D01*
X328150Y409750D01*
X327725Y409875D01*
X327325Y409975D01*
X326975Y410025D01*
X326675Y410075D01*
X326425D01*
X326025Y410050D01*
X325625Y410000D01*
X325225Y409950D01*
X324875Y409875D01*
X324550Y409775D01*
X324325Y409725D01*
X324225Y409700D01*
X324150Y409675D01*
X324125Y409650D01*
X324100D01*
X323325Y406650D01*
X322850Y406750D01*
X322125Y410475D01*
X322225Y410575D01*
X323000Y410725D01*
X323725Y410825D01*
X324400Y410925D01*
X325000Y410975D01*
X325250Y411000D01*
X325700D01*
X325875Y411025D01*
X326200D01*
X326700Y411000D01*
D02*
G37*
%LPC*%
G36*
X231173Y310535D02*
X229296D01*
Y308658D01*
X231173D01*
Y310535D01*
D02*
G37*
G36*
X223665Y304904D02*
X221789D01*
Y303027D01*
X219912D01*
Y304904D01*
X218035D01*
Y303027D01*
X219912D01*
Y301150D01*
X223665D01*
Y304904D01*
D02*
G37*
G36*
X219912Y299273D02*
X218035D01*
Y297396D01*
X219912D01*
Y299273D01*
D02*
G37*
G36*
X227419D02*
X223665D01*
Y297396D01*
X227419D01*
Y295519D01*
X229296D01*
Y297396D01*
X227419D01*
Y299273D01*
D02*
G37*
G36*
X206773D02*
X204896D01*
Y297396D01*
X206773D01*
Y295519D01*
X208650D01*
Y297396D01*
X206773D01*
Y299273D01*
D02*
G37*
G36*
X227419Y295519D02*
X225542D01*
Y293642D01*
X227419D01*
Y295519D01*
D02*
G37*
G36*
X204896Y297396D02*
X201142D01*
Y293642D01*
X206773D01*
Y295519D01*
X204896D01*
Y297396D01*
D02*
G37*
G36*
X197389Y293642D02*
X195511D01*
Y291765D01*
X197389D01*
Y289889D01*
X199265D01*
Y291765D01*
X197389D01*
Y293642D01*
D02*
G37*
G36*
X201142D02*
X199265D01*
Y291765D01*
X201142D01*
Y288012D01*
X203019D01*
Y286135D01*
X208650D01*
Y288012D01*
X203019D01*
Y289889D01*
X206773D01*
Y291765D01*
X201142D01*
Y293642D01*
D02*
G37*
G36*
X206773Y284258D02*
X204896D01*
Y282381D01*
X206773D01*
Y284258D01*
D02*
G37*
G36*
X234927Y282381D02*
X233050D01*
Y278627D01*
X234927D01*
Y282381D01*
D02*
G37*
G36*
X212404Y286135D02*
X210527D01*
Y284258D01*
X208650D01*
Y282381D01*
X212404D01*
Y278627D01*
X214281D01*
Y276750D01*
X216158D01*
Y278627D01*
X214281D01*
Y280504D01*
X216158D01*
Y278627D01*
X219912D01*
Y276750D01*
X221789D01*
Y278627D01*
X219912D01*
Y280504D01*
X216158D01*
Y282381D01*
X214281D01*
Y283085D01*
Y283319D01*
Y284258D01*
X212404D01*
Y286135D01*
D02*
G37*
G36*
Y278627D02*
X210527D01*
Y276750D01*
X212404D01*
Y278627D01*
D02*
G37*
G36*
X219912Y276750D02*
X218035D01*
Y274873D01*
X219912D01*
Y276750D01*
D02*
G37*
G36*
X242435D02*
X240558D01*
Y274873D01*
X242435D01*
Y276750D01*
D02*
G37*
G36*
X238681D02*
X233050D01*
Y271588D01*
Y271354D01*
Y271119D01*
X238681D01*
Y276750D01*
D02*
G37*
G36*
X236804Y269242D02*
X233050D01*
Y267365D01*
X236804D01*
Y269242D01*
D02*
G37*
G36*
X225542Y265489D02*
X221789D01*
Y263612D01*
X225542D01*
Y265489D01*
D02*
G37*
%LPD*%
G36*
X236804Y273465D02*
Y273231D01*
Y272996D01*
X234927D01*
Y274873D01*
X236804D01*
Y273465D01*
D02*
G37*
%LPC*%
G36*
X246188Y314288D02*
X236804D01*
Y304904D01*
X246188D01*
Y314288D01*
D02*
G37*
%LPD*%
G36*
X244311Y306781D02*
X238681D01*
Y312411D01*
X244311D01*
Y306781D01*
D02*
G37*
%LPC*%
G36*
X204896Y314288D02*
X195511D01*
Y304904D01*
X204896D01*
Y314288D01*
D02*
G37*
%LPD*%
G36*
X203019Y310769D02*
Y310535D01*
Y306781D01*
X197389D01*
Y312411D01*
X203019D01*
Y310769D01*
D02*
G37*
%LPC*%
G36*
X240558Y297396D02*
X238681D01*
Y295519D01*
X240558D01*
Y297396D01*
D02*
G37*
G36*
X204896Y272996D02*
X195511D01*
Y267365D01*
Y267131D01*
Y263612D01*
X204896D01*
Y272996D01*
D02*
G37*
%LPD*%
G36*
X203019Y265489D02*
X197389D01*
Y271119D01*
X203019D01*
Y265489D01*
D02*
G37*
%LPC*%
G36*
X396525Y368875D02*
X394175Y362275D01*
X399125D01*
X396525Y368875D01*
D02*
G37*
G36*
X312750D02*
X310400Y362275D01*
X315350D01*
X312750Y368875D01*
D02*
G37*
G36*
X382225Y407850D02*
X379875Y401250D01*
X384825D01*
X382225Y407850D01*
D02*
G37*
%LPD*%
D20*
X190275Y355461D02*
G03*
X195424Y360610I0J5149D01*
G01*
Y373961D02*
G03*
X190424Y378961I-5000J0D01*
G01*
X176524D02*
G03*
X171524Y373961I0J-5000D01*
G01*
Y372361D02*
G03*
X175724Y368161I4200J0D01*
G01*
X182524Y365161D02*
G03*
X179524Y368161I-3000J0D01*
G01*
X182524Y360058D02*
G03*
X187121Y355461I4597J0D01*
G01*
X159600Y375203D02*
G03*
X155003Y379800I-4597J0D01*
G01*
X159600Y370100D02*
G03*
X162600Y367100I3000J0D01*
G01*
X170600Y362900D02*
G03*
X166400Y367100I-4200J0D01*
G01*
X165600Y356300D02*
G03*
X170600Y361300I0J5000D01*
G01*
X146700D02*
G03*
X151700Y356300I5000J0D01*
G01*
X151849Y379800D02*
G03*
X146700Y374651I0J-5149D01*
G01*
X187121Y355461D02*
X190275D01*
X176524Y378961D02*
X190424D01*
X171524Y372361D02*
Y373961D01*
X175724Y368161D02*
X179524D01*
X182524Y360058D02*
Y365161D01*
X195424Y360610D02*
Y373961D01*
X146700Y361300D02*
Y374651D01*
X159600Y370100D02*
Y375203D01*
X162600Y367100D02*
X166400D01*
X170600Y361300D02*
Y362900D01*
X151700Y356300D02*
X165600D01*
X151849Y379800D02*
X155003D01*
X773300Y227900D02*
X771301D01*
X770301Y228900D01*
Y230899D01*
X771301Y231899D01*
X773300D01*
X774300Y230899D01*
Y228900D01*
X773300Y227900D01*
X768302D02*
Y231899D01*
X765303D01*
X764303Y230899D01*
Y227900D01*
X755306Y232898D02*
Y231899D01*
X756306D01*
X754307D01*
X755306D01*
Y228900D01*
X754307Y227900D01*
X751307Y233898D02*
Y227900D01*
Y230899D01*
X750308Y231899D01*
X748308D01*
X747309Y230899D01*
Y227900D01*
X745309D02*
X743310D01*
X744310D01*
Y231899D01*
X745309D01*
X740311Y227900D02*
X737312D01*
X736312Y228900D01*
X737312Y229899D01*
X739311D01*
X740311Y230899D01*
X739311Y231899D01*
X736312D01*
X728315Y233898D02*
Y227900D01*
X725316D01*
X724316Y228900D01*
Y229899D01*
Y230899D01*
X725316Y231899D01*
X728315D01*
X722317D02*
Y228900D01*
X721317Y227900D01*
X718318D01*
Y231899D01*
X716319Y227900D02*
X713320D01*
X712320Y228900D01*
X713320Y229899D01*
X715319D01*
X716319Y230899D01*
X715319Y231899D01*
X712320D01*
X709321Y234898D02*
Y232898D01*
X710321Y231899D01*
X705322Y234898D02*
Y232898D01*
X706322Y231899D01*
X791400Y318299D02*
X789401D01*
X790400D01*
Y324297D01*
X791400Y323298D01*
X786402Y318299D02*
Y319299D01*
X785402D01*
Y318299D01*
X786402D01*
X771407Y324297D02*
X775405D01*
Y321298D01*
X773406Y322298D01*
X772406D01*
X771407Y321298D01*
Y319299D01*
X772406Y318299D01*
X774405D01*
X775405Y319299D01*
X769407Y324297D02*
Y320299D01*
X767408Y318299D01*
X765408Y320299D01*
Y324297D01*
X757411Y316300D02*
Y322298D01*
X754412D01*
X753412Y321298D01*
Y319299D01*
X754412Y318299D01*
X757411D01*
X751413Y322298D02*
Y318299D01*
Y320299D01*
X750413Y321298D01*
X749414Y322298D01*
X748414D01*
X745415Y318299D02*
X743415D01*
X744415D01*
Y322298D01*
X745415D01*
X739417Y318299D02*
X737418D01*
X736418Y319299D01*
Y321298D01*
X737418Y322298D01*
X739417D01*
X740416Y321298D01*
Y319299D01*
X739417Y318299D01*
X734418Y322298D02*
Y318299D01*
Y320299D01*
X733419Y321298D01*
X732419Y322298D01*
X731419D01*
X728420Y318299D02*
X726421D01*
X727421D01*
Y322298D01*
X728420D01*
X722422Y323298D02*
Y322298D01*
X723422D01*
X721423D01*
X722422D01*
Y319299D01*
X721423Y318299D01*
X718424Y322298D02*
Y319299D01*
X717424Y318299D01*
X714425D01*
Y317300D01*
X715425Y316300D01*
X716424D01*
X714425Y318299D02*
Y322298D01*
X712426D02*
X711426D01*
Y321298D01*
X712426D01*
Y322298D01*
Y319299D02*
X711426D01*
Y318299D01*
X712426D01*
Y319299D01*
X774200Y250500D02*
Y254499D01*
X772201Y256498D01*
X770201Y254499D01*
Y250500D01*
Y253499D01*
X774200D01*
X768202Y250500D02*
Y256498D01*
X764203Y250500D01*
Y256498D01*
X762204Y253499D02*
X758205D01*
X749208Y255498D02*
Y254499D01*
X750208D01*
X748208D01*
X749208D01*
Y251500D01*
X748208Y250500D01*
X744210D02*
X742210D01*
X741211Y251500D01*
Y253499D01*
X742210Y254499D01*
X744210D01*
X745209Y253499D01*
Y251500D01*
X744210Y250500D01*
X729214Y255498D02*
X730214Y256498D01*
X732214D01*
X733213Y255498D01*
Y251500D01*
X732214Y250500D01*
X730214D01*
X729214Y251500D01*
Y253499D01*
X731214D01*
X727215Y250500D02*
Y256498D01*
X723216Y250500D01*
Y256498D01*
X721217D02*
Y250500D01*
X718218D01*
X717218Y251500D01*
Y255498D01*
X718218Y256498D01*
X721217D01*
X788401Y261799D02*
Y267797D01*
X791400Y264798D01*
X787401D01*
X785402Y261799D02*
Y262799D01*
X784402D01*
Y261799D01*
X785402D01*
X774405D02*
Y267797D01*
X771407D01*
X770407Y266798D01*
Y264798D01*
X771407Y263799D01*
X774405D01*
X772406D02*
X770407Y261799D01*
X768407Y266798D02*
X767408Y267797D01*
X765408D01*
X764409Y266798D01*
Y265798D01*
X765408Y264798D01*
X766408D01*
X765408D01*
X764409Y263799D01*
Y262799D01*
X765408Y261799D01*
X767408D01*
X768407Y262799D01*
X758411Y261799D02*
X762409D01*
X758411Y265798D01*
Y266798D01*
X759410Y267797D01*
X761410D01*
X762409Y266798D01*
X750413Y259800D02*
Y265798D01*
X747414D01*
X746415Y264798D01*
Y262799D01*
X747414Y261799D01*
X750413D01*
X744415Y265798D02*
Y262799D01*
X743415Y261799D01*
X740416D01*
Y265798D01*
X738417Y261799D02*
X736418D01*
X737418D01*
Y267797D01*
X738417D01*
X733419Y261799D02*
X731419D01*
X732419D01*
Y267797D01*
X733419D01*
X728420Y261799D02*
X725421D01*
X724422Y262799D01*
X725421Y263799D01*
X727421D01*
X728420Y264798D01*
X727421Y265798D01*
X724422D01*
X715425D02*
X713425D01*
X712426Y264798D01*
Y261799D01*
X715425D01*
X716424Y262799D01*
X715425Y263799D01*
X712426D01*
X710426Y261799D02*
Y265798D01*
X707427D01*
X706427Y264798D01*
Y261799D01*
X701429D02*
X703429D01*
X704428Y262799D01*
Y264798D01*
X703429Y265798D01*
X701429D01*
X700429Y264798D01*
Y263799D01*
X704428D01*
X698430Y261799D02*
Y265798D01*
X697430D01*
X696431Y264798D01*
Y261799D01*
Y264798D01*
X695431Y265798D01*
X694431Y264798D01*
Y261799D01*
X691432D02*
X689433D01*
X688433Y262799D01*
Y264798D01*
X689433Y265798D01*
X691432D01*
X692432Y264798D01*
Y262799D01*
X691432Y261799D01*
X686434D02*
Y265798D01*
X685434D01*
X684435Y264798D01*
Y261799D01*
Y264798D01*
X683435Y265798D01*
X682435Y264798D01*
Y261799D01*
X787701Y244098D02*
X791700D01*
Y241099D01*
X789701Y242099D01*
X788701D01*
X787701Y241099D01*
Y239100D01*
X788701Y238100D01*
X790700D01*
X791700Y239100D01*
X785702Y238100D02*
Y239100D01*
X784702D01*
Y238100D01*
X785702D01*
X773706Y245098D02*
Y243098D01*
X774706Y242099D01*
X769707Y245098D02*
Y243098D01*
X770707Y242099D01*
X766708Y244098D02*
X762709D01*
X764709D01*
Y238100D01*
X760710Y244098D02*
Y238100D01*
Y241099D01*
X759710Y242099D01*
X757711D01*
X756711Y241099D01*
Y238100D01*
X751713D02*
X753712D01*
X754712Y239100D01*
Y241099D01*
X753712Y242099D01*
X751713D01*
X750713Y241099D01*
Y240099D01*
X754712D01*
X748714Y242099D02*
Y238100D01*
Y240099D01*
X747714Y241099D01*
X746714Y242099D01*
X745715D01*
X739717Y238100D02*
X741716D01*
X742716Y239100D01*
Y241099D01*
X741716Y242099D01*
X739717D01*
X738717Y241099D01*
Y240099D01*
X742716D01*
X735718Y245098D02*
Y243098D01*
X736718Y242099D01*
X732719Y238100D02*
X729720D01*
X728720Y239100D01*
X729720Y240099D01*
X731719D01*
X732719Y241099D01*
X731719Y242099D01*
X728720D01*
X720723Y238100D02*
Y242099D01*
X717724D01*
X716724Y241099D01*
Y238100D01*
X713725D02*
X711726D01*
X710726Y239100D01*
Y241099D01*
X711726Y242099D01*
X713725D01*
X714725Y241099D01*
Y239100D01*
X713725Y238100D01*
X698730Y243098D02*
X699730Y244098D01*
X701729D01*
X702729Y243098D01*
Y239100D01*
X701729Y238100D01*
X699730D01*
X698730Y239100D01*
X696731Y238100D02*
Y242099D01*
X694731Y244098D01*
X692732Y242099D01*
Y238100D01*
Y241099D01*
X696731D01*
X690733Y238100D02*
Y244098D01*
X686734Y238100D01*
Y244098D01*
X791400Y289298D02*
X790400Y290297D01*
X788401D01*
X787401Y289298D01*
Y288298D01*
X788401Y287298D01*
X789401D01*
X788401D01*
X787401Y286299D01*
Y285299D01*
X788401Y284299D01*
X790400D01*
X791400Y285299D01*
X785402Y284299D02*
Y285299D01*
X784402D01*
Y284299D01*
X785402D01*
X774405Y290297D02*
Y284299D01*
X771407D01*
X770407Y285299D01*
Y289298D01*
X771407Y290297D01*
X774405D01*
X765408Y284299D02*
X767408D01*
X768407Y285299D01*
Y287298D01*
X767408Y288298D01*
X765408D01*
X764409Y287298D01*
Y286299D01*
X768407D01*
X762409Y290297D02*
Y284299D01*
X759410D01*
X758411Y285299D01*
Y286299D01*
Y287298D01*
X759410Y288298D01*
X762409D01*
X756411D02*
Y285299D01*
X755412Y284299D01*
X752413D01*
Y288298D01*
X748414Y282300D02*
X747414D01*
X746415Y283300D01*
Y288298D01*
X749414D01*
X750413Y287298D01*
Y285299D01*
X749414Y284299D01*
X746415D01*
X738417Y290297D02*
Y284299D01*
X734418D01*
X728420Y290297D02*
X732419D01*
Y284299D01*
X728420D01*
X732419Y287298D02*
X730420D01*
X726421Y290297D02*
Y284299D01*
X723422D01*
X722422Y285299D01*
Y289298D01*
X723422Y290297D01*
X726421D01*
X720423Y284299D02*
X717424D01*
X716424Y285299D01*
X717424Y286299D01*
X719423D01*
X720423Y287298D01*
X719423Y288298D01*
X716424D01*
X708427Y284299D02*
Y290297D01*
X705428D01*
X704428Y289298D01*
Y287298D01*
X705428Y286299D01*
X708427D01*
X698430Y289298D02*
X699430Y290297D01*
X701429D01*
X702429Y289298D01*
Y285299D01*
X701429Y284299D01*
X699430D01*
X698430Y285299D01*
X696431Y284299D02*
X694431D01*
X695431D01*
Y290297D01*
X696431Y289298D01*
X691432D02*
X690433Y290297D01*
X688433D01*
X687434Y289298D01*
Y288298D01*
X688433Y287298D01*
X689433D01*
X688433D01*
X687434Y286299D01*
Y285299D01*
X688433Y284299D01*
X690433D01*
X691432Y285299D01*
X684435Y283300D02*
X683435Y284299D01*
Y285299D01*
X684435D01*
Y284299D01*
X683435D01*
X684435Y283300D01*
X685434Y282300D01*
X787601Y296699D02*
X791600D01*
X787601Y300698D01*
Y301698D01*
X788601Y302697D01*
X790600D01*
X791600Y301698D01*
X785602Y296699D02*
Y297699D01*
X784602D01*
Y296699D01*
X785602D01*
X770607Y301698D02*
X771606Y302697D01*
X773606D01*
X774606Y301698D01*
Y300698D01*
X773606Y299698D01*
X771606D01*
X770607Y298699D01*
Y297699D01*
X771606Y296699D01*
X773606D01*
X774606Y297699D01*
X768607Y302697D02*
Y296699D01*
X766608Y298699D01*
X764609Y296699D01*
Y302697D01*
X762609D02*
Y296699D01*
X759610D01*
X758611Y297699D01*
Y301698D01*
X759610Y302697D01*
X762609D01*
X750613Y296699D02*
Y302697D01*
X747614D01*
X746615Y301698D01*
Y299698D01*
X747614Y298699D01*
X750613D01*
X744615Y300698D02*
Y296699D01*
Y298699D01*
X743615Y299698D01*
X742616Y300698D01*
X741616D01*
X737617Y296699D02*
X735618D01*
X734618Y297699D01*
Y299698D01*
X735618Y300698D01*
X737617D01*
X738617Y299698D01*
Y297699D01*
X737617Y296699D01*
X730620Y294700D02*
X729620D01*
X728620Y295700D01*
Y300698D01*
X731619D01*
X732619Y299698D01*
Y297699D01*
X731619Y296699D01*
X728620D01*
X726621Y300698D02*
Y296699D01*
Y298699D01*
X725621Y299698D01*
X724622Y300698D01*
X723622D01*
X719623D02*
X717624D01*
X716624Y299698D01*
Y296699D01*
X719623D01*
X720623Y297699D01*
X719623Y298699D01*
X716624D01*
X714625Y296699D02*
Y300698D01*
X713625D01*
X712626Y299698D01*
Y296699D01*
Y299698D01*
X711626Y300698D01*
X710626Y299698D01*
Y296699D01*
X708627D02*
Y300698D01*
X707627D01*
X706628Y299698D01*
Y296699D01*
Y299698D01*
X705628Y300698D01*
X704628Y299698D01*
Y296699D01*
X702629D02*
X700629D01*
X701629D01*
Y300698D01*
X702629D01*
X697630Y296699D02*
Y300698D01*
X694631D01*
X693632Y299698D01*
Y296699D01*
X689633Y294700D02*
X688633D01*
X687634Y295700D01*
Y300698D01*
X690633D01*
X691632Y299698D01*
Y297699D01*
X690633Y296699D01*
X687634D01*
X774200Y273399D02*
Y279397D01*
X771201D01*
X770201Y278398D01*
Y276398D01*
X771201Y275399D01*
X774200D01*
X764203Y278398D02*
X765203Y279397D01*
X767202D01*
X768202Y278398D01*
Y274399D01*
X767202Y273399D01*
X765203D01*
X764203Y274399D01*
X762204Y273399D02*
X760205D01*
X761204D01*
Y279397D01*
X762204Y278398D01*
X754207Y273399D02*
Y279397D01*
X757205Y276398D01*
X753207D01*
X750208Y272400D02*
X749208Y273399D01*
Y274399D01*
X750208D01*
Y273399D01*
X749208D01*
X750208Y272400D01*
X751207Y271400D01*
X739211Y273399D02*
Y279397D01*
X736212D01*
X735213Y278398D01*
Y276398D01*
X736212Y275399D01*
X739211D01*
X729214Y278398D02*
X730214Y279397D01*
X732214D01*
X733213Y278398D01*
Y274399D01*
X732214Y273399D01*
X730214D01*
X729214Y274399D01*
X727215Y273399D02*
X725216D01*
X726216D01*
Y279397D01*
X727215Y278398D01*
X718218Y279397D02*
X722217D01*
Y276398D01*
X720218Y277398D01*
X719218D01*
X718218Y276398D01*
Y274399D01*
X719218Y273399D01*
X721217D01*
X722217Y274399D01*
X771101Y313697D02*
X775100D01*
Y310698D01*
X773101D01*
X775100D01*
Y307699D01*
X765103Y312698D02*
X766103Y313697D01*
X768102D01*
X769102Y312698D01*
Y311698D01*
X768102Y310698D01*
X766103D01*
X765103Y309699D01*
Y308699D01*
X766103Y307699D01*
X768102D01*
X769102Y308699D01*
X763104Y313697D02*
Y307699D01*
X760105D01*
X759105Y308699D01*
Y309699D01*
X760105Y310698D01*
X763104D01*
X760105D01*
X759105Y311698D01*
Y312698D01*
X760105Y313697D01*
X763104D01*
X756106Y306700D02*
X755106Y307699D01*
Y308699D01*
X756106D01*
Y307699D01*
X755106D01*
X756106Y306700D01*
X757106Y305700D01*
X745110Y313697D02*
Y308699D01*
X744110Y307699D01*
X742111D01*
X741111Y308699D01*
Y313697D01*
X735113Y312698D02*
X736113Y313697D01*
X738112D01*
X739112Y312698D01*
Y311698D01*
X738112Y310698D01*
X736113D01*
X735113Y309699D01*
Y308699D01*
X736113Y307699D01*
X738112D01*
X739112Y308699D01*
X733114Y313697D02*
Y307699D01*
X730115D01*
X729115Y308699D01*
Y309699D01*
X730115Y310698D01*
X733114D01*
X730115D01*
X729115Y311698D01*
Y312698D01*
X730115Y313697D01*
X733114D01*
X726116Y306700D02*
X725116Y307699D01*
Y308699D01*
X726116D01*
Y307699D01*
X725116D01*
X726116Y306700D01*
X727115Y305700D01*
X715119Y307699D02*
Y313697D01*
X712120D01*
X711121Y312698D01*
Y310698D01*
X712120Y309699D01*
X715119D01*
X709121Y307699D02*
Y313697D01*
X706122D01*
X705123Y312698D01*
Y310698D01*
X706122Y309699D01*
X709121D01*
X707122D02*
X705123Y307699D01*
X699125Y312698D02*
X700124Y313697D01*
X702124D01*
X703123Y312698D01*
Y308699D01*
X702124Y307699D01*
X700124D01*
X699125Y308699D01*
Y310698D01*
X701124D01*
X697125Y307699D02*
Y313697D01*
X695126Y311698D01*
X693126Y313697D01*
Y307699D01*
X792000Y336397D02*
Y328400D01*
X788001D01*
X786668Y329733D01*
Y331066D01*
X788001Y332399D01*
X792000D01*
X788001D01*
X786668Y333732D01*
Y335065D01*
X788001Y336397D01*
X792000D01*
X782670Y328400D02*
X780004D01*
X778671Y329733D01*
Y332399D01*
X780004Y333732D01*
X782670D01*
X784003Y332399D01*
Y329733D01*
X782670Y328400D01*
X774672Y333732D02*
X772007D01*
X770674Y332399D01*
Y328400D01*
X774672D01*
X776005Y329733D01*
X774672Y331066D01*
X770674D01*
X768008Y333732D02*
Y328400D01*
Y331066D01*
X766675Y332399D01*
X765342Y333732D01*
X764009D01*
X754679Y336397D02*
Y328400D01*
X758677D01*
X760010Y329733D01*
Y332399D01*
X758677Y333732D01*
X754679D01*
X744016Y336397D02*
X741350D01*
X742683D01*
Y328400D01*
X744016D01*
X741350D01*
X737351D02*
Y333732D01*
X733352D01*
X732019Y332399D01*
Y328400D01*
X728021D02*
Y335065D01*
Y332399D01*
X729354D01*
X726688D01*
X728021D01*
Y335065D01*
X726688Y336397D01*
X721356Y328400D02*
X718690D01*
X717357Y329733D01*
Y332399D01*
X718690Y333732D01*
X721356D01*
X722689Y332399D01*
Y329733D01*
X721356Y328400D01*
X714692Y333732D02*
X713359D01*
Y332399D01*
X714692D01*
Y333732D01*
Y329733D02*
X713359D01*
Y328400D01*
X714692D01*
Y329733D01*
X592500Y170499D02*
Y167499D01*
X591001Y166000D01*
X589501Y167499D01*
Y170499D01*
X588001D02*
Y166000D01*
X585752D01*
X585002Y166750D01*
Y169749D01*
X585752Y170499D01*
X588001D01*
X583503D02*
Y166000D01*
X581254D01*
X580504Y166750D01*
Y169749D01*
X581254Y170499D01*
X583503D01*
X592500Y150500D02*
Y153499D01*
X591001Y154999D01*
X589501Y153499D01*
Y150500D01*
Y152749D01*
X592500D01*
X588001Y150500D02*
Y154999D01*
X585002Y150500D01*
Y154999D01*
X583503Y152749D02*
X580504D01*
X582003Y154249D02*
Y151250D01*
X598001Y145749D02*
X598751Y146499D01*
X600250D01*
X601000Y145749D01*
Y142750D01*
X600250Y142000D01*
X598751D01*
X598001Y142750D01*
Y144249D01*
X599501D01*
X596501Y142000D02*
Y146499D01*
X593502Y142000D01*
Y146499D01*
X592003D02*
Y142000D01*
X589754D01*
X589004Y142750D01*
Y145749D01*
X589754Y146499D01*
X592003D01*
X606001Y154249D02*
X606751Y154999D01*
X608250D01*
X609000Y154249D01*
Y151250D01*
X608250Y150500D01*
X606751D01*
X606001Y151250D01*
Y152749D01*
X607501D01*
X604501Y150500D02*
Y154999D01*
X601502Y150500D01*
Y154999D01*
X600003D02*
Y150500D01*
X597754D01*
X597004Y151250D01*
Y154249D01*
X597754Y154999D01*
X600003D01*
X606751Y166000D02*
Y170499D01*
X603752Y166000D01*
Y170499D01*
X599253Y169749D02*
X600003Y170499D01*
X601502D01*
X602252Y169749D01*
Y166750D01*
X601502Y166000D01*
X600003D01*
X599253Y166750D01*
X600000Y158500D02*
Y161499D01*
X598500Y162999D01*
X597001Y161499D01*
Y158500D01*
Y160749D01*
X600000D01*
X595502Y158500D02*
Y162999D01*
X592502Y158500D01*
Y162999D01*
X591003Y160749D02*
X588004D01*
X472000Y161500D02*
Y164499D01*
X470501Y165999D01*
X469001Y164499D01*
Y161500D01*
Y163749D01*
X472000D01*
X467501Y161500D02*
Y165999D01*
X464502Y161500D01*
Y165999D01*
X463003Y163749D02*
X460004D01*
X481000Y169000D02*
Y171999D01*
X479500Y173499D01*
X478001Y171999D01*
Y169000D01*
Y171249D01*
X481000D01*
X476502Y169000D02*
Y173499D01*
X473502Y169000D01*
Y173499D01*
X472003Y171249D02*
X469004D01*
X470503Y172749D02*
Y169750D01*
X478001Y157249D02*
X478751Y157999D01*
X480250D01*
X481000Y157249D01*
Y154250D01*
X480250Y153500D01*
X478751D01*
X478001Y154250D01*
Y155749D01*
X479500D01*
X476502Y153500D02*
Y157999D01*
X473502Y153500D01*
Y157999D01*
X472003D02*
Y153500D01*
X469754D01*
X469004Y154250D01*
Y157249D01*
X469754Y157999D01*
X472003D01*
X470001Y148749D02*
X470751Y149499D01*
X472250D01*
X473000Y148749D01*
Y145750D01*
X472250Y145000D01*
X470751D01*
X470001Y145750D01*
Y147249D01*
X471500D01*
X468502Y145000D02*
Y149499D01*
X465502Y145000D01*
Y149499D01*
X464003D02*
Y145000D01*
X461754D01*
X461004Y145750D01*
Y148749D01*
X461754Y149499D01*
X464003D01*
X462000Y153500D02*
Y157999D01*
X459001Y153500D01*
Y157999D01*
X454502Y157249D02*
X455252Y157999D01*
X456752D01*
X457502Y157249D01*
Y154250D01*
X456752Y153500D01*
X455252D01*
X454502Y154250D01*
X464000Y169000D02*
X462500D01*
X463250D01*
Y173499D01*
X464000Y172749D01*
X460251D02*
X459502Y173499D01*
X458002D01*
X457252Y172749D01*
Y169750D01*
X458002Y169000D01*
X459502D01*
X460251Y169750D01*
Y172749D01*
X455753Y173499D02*
Y170500D01*
X454253Y169000D01*
X452754Y170500D01*
Y173499D01*
X119500Y165500D02*
Y169999D01*
X116501Y165500D01*
Y169999D01*
X112002Y169249D02*
X112752Y169999D01*
X114252D01*
X115001Y169249D01*
Y166250D01*
X114252Y165500D01*
X112752D01*
X112002Y166250D01*
X119500Y150000D02*
Y154499D01*
X116501Y150000D01*
Y154499D01*
X112002Y153749D02*
X112752Y154499D01*
X114252D01*
X115001Y153749D01*
Y150750D01*
X114252Y150000D01*
X112752D01*
X112002Y150750D01*
X127501Y145249D02*
X128251Y145999D01*
X129750D01*
X130500Y145249D01*
Y142250D01*
X129750Y141500D01*
X128251D01*
X127501Y142250D01*
Y143749D01*
X129000D01*
X126001Y141500D02*
Y145999D01*
X123002Y141500D01*
Y145999D01*
X121503D02*
Y141500D01*
X119254D01*
X118504Y142250D01*
Y145249D01*
X119254Y145999D01*
X121503D01*
X135501Y153749D02*
X136251Y154499D01*
X137750D01*
X138500Y153749D01*
Y150750D01*
X137750Y150000D01*
X136251D01*
X135501Y150750D01*
Y152249D01*
X137001D01*
X134001Y150000D02*
Y154499D01*
X131002Y150000D01*
Y154499D01*
X129503D02*
Y150000D01*
X127254D01*
X126504Y150750D01*
Y153749D01*
X127254Y154499D01*
X129503D01*
X138500Y165500D02*
Y168499D01*
X137001Y169999D01*
X135501Y168499D01*
Y165500D01*
Y167749D01*
X138500D01*
X134001Y165500D02*
Y169999D01*
X131002Y165500D01*
Y169999D01*
X129503Y167749D02*
X126504D01*
X128003Y169249D02*
Y166250D01*
X129500Y158000D02*
Y160999D01*
X128000Y162499D01*
X126501Y160999D01*
Y158000D01*
Y160249D01*
X129500D01*
X125001Y158000D02*
Y162499D01*
X122002Y158000D01*
Y162499D01*
X120503Y160249D02*
X117504D01*
X524192Y418998D02*
X528191D01*
Y413000D01*
X524192D01*
X528191Y415999D02*
X526192D01*
X522193Y416999D02*
X518194Y413000D01*
X520193Y414999D01*
X518194Y416999D01*
X522193Y413000D01*
X515195Y417998D02*
Y416999D01*
X516195D01*
X514195D01*
X515195D01*
Y414000D01*
X514195Y413000D01*
X507198Y418998D02*
X511197D01*
Y415999D01*
X509197Y416999D01*
X508197D01*
X507198Y415999D01*
Y414000D01*
X508197Y413000D01*
X510197D01*
X511197Y414000D01*
X529191Y422500D02*
Y428498D01*
X526192D01*
X525192Y427498D01*
Y425499D01*
X526192Y424499D01*
X529191D01*
X523193Y428498D02*
Y422500D01*
X520194D01*
X519194Y423500D01*
Y427498D01*
X520194Y428498D01*
X523193D01*
X517195Y427498D02*
X516195Y428498D01*
X514196D01*
X513196Y427498D01*
Y423500D01*
X514196Y422500D01*
X516195D01*
X517195Y423500D01*
Y427498D01*
X582230Y422000D02*
Y427998D01*
X579231D01*
X578232Y426998D01*
Y424999D01*
X579231Y423999D01*
X582230D01*
X572234Y426998D02*
X573233Y427998D01*
X575233D01*
X576232Y426998D01*
Y423000D01*
X575233Y422000D01*
X573233D01*
X572234Y423000D01*
X570234Y422000D02*
X568235D01*
X569235D01*
Y427998D01*
X570234Y426998D01*
X561237Y422000D02*
X565236D01*
X561237Y425999D01*
Y426998D01*
X562237Y427998D01*
X564236D01*
X565236Y426998D01*
X577232Y418498D02*
X581230D01*
Y412500D01*
X577232D01*
X581230Y415499D02*
X579231D01*
X575232Y416499D02*
X571234Y412500D01*
X573233Y414499D01*
X571234Y416499D01*
X575232Y412500D01*
X568234Y417498D02*
Y416499D01*
X569234D01*
X567235D01*
X568234D01*
Y413500D01*
X567235Y412500D01*
X561237D02*
Y418498D01*
X564236Y415499D01*
X560237D01*
X628923Y418998D02*
X632921D01*
Y413000D01*
X628923D01*
X632921Y415999D02*
X630922D01*
X626923Y416999D02*
X622925Y413000D01*
X624924Y414999D01*
X622925Y416999D01*
X626923Y413000D01*
X619925Y417998D02*
Y416999D01*
X620925D01*
X618926D01*
X619925D01*
Y414000D01*
X618926Y413000D01*
X615927Y417998D02*
X614927Y418998D01*
X612928D01*
X611928Y417998D01*
Y416999D01*
X612928Y415999D01*
X613927D01*
X612928D01*
X611928Y414999D01*
Y414000D01*
X612928Y413000D01*
X614927D01*
X615927Y414000D01*
X633921Y422500D02*
Y428498D01*
X630922D01*
X629923Y427498D01*
Y425499D01*
X630922Y424499D01*
X633921D01*
X623924Y427498D02*
X624924Y428498D01*
X626924D01*
X627923Y427498D01*
Y423500D01*
X626924Y422500D01*
X624924D01*
X623924Y423500D01*
X621925Y422500D02*
X619926D01*
X620926D01*
Y428498D01*
X621925Y427498D01*
X616927Y422500D02*
X614927D01*
X615927D01*
Y428498D01*
X616927Y427498D01*
X686461Y422000D02*
Y427998D01*
X683462D01*
X682462Y426998D01*
Y424999D01*
X683462Y423999D01*
X686461D01*
X676464Y426998D02*
X677464Y427998D01*
X679463D01*
X680463Y426998D01*
Y423000D01*
X679463Y422000D01*
X677464D01*
X676464Y423000D01*
X674465Y422000D02*
X672465D01*
X673465D01*
Y427998D01*
X674465Y426998D01*
X669466D02*
X668467Y427998D01*
X666467D01*
X665467Y426998D01*
Y423000D01*
X666467Y422000D01*
X668467D01*
X669466Y423000D01*
Y426998D01*
X681462Y418498D02*
X685461D01*
Y412500D01*
X681462D01*
X685461Y415499D02*
X683461D01*
X679463Y416499D02*
X675464Y412500D01*
X677463Y414499D01*
X675464Y416499D01*
X679463Y412500D01*
X672465Y417498D02*
Y416499D01*
X673464D01*
X671465D01*
X672465D01*
Y413500D01*
X671465Y412500D01*
X664467D02*
X668466D01*
X664467Y416499D01*
Y417498D01*
X665467Y418498D01*
X667466D01*
X668466Y417498D01*
X736501Y418498D02*
X740500D01*
Y412500D01*
X736501D01*
X740500Y415499D02*
X738501D01*
X734502Y416499D02*
X730503Y412500D01*
X732503Y414499D01*
X730503Y416499D01*
X734502Y412500D01*
X727504Y417498D02*
Y416499D01*
X728504D01*
X726505D01*
X727504D01*
Y413500D01*
X726505Y412500D01*
X723505D02*
X721506D01*
X722506D01*
Y418498D01*
X723505Y417498D01*
X741500Y422000D02*
Y427998D01*
X738501D01*
X737501Y426998D01*
Y424999D01*
X738501Y423999D01*
X741500D01*
X735502Y422000D02*
Y425999D01*
X733503Y427998D01*
X731503Y425999D01*
Y422000D01*
Y424999D01*
X735502D01*
X729504Y422000D02*
X727504D01*
X728504D01*
Y427998D01*
X729504Y426998D01*
X720507Y427998D02*
X724506D01*
Y424999D01*
X722506Y425999D01*
X721507D01*
X720507Y424999D01*
Y423000D01*
X721507Y422000D01*
X723506D01*
X724506Y423000D01*
D25*
X742800Y111697D02*
Y103700D01*
X737468D01*
X729471Y110364D02*
X730804Y111697D01*
X733470D01*
X734803Y110364D01*
Y105033D01*
X733470Y103700D01*
X730804D01*
X729471Y105033D01*
X726805Y103700D02*
X724139D01*
X725472D01*
Y111697D01*
X726805Y110364D01*
X634800Y111197D02*
Y103200D01*
X629468D01*
X621471Y109864D02*
X622804Y111197D01*
X625470D01*
X626803Y109864D01*
Y104533D01*
X625470Y103200D01*
X622804D01*
X621471Y104533D01*
X613474Y103200D02*
X618805D01*
X613474Y108532D01*
Y109864D01*
X614807Y111197D01*
X617472D01*
X618805Y109864D01*
X533300Y105700D02*
Y111032D01*
X530634Y113697D01*
X527968Y111032D01*
Y105700D01*
Y109699D01*
X533300D01*
X525303Y105700D02*
Y111032D01*
X521304D01*
X519971Y109699D01*
Y105700D01*
X513307D02*
X515972D01*
X517305Y107033D01*
Y109699D01*
X515972Y111032D01*
X513307D01*
X511974Y109699D01*
Y108366D01*
X517305D01*
X509308Y105700D02*
Y111032D01*
X507975D01*
X506642Y109699D01*
Y105700D01*
Y109699D01*
X505309Y111032D01*
X503976Y109699D01*
Y105700D01*
X499977D02*
X497312D01*
X495979Y107033D01*
Y109699D01*
X497312Y111032D01*
X499977D01*
X501310Y109699D01*
Y107033D01*
X499977Y105700D01*
X493313D02*
Y111032D01*
X491980D01*
X490647Y109699D01*
Y105700D01*
Y109699D01*
X489314Y111032D01*
X487981Y109699D01*
Y105700D01*
X408300Y112697D02*
X402968D01*
X405634D01*
Y104700D01*
X394971Y111364D02*
X396304Y112697D01*
X398970D01*
X400303Y111364D01*
Y106033D01*
X398970Y104700D01*
X396304D01*
X394971Y106033D01*
X392305Y111364D02*
X390972Y112697D01*
X388306D01*
X386974Y111364D01*
Y110032D01*
X388306Y108699D01*
X389639D01*
X388306D01*
X386974Y107366D01*
Y106033D01*
X388306Y104700D01*
X390972D01*
X392305Y106033D01*
X296300Y111697D02*
X290968D01*
X293634D01*
Y103700D01*
X282971Y110364D02*
X284304Y111697D01*
X286970D01*
X288303Y110364D01*
Y105033D01*
X286970Y103700D01*
X284304D01*
X282971Y105033D01*
X274974Y103700D02*
X280305D01*
X274974Y109032D01*
Y110364D01*
X276307Y111697D01*
X278972D01*
X280305Y110364D01*
X182800Y112197D02*
X177468D01*
X180134D01*
Y104200D01*
X169471Y110864D02*
X170804Y112197D01*
X173470D01*
X174803Y110864D01*
Y105533D01*
X173470Y104200D01*
X170804D01*
X169471Y105533D01*
X166805Y104200D02*
X164139D01*
X165472D01*
Y112197D01*
X166805Y110864D01*
D186*
X174700Y324900D02*
X180698D01*
Y327899D01*
X179698Y328899D01*
X177699D01*
X176699Y327899D01*
Y324900D01*
Y326899D02*
X174700Y328899D01*
X178699Y330898D02*
X174700Y334897D01*
X176699Y332897D01*
X178699Y334897D01*
X174700Y330898D01*
X180698Y336896D02*
Y340895D01*
Y338896D01*
X174700D01*
X178699Y342894D02*
X174700Y346893D01*
X176699Y344894D01*
X178699Y346893D01*
X174700Y342894D01*
Y348892D02*
X180698D01*
Y351891D01*
X179698Y352891D01*
X177699D01*
X176699Y351891D01*
Y348892D01*
X161900Y325300D02*
X167898D01*
Y328299D01*
X166898Y329299D01*
X164899D01*
X163899Y328299D01*
Y325300D01*
Y327299D02*
X161900Y329299D01*
X165899Y331298D02*
X161900Y335297D01*
X163899Y333297D01*
X165899Y335297D01*
X161900Y331298D01*
X167898Y337296D02*
Y341295D01*
Y339296D01*
X161900D01*
X165899Y343294D02*
X161900Y347293D01*
X163899Y345293D01*
X165899Y347293D01*
X161900Y343294D01*
Y349292D02*
X167898D01*
X161900Y353291D01*
X167898D01*
X204165Y362232D02*
X205497Y360899D01*
Y358233D01*
X204165Y356900D01*
X198833D01*
X197500Y358233D01*
Y360899D01*
X198833Y362232D01*
X201499D01*
Y359566D01*
X197500Y364897D02*
X205497D01*
X197500Y370229D01*
X205497D01*
Y372895D02*
X197500D01*
Y376893D01*
X198833Y378226D01*
X204165D01*
X205497Y376893D01*
Y372895D01*
X135400Y359799D02*
X143397D01*
X139399Y355800D01*
Y361132D01*
X142064Y363797D02*
X143397Y365130D01*
Y367796D01*
X142064Y369129D01*
X140732D01*
X139399Y367796D01*
X138066Y369129D01*
X136733D01*
X135400Y367796D01*
Y365130D01*
X136733Y363797D01*
X138066D01*
X139399Y365130D01*
X140732Y363797D01*
X142064D01*
X139399Y365130D02*
Y367796D01*
X143397Y371795D02*
X138066D01*
X135400Y374461D01*
X138066Y377126D01*
X143397D01*
M02*
