G04*
G04 #@! TF.GenerationSoftware,Altium Limited,Altium Designer,25.5.2 (35)*
G04*
G04 Layer_Color=2752767*
%FSLAX25Y25*%
%MOIN*%
G70*
G04*
G04 #@! TF.SameCoordinates,1DACB3DC-ACE0-44E2-B579-3CE0BC83F536*
G04*
G04*
G04 #@! TF.FilePolarity,Positive*
G04*
G01*
G75*
%ADD13C,0.00500*%
%ADD18C,0.00400*%
%ADD191C,0.00667*%
D13*
X553700Y177798D02*
Y172800D01*
X556199D01*
X557032Y173633D01*
Y174466D01*
X556199Y175299D01*
X553700D01*
X556199D01*
X557032Y176132D01*
Y176965D01*
X556199Y177798D01*
X553700D01*
X195732Y334998D02*
X192400D01*
Y330000D01*
X195732D01*
X192400Y332499D02*
X194066D01*
X693932Y334098D02*
X690600D01*
Y329100D01*
X693932D01*
X690600Y331599D02*
X692266D01*
X666500Y265000D02*
X664500Y269000D01*
X668500D01*
X666500Y265000D01*
Y265800D02*
X665300Y268200D01*
X667700D01*
X666500Y265800D01*
X676500Y255000D02*
X674500Y259000D01*
X678500D01*
X676500Y255000D01*
Y255800D02*
X675300Y258200D01*
X677700D01*
X676500Y255800D01*
X735932Y127788D02*
X737932Y129788D01*
X739932Y127788D01*
X737932Y125788D01*
X735932Y127788D01*
X728972Y119000D02*
X730972Y121000D01*
X732972Y119000D01*
X730972Y117000D01*
X728972Y119000D01*
X629460Y127788D02*
X631460Y129788D01*
X633460Y127788D01*
X631460Y125788D01*
X629460Y127788D01*
X622500Y119000D02*
X624500Y121000D01*
X626500Y119000D01*
X624500Y117000D01*
X622500Y119000D01*
X515460Y128288D02*
X517460Y130288D01*
X519460Y128288D01*
X517460Y126288D01*
X515460Y128288D01*
X508500Y119500D02*
X510500Y121500D01*
X512500Y119500D01*
X510500Y117500D01*
X508500Y119500D01*
X374332Y341198D02*
X371000D01*
Y336200D01*
X374332D01*
X371000Y338699D02*
X372666D01*
X272628Y407012D02*
X273628Y408012D01*
X274628D01*
X273628Y409012D01*
X274628Y410012D01*
X273628D01*
X272628Y411012D01*
X271628Y410012D01*
X270628D01*
X271628Y409012D01*
X270628Y408012D01*
X271628D01*
X272628Y407012D01*
Y420319D02*
X270628Y424319D01*
X274628D01*
X272628Y420319D01*
X265313Y408468D02*
X266313Y410468D01*
X265313Y412468D01*
X267313Y411469D01*
X269313Y412468D01*
X268313Y410468D01*
X269313Y408468D01*
X267313Y409469D01*
X265313Y408468D01*
Y403154D02*
X266313Y405154D01*
X265313Y407154D01*
X267313Y406153D01*
X269313Y407154D01*
X268313Y405154D01*
X269313Y403154D01*
X267313Y404153D01*
X265313Y403154D01*
X241887Y408468D02*
X242887Y410468D01*
X241887Y412468D01*
X243887Y411469D01*
X245887Y412468D01*
X244887Y410468D01*
X245887Y408468D01*
X243887Y409469D01*
X241887Y408468D01*
Y403154D02*
X242887Y405154D01*
X241887Y407154D01*
X243887Y406153D01*
X245887Y407154D01*
X244887Y405154D01*
X245887Y403154D01*
X243887Y404153D01*
X241887Y403154D01*
X238572Y420319D02*
X236572Y424319D01*
X240572D01*
X238572Y420319D01*
Y407012D02*
X239572Y408012D01*
X240572D01*
X239572Y409012D01*
X240572Y410012D01*
X239572D01*
X238572Y411012D01*
X237572Y410012D01*
X236572D01*
X237572Y409012D01*
X236572Y408012D01*
X237572D01*
X238572Y407012D01*
X175654Y371492D02*
X176654Y373492D01*
X175654Y375492D01*
X177654Y374492D01*
X179654Y375492D01*
X178654Y373492D01*
X179654Y371492D01*
X177654Y372492D01*
X175654Y371492D01*
X176453Y372292D02*
X177053Y373492D01*
X176453Y374692D01*
X177654Y374092D01*
X178853Y374692D01*
X178253Y373492D01*
X178853Y372292D01*
X177654Y372892D01*
X176453Y372292D01*
X187465Y371492D02*
X188465Y373492D01*
X187465Y375492D01*
X189465Y374492D01*
X191465Y375492D01*
X190465Y373492D01*
X191465Y371492D01*
X189465Y372492D01*
X187465Y371492D01*
X188265Y372292D02*
X188865Y373492D01*
X188265Y374692D01*
X189465Y374092D01*
X190665Y374692D01*
X190065Y373492D01*
X190665Y372292D01*
X189465Y372892D01*
X188265Y372292D01*
X211932Y334998D02*
X208600D01*
Y330000D01*
X211932D01*
X208600Y332499D02*
X210266D01*
X187465Y359681D02*
X188465Y361681D01*
X187465Y363681D01*
X189465Y362681D01*
X191465Y363681D01*
X190465Y361681D01*
X191465Y359681D01*
X189465Y360681D01*
X187465Y359681D01*
X188265Y360481D02*
X188865Y361681D01*
X188265Y362881D01*
X189465Y362281D01*
X190665Y362881D01*
X190065Y361681D01*
X190665Y360481D01*
X189465Y361081D01*
X188265Y360481D01*
X402932Y128288D02*
X404932Y130288D01*
X406932Y128288D01*
X404932Y126288D01*
X402932Y128288D01*
X395972Y119500D02*
X397972Y121500D01*
X399972Y119500D01*
X397972Y117500D01*
X395972Y119500D01*
X290946Y128288D02*
X292946Y130288D01*
X294946Y128288D01*
X292946Y126288D01*
X290946Y128288D01*
X283986Y119500D02*
X285986Y121500D01*
X287986Y119500D01*
X285986Y117500D01*
X283986Y119500D01*
X178960Y128288D02*
X180960Y130288D01*
X182960Y128288D01*
X180960Y126288D01*
X178960Y128288D01*
X172000Y119500D02*
X174000Y121500D01*
X176000Y119500D01*
X174000Y117500D01*
X172000Y119500D01*
X515460Y142208D02*
X517460Y144208D01*
X519460Y142208D01*
X517460Y140208D01*
X515460Y142208D01*
X261966Y403154D02*
X262966Y405154D01*
X261966Y407154D01*
X263966Y406153D01*
X265966Y407154D01*
X264966Y405154D01*
X265966Y403154D01*
X263966Y404153D01*
X261966Y403154D01*
X258620D02*
X259620Y405154D01*
X258620Y407154D01*
X260620Y406153D01*
X262620Y407154D01*
X261620Y405154D01*
X262620Y403154D01*
X260620Y404153D01*
X258620Y403154D01*
X255273D02*
X256273Y405154D01*
X255273Y407154D01*
X257273Y406153D01*
X259273Y407154D01*
X258273Y405154D01*
X259273Y403154D01*
X257273Y404153D01*
X255273Y403154D01*
X251927D02*
X252927Y405154D01*
X251927Y407154D01*
X253927Y406153D01*
X255927Y407154D01*
X254927Y405154D01*
X255927Y403154D01*
X253927Y404153D01*
X251927Y403154D01*
X248580D02*
X249580Y405154D01*
X248580Y407154D01*
X250580Y406153D01*
X252580Y407154D01*
X251580Y405154D01*
X252580Y403154D01*
X250580Y404153D01*
X248580Y403154D01*
X245234D02*
X246234Y405154D01*
X245234Y407154D01*
X247234Y406153D01*
X249234Y407154D01*
X248234Y405154D01*
X249234Y403154D01*
X247234Y404153D01*
X245234Y403154D01*
Y408468D02*
X246234Y410468D01*
X245234Y412468D01*
X247234Y411469D01*
X249234Y412468D01*
X248234Y410468D01*
X249234Y408468D01*
X247234Y409469D01*
X245234Y408468D01*
X248580D02*
X249580Y410468D01*
X248580Y412468D01*
X250580Y411469D01*
X252580Y412468D01*
X251580Y410468D01*
X252580Y408468D01*
X250580Y409469D01*
X248580Y408468D01*
X251927D02*
X252927Y410468D01*
X251927Y412468D01*
X253927Y411469D01*
X255927Y412468D01*
X254927Y410468D01*
X255927Y408468D01*
X253927Y409469D01*
X251927Y408468D01*
X255273D02*
X256273Y410468D01*
X255273Y412468D01*
X257273Y411469D01*
X259273Y412468D01*
X258273Y410468D01*
X259273Y408468D01*
X257273Y409469D01*
X255273Y408468D01*
X258620D02*
X259620Y410468D01*
X258620Y412468D01*
X260620Y411469D01*
X262620Y412468D01*
X261620Y410468D01*
X262620Y408468D01*
X260620Y409469D01*
X258620Y408468D01*
X261966D02*
X262966Y410468D01*
X261966Y412468D01*
X263966Y411469D01*
X265966Y412468D01*
X264966Y410468D01*
X265966Y408468D01*
X263966Y409469D01*
X261966Y408468D01*
X508500Y135248D02*
X510500Y137248D01*
X512500Y135248D01*
X510500Y133248D01*
X508500Y135248D01*
X152032Y371492D02*
X153032Y373492D01*
X152032Y375492D01*
X154032Y374492D01*
X156032Y375492D01*
X155032Y373492D01*
X156032Y371492D01*
X154032Y372492D01*
X152032Y371492D01*
X152831Y372292D02*
X153431Y373492D01*
X152831Y374692D01*
X154032Y374092D01*
X155231Y374692D01*
X154631Y373492D01*
X155231Y372292D01*
X154032Y372892D01*
X152831Y372292D01*
X152032Y359681D02*
X153032Y361681D01*
X152032Y363681D01*
X154032Y362681D01*
X156032Y363681D01*
X155032Y361681D01*
X156032Y359681D01*
X154032Y360681D01*
X152032Y359681D01*
X152831Y360481D02*
X153431Y361681D01*
X152831Y362881D01*
X154032Y362281D01*
X155231Y362881D01*
X154631Y361681D01*
X155231Y360481D01*
X154032Y361081D01*
X152831Y360481D01*
X163842Y359681D02*
X164842Y361681D01*
X163842Y363681D01*
X165842Y362681D01*
X167842Y363681D01*
X166842Y361681D01*
X167842Y359681D01*
X165842Y360681D01*
X163842Y359681D01*
X164643Y360481D02*
X165243Y361681D01*
X164643Y362881D01*
X165842Y362281D01*
X167043Y362881D01*
X166443Y361681D01*
X167043Y360481D01*
X165842Y361081D01*
X164643Y360481D01*
X181000Y388500D02*
X182000Y389500D01*
X183000D01*
X182000Y390500D01*
X183000Y391500D01*
X182000D01*
X181000Y392500D01*
X180000Y391500D01*
X179000D01*
X180000Y390500D01*
X179000Y389500D01*
X180000D01*
X181000Y388500D01*
Y389300D02*
X181600Y389900D01*
X182200D01*
X181600Y390500D01*
X182200Y391100D01*
X181600D01*
X181000Y391700D01*
X180400Y391100D01*
X179800D01*
X180400Y390500D01*
X179800Y389900D01*
X180400D01*
X181000Y389300D01*
X175654Y359681D02*
X176654Y361681D01*
X175654Y363681D01*
X177654Y362681D01*
X179654Y363681D01*
X178654Y361681D01*
X179654Y359681D01*
X177654Y360681D01*
X175654Y359681D01*
X176453Y360481D02*
X177053Y361681D01*
X176453Y362881D01*
X177654Y362281D01*
X178853Y362881D01*
X178253Y361681D01*
X178853Y360481D01*
X177654Y361081D01*
X176453Y360481D01*
X162496Y388500D02*
X163496Y389500D01*
X164496D01*
X163496Y390500D01*
X164496Y391500D01*
X163496D01*
X162496Y392500D01*
X161496Y391500D01*
X160496D01*
X161496Y390500D01*
X160496Y389500D01*
X161496D01*
X162496Y388500D01*
Y389300D02*
X163096Y389900D01*
X163696D01*
X163096Y390500D01*
X163696Y391100D01*
X163096D01*
X162496Y391700D01*
X161896Y391100D01*
X161296D01*
X161896Y390500D01*
X161296Y389900D01*
X161896D01*
X162496Y389300D01*
X163842Y371492D02*
X164842Y373492D01*
X163842Y375492D01*
X165842Y374492D01*
X167842Y375492D01*
X166842Y373492D01*
X167842Y371492D01*
X165842Y372492D01*
X163842Y371492D01*
X164643Y372292D02*
X165243Y373492D01*
X164643Y374692D01*
X165842Y374092D01*
X167043Y374692D01*
X166443Y373492D01*
X167043Y372292D01*
X165842Y372892D01*
X164643Y372292D01*
X386832Y323098D02*
X383500D01*
Y318100D01*
X386832D01*
X383500Y320599D02*
X385166D01*
X666500Y285000D02*
X664500Y289000D01*
X668500D01*
X666500Y285000D01*
Y285800D02*
X665300Y288200D01*
X667700D01*
X666500Y285800D01*
X347132Y341198D02*
X343800D01*
Y336200D01*
X347132D01*
X343800Y338699D02*
X345466D01*
X553700Y157798D02*
Y152800D01*
X556199D01*
X557032Y153633D01*
Y154466D01*
X556199Y155299D01*
X553700D01*
X556199D01*
X557032Y156132D01*
Y156965D01*
X556199Y157798D01*
X553700D01*
X668539Y392500D02*
Y396500D01*
X672539D01*
Y392500D01*
X668539D01*
X678382D02*
Y396500D01*
X682382D01*
Y392500D01*
X678382D01*
X723579D02*
Y396500D01*
X727579D01*
Y392500D01*
X723579D01*
X553700Y167798D02*
Y162800D01*
X556199D01*
X557032Y163633D01*
Y164466D01*
X556199Y165299D01*
X553700D01*
X556199D01*
X557032Y166132D01*
Y166965D01*
X556199Y167798D01*
X553700D01*
Y187798D02*
Y182800D01*
X556199D01*
X557032Y183633D01*
Y184466D01*
X556199Y185299D01*
X553700D01*
X556199D01*
X557032Y186132D01*
Y186965D01*
X556199Y187798D01*
X553700D01*
X538028Y133248D02*
Y137248D01*
X542028D01*
Y133248D01*
X538028D01*
X538828Y134048D02*
Y136448D01*
X541228D01*
Y134048D01*
X538828D01*
X478972Y133248D02*
Y137248D01*
X482972D01*
Y133248D01*
X478972D01*
X479772Y134048D02*
Y136448D01*
X482172D01*
Y134048D01*
X479772D01*
X501540Y128288D02*
X503540Y130288D01*
X505540Y128288D01*
X503540Y126288D01*
X501540Y128288D01*
Y142208D02*
X503540Y144208D01*
X505540Y142208D01*
X503540Y140208D01*
X501540Y142208D01*
X290632Y394998D02*
X287300D01*
Y390000D01*
X290632D01*
X287300Y392499D02*
X288966D01*
X676500Y245000D02*
X674500Y249000D01*
X678500D01*
X676500Y245000D01*
Y245800D02*
X675300Y248200D01*
X677700D01*
X676500Y245800D01*
X285132Y257198D02*
X281800D01*
Y252200D01*
X285132D01*
X281800Y254699D02*
X283466D01*
X666500Y245000D02*
X664500Y249000D01*
X668500D01*
X666500Y245000D01*
Y245800D02*
X665300Y248200D01*
X667700D01*
X666500Y245800D01*
Y295000D02*
X664500Y299000D01*
X668500D01*
X666500Y295000D01*
Y295800D02*
X665300Y298200D01*
X667700D01*
X666500Y295800D01*
X676500Y265000D02*
X674500Y269000D01*
X678500D01*
X676500Y265000D01*
Y265800D02*
X675300Y268200D01*
X677700D01*
X676500Y265800D01*
Y275000D02*
X674500Y279000D01*
X678500D01*
X676500Y275000D01*
Y275800D02*
X675300Y278200D01*
X677700D01*
X676500Y275800D01*
Y285000D02*
X674500Y289000D01*
X678500D01*
X676500Y285000D01*
Y285800D02*
X675300Y288200D01*
X677700D01*
X676500Y285800D01*
Y295000D02*
X674500Y299000D01*
X678500D01*
X676500Y295000D01*
Y295800D02*
X675300Y298200D01*
X677700D01*
X676500Y295800D01*
X666500Y255000D02*
X664500Y259000D01*
X668500D01*
X666500Y255000D01*
Y255800D02*
X665300Y258200D01*
X667700D01*
X666500Y255800D01*
Y275000D02*
X664500Y279000D01*
X668500D01*
X666500Y275000D01*
Y275800D02*
X665300Y278200D01*
X667700D01*
X666500Y275800D01*
X622500Y134748D02*
X624500Y136748D01*
X626500Y134748D01*
X624500Y132748D01*
X622500Y134748D01*
X652028Y132748D02*
Y136748D01*
X656028D01*
Y132748D01*
X652028D01*
X652828Y133548D02*
Y135948D01*
X655228D01*
Y133548D01*
X652828D01*
X592972Y132748D02*
Y136748D01*
X596972D01*
Y132748D01*
X592972D01*
X593772Y133548D02*
Y135948D01*
X596172D01*
Y133548D01*
X593772D01*
X615540Y127788D02*
X617540Y129788D01*
X619540Y127788D01*
X617540Y125788D01*
X615540Y127788D01*
X629460Y141708D02*
X631460Y143708D01*
X633460Y141708D01*
X631460Y139708D01*
X629460Y141708D01*
X615540D02*
X617540Y143708D01*
X619540Y141708D01*
X617540Y139708D01*
X615540Y141708D01*
X283986Y135248D02*
X285986Y137248D01*
X287986Y135248D01*
X285986Y133248D01*
X283986Y135248D01*
X290946Y142208D02*
X292946Y144208D01*
X294946Y142208D01*
X292946Y140208D01*
X290946Y142208D01*
X395972Y135248D02*
X397972Y137248D01*
X399972Y135248D01*
X397972Y133248D01*
X395972Y135248D01*
X402932Y142208D02*
X404932Y144208D01*
X406932Y142208D01*
X404932Y140208D01*
X402932Y142208D01*
X172000Y135248D02*
X174000Y137248D01*
X176000Y135248D01*
X174000Y133248D01*
X172000Y135248D01*
X178960Y142208D02*
X180960Y144208D01*
X182960Y142208D01*
X180960Y140208D01*
X178960Y142208D01*
X728972Y134748D02*
X730972Y136748D01*
X732972Y134748D01*
X730972Y132748D01*
X728972Y134748D01*
X722013Y141708D02*
X724013Y143708D01*
X726013Y141708D01*
X724013Y139708D01*
X722013Y141708D01*
Y127788D02*
X724013Y129788D01*
X726013Y127788D01*
X724013Y125788D01*
X722013Y127788D01*
X625843Y393000D02*
Y397000D01*
X629843D01*
Y393000D01*
X625843D01*
X616000D02*
Y397000D01*
X620000D01*
Y393000D01*
X616000D01*
X574152Y392500D02*
Y396500D01*
X578152D01*
Y392500D01*
X574152D01*
X564309D02*
Y396500D01*
X568309D01*
Y392500D01*
X564309D01*
X521112Y393000D02*
Y397000D01*
X525112D01*
Y393000D01*
X521112D01*
X733421Y392500D02*
Y396500D01*
X737421D01*
Y392500D01*
X733421D01*
X511270Y393000D02*
Y397000D01*
X515270D01*
Y393000D01*
X511270D01*
X735932Y141708D02*
X737932Y143708D01*
X739932Y141708D01*
X737932Y139708D01*
X735932Y141708D01*
X699445Y132748D02*
Y136748D01*
X703445D01*
Y132748D01*
X699445D01*
X700245Y133548D02*
Y135948D01*
X702645D01*
Y133548D01*
X700245D01*
X758500Y132748D02*
Y136748D01*
X762500D01*
Y132748D01*
X758500D01*
X759300Y133548D02*
Y135948D01*
X761700D01*
Y133548D01*
X759300D01*
X389013Y142208D02*
X391013Y144208D01*
X393013Y142208D01*
X391013Y140208D01*
X389013Y142208D01*
Y128288D02*
X391013Y130288D01*
X393013Y128288D01*
X391013Y126288D01*
X389013Y128288D01*
X366445Y133248D02*
Y137248D01*
X370445D01*
Y133248D01*
X366445D01*
X367245Y134048D02*
Y136448D01*
X369645D01*
Y134048D01*
X367245D01*
X425500Y133248D02*
Y137248D01*
X429500D01*
Y133248D01*
X425500D01*
X426300Y134048D02*
Y136448D01*
X428700D01*
Y134048D01*
X426300D01*
X277026Y142208D02*
X279026Y144208D01*
X281026Y142208D01*
X279026Y140208D01*
X277026Y142208D01*
Y128288D02*
X279026Y130288D01*
X281026Y128288D01*
X279026Y126288D01*
X277026Y128288D01*
X254459Y133248D02*
Y137248D01*
X258459D01*
Y133248D01*
X254459D01*
X255259Y134048D02*
Y136448D01*
X257659D01*
Y134048D01*
X255259D01*
X313514Y133248D02*
Y137248D01*
X317514D01*
Y133248D01*
X313514D01*
X314314Y134048D02*
Y136448D01*
X316714D01*
Y134048D01*
X314314D01*
X165040Y142208D02*
X167040Y144208D01*
X169040Y142208D01*
X167040Y140208D01*
X165040Y142208D01*
Y128288D02*
X167040Y130288D01*
X169040Y128288D01*
X167040Y126288D01*
X165040Y128288D01*
X142472Y133248D02*
Y137248D01*
X146472D01*
Y133248D01*
X142472D01*
X143272Y134048D02*
Y136448D01*
X145672D01*
Y134048D01*
X143272D01*
X201528Y133248D02*
Y137248D01*
X205528D01*
Y133248D01*
X201528D01*
X202328Y134048D02*
Y136448D01*
X204728D01*
Y134048D01*
X202328D01*
X759500Y409500D02*
Y412832D01*
X761166Y414498D01*
X762832Y412832D01*
Y409500D01*
Y411999D01*
X759500D01*
X496832Y420565D02*
X495999Y421398D01*
X494333D01*
X493500Y420565D01*
Y417233D01*
X494333Y416400D01*
X495999D01*
X496832Y417233D01*
X496732Y416065D02*
X495899Y416898D01*
X494233D01*
X493400Y416065D01*
Y412733D01*
X494233Y411900D01*
X495899D01*
X496732Y412733D01*
Y411665D02*
X495899Y412498D01*
X494233D01*
X493400Y411665D01*
Y408333D01*
X494233Y407500D01*
X495899D01*
X496732Y408333D01*
X256232Y318565D02*
X255399Y319398D01*
X253733D01*
X252900Y318565D01*
Y315233D01*
X253733Y314400D01*
X255399D01*
X256232Y315233D01*
Y325665D02*
X255399Y326498D01*
X253733D01*
X252900Y325665D01*
Y322333D01*
X253733Y321500D01*
X255399D01*
X256232Y322333D01*
Y310765D02*
X255399Y311598D01*
X253733D01*
X252900Y310765D01*
Y307433D01*
X253733Y306600D01*
X255399D01*
X256232Y307433D01*
X171400Y253400D02*
Y256732D01*
X173066Y258398D01*
X174732Y256732D01*
Y253400D01*
Y255899D01*
X171400D01*
X682500Y353000D02*
Y352000D01*
X684500D01*
Y353000D01*
X685500D01*
Y355000D01*
X684500D01*
Y356000D01*
X682500D01*
Y355000D01*
X681500D01*
Y353000D01*
X682500D01*
X682900Y353400D02*
Y352800D01*
X684100D01*
Y353400D01*
X684700D01*
Y354600D01*
X684100D01*
Y355200D01*
X682900D01*
Y354600D01*
X682300D01*
Y353400D01*
X682900D01*
X630500Y353500D02*
Y352500D01*
X632500D01*
Y353500D01*
X633500D01*
Y355500D01*
X632500D01*
Y356500D01*
X630500D01*
Y355500D01*
X629500D01*
Y353500D01*
X630500D01*
X630900Y353900D02*
Y353300D01*
X632100D01*
Y353900D01*
X632700D01*
Y355100D01*
X632100D01*
Y355700D01*
X630900D01*
Y355100D01*
X630300D01*
Y353900D01*
X630900D01*
X577500Y354000D02*
Y353000D01*
X579500D01*
Y354000D01*
X580500D01*
Y356000D01*
X579500D01*
Y357000D01*
X577500D01*
Y356000D01*
X576500D01*
Y354000D01*
X577500D01*
X577900Y354400D02*
Y353800D01*
X579100D01*
Y354400D01*
X579700D01*
Y355600D01*
X579100D01*
Y356200D01*
X577900D01*
Y355600D01*
X577300D01*
Y354400D01*
X577900D01*
X526000Y354500D02*
Y353500D01*
X528000D01*
Y354500D01*
X529000D01*
Y356500D01*
X528000D01*
Y357500D01*
X526000D01*
Y356500D01*
X525000D01*
Y354500D01*
X526000D01*
X526400Y354900D02*
Y354300D01*
X527600D01*
Y354900D01*
X528200D01*
Y356100D01*
X527600D01*
Y356700D01*
X526400D01*
Y356100D01*
X525800D01*
Y354900D01*
X526400D01*
X739000Y352500D02*
Y351500D01*
X741000D01*
Y352500D01*
X742000D01*
Y354500D01*
X741000D01*
Y355500D01*
X739000D01*
Y354500D01*
X738000D01*
Y352500D01*
X739000D01*
X739400Y352900D02*
Y352300D01*
X740600D01*
Y352900D01*
X741200D01*
Y354100D01*
X740600D01*
Y354700D01*
X739400D01*
Y354100D01*
X738800D01*
Y352900D01*
X739400D01*
X669000Y314500D02*
Y313500D01*
X671000D01*
Y314500D01*
X672000D01*
Y316500D01*
X671000D01*
Y317500D01*
X669000D01*
Y316500D01*
X668000D01*
Y314500D01*
X669000D01*
X669400Y314900D02*
Y314300D01*
X670600D01*
Y314900D01*
X671200D01*
Y316100D01*
X670600D01*
Y316700D01*
X669400D01*
Y316100D01*
X668800D01*
Y314900D01*
X669400D01*
X614832Y253165D02*
X613999Y253998D01*
X612333D01*
X611500Y253165D01*
Y249833D01*
X612333Y249000D01*
X613999D01*
X614832Y249833D01*
X555600Y263900D02*
Y262900D01*
X557600D01*
Y263900D01*
X558600D01*
Y265900D01*
X557600D01*
Y266900D01*
X555600D01*
Y265900D01*
X554600D01*
Y263900D01*
X555600D01*
X556000Y264300D02*
Y263700D01*
X557200D01*
Y264300D01*
X557800D01*
Y265500D01*
X557200D01*
Y266100D01*
X556000D01*
Y265500D01*
X555400D01*
Y264300D01*
X556000D01*
X539800Y297200D02*
Y296200D01*
X541800D01*
Y297200D01*
X542800D01*
Y299200D01*
X541800D01*
Y300200D01*
X539800D01*
Y299200D01*
X538800D01*
Y297200D01*
X539800D01*
X540200Y297600D02*
Y297000D01*
X541400D01*
Y297600D01*
X542000D01*
Y298800D01*
X541400D01*
Y299400D01*
X540200D01*
Y298800D01*
X539600D01*
Y297600D01*
X540200D01*
X493900Y310400D02*
Y309400D01*
X495900D01*
Y310400D01*
X496900D01*
Y312400D01*
X495900D01*
Y313400D01*
X493900D01*
Y312400D01*
X492900D01*
Y310400D01*
X493900D01*
X494300Y310800D02*
Y310200D01*
X495500D01*
Y310800D01*
X496100D01*
Y312000D01*
X495500D01*
Y312600D01*
X494300D01*
Y312000D01*
X493700D01*
Y310800D01*
X494300D01*
X426832Y378665D02*
X425999Y379498D01*
X424333D01*
X423500Y378665D01*
Y375333D01*
X424333Y374500D01*
X425999D01*
X426832Y375333D01*
X467800Y289700D02*
Y288700D01*
X469800D01*
Y289700D01*
X470800D01*
Y291700D01*
X469800D01*
Y292700D01*
X467800D01*
Y291700D01*
X466800D01*
Y289700D01*
X467800D01*
X468200Y290100D02*
Y289500D01*
X469400D01*
Y290100D01*
X470000D01*
Y291300D01*
X469400D01*
Y291900D01*
X468200D01*
Y291300D01*
X467600D01*
Y290100D01*
X468200D01*
X439400Y287400D02*
Y286400D01*
X441400D01*
Y287400D01*
X442400D01*
Y289400D01*
X441400D01*
Y290400D01*
X439400D01*
Y289400D01*
X438400D01*
Y287400D01*
X439400D01*
X439800Y287800D02*
Y287200D01*
X441000D01*
Y287800D01*
X441600D01*
Y289000D01*
X441000D01*
Y289600D01*
X439800D01*
Y289000D01*
X439200D01*
Y287800D01*
X439800D01*
X475029Y278435D02*
Y277435D01*
X477029D01*
Y278435D01*
X478029D01*
Y280435D01*
X477029D01*
Y281435D01*
X475029D01*
Y280435D01*
X474029D01*
Y278435D01*
X475029D01*
X475429Y278836D02*
Y278236D01*
X476629D01*
Y278836D01*
X477229D01*
Y280035D01*
X476629D01*
Y280635D01*
X475429D01*
Y280035D01*
X474829D01*
Y278836D01*
X475429D01*
X482749Y256751D02*
Y255751D01*
X484749D01*
Y256751D01*
X485748D01*
Y258752D01*
X484749D01*
Y259752D01*
X482749D01*
Y258752D01*
X481748D01*
Y256751D01*
X482749D01*
X483148Y257152D02*
Y256552D01*
X484348D01*
Y257152D01*
X484948D01*
Y258351D01*
X484348D01*
Y258951D01*
X483148D01*
Y258351D01*
X482549D01*
Y257152D01*
X483148D01*
X453200Y269700D02*
Y268700D01*
X455200D01*
Y269700D01*
X456200D01*
Y271700D01*
X455200D01*
Y272700D01*
X453200D01*
Y271700D01*
X452200D01*
Y269700D01*
X453200D01*
X453600Y270100D02*
Y269500D01*
X454800D01*
Y270100D01*
X455400D01*
Y271300D01*
X454800D01*
Y271900D01*
X453600D01*
Y271300D01*
X453000D01*
Y270100D01*
X453600D01*
X453400Y264200D02*
Y263200D01*
X455400D01*
Y264200D01*
X456400D01*
Y266200D01*
X455400D01*
Y267200D01*
X453400D01*
Y266200D01*
X452400D01*
Y264200D01*
X453400D01*
X453800Y264600D02*
Y264000D01*
X455000D01*
Y264600D01*
X455600D01*
Y265800D01*
X455000D01*
Y266400D01*
X453800D01*
Y265800D01*
X453200D01*
Y264600D01*
X453800D01*
X766832Y205665D02*
X765999Y206498D01*
X764333D01*
X763500Y205665D01*
Y202333D01*
X764333Y201500D01*
X765999D01*
X766832Y202333D01*
X708500Y234000D02*
Y233000D01*
X710500D01*
Y234000D01*
X711500D01*
Y236000D01*
X710500D01*
Y237000D01*
X708500D01*
Y236000D01*
X707500D01*
Y234000D01*
X708500D01*
X708900Y234400D02*
Y233800D01*
X710100D01*
Y234400D01*
X710700D01*
Y235600D01*
X710100D01*
Y236200D01*
X708900D01*
Y235600D01*
X708300D01*
Y234400D01*
X708900D01*
X713332Y208165D02*
X712499Y208998D01*
X710833D01*
X710000Y208165D01*
Y204833D01*
X710833Y204000D01*
X712499D01*
X713332Y204833D01*
X713832Y192665D02*
X712999Y193498D01*
X711333D01*
X710500Y192665D01*
Y189333D01*
X711333Y188500D01*
X712999D01*
X713832Y189333D01*
X657332Y203665D02*
X656499Y204498D01*
X654833D01*
X654000Y203665D01*
Y200333D01*
X654833Y199500D01*
X656499D01*
X657332Y200333D01*
X603832Y206165D02*
X602999Y206998D01*
X601333D01*
X600500Y206165D01*
Y202833D01*
X601333Y202000D01*
X602999D01*
X603832Y202833D01*
X539500Y235500D02*
Y234500D01*
X541500D01*
Y235500D01*
X542500D01*
Y237500D01*
X541500D01*
Y238500D01*
X539500D01*
Y237500D01*
X538500D01*
Y235500D01*
X539500D01*
X539900Y235900D02*
Y235300D01*
X541100D01*
Y235900D01*
X541700D01*
Y237100D01*
X541100D01*
Y237700D01*
X539900D01*
Y237100D01*
X539300D01*
Y235900D01*
X539900D01*
X604332Y190665D02*
X603499Y191498D01*
X601833D01*
X601000Y190665D01*
Y187333D01*
X601833Y186500D01*
X603499D01*
X604332Y187333D01*
X767832Y173165D02*
X766999Y173998D01*
X765333D01*
X764500Y173165D01*
Y169833D01*
X765333Y169000D01*
X766999D01*
X767832Y169833D01*
X761332Y173165D02*
X760499Y173998D01*
X758833D01*
X758000Y173165D01*
Y169833D01*
X758833Y169000D01*
X760499D01*
X761332Y169833D01*
X710000Y181498D02*
Y176500D01*
X712499D01*
X713332Y177333D01*
Y180665D01*
X712499Y181498D01*
X710000D01*
X755500Y158500D02*
Y157500D01*
X757500D01*
Y158500D01*
X758500D01*
Y160500D01*
X757500D01*
Y161500D01*
X755500D01*
Y160500D01*
X754500D01*
Y158500D01*
X755500D01*
X755900Y158900D02*
Y158300D01*
X757100D01*
Y158900D01*
X757700D01*
Y160100D01*
X757100D01*
Y160700D01*
X755900D01*
Y160100D01*
X755300D01*
Y158900D01*
X755900D01*
X689000Y123500D02*
Y122500D01*
X691000D01*
Y123500D01*
X692000D01*
Y125500D01*
X691000D01*
Y126500D01*
X689000D01*
Y125500D01*
X688000D01*
Y123500D01*
X689000D01*
X689400Y123900D02*
Y123300D01*
X690600D01*
Y123900D01*
X691200D01*
Y125100D01*
X690600D01*
Y125700D01*
X689400D01*
Y125100D01*
X688800D01*
Y123900D01*
X689400D01*
X600500Y179498D02*
Y174500D01*
X602999D01*
X603832Y175333D01*
Y178665D01*
X602999Y179498D01*
X600500D01*
X658332Y171165D02*
X657499Y171998D01*
X655833D01*
X655000Y171165D01*
Y167833D01*
X655833Y167000D01*
X657499D01*
X658332Y167833D01*
X652832Y170665D02*
X651999Y171498D01*
X650333D01*
X649500Y170665D01*
Y167333D01*
X650333Y166500D01*
X651999D01*
X652832Y167333D01*
X646000Y156500D02*
Y155500D01*
X648000D01*
Y156500D01*
X649000D01*
Y158500D01*
X648000D01*
Y159500D01*
X646000D01*
Y158500D01*
X645000D01*
Y156500D01*
X646000D01*
X646400Y156900D02*
Y156300D01*
X647600D01*
Y156900D01*
X648200D01*
Y158100D01*
X647600D01*
Y158700D01*
X646400D01*
Y158100D01*
X645800D01*
Y156900D01*
X646400D01*
X519500Y228500D02*
Y227500D01*
X521500D01*
Y228500D01*
X522500D01*
Y230500D01*
X521500D01*
Y231500D01*
X519500D01*
Y230500D01*
X518500D01*
Y228500D01*
X519500D01*
X519900Y228900D02*
Y228300D01*
X521100D01*
Y228900D01*
X521700D01*
Y230100D01*
X521100D01*
Y230700D01*
X519900D01*
Y230100D01*
X519300D01*
Y228900D01*
X519900D01*
X522500Y202000D02*
Y201000D01*
X524500D01*
Y202000D01*
X525500D01*
Y204000D01*
X524500D01*
Y205000D01*
X522500D01*
Y204000D01*
X521500D01*
Y202000D01*
X522500D01*
X522900Y202400D02*
Y201800D01*
X524100D01*
Y202400D01*
X524700D01*
Y203600D01*
X524100D01*
Y204200D01*
X522900D01*
Y203600D01*
X522300D01*
Y202400D01*
X522900D01*
X514500Y199500D02*
Y198500D01*
X516500D01*
Y199500D01*
X517500D01*
Y201500D01*
X516500D01*
Y202500D01*
X514500D01*
Y201500D01*
X513500D01*
Y199500D01*
X514500D01*
X514900Y199900D02*
Y199300D01*
X516100D01*
Y199900D01*
X516700D01*
Y201100D01*
X516100D01*
Y201700D01*
X514900D01*
Y201100D01*
X514300D01*
Y199900D01*
X514900D01*
X454900Y235000D02*
Y234000D01*
X456900D01*
Y235000D01*
X457900D01*
Y237000D01*
X456900D01*
Y238000D01*
X454900D01*
Y237000D01*
X453900D01*
Y235000D01*
X454900D01*
X455300Y235400D02*
Y234800D01*
X456500D01*
Y235400D01*
X457100D01*
Y236600D01*
X456500D01*
Y237200D01*
X455300D01*
Y236600D01*
X454700D01*
Y235400D01*
X455300D01*
X509600Y232000D02*
Y231000D01*
X511600D01*
Y232000D01*
X512600D01*
Y234000D01*
X511600D01*
Y235000D01*
X509600D01*
Y234000D01*
X508600D01*
Y232000D01*
X509600D01*
X510000Y232400D02*
Y231800D01*
X511200D01*
Y232400D01*
X511800D01*
Y233600D01*
X511200D01*
Y234200D01*
X510000D01*
Y233600D01*
X509400D01*
Y232400D01*
X510000D01*
X522500Y190000D02*
Y189000D01*
X524500D01*
Y190000D01*
X525500D01*
Y192000D01*
X524500D01*
Y193000D01*
X522500D01*
Y192000D01*
X521500D01*
Y190000D01*
X522500D01*
X522900Y190400D02*
Y189800D01*
X524100D01*
Y190400D01*
X524700D01*
Y191600D01*
X524100D01*
Y192200D01*
X522900D01*
Y191600D01*
X522300D01*
Y190400D01*
X522900D01*
X512800Y167000D02*
Y166000D01*
X514800D01*
Y167000D01*
X515800D01*
Y169000D01*
X514800D01*
Y170000D01*
X512800D01*
Y169000D01*
X511800D01*
Y167000D01*
X512800D01*
X513200Y167400D02*
Y166800D01*
X514400D01*
Y167400D01*
X515000D01*
Y168600D01*
X514400D01*
Y169200D01*
X513200D01*
Y168600D01*
X512600D01*
Y167400D01*
X513200D01*
X507500Y188500D02*
Y187500D01*
X509500D01*
Y188500D01*
X510500D01*
Y190500D01*
X509500D01*
Y191500D01*
X507500D01*
Y190500D01*
X506500D01*
Y188500D01*
X507500D01*
X507900Y188900D02*
Y188300D01*
X509100D01*
Y188900D01*
X509700D01*
Y190100D01*
X509100D01*
Y190700D01*
X507900D01*
Y190100D01*
X507300D01*
Y188900D01*
X507900D01*
X536100Y152900D02*
Y151900D01*
X538100D01*
Y152900D01*
X539100D01*
Y154900D01*
X538100D01*
Y155900D01*
X536100D01*
Y154900D01*
X535100D01*
Y152900D01*
X536100D01*
X536500Y153300D02*
Y152700D01*
X537700D01*
Y153300D01*
X538300D01*
Y154500D01*
X537700D01*
Y155100D01*
X536500D01*
Y154500D01*
X535900D01*
Y153300D01*
X536500D01*
X419000Y176500D02*
Y179832D01*
X420666Y181498D01*
X422332Y179832D01*
Y176500D01*
Y178999D01*
X419000D01*
X490200Y151900D02*
Y150900D01*
X492200D01*
Y151900D01*
X493200D01*
Y153900D01*
X492200D01*
Y154900D01*
X490200D01*
Y153900D01*
X489200D01*
Y151900D01*
X490200D01*
X490600Y152300D02*
Y151700D01*
X491800D01*
Y152300D01*
X492400D01*
Y153500D01*
X491800D01*
Y154100D01*
X490600D01*
Y153500D01*
X490000D01*
Y152300D01*
X490600D01*
X438000Y125500D02*
Y124500D01*
X440000D01*
Y125500D01*
X441000D01*
Y127500D01*
X440000D01*
Y128500D01*
X438000D01*
Y127500D01*
X437000D01*
Y125500D01*
X438000D01*
X438400Y125900D02*
Y125300D01*
X439600D01*
Y125900D01*
X440200D01*
Y127100D01*
X439600D01*
Y127700D01*
X438400D01*
Y127100D01*
X437800D01*
Y125900D01*
X438400D01*
X419500Y169500D02*
Y172832D01*
X421166Y174498D01*
X422832Y172832D01*
Y169500D01*
Y171999D01*
X419500D01*
X329000Y329000D02*
Y332332D01*
X330666Y333998D01*
X332332Y332332D01*
Y329000D01*
Y331499D01*
X329000D01*
X304000Y405000D02*
Y404000D01*
X306000D01*
Y405000D01*
X307000D01*
Y407000D01*
X306000D01*
Y408000D01*
X304000D01*
Y407000D01*
X303000D01*
Y405000D01*
X304000D01*
X304400Y405400D02*
Y404800D01*
X305600D01*
Y405400D01*
X306200D01*
Y406600D01*
X305600D01*
Y407200D01*
X304400D01*
Y406600D01*
X303800D01*
Y405400D01*
X304400D01*
X350500Y315500D02*
Y318832D01*
X352166Y320498D01*
X353832Y318832D01*
Y315500D01*
Y317999D01*
X350500D01*
Y310500D02*
Y313832D01*
X352166Y315498D01*
X353832Y313832D01*
Y310500D01*
Y312999D01*
X350500D01*
Y305500D02*
Y308832D01*
X352166Y310498D01*
X353832Y308832D01*
Y305500D01*
Y307999D01*
X350500D01*
X283000Y409000D02*
Y408000D01*
X285000D01*
Y409000D01*
X286000D01*
Y411000D01*
X285000D01*
Y412000D01*
X283000D01*
Y411000D01*
X282000D01*
Y409000D01*
X283000D01*
X283400Y409400D02*
Y408800D01*
X284600D01*
Y409400D01*
X285200D01*
Y410600D01*
X284600D01*
Y411200D01*
X283400D01*
Y410600D01*
X282800D01*
Y409400D01*
X283400D01*
X278200Y358400D02*
Y361732D01*
X279866Y363398D01*
X281532Y361732D01*
Y358400D01*
Y360899D01*
X278200D01*
X272800Y341000D02*
Y344332D01*
X274466Y345998D01*
X276132Y344332D01*
Y341000D01*
Y343499D01*
X272800D01*
X350500Y300500D02*
Y303832D01*
X352166Y305498D01*
X353832Y303832D01*
Y300500D01*
Y302999D01*
X350500D01*
X368500Y302498D02*
Y297500D01*
X370999D01*
X371832Y298333D01*
Y299166D01*
X370999Y299999D01*
X368500D01*
X370999D01*
X371832Y300832D01*
Y301665D01*
X370999Y302498D01*
X368500D01*
X350500Y295000D02*
Y298332D01*
X352166Y299998D01*
X353832Y298332D01*
Y295000D01*
Y297499D01*
X350500D01*
X350700Y286400D02*
Y289732D01*
X352366Y291398D01*
X354032Y289732D01*
Y286400D01*
Y288899D01*
X350700D01*
X328000Y285500D02*
Y284500D01*
X330000D01*
Y285500D01*
X331000D01*
Y287500D01*
X330000D01*
Y288500D01*
X328000D01*
Y287500D01*
X327000D01*
Y285500D01*
X328000D01*
X328400Y285900D02*
Y285300D01*
X329600D01*
Y285900D01*
X330200D01*
Y287100D01*
X329600D01*
Y287700D01*
X328400D01*
Y287100D01*
X327800D01*
Y285900D01*
X328400D01*
X302000Y294200D02*
Y297532D01*
X303666Y299198D01*
X305332Y297532D01*
Y294200D01*
Y296699D01*
X302000D01*
Y299200D02*
Y302532D01*
X303666Y304198D01*
X305332Y302532D01*
Y299200D01*
Y301699D01*
X302000D01*
Y289200D02*
Y292532D01*
X303666Y294198D01*
X305332Y292532D01*
Y289200D01*
Y291699D01*
X302000D01*
X262700Y376700D02*
Y375700D01*
X264700D01*
Y376700D01*
X265700D01*
Y378700D01*
X264700D01*
Y379700D01*
X262700D01*
Y378700D01*
X261700D01*
Y376700D01*
X262700D01*
X263100Y377100D02*
Y376500D01*
X264300D01*
Y377100D01*
X264900D01*
Y378300D01*
X264300D01*
Y378900D01*
X263100D01*
Y378300D01*
X262500D01*
Y377100D01*
X263100D01*
X121000Y397000D02*
Y400332D01*
X122666Y401998D01*
X124332Y400332D01*
Y397000D01*
Y399499D01*
X121000D01*
X229000Y394500D02*
Y397832D01*
X230666Y399498D01*
X232332Y397832D01*
Y394500D01*
Y396999D01*
X229000D01*
X233300Y389000D02*
Y388000D01*
X235300D01*
Y389000D01*
X236300D01*
Y391000D01*
X235300D01*
Y392000D01*
X233300D01*
Y391000D01*
X232300D01*
Y389000D01*
X233300D01*
X233700Y389400D02*
Y388800D01*
X234900D01*
Y389400D01*
X235500D01*
Y390600D01*
X234900D01*
Y391200D01*
X233700D01*
Y390600D01*
X233100D01*
Y389400D01*
X233700D01*
X208500Y369000D02*
Y368000D01*
X210500D01*
Y369000D01*
X211500D01*
Y371000D01*
X210500D01*
Y372000D01*
X208500D01*
Y371000D01*
X207500D01*
Y369000D01*
X208500D01*
X208900Y369400D02*
Y368800D01*
X210100D01*
Y369400D01*
X210700D01*
Y370600D01*
X210100D01*
Y371200D01*
X208900D01*
Y370600D01*
X208300D01*
Y369400D01*
X208900D01*
X246500Y360100D02*
Y363432D01*
X248166Y365098D01*
X249832Y363432D01*
Y360100D01*
Y362599D01*
X246500D01*
X238500Y360000D02*
Y363332D01*
X240166Y364998D01*
X241832Y363332D01*
Y360000D01*
Y362499D01*
X238500D01*
X268900Y316500D02*
Y319832D01*
X270566Y321498D01*
X272232Y319832D01*
Y316500D01*
Y318999D01*
X268900D01*
X242832Y326265D02*
X241999Y327098D01*
X240333D01*
X239500Y326265D01*
Y322933D01*
X240333Y322100D01*
X241999D01*
X242832Y322933D01*
X163800Y305600D02*
Y308932D01*
X165466Y310598D01*
X167132Y308932D01*
Y305600D01*
Y308099D01*
X163800D01*
X119100Y301900D02*
Y305232D01*
X120766Y306898D01*
X122432Y305232D01*
Y301900D01*
Y304399D01*
X119100D01*
X126600Y290500D02*
Y293832D01*
X128266Y295498D01*
X129932Y293832D01*
Y290500D01*
Y292999D01*
X126600D01*
X412900Y282300D02*
Y281300D01*
X414900D01*
Y282300D01*
X415900D01*
Y284300D01*
X414900D01*
Y285300D01*
X412900D01*
Y284300D01*
X411900D01*
Y282300D01*
X412900D01*
X413300Y282700D02*
Y282100D01*
X414500D01*
Y282700D01*
X415100D01*
Y283900D01*
X414500D01*
Y284500D01*
X413300D01*
Y283900D01*
X412700D01*
Y282700D01*
X413300D01*
X407500Y266700D02*
Y265700D01*
X409500D01*
Y266700D01*
X410500D01*
Y268700D01*
X409500D01*
Y269700D01*
X407500D01*
Y268700D01*
X406500D01*
Y266700D01*
X407500D01*
X407900Y267100D02*
Y266500D01*
X409100D01*
Y267100D01*
X409700D01*
Y268300D01*
X409100D01*
Y268900D01*
X407900D01*
Y268300D01*
X407300D01*
Y267100D01*
X407900D01*
X394500Y199500D02*
Y202832D01*
X396166Y204498D01*
X397832Y202832D01*
Y199500D01*
Y201999D01*
X394500D01*
X387000Y197500D02*
Y200832D01*
X388666Y202498D01*
X390332Y200832D01*
Y197500D01*
Y199999D01*
X387000D01*
X329100Y274200D02*
Y273200D01*
X331100D01*
Y274200D01*
X332100D01*
Y276200D01*
X331100D01*
Y277200D01*
X329100D01*
Y276200D01*
X328100D01*
Y274200D01*
X329100D01*
X329500Y274600D02*
Y274000D01*
X330700D01*
Y274600D01*
X331300D01*
Y275800D01*
X330700D01*
Y276400D01*
X329500D01*
Y275800D01*
X328900D01*
Y274600D01*
X329500D01*
X302000Y284200D02*
Y287532D01*
X303666Y289198D01*
X305332Y287532D01*
Y284200D01*
Y286699D01*
X302000D01*
X305500Y275500D02*
Y274500D01*
X307500D01*
Y275500D01*
X308500D01*
Y277500D01*
X307500D01*
Y278500D01*
X305500D01*
Y277500D01*
X304500D01*
Y275500D01*
X305500D01*
X305900Y275900D02*
Y275300D01*
X307100D01*
Y275900D01*
X307700D01*
Y277100D01*
X307100D01*
Y277700D01*
X305900D01*
Y277100D01*
X305300D01*
Y275900D01*
X305900D01*
X305000Y265000D02*
Y264000D01*
X307000D01*
Y265000D01*
X308000D01*
Y267000D01*
X307000D01*
Y268000D01*
X305000D01*
Y267000D01*
X304000D01*
Y265000D01*
X305000D01*
X305400Y265400D02*
Y264800D01*
X306600D01*
Y265400D01*
X307200D01*
Y266600D01*
X306600D01*
Y267200D01*
X305400D01*
Y266600D01*
X304800D01*
Y265400D01*
X305400D01*
X283000Y197500D02*
Y200832D01*
X284666Y202498D01*
X286332Y200832D01*
Y197500D01*
Y199999D01*
X283000D01*
X278467Y269500D02*
Y268500D01*
X280467D01*
Y269500D01*
X281467D01*
Y271500D01*
X280467D01*
Y272500D01*
X278467D01*
Y271500D01*
X277467D01*
Y269500D01*
X278467D01*
X278867Y269900D02*
Y269300D01*
X280066D01*
Y269900D01*
X280666D01*
Y271100D01*
X280066D01*
Y271700D01*
X278867D01*
Y271100D01*
X278267D01*
Y269900D01*
X278867D01*
X277439Y262797D02*
Y261797D01*
X279439D01*
Y262797D01*
X280439D01*
Y264797D01*
X279439D01*
Y265797D01*
X277439D01*
Y264797D01*
X276439D01*
Y262797D01*
X277439D01*
X277839Y263197D02*
Y262597D01*
X279039D01*
Y263197D01*
X279639D01*
Y264397D01*
X279039D01*
Y264997D01*
X277839D01*
Y264397D01*
X277239D01*
Y263197D01*
X277839D01*
X381000Y177000D02*
Y180332D01*
X382666Y181998D01*
X384332Y180332D01*
Y177000D01*
Y179499D01*
X381000D01*
X390500Y165500D02*
Y168832D01*
X392166Y170498D01*
X393832Y168832D01*
Y165500D01*
Y167999D01*
X390500D01*
X307500Y174500D02*
Y177832D01*
X309166Y179498D01*
X310832Y177832D01*
Y174500D01*
Y176999D01*
X307500D01*
X308000Y167500D02*
Y170832D01*
X309666Y172498D01*
X311332Y170832D01*
Y167500D01*
Y169999D01*
X308000D01*
X279000Y163500D02*
Y166832D01*
X280666Y168498D01*
X282332Y166832D01*
Y163500D01*
Y165999D01*
X279000D01*
X215800Y254500D02*
Y257832D01*
X217466Y259498D01*
X219132Y257832D01*
Y254500D01*
Y256999D01*
X215800D01*
X177700Y285200D02*
Y288532D01*
X179366Y290198D01*
X181032Y288532D01*
Y285200D01*
Y287699D01*
X177700D01*
X238300Y254400D02*
Y257732D01*
X239966Y259398D01*
X241632Y257732D01*
Y254400D01*
Y256899D01*
X238300D01*
X275500Y195500D02*
Y198832D01*
X277166Y200498D01*
X278832Y198832D01*
Y195500D01*
Y197999D01*
X275500D01*
X124600Y281900D02*
Y285232D01*
X126266Y286898D01*
X127932Y285232D01*
Y281900D01*
Y284399D01*
X124600D01*
X124200Y272700D02*
Y276032D01*
X125866Y277698D01*
X127532Y276032D01*
Y272700D01*
Y275199D01*
X124200D01*
X170500Y199500D02*
Y202832D01*
X172166Y204498D01*
X173832Y202832D01*
Y199500D01*
Y201999D01*
X170500D01*
X163000Y197500D02*
Y200832D01*
X164666Y202498D01*
X166332Y200832D01*
Y197500D01*
Y199999D01*
X163000D01*
X160500Y242800D02*
Y246132D01*
X162166Y247798D01*
X163832Y246132D01*
Y242800D01*
Y245299D01*
X160500D01*
X269500Y175000D02*
Y178332D01*
X271166Y179998D01*
X272832Y178332D01*
Y175000D01*
Y177499D01*
X269500D01*
X221000Y129000D02*
Y132332D01*
X222666Y133998D01*
X224332Y132332D01*
Y129000D01*
Y131499D01*
X221000D01*
X195000Y176500D02*
Y179832D01*
X196666Y181498D01*
X198332Y179832D01*
Y176500D01*
Y178999D01*
X195000D01*
X157000Y177000D02*
Y180332D01*
X158666Y181998D01*
X160332Y180332D01*
Y177000D01*
Y179499D01*
X157000D01*
X195500Y169500D02*
Y172832D01*
X197166Y174498D01*
X198832Y172832D01*
Y169500D01*
Y171999D01*
X195500D01*
X166500Y165500D02*
Y168832D01*
X168166Y170498D01*
X169832Y168832D01*
Y165500D01*
Y167999D01*
X166500D01*
X499500Y170400D02*
Y169400D01*
X501500D01*
Y170400D01*
X502500D01*
Y172400D01*
X501500D01*
Y173400D01*
X499500D01*
Y172400D01*
X498500D01*
Y170400D01*
X499500D01*
X499900Y170800D02*
Y170200D01*
X501100D01*
Y170800D01*
X501700D01*
Y172000D01*
X501100D01*
Y172600D01*
X499900D01*
Y172000D01*
X499300D01*
Y170800D01*
X499900D01*
X535700Y168700D02*
Y167700D01*
X537700D01*
Y168700D01*
X538700D01*
Y170700D01*
X537700D01*
Y171700D01*
X535700D01*
Y170700D01*
X534700D01*
Y168700D01*
X535700D01*
X536100Y169100D02*
Y168500D01*
X537300D01*
Y169100D01*
X537900D01*
Y170300D01*
X537300D01*
Y170900D01*
X536100D01*
Y170300D01*
X535500D01*
Y169100D01*
X536100D01*
X524300Y279500D02*
Y278500D01*
X526300D01*
Y279500D01*
X527300D01*
Y281500D01*
X526300D01*
Y282500D01*
X524300D01*
Y281500D01*
X523300D01*
Y279500D01*
X524300D01*
X524700Y279900D02*
Y279300D01*
X525900D01*
Y279900D01*
X526500D01*
Y281100D01*
X525900D01*
Y281700D01*
X524700D01*
Y281100D01*
X524100D01*
Y279900D01*
X524700D01*
X275400Y396600D02*
Y395600D01*
X277400D01*
Y396600D01*
X278400D01*
Y398600D01*
X277400D01*
Y399600D01*
X275400D01*
Y398600D01*
X274400D01*
Y396600D01*
X275400D01*
X275800Y397000D02*
Y396400D01*
X277000D01*
Y397000D01*
X277600D01*
Y398200D01*
X277000D01*
Y398800D01*
X275800D01*
Y398200D01*
X275200D01*
Y397000D01*
X275800D01*
X228100Y410400D02*
Y409400D01*
X230100D01*
Y410400D01*
X231100D01*
Y412400D01*
X230100D01*
Y413400D01*
X228100D01*
Y412400D01*
X227100D01*
Y410400D01*
X228100D01*
X228500Y410800D02*
Y410200D01*
X229700D01*
Y410800D01*
X230300D01*
Y412000D01*
X229700D01*
Y412600D01*
X228500D01*
Y412000D01*
X227900D01*
Y410800D01*
X228500D01*
X524000Y275000D02*
Y274000D01*
X526000D01*
Y275000D01*
X527000D01*
Y277000D01*
X526000D01*
Y278000D01*
X524000D01*
Y277000D01*
X523000D01*
Y275000D01*
X524000D01*
X524400Y275400D02*
Y274800D01*
X525600D01*
Y275400D01*
X526200D01*
Y276600D01*
X525600D01*
Y277200D01*
X524400D01*
Y276600D01*
X523800D01*
Y275400D01*
X524400D01*
X197500Y195500D02*
Y198832D01*
X199166Y200498D01*
X200832Y198832D01*
Y195500D01*
Y197999D01*
X197500D01*
X192332Y192665D02*
X191499Y193498D01*
X189833D01*
X189000Y192665D01*
Y189333D01*
X189833Y188500D01*
X191499D01*
X192332Y189333D01*
X181000Y213000D02*
Y212000D01*
X183000D01*
Y213000D01*
X184000D01*
Y215000D01*
X183000D01*
Y216000D01*
X181000D01*
Y215000D01*
X180000D01*
Y213000D01*
X181000D01*
X181400Y213400D02*
Y212800D01*
X182600D01*
Y213400D01*
X183200D01*
Y214600D01*
X182600D01*
Y215200D01*
X181400D01*
Y214600D01*
X180800D01*
Y213400D01*
X181400D01*
X200500Y205500D02*
Y204500D01*
X202500D01*
Y205500D01*
X203500D01*
Y207500D01*
X202500D01*
Y208500D01*
X200500D01*
Y207500D01*
X199500D01*
Y205500D01*
X200500D01*
X200900Y205900D02*
Y205300D01*
X202100D01*
Y205900D01*
X202700D01*
Y207100D01*
X202100D01*
Y207700D01*
X200900D01*
Y207100D01*
X200300D01*
Y205900D01*
X200900D01*
X192000Y163500D02*
Y162500D01*
X194000D01*
Y163500D01*
X195000D01*
Y165500D01*
X194000D01*
Y166500D01*
X192000D01*
Y165500D01*
X191000D01*
Y163500D01*
X192000D01*
X192400Y163900D02*
Y163300D01*
X193600D01*
Y163900D01*
X194200D01*
Y165100D01*
X193600D01*
Y165700D01*
X192400D01*
Y165100D01*
X191800D01*
Y163900D01*
X192400D01*
X162500Y160000D02*
Y159000D01*
X164500D01*
Y160000D01*
X165500D01*
Y162000D01*
X164500D01*
Y163000D01*
X162500D01*
Y162000D01*
X161500D01*
Y160000D01*
X162500D01*
X162900Y160400D02*
Y159800D01*
X164100D01*
Y160400D01*
X164700D01*
Y161600D01*
X164100D01*
Y162200D01*
X162900D01*
Y161600D01*
X162300D01*
Y160400D01*
X162900D01*
X184979Y164927D02*
Y168260D01*
X186645Y169926D01*
X188311Y168260D01*
Y164927D01*
Y167427D01*
X184979D01*
X166500Y175500D02*
Y178832D01*
X168166Y180498D01*
X169832Y178832D01*
Y175500D01*
Y177999D01*
X166500D01*
X748500Y342300D02*
Y341300D01*
X750500D01*
Y342300D01*
X751500D01*
Y344300D01*
X750500D01*
Y345300D01*
X748500D01*
Y344300D01*
X747500D01*
Y342300D01*
X748500D01*
X748900Y342700D02*
Y342100D01*
X750100D01*
Y342700D01*
X750700D01*
Y343900D01*
X750100D01*
Y344500D01*
X748900D01*
Y343900D01*
X748300D01*
Y342700D01*
X748900D01*
X670500Y336500D02*
Y335500D01*
X672500D01*
Y336500D01*
X673500D01*
Y338500D01*
X672500D01*
Y339500D01*
X670500D01*
Y338500D01*
X669500D01*
Y336500D01*
X670500D01*
X670900Y336900D02*
Y336300D01*
X672100D01*
Y336900D01*
X672700D01*
Y338100D01*
X672100D01*
Y338700D01*
X670900D01*
Y338100D01*
X670300D01*
Y336900D01*
X670900D01*
X555600Y270200D02*
Y269200D01*
X557600D01*
Y270200D01*
X558600D01*
Y272200D01*
X557600D01*
Y273200D01*
X555600D01*
Y272200D01*
X554600D01*
Y270200D01*
X555600D01*
X556000Y270600D02*
Y270000D01*
X557200D01*
Y270600D01*
X557800D01*
Y271800D01*
X557200D01*
Y272400D01*
X556000D01*
Y271800D01*
X555400D01*
Y270600D01*
X556000D01*
X611000Y263000D02*
Y262000D01*
X613000D01*
Y263000D01*
X614000D01*
Y265000D01*
X613000D01*
Y266000D01*
X611000D01*
Y265000D01*
X610000D01*
Y263000D01*
X611000D01*
X611400Y263400D02*
Y262800D01*
X612600D01*
Y263400D01*
X613200D01*
Y264600D01*
X612600D01*
Y265200D01*
X611400D01*
Y264600D01*
X610800D01*
Y263400D01*
X611400D01*
X550200Y247400D02*
Y246400D01*
X552200D01*
Y247400D01*
X553200D01*
Y249400D01*
X552200D01*
Y250400D01*
X550200D01*
Y249400D01*
X549200D01*
Y247400D01*
X550200D01*
X550600Y247800D02*
Y247200D01*
X551800D01*
Y247800D01*
X552400D01*
Y249000D01*
X551800D01*
Y249600D01*
X550600D01*
Y249000D01*
X550000D01*
Y247800D01*
X550600D01*
X534500Y302000D02*
Y301000D01*
X536500D01*
Y302000D01*
X537500D01*
Y304000D01*
X536500D01*
Y305000D01*
X534500D01*
Y304000D01*
X533500D01*
Y302000D01*
X534500D01*
X534900Y302400D02*
Y301800D01*
X536100D01*
Y302400D01*
X536700D01*
Y303600D01*
X536100D01*
Y304200D01*
X534900D01*
Y303600D01*
X534300D01*
Y302400D01*
X534900D01*
X497000Y286500D02*
Y285500D01*
X499000D01*
Y286500D01*
X500000D01*
Y288500D01*
X499000D01*
Y289500D01*
X497000D01*
Y288500D01*
X496000D01*
Y286500D01*
X497000D01*
X497400Y286900D02*
Y286300D01*
X498600D01*
Y286900D01*
X499200D01*
Y288100D01*
X498600D01*
Y288700D01*
X497400D01*
Y288100D01*
X496800D01*
Y286900D01*
X497400D01*
X647532Y243665D02*
X646699Y244498D01*
X645033D01*
X644200Y243665D01*
Y240333D01*
X645033Y239500D01*
X646699D01*
X647532Y240333D01*
X609632Y243465D02*
X608799Y244298D01*
X607133D01*
X606300Y243465D01*
Y240133D01*
X607133Y239300D01*
X608799D01*
X609632Y240133D01*
X692000Y231500D02*
Y230500D01*
X694000D01*
Y231500D01*
X695000D01*
Y233500D01*
X694000D01*
Y234500D01*
X692000D01*
Y233500D01*
X691000D01*
Y231500D01*
X692000D01*
X692400Y231900D02*
Y231300D01*
X693600D01*
Y231900D01*
X694200D01*
Y233100D01*
X693600D01*
Y233700D01*
X692400D01*
Y233100D01*
X691800D01*
Y231900D01*
X692400D01*
X516500Y231500D02*
Y230500D01*
X518500D01*
Y231500D01*
X519500D01*
Y233500D01*
X518500D01*
Y234500D01*
X516500D01*
Y233500D01*
X515500D01*
Y231500D01*
X516500D01*
X516900Y231900D02*
Y231300D01*
X518100D01*
Y231900D01*
X518700D01*
Y233100D01*
X518100D01*
Y233700D01*
X516900D01*
Y233100D01*
X516300D01*
Y231900D01*
X516900D01*
X513000Y234500D02*
Y233500D01*
X515000D01*
Y234500D01*
X516000D01*
Y236500D01*
X515000D01*
Y237500D01*
X513000D01*
Y236500D01*
X512000D01*
Y234500D01*
X513000D01*
X513400Y234900D02*
Y234300D01*
X514600D01*
Y234900D01*
X515200D01*
Y236100D01*
X514600D01*
Y236700D01*
X513400D01*
Y236100D01*
X512800D01*
Y234900D01*
X513400D01*
X530000Y203500D02*
Y202500D01*
X532000D01*
Y203500D01*
X533000D01*
Y205500D01*
X532000D01*
Y206500D01*
X530000D01*
Y205500D01*
X529000D01*
Y203500D01*
X530000D01*
X530400Y203900D02*
Y203300D01*
X531600D01*
Y203900D01*
X532200D01*
Y205100D01*
X531600D01*
Y205700D01*
X530400D01*
Y205100D01*
X529800D01*
Y203900D01*
X530400D01*
X491900Y295700D02*
Y294700D01*
X493900D01*
Y295700D01*
X494900D01*
Y297700D01*
X493900D01*
Y298700D01*
X491900D01*
Y297700D01*
X490900D01*
Y295700D01*
X491900D01*
X492300Y296100D02*
Y295500D01*
X493500D01*
Y296100D01*
X494100D01*
Y297300D01*
X493500D01*
Y297900D01*
X492300D01*
Y297300D01*
X491700D01*
Y296100D01*
X492300D01*
X443100Y275100D02*
Y274100D01*
X445100D01*
Y275100D01*
X446100D01*
Y277100D01*
X445100D01*
Y278100D01*
X443100D01*
Y277100D01*
X442100D01*
Y275100D01*
X443100D01*
X443500Y275500D02*
Y274900D01*
X444700D01*
Y275500D01*
X445300D01*
Y276700D01*
X444700D01*
Y277300D01*
X443500D01*
Y276700D01*
X442900D01*
Y275500D01*
X443500D01*
X430800Y275000D02*
Y274000D01*
X432800D01*
Y275000D01*
X433800D01*
Y277000D01*
X432800D01*
Y278000D01*
X430800D01*
Y277000D01*
X429800D01*
Y275000D01*
X430800D01*
X431200Y275400D02*
Y274800D01*
X432400D01*
Y275400D01*
X433000D01*
Y276600D01*
X432400D01*
Y277200D01*
X431200D01*
Y276600D01*
X430600D01*
Y275400D01*
X431200D01*
X418700Y274600D02*
Y273600D01*
X420700D01*
Y274600D01*
X421700D01*
Y276600D01*
X420700D01*
Y277600D01*
X418700D01*
Y276600D01*
X417700D01*
Y274600D01*
X418700D01*
X419100Y275000D02*
Y274400D01*
X420300D01*
Y275000D01*
X420900D01*
Y276200D01*
X420300D01*
Y276800D01*
X419100D01*
Y276200D01*
X418500D01*
Y275000D01*
X419100D01*
X483993Y252623D02*
Y251623D01*
X485993D01*
Y252623D01*
X486994D01*
Y254623D01*
X485993D01*
Y255623D01*
X483993D01*
Y254623D01*
X482994D01*
Y252623D01*
X483993D01*
X484394Y253023D02*
Y252423D01*
X485594D01*
Y253023D01*
X486194D01*
Y254223D01*
X485594D01*
Y254823D01*
X484394D01*
Y254223D01*
X483793D01*
Y253023D01*
X484394D01*
X426500Y205500D02*
Y204500D01*
X428500D01*
Y205500D01*
X429500D01*
Y207500D01*
X428500D01*
Y208500D01*
X426500D01*
Y207500D01*
X425500D01*
Y205500D01*
X426500D01*
X426900Y205900D02*
Y205300D01*
X428100D01*
Y205900D01*
X428700D01*
Y207100D01*
X428100D01*
Y207700D01*
X426900D01*
Y207100D01*
X426300D01*
Y205900D01*
X426900D01*
X421500Y195500D02*
Y198832D01*
X423166Y200498D01*
X424832Y198832D01*
Y195500D01*
Y197999D01*
X421500D01*
X375500Y302700D02*
Y306032D01*
X377166Y307698D01*
X378832Y306032D01*
Y302700D01*
Y305199D01*
X375500D01*
X362500Y294000D02*
Y297332D01*
X364166Y298998D01*
X365832Y297332D01*
Y294000D01*
Y296499D01*
X362500D01*
X329500Y290000D02*
Y289000D01*
X331500D01*
Y290000D01*
X332500D01*
Y292000D01*
X331500D01*
Y293000D01*
X329500D01*
Y292000D01*
X328500D01*
Y290000D01*
X329500D01*
X329900Y290400D02*
Y289800D01*
X331100D01*
Y290400D01*
X331700D01*
Y291600D01*
X331100D01*
Y292200D01*
X329900D01*
Y291600D01*
X329300D01*
Y290400D01*
X329900D01*
X329500Y280500D02*
Y279500D01*
X331500D01*
Y280500D01*
X332500D01*
Y282500D01*
X331500D01*
Y283500D01*
X329500D01*
Y282500D01*
X328500D01*
Y280500D01*
X329500D01*
X329900Y280900D02*
Y280300D01*
X331100D01*
Y280900D01*
X331700D01*
Y282100D01*
X331100D01*
Y282700D01*
X329900D01*
Y282100D01*
X329300D01*
Y280900D01*
X329900D01*
X314500Y204000D02*
Y203000D01*
X316500D01*
Y204000D01*
X317500D01*
Y206000D01*
X316500D01*
Y207000D01*
X314500D01*
Y206000D01*
X313500D01*
Y204000D01*
X314500D01*
X314900Y204400D02*
Y203800D01*
X316100D01*
Y204400D01*
X316700D01*
Y205600D01*
X316100D01*
Y206200D01*
X314900D01*
Y205600D01*
X314300D01*
Y204400D01*
X314900D01*
X413500Y188500D02*
Y191832D01*
X415166Y193498D01*
X416832Y191832D01*
Y188500D01*
Y190999D01*
X413500D01*
X309000Y193500D02*
Y196832D01*
X310666Y198498D01*
X312332Y196832D01*
Y193500D01*
Y195999D01*
X309000D01*
X301000Y185000D02*
Y184000D01*
X303000D01*
Y185000D01*
X304000D01*
Y187000D01*
X303000D01*
Y188000D01*
X301000D01*
Y187000D01*
X300000D01*
Y185000D01*
X301000D01*
X301400Y185400D02*
Y184800D01*
X302600D01*
Y185400D01*
X303200D01*
Y186600D01*
X302600D01*
Y187200D01*
X301400D01*
Y186600D01*
X300800D01*
Y185400D01*
X301400D01*
X462500Y123500D02*
Y122500D01*
X464500D01*
Y123500D01*
X465500D01*
Y125500D01*
X464500D01*
Y126500D01*
X462500D01*
Y125500D01*
X461500D01*
Y123500D01*
X462500D01*
X462900Y123900D02*
Y123300D01*
X464100D01*
Y123900D01*
X464700D01*
Y125100D01*
X464100D01*
Y125700D01*
X462900D01*
Y125100D01*
X462300D01*
Y123900D01*
X462900D01*
X390500Y175500D02*
Y178832D01*
X392166Y180498D01*
X393832Y178832D01*
Y175500D01*
Y177999D01*
X390500D01*
X408979Y164927D02*
Y168260D01*
X410645Y169926D01*
X412311Y168260D01*
Y164927D01*
Y167427D01*
X408979D01*
X297479Y162927D02*
Y166260D01*
X299145Y167926D01*
X300812Y166260D01*
Y162927D01*
Y165427D01*
X297479D01*
X279000Y173500D02*
Y176832D01*
X280666Y178498D01*
X282332Y176832D01*
Y173500D01*
Y175999D01*
X279000D01*
X245000Y128000D02*
Y131332D01*
X246666Y132998D01*
X248332Y131332D01*
Y128000D01*
Y130499D01*
X245000D01*
X276900Y384300D02*
Y387632D01*
X278566Y389298D01*
X280232Y387632D01*
Y384300D01*
Y386799D01*
X276900D01*
X549500Y260000D02*
Y259000D01*
X551500D01*
Y260000D01*
X552500D01*
Y262000D01*
X551500D01*
Y263000D01*
X549500D01*
Y262000D01*
X548500D01*
Y260000D01*
X549500D01*
X549900Y260400D02*
Y259800D01*
X551100D01*
Y260400D01*
X551700D01*
Y261600D01*
X551100D01*
Y262200D01*
X549900D01*
Y261600D01*
X549300D01*
Y260400D01*
X549900D01*
X377600Y230700D02*
Y229700D01*
X379600D01*
Y230700D01*
X380600D01*
Y232700D01*
X379600D01*
Y233700D01*
X377600D01*
Y232700D01*
X376600D01*
Y230700D01*
X377600D01*
X378000Y231100D02*
Y230500D01*
X379200D01*
Y231100D01*
X379800D01*
Y232300D01*
X379200D01*
Y232900D01*
X378000D01*
Y232300D01*
X377400D01*
Y231100D01*
X378000D01*
X675000Y321000D02*
Y320000D01*
X677000D01*
Y321000D01*
X678000D01*
Y323000D01*
X677000D01*
Y324000D01*
X675000D01*
Y323000D01*
X674000D01*
Y321000D01*
X675000D01*
X675400Y321400D02*
Y320800D01*
X676600D01*
Y321400D01*
X677200D01*
Y322600D01*
X676600D01*
Y323200D01*
X675400D01*
Y322600D01*
X674800D01*
Y321400D01*
X675400D01*
X501500Y280500D02*
Y279500D01*
X503500D01*
Y280500D01*
X504500D01*
Y282500D01*
X503500D01*
Y283500D01*
X501500D01*
Y282500D01*
X500500D01*
Y280500D01*
X501500D01*
X501900Y280900D02*
Y280300D01*
X503100D01*
Y280900D01*
X503700D01*
Y282100D01*
X503100D01*
Y282700D01*
X501900D01*
Y282100D01*
X501300D01*
Y280900D01*
X501900D01*
X280600Y342400D02*
Y341400D01*
X282600D01*
Y342400D01*
X283600D01*
Y344400D01*
X282600D01*
Y345400D01*
X280600D01*
Y344400D01*
X279600D01*
Y342400D01*
X280600D01*
X281000Y342800D02*
Y342200D01*
X282200D01*
Y342800D01*
X282800D01*
Y344000D01*
X282200D01*
Y344600D01*
X281000D01*
Y344000D01*
X280400D01*
Y342800D01*
X281000D01*
X277800Y374700D02*
Y373700D01*
X279800D01*
Y374700D01*
X280800D01*
Y376700D01*
X279800D01*
Y377700D01*
X277800D01*
Y376700D01*
X276800D01*
Y374700D01*
X277800D01*
X278200Y375100D02*
Y374500D01*
X279400D01*
Y375100D01*
X280000D01*
Y376300D01*
X279400D01*
Y376900D01*
X278200D01*
Y376300D01*
X277600D01*
Y375100D01*
X278200D01*
X250800Y394400D02*
Y393400D01*
X252800D01*
Y394400D01*
X253800D01*
Y396400D01*
X252800D01*
Y397400D01*
X250800D01*
Y396400D01*
X249800D01*
Y394400D01*
X250800D01*
X251200Y394800D02*
Y394200D01*
X252400D01*
Y394800D01*
X253000D01*
Y396000D01*
X252400D01*
Y396600D01*
X251200D01*
Y396000D01*
X250600D01*
Y394800D01*
X251200D01*
X561000Y339533D02*
Y338533D01*
X563000D01*
Y339533D01*
X564000D01*
Y341533D01*
X563000D01*
Y342533D01*
X561000D01*
Y341533D01*
X560000D01*
Y339533D01*
X561000D01*
X561400Y339933D02*
Y339333D01*
X562600D01*
Y339933D01*
X563200D01*
Y341133D01*
X562600D01*
Y341733D01*
X561400D01*
Y341133D01*
X560800D01*
Y339933D01*
X561400D01*
X564000Y301000D02*
Y300000D01*
X566000D01*
Y301000D01*
X567000D01*
Y303000D01*
X566000D01*
Y304000D01*
X564000D01*
Y303000D01*
X563000D01*
Y301000D01*
X564000D01*
X564400Y301400D02*
Y300800D01*
X565600D01*
Y301400D01*
X566200D01*
Y302600D01*
X565600D01*
Y303200D01*
X564400D01*
Y302600D01*
X563800D01*
Y301400D01*
X564400D01*
X249600Y389600D02*
Y388600D01*
X251600D01*
Y389600D01*
X252600D01*
Y391600D01*
X251600D01*
Y392600D01*
X249600D01*
Y391600D01*
X248600D01*
Y389600D01*
X249600D01*
X250000Y390000D02*
Y389400D01*
X251200D01*
Y390000D01*
X251800D01*
Y391200D01*
X251200D01*
Y391800D01*
X250000D01*
Y391200D01*
X249400D01*
Y390000D01*
X250000D01*
X730000Y202500D02*
Y201500D01*
X732000D01*
Y202500D01*
X733000D01*
Y204500D01*
X732000D01*
Y205500D01*
X730000D01*
Y204500D01*
X729000D01*
Y202500D01*
X730000D01*
X730400Y202900D02*
Y202300D01*
X731600D01*
Y202900D01*
X732200D01*
Y204100D01*
X731600D01*
Y204700D01*
X730400D01*
Y204100D01*
X729800D01*
Y202900D01*
X730400D01*
X719500Y181498D02*
Y176500D01*
X721999D01*
X722832Y177333D01*
Y180665D01*
X721999Y181498D01*
X719500D01*
X620500Y200500D02*
Y199500D01*
X622500D01*
Y200500D01*
X623500D01*
Y202500D01*
X622500D01*
Y203500D01*
X620500D01*
Y202500D01*
X619500D01*
Y200500D01*
X620500D01*
X620900Y200900D02*
Y200300D01*
X622100D01*
Y200900D01*
X622700D01*
Y202100D01*
X622100D01*
Y202700D01*
X620900D01*
Y202100D01*
X620300D01*
Y200900D01*
X620900D01*
X610000Y179498D02*
Y174500D01*
X612499D01*
X613332Y175333D01*
Y178665D01*
X612499Y179498D01*
X610000D01*
X578000Y129500D02*
Y128500D01*
X580000D01*
Y129500D01*
X581000D01*
Y131500D01*
X580000D01*
Y132500D01*
X578000D01*
Y131500D01*
X577000D01*
Y129500D01*
X578000D01*
X578400Y129900D02*
Y129300D01*
X579600D01*
Y129900D01*
X580200D01*
Y131100D01*
X579600D01*
Y131700D01*
X578400D01*
Y131100D01*
X577800D01*
Y129900D01*
X578400D01*
X663500Y123000D02*
Y122000D01*
X665500D01*
Y123000D01*
X666500D01*
Y125000D01*
X665500D01*
Y126000D01*
X663500D01*
Y125000D01*
X662500D01*
Y123000D01*
X663500D01*
X663900Y123400D02*
Y122800D01*
X665100D01*
Y123400D01*
X665700D01*
Y124600D01*
X665100D01*
Y125200D01*
X663900D01*
Y124600D01*
X663300D01*
Y123400D01*
X663900D01*
X578000Y153500D02*
Y152500D01*
X580000D01*
Y153500D01*
X581000D01*
Y155500D01*
X580000D01*
Y156500D01*
X578000D01*
Y155500D01*
X577000D01*
Y153500D01*
X578000D01*
X578400Y153900D02*
Y153300D01*
X579600D01*
Y153900D01*
X580200D01*
Y155100D01*
X579600D01*
Y155700D01*
X578400D01*
Y155100D01*
X577800D01*
Y153900D01*
X578400D01*
X578000Y141500D02*
Y140500D01*
X580000D01*
Y141500D01*
X581000D01*
Y143500D01*
X580000D01*
Y144500D01*
X578000D01*
Y143500D01*
X577000D01*
Y141500D01*
X578000D01*
X578400Y141900D02*
Y141300D01*
X579600D01*
Y141900D01*
X580200D01*
Y143100D01*
X579600D01*
Y143700D01*
X578400D01*
Y143100D01*
X577800D01*
Y141900D01*
X578400D01*
X320500Y326500D02*
Y325500D01*
X322500D01*
Y326500D01*
X323500D01*
Y328500D01*
X322500D01*
Y329500D01*
X320500D01*
Y328500D01*
X319500D01*
Y326500D01*
X320500D01*
X320900Y326900D02*
Y326300D01*
X322100D01*
Y326900D01*
X322700D01*
Y328100D01*
X322100D01*
Y328700D01*
X320900D01*
Y328100D01*
X320300D01*
Y326900D01*
X320900D01*
X321500Y322000D02*
Y321000D01*
X323500D01*
Y322000D01*
X324500D01*
Y324000D01*
X323500D01*
Y325000D01*
X321500D01*
Y324000D01*
X320500D01*
Y322000D01*
X321500D01*
X321900Y322400D02*
Y321800D01*
X323100D01*
Y322400D01*
X323700D01*
Y323600D01*
X323100D01*
Y324200D01*
X321900D01*
Y323600D01*
X321300D01*
Y322400D01*
X321900D01*
X316000Y322000D02*
Y321000D01*
X318000D01*
Y322000D01*
X319000D01*
Y324000D01*
X318000D01*
Y325000D01*
X316000D01*
Y324000D01*
X315000D01*
Y322000D01*
X316000D01*
X316400Y322400D02*
Y321800D01*
X317600D01*
Y322400D01*
X318200D01*
Y323600D01*
X317600D01*
Y324200D01*
X316400D01*
Y323600D01*
X315800D01*
Y322400D01*
X316400D01*
X226500Y369500D02*
Y372832D01*
X228166Y374498D01*
X229832Y372832D01*
Y369500D01*
Y371999D01*
X226500D01*
X311000Y320000D02*
Y319000D01*
X313000D01*
Y320000D01*
X314000D01*
Y322000D01*
X313000D01*
Y323000D01*
X311000D01*
Y322000D01*
X310000D01*
Y320000D01*
X311000D01*
X311400Y320400D02*
Y319800D01*
X312600D01*
Y320400D01*
X313200D01*
Y321600D01*
X312600D01*
Y322200D01*
X311400D01*
Y321600D01*
X310800D01*
Y320400D01*
X311400D01*
X311000Y314500D02*
Y313500D01*
X313000D01*
Y314500D01*
X314000D01*
Y316500D01*
X313000D01*
Y317500D01*
X311000D01*
Y316500D01*
X310000D01*
Y314500D01*
X311000D01*
X311400Y314900D02*
Y314300D01*
X312600D01*
Y314900D01*
X313200D01*
Y316100D01*
X312600D01*
Y316700D01*
X311400D01*
Y316100D01*
X310800D01*
Y314900D01*
X311400D01*
X306000Y320000D02*
Y319000D01*
X308000D01*
Y320000D01*
X309000D01*
Y322000D01*
X308000D01*
Y323000D01*
X306000D01*
Y322000D01*
X305000D01*
Y320000D01*
X306000D01*
X306400Y320400D02*
Y319800D01*
X307600D01*
Y320400D01*
X308200D01*
Y321600D01*
X307600D01*
Y322200D01*
X306400D01*
Y321600D01*
X305800D01*
Y320400D01*
X306400D01*
X311000Y309500D02*
Y308500D01*
X313000D01*
Y309500D01*
X314000D01*
Y311500D01*
X313000D01*
Y312500D01*
X311000D01*
Y311500D01*
X310000D01*
Y309500D01*
X311000D01*
X311400Y309900D02*
Y309300D01*
X312600D01*
Y309900D01*
X313200D01*
Y311100D01*
X312600D01*
Y311700D01*
X311400D01*
Y311100D01*
X310800D01*
Y309900D01*
X311400D01*
X561000Y342533D02*
Y341533D01*
X563000D01*
Y342533D01*
X564000D01*
Y344533D01*
X563000D01*
Y345533D01*
X561000D01*
Y344533D01*
X560000D01*
Y342533D01*
X561000D01*
X561400Y342933D02*
Y342333D01*
X562600D01*
Y342933D01*
X563200D01*
Y344133D01*
X562600D01*
Y344733D01*
X561400D01*
Y344133D01*
X560800D01*
Y342933D01*
X561400D01*
X567000Y301000D02*
Y300000D01*
X569000D01*
Y301000D01*
X570000D01*
Y303000D01*
X569000D01*
Y304000D01*
X567000D01*
Y303000D01*
X566000D01*
Y301000D01*
X567000D01*
X567400Y301400D02*
Y300800D01*
X568600D01*
Y301400D01*
X569200D01*
Y302600D01*
X568600D01*
Y303200D01*
X567400D01*
Y302600D01*
X566800D01*
Y301400D01*
X567400D01*
X712000Y346000D02*
Y345000D01*
X714000D01*
Y346000D01*
X715000D01*
Y348000D01*
X714000D01*
Y349000D01*
X712000D01*
Y348000D01*
X711000D01*
Y346000D01*
X712000D01*
X712400Y346400D02*
Y345800D01*
X713600D01*
Y346400D01*
X714200D01*
Y347600D01*
X713600D01*
Y348200D01*
X712400D01*
Y347600D01*
X711800D01*
Y346400D01*
X712400D01*
X592500Y317000D02*
Y316000D01*
X594500D01*
Y317000D01*
X595500D01*
Y319000D01*
X594500D01*
Y320000D01*
X592500D01*
Y319000D01*
X591500D01*
Y317000D01*
X592500D01*
X592900Y317400D02*
Y316800D01*
X594100D01*
Y317400D01*
X594700D01*
Y318600D01*
X594100D01*
Y319200D01*
X592900D01*
Y318600D01*
X592300D01*
Y317400D01*
X592900D01*
X654500Y346000D02*
Y345000D01*
X656500D01*
Y346000D01*
X657500D01*
Y348000D01*
X656500D01*
Y349000D01*
X654500D01*
Y348000D01*
X653500D01*
Y346000D01*
X654500D01*
X654900Y346400D02*
Y345800D01*
X656100D01*
Y346400D01*
X656700D01*
Y347600D01*
X656100D01*
Y348200D01*
X654900D01*
Y347600D01*
X654300D01*
Y346400D01*
X654900D01*
X597000Y322000D02*
Y321000D01*
X599000D01*
Y322000D01*
X600000D01*
Y324000D01*
X599000D01*
Y325000D01*
X597000D01*
Y324000D01*
X596000D01*
Y322000D01*
X597000D01*
X597400Y322400D02*
Y321800D01*
X598600D01*
Y322400D01*
X599200D01*
Y323600D01*
X598600D01*
Y324200D01*
X597400D01*
Y323600D01*
X596800D01*
Y322400D01*
X597400D01*
X625500Y214500D02*
Y213500D01*
X627500D01*
Y214500D01*
X628500D01*
Y216500D01*
X627500D01*
Y217500D01*
X625500D01*
Y216500D01*
X624500D01*
Y214500D01*
X625500D01*
X625900Y214900D02*
Y214300D01*
X627100D01*
Y214900D01*
X627700D01*
Y216100D01*
X627100D01*
Y216700D01*
X625900D01*
Y216100D01*
X625300D01*
Y214900D01*
X625900D01*
X628000Y260000D02*
Y259000D01*
X630000D01*
Y260000D01*
X631000D01*
Y262000D01*
X630000D01*
Y263000D01*
X628000D01*
Y262000D01*
X627000D01*
Y260000D01*
X628000D01*
X628400Y260400D02*
Y259800D01*
X629600D01*
Y260400D01*
X630200D01*
Y261600D01*
X629600D01*
Y262200D01*
X628400D01*
Y261600D01*
X627800D01*
Y260400D01*
X628400D01*
X549500Y280000D02*
Y279000D01*
X551500D01*
Y280000D01*
X552500D01*
Y282000D01*
X551500D01*
Y283000D01*
X549500D01*
Y282000D01*
X548500D01*
Y280000D01*
X549500D01*
X549900Y280400D02*
Y279800D01*
X551100D01*
Y280400D01*
X551700D01*
Y281600D01*
X551100D01*
Y282200D01*
X549900D01*
Y281600D01*
X549300D01*
Y280400D01*
X549900D01*
X712700Y258300D02*
Y257300D01*
X714700D01*
Y258300D01*
X715700D01*
Y260300D01*
X714700D01*
Y261300D01*
X712700D01*
Y260300D01*
X711700D01*
Y258300D01*
X712700D01*
X713100Y258700D02*
Y258100D01*
X714300D01*
Y258700D01*
X714900D01*
Y259900D01*
X714300D01*
Y260500D01*
X713100D01*
Y259900D01*
X712500D01*
Y258700D01*
X713100D01*
X357400Y228900D02*
Y227900D01*
X359400D01*
Y228900D01*
X360400D01*
Y230900D01*
X359400D01*
Y231900D01*
X357400D01*
Y230900D01*
X356400D01*
Y228900D01*
X357400D01*
X357800Y229300D02*
Y228700D01*
X359000D01*
Y229300D01*
X359600D01*
Y230500D01*
X359000D01*
Y231100D01*
X357800D01*
Y230500D01*
X357200D01*
Y229300D01*
X357800D01*
X627000Y253500D02*
Y252500D01*
X629000D01*
Y253500D01*
X630000D01*
Y255500D01*
X629000D01*
Y256500D01*
X627000D01*
Y255500D01*
X626000D01*
Y253500D01*
X627000D01*
X627400Y253900D02*
Y253300D01*
X628600D01*
Y253900D01*
X629200D01*
Y255100D01*
X628600D01*
Y255700D01*
X627400D01*
Y255100D01*
X626800D01*
Y253900D01*
X627400D01*
X571500Y255900D02*
Y254900D01*
X573500D01*
Y255900D01*
X574500D01*
Y257900D01*
X573500D01*
Y258900D01*
X571500D01*
Y257900D01*
X570500D01*
Y255900D01*
X571500D01*
X571900Y256300D02*
Y255700D01*
X573100D01*
Y256300D01*
X573700D01*
Y257500D01*
X573100D01*
Y258100D01*
X571900D01*
Y257500D01*
X571300D01*
Y256300D01*
X571900D01*
X504500Y227500D02*
Y226500D01*
X506500D01*
Y227500D01*
X507500D01*
Y229500D01*
X506500D01*
Y230500D01*
X504500D01*
Y229500D01*
X503500D01*
Y227500D01*
X504500D01*
X504900Y227900D02*
Y227300D01*
X506100D01*
Y227900D01*
X506700D01*
Y229100D01*
X506100D01*
Y229700D01*
X504900D01*
Y229100D01*
X504300D01*
Y227900D01*
X504900D01*
X499900Y235500D02*
Y234500D01*
X501900D01*
Y235500D01*
X502900D01*
Y237500D01*
X501900D01*
Y238500D01*
X499900D01*
Y237500D01*
X498900D01*
Y235500D01*
X499900D01*
X500300Y235900D02*
Y235300D01*
X501500D01*
Y235900D01*
X502100D01*
Y237100D01*
X501500D01*
Y237700D01*
X500300D01*
Y237100D01*
X499700D01*
Y235900D01*
X500300D01*
X494000Y231000D02*
Y230000D01*
X496000D01*
Y231000D01*
X497000D01*
Y233000D01*
X496000D01*
Y234000D01*
X494000D01*
Y233000D01*
X493000D01*
Y231000D01*
X494000D01*
X494400Y231400D02*
Y230800D01*
X495600D01*
Y231400D01*
X496200D01*
Y232600D01*
X495600D01*
Y233200D01*
X494400D01*
Y232600D01*
X493800D01*
Y231400D01*
X494400D01*
X490900Y239500D02*
Y238500D01*
X492900D01*
Y239500D01*
X493900D01*
Y241500D01*
X492900D01*
Y242500D01*
X490900D01*
Y241500D01*
X489900D01*
Y239500D01*
X490900D01*
X491300Y239900D02*
Y239300D01*
X492500D01*
Y239900D01*
X493100D01*
Y241100D01*
X492500D01*
Y241700D01*
X491300D01*
Y241100D01*
X490700D01*
Y239900D01*
X491300D01*
X622000Y270500D02*
Y269500D01*
X624000D01*
Y270500D01*
X625000D01*
Y272500D01*
X624000D01*
Y273500D01*
X622000D01*
Y272500D01*
X621000D01*
Y270500D01*
X622000D01*
X622400Y270900D02*
Y270300D01*
X623600D01*
Y270900D01*
X624200D01*
Y272100D01*
X623600D01*
Y272700D01*
X622400D01*
Y272100D01*
X621800D01*
Y270900D01*
X622400D01*
X500500Y273500D02*
Y272500D01*
X502500D01*
Y273500D01*
X503500D01*
Y275500D01*
X502500D01*
Y276500D01*
X500500D01*
Y275500D01*
X499500D01*
Y273500D01*
X500500D01*
X500900Y273900D02*
Y273300D01*
X502100D01*
Y273900D01*
X502700D01*
Y275100D01*
X502100D01*
Y275700D01*
X500900D01*
Y275100D01*
X500300D01*
Y273900D01*
X500900D01*
X588500Y326000D02*
Y325000D01*
X590500D01*
Y326000D01*
X591500D01*
Y328000D01*
X590500D01*
Y329000D01*
X588500D01*
Y328000D01*
X587500D01*
Y326000D01*
X588500D01*
X588900Y326400D02*
Y325800D01*
X590100D01*
Y326400D01*
X590700D01*
Y327600D01*
X590100D01*
Y328200D01*
X588900D01*
Y327600D01*
X588300D01*
Y326400D01*
X588900D01*
X618500Y275000D02*
Y274000D01*
X620500D01*
Y275000D01*
X621500D01*
Y277000D01*
X620500D01*
Y278000D01*
X618500D01*
Y277000D01*
X617500D01*
Y275000D01*
X618500D01*
X618900Y275400D02*
Y274800D01*
X620100D01*
Y275400D01*
X620700D01*
Y276600D01*
X620100D01*
Y277200D01*
X618900D01*
Y276600D01*
X618300D01*
Y275400D01*
X618900D01*
X534500Y273500D02*
Y272500D01*
X536500D01*
Y273500D01*
X537500D01*
Y275500D01*
X536500D01*
Y276500D01*
X534500D01*
Y275500D01*
X533500D01*
Y273500D01*
X534500D01*
X534900Y273900D02*
Y273300D01*
X536100D01*
Y273900D01*
X536700D01*
Y275100D01*
X536100D01*
Y275700D01*
X534900D01*
Y275100D01*
X534300D01*
Y273900D01*
X534900D01*
X665500Y321500D02*
Y320500D01*
X667500D01*
Y321500D01*
X668500D01*
Y323500D01*
X667500D01*
Y324500D01*
X665500D01*
Y323500D01*
X664500D01*
Y321500D01*
X665500D01*
X665900Y321900D02*
Y321300D01*
X667100D01*
Y321900D01*
X667700D01*
Y323100D01*
X667100D01*
Y323700D01*
X665900D01*
Y323100D01*
X665300D01*
Y321900D01*
X665900D01*
X515500Y288500D02*
Y287500D01*
X517500D01*
Y288500D01*
X518500D01*
Y290500D01*
X517500D01*
Y291500D01*
X515500D01*
Y290500D01*
X514500D01*
Y288500D01*
X515500D01*
X515900Y288900D02*
Y288300D01*
X517100D01*
Y288900D01*
X517700D01*
Y290100D01*
X517100D01*
Y290700D01*
X515900D01*
Y290100D01*
X515300D01*
Y288900D01*
X515900D01*
X399500Y187000D02*
Y186000D01*
X401500D01*
Y187000D01*
X402500D01*
Y189000D01*
X401500D01*
Y190000D01*
X399500D01*
Y189000D01*
X398500D01*
Y187000D01*
X399500D01*
X399900Y187400D02*
Y186800D01*
X401100D01*
Y187400D01*
X401700D01*
Y188600D01*
X401100D01*
Y189200D01*
X399900D01*
Y188600D01*
X399300D01*
Y187400D01*
X399900D01*
X317500Y195000D02*
Y194000D01*
X319500D01*
Y195000D01*
X320500D01*
Y197000D01*
X319500D01*
Y198000D01*
X317500D01*
Y197000D01*
X316500D01*
Y195000D01*
X317500D01*
X317900Y195400D02*
Y194800D01*
X319100D01*
Y195400D01*
X319700D01*
Y196600D01*
X319100D01*
Y197200D01*
X317900D01*
Y196600D01*
X317300D01*
Y195400D01*
X317900D01*
X319500Y224000D02*
Y223000D01*
X321500D01*
Y224000D01*
X322500D01*
Y226000D01*
X321500D01*
Y227000D01*
X319500D01*
Y226000D01*
X318500D01*
Y224000D01*
X319500D01*
X319900Y224400D02*
Y223800D01*
X321100D01*
Y224400D01*
X321700D01*
Y225600D01*
X321100D01*
Y226200D01*
X319900D01*
Y225600D01*
X319300D01*
Y224400D01*
X319900D01*
X285000Y217500D02*
Y216500D01*
X287000D01*
Y217500D01*
X288000D01*
Y219500D01*
X287000D01*
Y220500D01*
X285000D01*
Y219500D01*
X284000D01*
Y217500D01*
X285000D01*
X285400Y217900D02*
Y217300D01*
X286600D01*
Y217900D01*
X287200D01*
Y219100D01*
X286600D01*
Y219700D01*
X285400D01*
Y219100D01*
X284800D01*
Y217900D01*
X285400D01*
X290000Y233000D02*
Y232000D01*
X292000D01*
Y233000D01*
X293000D01*
Y235000D01*
X292000D01*
Y236000D01*
X290000D01*
Y235000D01*
X289000D01*
Y233000D01*
X290000D01*
X290400Y233400D02*
Y232800D01*
X291600D01*
Y233400D01*
X292200D01*
Y234600D01*
X291600D01*
Y235200D01*
X290400D01*
Y234600D01*
X289800D01*
Y233400D01*
X290400D01*
X279000Y205500D02*
Y204500D01*
X281000D01*
Y205500D01*
X282000D01*
Y207500D01*
X281000D01*
Y208500D01*
X279000D01*
Y207500D01*
X278000D01*
Y205500D01*
X279000D01*
X279400Y205900D02*
Y205300D01*
X280600D01*
Y205900D01*
X281200D01*
Y207100D01*
X280600D01*
Y207700D01*
X279400D01*
Y207100D01*
X278800D01*
Y205900D01*
X279400D01*
X555000Y276500D02*
Y275500D01*
X557000D01*
Y276500D01*
X558000D01*
Y278500D01*
X557000D01*
Y279500D01*
X555000D01*
Y278500D01*
X554000D01*
Y276500D01*
X555000D01*
X555400Y276900D02*
Y276300D01*
X556600D01*
Y276900D01*
X557200D01*
Y278100D01*
X556600D01*
Y278700D01*
X555400D01*
Y278100D01*
X554800D01*
Y276900D01*
X555400D01*
X565500Y253500D02*
Y252500D01*
X567500D01*
Y253500D01*
X568500D01*
Y255500D01*
X567500D01*
Y256500D01*
X565500D01*
Y255500D01*
X564500D01*
Y253500D01*
X565500D01*
X565900Y253900D02*
Y253300D01*
X567100D01*
Y253900D01*
X567700D01*
Y255100D01*
X567100D01*
Y255700D01*
X565900D01*
Y255100D01*
X565300D01*
Y253900D01*
X565900D01*
X536000Y268147D02*
Y267147D01*
X538000D01*
Y268147D01*
X539000D01*
Y270147D01*
X538000D01*
Y271147D01*
X536000D01*
Y270147D01*
X535000D01*
Y268147D01*
X536000D01*
X536400Y268547D02*
Y267947D01*
X537600D01*
Y268547D01*
X538200D01*
Y269747D01*
X537600D01*
Y270347D01*
X536400D01*
Y269747D01*
X535800D01*
Y268547D01*
X536400D01*
X496000Y251000D02*
Y250000D01*
X498000D01*
Y251000D01*
X499000D01*
Y253000D01*
X498000D01*
Y254000D01*
X496000D01*
Y253000D01*
X495000D01*
Y251000D01*
X496000D01*
X496400Y251400D02*
Y250800D01*
X497600D01*
Y251400D01*
X498200D01*
Y252600D01*
X497600D01*
Y253200D01*
X496400D01*
Y252600D01*
X495800D01*
Y251400D01*
X496400D01*
X504500Y250000D02*
Y249000D01*
X506500D01*
Y250000D01*
X507500D01*
Y252000D01*
X506500D01*
Y253000D01*
X504500D01*
Y252000D01*
X503500D01*
Y250000D01*
X504500D01*
X504900Y250400D02*
Y249800D01*
X506100D01*
Y250400D01*
X506700D01*
Y251600D01*
X506100D01*
Y252200D01*
X504900D01*
Y251600D01*
X504300D01*
Y250400D01*
X504900D01*
X511500Y252500D02*
Y251500D01*
X513500D01*
Y252500D01*
X514500D01*
Y254500D01*
X513500D01*
Y255500D01*
X511500D01*
Y254500D01*
X510500D01*
Y252500D01*
X511500D01*
X511900Y252900D02*
Y252300D01*
X513100D01*
Y252900D01*
X513700D01*
Y254100D01*
X513100D01*
Y254700D01*
X511900D01*
Y254100D01*
X511300D01*
Y252900D01*
X511900D01*
X524000Y230000D02*
Y229000D01*
X526000D01*
Y230000D01*
X527000D01*
Y232000D01*
X526000D01*
Y233000D01*
X524000D01*
Y232000D01*
X523000D01*
Y230000D01*
X524000D01*
X524400Y230400D02*
Y229800D01*
X525600D01*
Y230400D01*
X526200D01*
Y231600D01*
X525600D01*
Y232200D01*
X524400D01*
Y231600D01*
X523800D01*
Y230400D01*
X524400D01*
X521000Y235500D02*
Y234500D01*
X523000D01*
Y235500D01*
X524000D01*
Y237500D01*
X523000D01*
Y238500D01*
X521000D01*
Y237500D01*
X520000D01*
Y235500D01*
X521000D01*
X521400Y235900D02*
Y235300D01*
X522600D01*
Y235900D01*
X523200D01*
Y237100D01*
X522600D01*
Y237700D01*
X521400D01*
Y237100D01*
X520800D01*
Y235900D01*
X521400D01*
X486000Y245000D02*
Y244000D01*
X488000D01*
Y245000D01*
X489000D01*
Y247000D01*
X488000D01*
Y248000D01*
X486000D01*
Y247000D01*
X485000D01*
Y245000D01*
X486000D01*
X486400Y245400D02*
Y244800D01*
X487600D01*
Y245400D01*
X488200D01*
Y246600D01*
X487600D01*
Y247200D01*
X486400D01*
Y246600D01*
X485800D01*
Y245400D01*
X486400D01*
X404000Y216000D02*
Y215000D01*
X406000D01*
Y216000D01*
X407000D01*
Y218000D01*
X406000D01*
Y219000D01*
X404000D01*
Y218000D01*
X403000D01*
Y216000D01*
X404000D01*
X404400Y216400D02*
Y215800D01*
X405600D01*
Y216400D01*
X406200D01*
Y217600D01*
X405600D01*
Y218200D01*
X404400D01*
Y217600D01*
X403800D01*
Y216400D01*
X404400D01*
X403500Y204000D02*
Y203000D01*
X405500D01*
Y204000D01*
X406500D01*
Y206000D01*
X405500D01*
Y207000D01*
X403500D01*
Y206000D01*
X402500D01*
Y204000D01*
X403500D01*
X403900Y204400D02*
Y203800D01*
X405100D01*
Y204400D01*
X405700D01*
Y205600D01*
X405100D01*
Y206200D01*
X403900D01*
Y205600D01*
X403300D01*
Y204400D01*
X403900D01*
X391500Y216500D02*
Y215500D01*
X393500D01*
Y216500D01*
X394500D01*
Y218500D01*
X393500D01*
Y219500D01*
X391500D01*
Y218500D01*
X390500D01*
Y216500D01*
X391500D01*
X391900Y216900D02*
Y216300D01*
X393100D01*
Y216900D01*
X393700D01*
Y218100D01*
X393100D01*
Y218700D01*
X391900D01*
Y218100D01*
X391300D01*
Y216900D01*
X391900D01*
X375000Y216500D02*
Y215500D01*
X377000D01*
Y216500D01*
X378000D01*
Y218500D01*
X377000D01*
Y219500D01*
X375000D01*
Y218500D01*
X374000D01*
Y216500D01*
X375000D01*
X375400Y216900D02*
Y216300D01*
X376600D01*
Y216900D01*
X377200D01*
Y218100D01*
X376600D01*
Y218700D01*
X375400D01*
Y218100D01*
X374800D01*
Y216900D01*
X375400D01*
X292000Y202500D02*
Y201500D01*
X294000D01*
Y202500D01*
X295000D01*
Y204500D01*
X294000D01*
Y205500D01*
X292000D01*
Y204500D01*
X291000D01*
Y202500D01*
X292000D01*
X292400Y202900D02*
Y202300D01*
X293600D01*
Y202900D01*
X294200D01*
Y204100D01*
X293600D01*
Y204700D01*
X292400D01*
Y204100D01*
X291800D01*
Y202900D01*
X292400D01*
X293500Y214000D02*
Y213000D01*
X295500D01*
Y214000D01*
X296500D01*
Y216000D01*
X295500D01*
Y217000D01*
X293500D01*
Y216000D01*
X292500D01*
Y214000D01*
X293500D01*
X293900Y214400D02*
Y213800D01*
X295100D01*
Y214400D01*
X295700D01*
Y215600D01*
X295100D01*
Y216200D01*
X293900D01*
Y215600D01*
X293300D01*
Y214400D01*
X293900D01*
X272000Y214000D02*
Y213000D01*
X274000D01*
Y214000D01*
X275000D01*
Y216000D01*
X274000D01*
Y217000D01*
X272000D01*
Y216000D01*
X271000D01*
Y214000D01*
X272000D01*
X272400Y214400D02*
Y213800D01*
X273600D01*
Y214400D01*
X274200D01*
Y215600D01*
X273600D01*
Y216200D01*
X272400D01*
Y215600D01*
X271800D01*
Y214400D01*
X272400D01*
X279500Y217500D02*
Y216500D01*
X281500D01*
Y217500D01*
X282500D01*
Y219500D01*
X281500D01*
Y220500D01*
X279500D01*
Y219500D01*
X278500D01*
Y217500D01*
X279500D01*
X279900Y217900D02*
Y217300D01*
X281100D01*
Y217900D01*
X281700D01*
Y219100D01*
X281100D01*
Y219700D01*
X279900D01*
Y219100D01*
X279300D01*
Y217900D01*
X279900D01*
X286000Y238500D02*
Y237500D01*
X288000D01*
Y238500D01*
X289000D01*
Y240500D01*
X288000D01*
Y241500D01*
X286000D01*
Y240500D01*
X285000D01*
Y238500D01*
X286000D01*
X286400Y238900D02*
Y238300D01*
X287600D01*
Y238900D01*
X288200D01*
Y240100D01*
X287600D01*
Y240700D01*
X286400D01*
Y240100D01*
X285800D01*
Y238900D01*
X286400D01*
X519500Y211500D02*
Y210500D01*
X521500D01*
Y211500D01*
X522500D01*
Y213500D01*
X521500D01*
Y214500D01*
X519500D01*
Y213500D01*
X518500D01*
Y211500D01*
X519500D01*
X519900Y211900D02*
Y211300D01*
X521100D01*
Y211900D01*
X521700D01*
Y213100D01*
X521100D01*
Y213700D01*
X519900D01*
Y213100D01*
X519300D01*
Y211900D01*
X519900D01*
X530500Y188500D02*
Y187500D01*
X532500D01*
Y188500D01*
X533500D01*
Y190500D01*
X532500D01*
Y191500D01*
X530500D01*
Y190500D01*
X529500D01*
Y188500D01*
X530500D01*
X530900Y188900D02*
Y188300D01*
X532100D01*
Y188900D01*
X532700D01*
Y190100D01*
X532100D01*
Y190700D01*
X530900D01*
Y190100D01*
X530300D01*
Y188900D01*
X530900D01*
X539500Y195000D02*
Y194000D01*
X541500D01*
Y195000D01*
X542500D01*
Y197000D01*
X541500D01*
Y198000D01*
X539500D01*
Y197000D01*
X538500D01*
Y195000D01*
X539500D01*
X539900Y195400D02*
Y194800D01*
X541100D01*
Y195400D01*
X541700D01*
Y196600D01*
X541100D01*
Y197200D01*
X539900D01*
Y196600D01*
X539300D01*
Y195400D01*
X539900D01*
X598500Y289000D02*
Y288000D01*
X600500D01*
Y289000D01*
X601500D01*
Y291000D01*
X600500D01*
Y292000D01*
X598500D01*
Y291000D01*
X597500D01*
Y289000D01*
X598500D01*
X598900Y289400D02*
Y288800D01*
X600100D01*
Y289400D01*
X600700D01*
Y290600D01*
X600100D01*
Y291200D01*
X598900D01*
Y290600D01*
X598300D01*
Y289400D01*
X598900D01*
X609500Y285000D02*
Y284000D01*
X611500D01*
Y285000D01*
X612500D01*
Y287000D01*
X611500D01*
Y288000D01*
X609500D01*
Y287000D01*
X608500D01*
Y285000D01*
X609500D01*
X609900Y285400D02*
Y284800D01*
X611100D01*
Y285400D01*
X611700D01*
Y286600D01*
X611100D01*
Y287200D01*
X609900D01*
Y286600D01*
X609300D01*
Y285400D01*
X609900D01*
X685500Y234000D02*
Y233000D01*
X687500D01*
Y234000D01*
X688500D01*
Y236000D01*
X687500D01*
Y237000D01*
X685500D01*
Y236000D01*
X684500D01*
Y234000D01*
X685500D01*
X685900Y234400D02*
Y233800D01*
X687100D01*
Y234400D01*
X687700D01*
Y235600D01*
X687100D01*
Y236200D01*
X685900D01*
Y235600D01*
X685300D01*
Y234400D01*
X685900D01*
X633000Y273500D02*
Y272500D01*
X635000D01*
Y273500D01*
X636000D01*
Y275500D01*
X635000D01*
Y276500D01*
X633000D01*
Y275500D01*
X632000D01*
Y273500D01*
X633000D01*
X633400Y273900D02*
Y273300D01*
X634600D01*
Y273900D01*
X635200D01*
Y275100D01*
X634600D01*
Y275700D01*
X633400D01*
Y275100D01*
X632800D01*
Y273900D01*
X633400D01*
X590000Y269000D02*
Y268000D01*
X592000D01*
Y269000D01*
X593000D01*
Y271000D01*
X592000D01*
Y272000D01*
X590000D01*
Y271000D01*
X589000D01*
Y269000D01*
X590000D01*
X590400Y269400D02*
Y268800D01*
X591600D01*
Y269400D01*
X592200D01*
Y270600D01*
X591600D01*
Y271200D01*
X590400D01*
Y270600D01*
X589800D01*
Y269400D01*
X590400D01*
X685500Y229000D02*
Y228000D01*
X687500D01*
Y229000D01*
X688500D01*
Y231000D01*
X687500D01*
Y232000D01*
X685500D01*
Y231000D01*
X684500D01*
Y229000D01*
X685500D01*
X685900Y229400D02*
Y228800D01*
X687100D01*
Y229400D01*
X687700D01*
Y230600D01*
X687100D01*
Y231200D01*
X685900D01*
Y230600D01*
X685300D01*
Y229400D01*
X685900D01*
X656000Y258000D02*
Y257000D01*
X658000D01*
Y258000D01*
X659000D01*
Y260000D01*
X658000D01*
Y261000D01*
X656000D01*
Y260000D01*
X655000D01*
Y258000D01*
X656000D01*
X656400Y258400D02*
Y257800D01*
X657600D01*
Y258400D01*
X658200D01*
Y259600D01*
X657600D01*
Y260200D01*
X656400D01*
Y259600D01*
X655800D01*
Y258400D01*
X656400D01*
X632500Y268500D02*
Y267500D01*
X634500D01*
Y268500D01*
X635500D01*
Y270500D01*
X634500D01*
Y271500D01*
X632500D01*
Y270500D01*
X631500D01*
Y268500D01*
X632500D01*
X632900Y268900D02*
Y268300D01*
X634100D01*
Y268900D01*
X634700D01*
Y270100D01*
X634100D01*
Y270700D01*
X632900D01*
Y270100D01*
X632300D01*
Y268900D01*
X632900D01*
X607500Y267500D02*
Y266500D01*
X609500D01*
Y267500D01*
X610500D01*
Y269500D01*
X609500D01*
Y270500D01*
X607500D01*
Y269500D01*
X606500D01*
Y267500D01*
X607500D01*
X607900Y267900D02*
Y267300D01*
X609100D01*
Y267900D01*
X609700D01*
Y269100D01*
X609100D01*
Y269700D01*
X607900D01*
Y269100D01*
X607300D01*
Y267900D01*
X607900D01*
X414500Y366000D02*
Y365000D01*
X416500D01*
Y366000D01*
X417500D01*
Y368000D01*
X416500D01*
Y369000D01*
X414500D01*
Y368000D01*
X413500D01*
Y366000D01*
X414500D01*
X414900Y366400D02*
Y365800D01*
X416100D01*
Y366400D01*
X416700D01*
Y367600D01*
X416100D01*
Y368200D01*
X414900D01*
Y367600D01*
X414300D01*
Y366400D01*
X414900D01*
X627000Y221000D02*
Y220000D01*
X629000D01*
Y221000D01*
X630000D01*
Y223000D01*
X629000D01*
Y224000D01*
X627000D01*
Y223000D01*
X626000D01*
Y221000D01*
X627000D01*
X627400Y221400D02*
Y220800D01*
X628600D01*
Y221400D01*
X629200D01*
Y222600D01*
X628600D01*
Y223200D01*
X627400D01*
Y222600D01*
X626800D01*
Y221400D01*
X627400D01*
X416000Y162500D02*
Y161500D01*
X418000D01*
Y162500D01*
X419000D01*
Y164500D01*
X418000D01*
Y165500D01*
X416000D01*
Y164500D01*
X415000D01*
Y162500D01*
X416000D01*
X416400Y162900D02*
Y162300D01*
X417600D01*
Y162900D01*
X418200D01*
Y164100D01*
X417600D01*
Y164700D01*
X416400D01*
Y164100D01*
X415800D01*
Y162900D01*
X416400D01*
X581000Y255500D02*
Y254500D01*
X583000D01*
Y255500D01*
X584000D01*
Y257500D01*
X583000D01*
Y258500D01*
X581000D01*
Y257500D01*
X580000D01*
Y255500D01*
X581000D01*
X581400Y255900D02*
Y255300D01*
X582600D01*
Y255900D01*
X583200D01*
Y257100D01*
X582600D01*
Y257700D01*
X581400D01*
Y257100D01*
X580800D01*
Y255900D01*
X581400D01*
X391500Y226000D02*
Y225000D01*
X393500D01*
Y226000D01*
X394500D01*
Y228000D01*
X393500D01*
Y229000D01*
X391500D01*
Y228000D01*
X390500D01*
Y226000D01*
X391500D01*
X391900Y226400D02*
Y225800D01*
X393100D01*
Y226400D01*
X393700D01*
Y227600D01*
X393100D01*
Y228200D01*
X391900D01*
Y227600D01*
X391300D01*
Y226400D01*
X391900D01*
X331500Y182500D02*
Y181500D01*
X333500D01*
Y182500D01*
X334500D01*
Y184500D01*
X333500D01*
Y185500D01*
X331500D01*
Y184500D01*
X330500D01*
Y182500D01*
X331500D01*
X331900Y182900D02*
Y182300D01*
X333100D01*
Y182900D01*
X333700D01*
Y184100D01*
X333100D01*
Y184700D01*
X331900D01*
Y184100D01*
X331300D01*
Y182900D01*
X331900D01*
X303500Y160500D02*
Y159500D01*
X305500D01*
Y160500D01*
X306500D01*
Y162500D01*
X305500D01*
Y163500D01*
X303500D01*
Y162500D01*
X302500D01*
Y160500D01*
X303500D01*
X303900Y160900D02*
Y160300D01*
X305100D01*
Y160900D01*
X305700D01*
Y162100D01*
X305100D01*
Y162700D01*
X303900D01*
Y162100D01*
X303300D01*
Y160900D01*
X303900D01*
X320500Y211500D02*
Y210500D01*
X322500D01*
Y211500D01*
X323500D01*
Y213500D01*
X322500D01*
Y214500D01*
X320500D01*
Y213500D01*
X319500D01*
Y211500D01*
X320500D01*
X320900Y211900D02*
Y211300D01*
X322100D01*
Y211900D01*
X322700D01*
Y213100D01*
X322100D01*
Y213700D01*
X320900D01*
Y213100D01*
X320300D01*
Y211900D01*
X320900D01*
X313500Y224500D02*
Y223500D01*
X315500D01*
Y224500D01*
X316500D01*
Y226500D01*
X315500D01*
Y227500D01*
X313500D01*
Y226500D01*
X312500D01*
Y224500D01*
X313500D01*
X313900Y224900D02*
Y224300D01*
X315100D01*
Y224900D01*
X315700D01*
Y226100D01*
X315100D01*
Y226700D01*
X313900D01*
Y226100D01*
X313300D01*
Y224900D01*
X313900D01*
X288000Y185500D02*
Y184500D01*
X290000D01*
Y185500D01*
X291000D01*
Y187500D01*
X290000D01*
Y188500D01*
X288000D01*
Y187500D01*
X287000D01*
Y185500D01*
X288000D01*
X288400Y185900D02*
Y185300D01*
X289600D01*
Y185900D01*
X290200D01*
Y187100D01*
X289600D01*
Y187700D01*
X288400D01*
Y187100D01*
X287800D01*
Y185900D01*
X288400D01*
X275000Y158000D02*
Y157000D01*
X277000D01*
Y158000D01*
X278000D01*
Y160000D01*
X277000D01*
Y161000D01*
X275000D01*
Y160000D01*
X274000D01*
Y158000D01*
X275000D01*
X275400Y158400D02*
Y157800D01*
X276600D01*
Y158400D01*
X277200D01*
Y159600D01*
X276600D01*
Y160200D01*
X275400D01*
Y159600D01*
X274800D01*
Y158400D01*
X275400D01*
X350500Y211500D02*
Y210500D01*
X352500D01*
Y211500D01*
X353500D01*
Y213500D01*
X352500D01*
Y214500D01*
X350500D01*
Y213500D01*
X349500D01*
Y211500D01*
X350500D01*
X350900Y211900D02*
Y211300D01*
X352100D01*
Y211900D01*
X352700D01*
Y213100D01*
X352100D01*
Y213700D01*
X350900D01*
Y213100D01*
X350300D01*
Y211900D01*
X350900D01*
X509500Y348500D02*
Y347500D01*
X511500D01*
Y348500D01*
X512500D01*
Y350500D01*
X511500D01*
Y351500D01*
X509500D01*
Y350500D01*
X508500D01*
Y348500D01*
X509500D01*
X509900Y348900D02*
Y348300D01*
X511100D01*
Y348900D01*
X511700D01*
Y350100D01*
X511100D01*
Y350700D01*
X509900D01*
Y350100D01*
X509300D01*
Y348900D01*
X509900D01*
X522500Y323500D02*
Y322500D01*
X524500D01*
Y323500D01*
X525500D01*
Y325500D01*
X524500D01*
Y326500D01*
X522500D01*
Y325500D01*
X521500D01*
Y323500D01*
X522500D01*
X522900Y323900D02*
Y323300D01*
X524100D01*
Y323900D01*
X524700D01*
Y325100D01*
X524100D01*
Y325700D01*
X522900D01*
Y325100D01*
X522300D01*
Y323900D01*
X522900D01*
X551000Y347500D02*
Y346500D01*
X553000D01*
Y347500D01*
X554000D01*
Y349500D01*
X553000D01*
Y350500D01*
X551000D01*
Y349500D01*
X550000D01*
Y347500D01*
X551000D01*
X551400Y347900D02*
Y347300D01*
X552600D01*
Y347900D01*
X553200D01*
Y349100D01*
X552600D01*
Y349700D01*
X551400D01*
Y349100D01*
X550800D01*
Y347900D01*
X551400D01*
X527000Y323000D02*
Y322000D01*
X529000D01*
Y323000D01*
X530000D01*
Y325000D01*
X529000D01*
Y326000D01*
X527000D01*
Y325000D01*
X526000D01*
Y323000D01*
X527000D01*
X527400Y323400D02*
Y322800D01*
X528600D01*
Y323400D01*
X529200D01*
Y324600D01*
X528600D01*
Y325200D01*
X527400D01*
Y324600D01*
X526800D01*
Y323400D01*
X527400D01*
X603500Y347500D02*
Y346500D01*
X605500D01*
Y347500D01*
X606500D01*
Y349500D01*
X605500D01*
Y350500D01*
X603500D01*
Y349500D01*
X602500D01*
Y347500D01*
X603500D01*
X603900Y347900D02*
Y347300D01*
X605100D01*
Y347900D01*
X605700D01*
Y349100D01*
X605100D01*
Y349700D01*
X603900D01*
Y349100D01*
X603300D01*
Y347900D01*
X603900D01*
X386000Y160000D02*
Y159000D01*
X388000D01*
Y160000D01*
X389000D01*
Y162000D01*
X388000D01*
Y163000D01*
X386000D01*
Y162000D01*
X385000D01*
Y160000D01*
X386000D01*
X386400Y160400D02*
Y159800D01*
X387600D01*
Y160400D01*
X388200D01*
Y161600D01*
X387600D01*
Y162200D01*
X386400D01*
Y161600D01*
X385800D01*
Y160400D01*
X386400D01*
X635500Y201500D02*
Y200500D01*
X637500D01*
Y201500D01*
X638500D01*
Y203500D01*
X637500D01*
Y204500D01*
X635500D01*
Y203500D01*
X634500D01*
Y201500D01*
X635500D01*
X635900Y201900D02*
Y201300D01*
X637100D01*
Y201900D01*
X637700D01*
Y203100D01*
X637100D01*
Y203700D01*
X635900D01*
Y203100D01*
X635300D01*
Y201900D01*
X635900D01*
X745000Y210000D02*
Y209000D01*
X747000D01*
Y210000D01*
X748000D01*
Y212000D01*
X747000D01*
Y213000D01*
X745000D01*
Y212000D01*
X744000D01*
Y210000D01*
X745000D01*
X745400Y210400D02*
Y209800D01*
X746600D01*
Y210400D01*
X747200D01*
Y211600D01*
X746600D01*
Y212200D01*
X745400D01*
Y211600D01*
X744800D01*
Y210400D01*
X745400D01*
X112500Y112000D02*
X113500D01*
X114500Y113000D01*
X115500Y112000D01*
X116500D01*
Y113000D01*
X115500Y114000D01*
X116500Y115000D01*
Y116000D01*
X115500D01*
X114500Y115000D01*
X113500Y116000D01*
X112500D01*
Y115000D01*
X113500Y114000D01*
X112500Y113000D01*
Y112000D01*
X113300Y112800D02*
X113900D01*
X114500Y113400D01*
X115100Y112800D01*
X115700D01*
Y113400D01*
X115100Y114000D01*
X115700Y114600D01*
Y115200D01*
X115100D01*
X114500Y114600D01*
X113900Y115200D01*
X113300D01*
Y114600D01*
X113900Y114000D01*
X113300Y113400D01*
Y112800D01*
X783500Y112000D02*
X784500D01*
X785500Y113000D01*
X786500Y112000D01*
X787500D01*
Y113000D01*
X786500Y114000D01*
X787500Y115000D01*
Y116000D01*
X786500D01*
X785500Y115000D01*
X784500Y116000D01*
X783500D01*
Y115000D01*
X784500Y114000D01*
X783500Y113000D01*
Y112000D01*
X784300Y112800D02*
X784900D01*
X785500Y113400D01*
X786100Y112800D01*
X786700D01*
Y113400D01*
X786100Y114000D01*
X786700Y114600D01*
Y115200D01*
X786100D01*
X785500Y114600D01*
X784900Y115200D01*
X784300D01*
Y114600D01*
X784900Y114000D01*
X784300Y113400D01*
Y112800D01*
X783500Y414500D02*
X784500D01*
X785500Y415500D01*
X786500Y414500D01*
X787500D01*
Y415500D01*
X786500Y416500D01*
X787500Y417500D01*
Y418500D01*
X786500D01*
X785500Y417500D01*
X784500Y418500D01*
X783500D01*
Y417500D01*
X784500Y416500D01*
X783500Y415500D01*
Y414500D01*
X784300Y415300D02*
X784900D01*
X785500Y415900D01*
X786100Y415300D01*
X786700D01*
Y415900D01*
X786100Y416500D01*
X786700Y417100D01*
Y417700D01*
X786100D01*
X785500Y417100D01*
X784900Y417700D01*
X784300D01*
Y417100D01*
X784900Y416500D01*
X784300Y415900D01*
Y415300D01*
X112500Y414500D02*
X113500D01*
X114500Y415500D01*
X115500Y414500D01*
X116500D01*
Y415500D01*
X115500Y416500D01*
X116500Y417500D01*
Y418500D01*
X115500D01*
X114500Y417500D01*
X113500Y418500D01*
X112500D01*
Y417500D01*
X113500Y416500D01*
X112500Y415500D01*
Y414500D01*
X113300Y415300D02*
X113900D01*
X114500Y415900D01*
X115100Y415300D01*
X115700D01*
Y415900D01*
X115100Y416500D01*
X115700Y417100D01*
Y417700D01*
X115100D01*
X114500Y417100D01*
X113900Y417700D01*
X113300D01*
Y417100D01*
X113900Y416500D01*
X113300Y415900D01*
Y415300D01*
D18*
X541228Y119500D02*
G03*
X541228Y119500I-1200J0D01*
G01*
X482172D02*
G03*
X482172Y119500I-1200J0D01*
G01*
X655228Y119000D02*
G03*
X655228Y119000I-1200J0D01*
G01*
X596172D02*
G03*
X596172Y119000I-1200J0D01*
G01*
X702645D02*
G03*
X702645Y119000I-1200J0D01*
G01*
X761700D02*
G03*
X761700Y119000I-1200J0D01*
G01*
X369645Y119500D02*
G03*
X369645Y119500I-1200J0D01*
G01*
X428700D02*
G03*
X428700Y119500I-1200J0D01*
G01*
X257659D02*
G03*
X257659Y119500I-1200J0D01*
G01*
X316714D02*
G03*
X316714Y119500I-1200J0D01*
G01*
X145672D02*
G03*
X145672Y119500I-1200J0D01*
G01*
X204728D02*
G03*
X204728Y119500I-1200J0D01*
G01*
D191*
X133063Y321700D02*
G03*
X133063Y321700I-2000J0D01*
G01*
X469961Y384500D02*
G03*
X469961Y384500I-2000J0D01*
G01*
X542028Y119500D02*
G03*
X542028Y119500I-2000J0D01*
G01*
X482972D02*
G03*
X482972Y119500I-2000J0D01*
G01*
X140937Y321700D02*
G03*
X140937Y321700I-2000J0D01*
G01*
X440039Y384500D02*
G03*
X440039Y384500I-2000J0D01*
G01*
X656028Y119000D02*
G03*
X656028Y119000I-2000J0D01*
G01*
X596972D02*
G03*
X596972Y119000I-2000J0D01*
G01*
X703445D02*
G03*
X703445Y119000I-2000J0D01*
G01*
X762500D02*
G03*
X762500Y119000I-2000J0D01*
G01*
X370445Y119500D02*
G03*
X370445Y119500I-2000J0D01*
G01*
X429500D02*
G03*
X429500Y119500I-2000J0D01*
G01*
X258459D02*
G03*
X258459Y119500I-2000J0D01*
G01*
X317514D02*
G03*
X317514Y119500I-2000J0D01*
G01*
X146472D02*
G03*
X146472Y119500I-2000J0D01*
G01*
X205528D02*
G03*
X205528Y119500I-2000J0D01*
G01*
M02*
