<svg version="1.1" viewBox="0.0 0.0 959.490813648294 506.29396325459317" fill="none" stroke="none" stroke-linecap="square" stroke-miterlimit="10" xmlns:xlink="http://www.w3.org/1999/xlink" xmlns="http://www.w3.org/2000/svg"><clipPath id="p.0"><path d="m0 0l959.4908 0l0 506.29398l-959.4908 0l0 -506.29398z" clip-rule="nonzero"/></clipPath><g clip-path="url(#p.0)"><path fill="#000000" fill-opacity="0.0" d="m0 0l959.4908 0l0 506.29398l-959.4908 0z" fill-rule="evenodd"/><path fill="#000000" fill-opacity="0.0" d="m12.377953 9.175853l935.24414 0l0 479.62207l-935.24414 0z" fill-rule="evenodd"/><path stroke="#000000" stroke-width="4.0" stroke-linejoin="round" stroke-linecap="butt" d="m12.377953 9.175853l935.24414 0l0 479.62207l-935.24414 0z" fill-rule="evenodd"/><path fill="#ff0000" d="m47.089237 38.677166l192.0 0l0 192.0l-192.0 0z" fill-rule="evenodd"/><path stroke="#000000" stroke-width="3.0" stroke-linejoin="round" stroke-linecap="butt" d="m47.089237 38.677166l192.0 0l0 192.0l-192.0 0z" fill-rule="evenodd"/><path fill="#1155cc" d="m463.6964 230.67717l-159.99936 0l-32.00064 -32.00064l0 -159.99936l192.0 0z" fill-rule="evenodd"/><path stroke="#000000" stroke-width="3.0" stroke-linejoin="round" stroke-linecap="butt" d="m463.6964 230.67717l-159.99936 0l-32.00064 -32.00064l0 -159.99936l192.0 0z" fill-rule="evenodd"/><path fill="#ffd966" d="m496.3036 230.67717l159.99933 0l32.00067 -32.00064l0 -159.99936l-192.0 0z" fill-rule="evenodd"/><path stroke="#000000" stroke-width="3.0" stroke-linejoin="round" stroke-linecap="butt" d="m496.3036 230.67717l159.99933 0l32.00067 -32.00064l0 -159.99936l-192.0 0z" fill-rule="evenodd"/><path fill="#666666" d="m912.91077 230.67717l-159.99939 0l-32.00061 -32.00064l0 -159.99936l192.0 0z" fill-rule="evenodd"/><path stroke="#000000" stroke-width="3.0" stroke-linejoin="round" stroke-linecap="butt" d="m912.91077 230.67717l-159.99939 0l-32.00061 -32.00064l0 -159.99936l192.0 0z" fill-rule="evenodd"/><path fill="#ff0000" d="m47.089237 459.73358l159.99936 0l32.00064 -32.00064l0 -159.99936l-192.0 0z" fill-rule="evenodd"/><path stroke="#000000" stroke-width="3.0" stroke-linejoin="round" stroke-linecap="butt" d="m47.089237 459.73358l159.99936 0l32.00064 -32.00064l0 -159.99936l-192.0 0z" fill-rule="evenodd"/><path fill="#6d9eeb" d="m463.6964 459.73358l-159.99936 0l-32.00064 -32.00064l0 -159.99936l192.0 0z" fill-rule="evenodd"/><path stroke="#000000" stroke-width="3.0" stroke-linejoin="round" stroke-linecap="butt" d="m463.6964 459.73358l-159.99936 0l-32.00064 -32.00064l0 -159.99936l192.0 0z" fill-rule="evenodd"/><path fill="#bf9000" d="m496.3036 459.73358l159.99933 0l32.00067 -32.00064l0 -159.99936l-192.0 0z" fill-rule="evenodd"/><path stroke="#000000" stroke-width="3.0" stroke-linejoin="round" stroke-linecap="butt" d="m496.3036 459.73358l159.99933 0l32.00067 -32.00064l0 -159.99936l-192.0 0z" fill-rule="evenodd"/><path fill="#666666" d="m912.91077 459.73358l-159.99939 0l-32.00061 -32.00064l0 -159.99936l192.0 0z" fill-rule="evenodd"/><path stroke="#000000" stroke-width="3.0" stroke-linejoin="round" stroke-linecap="butt" d="m912.91077 459.73358l-159.99939 0l-32.00061 -32.00064l0 -159.99936l192.0 0z" fill-rule="evenodd"/><path fill="#000000" fill-opacity="0.0" d="m59.217846 48.509186l170.4252 0l0 158.3622l-170.4252 0z" fill-rule="evenodd"/><path fill="#000000" d="m84.3741 112.54918l-15.90625 -41.03125l5.875 0l10.671875 29.8125q1.28125 3.578125 2.15625 6.71875q0.953125 -3.359375 2.203125 -6.71875l11.09375 -29.8125l5.546875 0l-16.078125 41.03125l-5.5625 0zm26.503036 0l0 -41.03125l14.140625 0q4.78125 0 7.296875 0.578125q3.53125 0.8125 6.03125 2.9375q3.234375 2.75 4.84375 7.015625q1.609375 4.265625 1.609375 9.75q0 4.6875 -1.09375 8.296875q-1.078125 3.609375 -2.796875 5.984375q-1.703125 2.359375 -3.734375 3.71875q-2.03125 1.34375 -4.90625 2.046875q-2.859375 0.703125 -6.578125 0.703125l-14.8125 0zm5.4375 -4.84375l8.75 0q4.0625 0 6.375 -0.75q2.3125 -0.765625 3.6875 -2.125q1.921875 -1.9375 3.0 -5.1875q1.078125 -3.265625 1.078125 -7.921875q0 -6.4375 -2.109375 -9.890625q-2.109375 -3.453125 -5.140625 -4.640625q-2.1875 -0.828125 -7.03125 -0.828125l-8.609375 0l0 31.34375zm35.963043 4.84375l0 -41.03125l14.140625 0q4.78125 0 7.296875 0.578125q3.53125 0.8125 6.03125 2.9375q3.234375 2.75 4.84375 7.015625q1.609375 4.265625 1.609375 9.75q0 4.6875 -1.09375 8.296875q-1.078125 3.609375 -2.796875 5.984375q-1.703125 2.359375 -3.734375 3.71875q-2.03125 1.34375 -4.90625 2.046875q-2.859375 0.703125 -6.578125 0.703125l-14.8125 0zm5.4375 -4.84375l8.75 0q4.0625 0 6.375 -0.75q2.3125 -0.765625 3.6875 -2.125q1.921875 -1.9375 3.0 -5.1875q1.078125 -3.265625 1.078125 -7.921875q0 -6.4375 -2.109375 -9.890625q-2.109375 -3.453125 -5.140625 -4.640625q-2.1875 -0.828125 -7.03125 -0.828125l-8.609375 0l0 31.34375z" fill-rule="nonzero"/><path fill="#000000" d="m81.6241 193.41167q-4.171875 -5.265625 -7.0625 -12.3125q-2.875 -7.0625 -2.875 -14.609375q0 -6.671875 2.15625 -12.765625q2.515625 -7.078125 7.78125 -14.109375l3.609375 0q-3.390625 5.828125 -4.46875 8.3125q-1.71875 3.859375 -2.6875 8.0625q-1.203125 5.234375 -1.203125 10.53125q0 13.453125 8.359375 26.890625l-3.609375 0zm24.215714 -12.0625l0 -9.828125l-17.796875 0l0 -4.609375l18.71875 -26.59375l4.109375 0l0 26.59375l5.546875 0l0 4.609375l-5.546875 0l0 9.828125l-5.03125 0zm0 -14.4375l0 -18.515625l-12.84375 18.515625l12.84375 0zm23.492554 -7.8125q-3.140625 -1.15625 -4.65625 -3.28125q-1.515625 -2.125 -1.515625 -5.09375q0 -4.484375 3.21875 -7.53125q3.21875 -3.046875 8.578125 -3.046875q5.375 0 8.640625 3.125q3.28125 3.109375 3.28125 7.59375q0 2.859375 -1.5 4.96875q-1.5 2.109375 -4.546875 3.265625q3.78125 1.234375 5.75 3.984375q1.96875 2.734375 1.96875 6.53125q0 5.265625 -3.71875 8.859375q-3.71875 3.578125 -9.796875 3.578125q-6.078125 0 -9.796875 -3.59375q-3.71875 -3.609375 -3.71875 -8.984375q0 -4.0 2.015625 -6.703125q2.03125 -2.703125 5.796875 -3.671875zm-1.015625 -8.546875q0 2.921875 1.875 4.765625q1.875 1.84375 4.875 1.84375q2.90625 0 4.765625 -1.828125q1.859375 -1.84375 1.859375 -4.5q0 -2.765625 -1.921875 -4.65625q-1.90625 -1.890625 -4.765625 -1.890625q-2.875 0 -4.78125 1.859375q-1.90625 1.84375 -1.90625 4.40625zm-1.625 18.953125q0 2.15625 1.015625 4.171875q1.03125 2.015625 3.046875 3.125q2.015625 1.109375 4.34375 1.109375q3.609375 0 5.953125 -2.328125q2.359375 -2.328125 2.359375 -5.90625q0 -3.640625 -2.421875 -6.015625q-2.421875 -2.390625 -6.0625 -2.390625q-3.5625 0 -5.90625 2.359375q-2.328125 2.34375 -2.328125 5.875zm40.53943 11.84375l-15.90625 -41.03125l5.875 0l10.671875 29.8125q1.28125 3.578125 2.15625 6.71875q0.953125 -3.359375 2.203125 -6.71875l11.09375 -29.8125l5.546875 0l-16.078125 41.03125l-5.5625 0zm29.159286 12.0625l-3.609375 0q8.375 -13.4375 8.375 -26.890625q0 -5.265625 -1.203125 -10.453125q-0.953125 -4.1875 -2.65625 -8.0625q-1.09375 -2.515625 -4.515625 -8.390625l3.609375 0q5.265625 7.03125 7.78125 14.109375q2.15625 6.09375 2.15625 12.765625q0 7.546875 -2.90625 14.609375q-2.890625 7.046875 -7.03125 12.3125z" fill-rule="nonzero"/><path fill="#000000" fill-opacity="0.0" d="m57.87664 280.8189l170.4252 0l0 158.36218l-170.4252 0z" fill-rule="evenodd"/><path fill="#000000" d="m83.03289 344.8589l-15.90625 -41.03125l5.875 0l10.671875 29.8125q1.28125 3.578125 2.15625 6.71875q0.953125 -3.359375 2.203125 -6.71875l11.09375 -29.8125l5.546875 0l-16.078125 41.03125l-5.5625 0zm26.503036 0l0 -41.03125l14.140625 0q4.7812576 0 7.2968826 0.578125q3.53125 0.8125 6.03125 2.9375q3.234375 2.75 4.84375 7.015625q1.609375 4.265625 1.609375 9.75q0 4.6875 -1.09375 8.296875q-1.078125 3.609375 -2.796875 5.984375q-1.703125 2.359375 -3.734375 3.71875q-2.03125 1.34375 -4.90625 2.046875q-2.859375 0.703125 -6.5781326 0.703125l-14.8125 0zm5.4375 -4.84375l8.75 0q4.0625 0 6.3750076 -0.75q2.3125 -0.765625 3.6875 -2.125q1.921875 -1.9375 3.0 -5.1875q1.078125 -3.265625 1.078125 -7.921875q0 -6.4375 -2.109375 -9.890625q-2.109375 -3.453125 -5.140625 -4.640625q-2.1875 -0.828125 -7.0312576 -0.828125l-8.609375 0l0 31.34375zm35.96305 4.84375l0 -41.03125l14.140625 0q4.78125 0 7.296875 0.578125q3.53125 0.8125 6.03125 2.9375q3.234375 2.75 4.84375 7.015625q1.609375 4.265625 1.609375 9.75q0 4.6875 -1.09375 8.296875q-1.078125 3.609375 -2.796875 5.984375q-1.703125 2.359375 -3.734375 3.71875q-2.03125 1.34375 -4.90625 2.046875q-2.859375 0.703125 -6.578125 0.703125l-14.8125 0zm5.4375 -4.84375l8.75 0q4.0625 0 6.375 -0.75q2.3125 -0.765625 3.6875 -2.125q1.921875 -1.9375 3.0 -5.1875q1.078125 -3.265625 1.078125 -7.921875q0 -6.4375 -2.109375 -9.890625q-2.109375 -3.453125 -5.140625 -4.640625q-2.1875 -0.828125 -7.03125 -0.828125l-8.609375 0l0 31.34375z" fill-rule="nonzero"/><path fill="#000000" d="m80.28289 425.72137q-4.171875 -5.265625 -7.0625 -12.3125q-2.875 -7.0625 -2.875 -14.609375q0 -6.671875 2.15625 -12.765625q2.515625 -7.078125 7.78125 -14.109375l3.609375 0q-3.390625 5.828125 -4.46875 8.3125q-1.71875 3.859375 -2.6875 8.0625q-1.203125 5.234375 -1.203125 10.53125q0 13.453125 8.359375 26.890625l-3.609375 0zm24.215714 -12.0625l0 -9.828125l-17.796875 0l0 -4.609375l18.71875 -26.59375l4.109375 0l0 26.59375l5.546875 0l0 4.609375l-5.546875 0l0 9.828125l-5.03125 0zm0 -14.4375l0 -18.515625l-12.84375 18.515625l12.84375 0zm23.492554 -7.8125q-3.140625 -1.15625 -4.65625 -3.28125q-1.515625 -2.125 -1.515625 -5.09375q0 -4.484375 3.21875 -7.53125q3.2187576 -3.046875 8.578133 -3.046875q5.375 0 8.640625 3.125q3.28125 3.109375 3.28125 7.59375q0 2.859375 -1.5 4.96875q-1.5 2.109375 -4.546875 3.265625q3.78125 1.234375 5.75 3.984375q1.96875 2.734375 1.96875 6.53125q0 5.265625 -3.71875 8.859375q-3.71875 3.578125 -9.796875 3.578125q-6.0781326 0 -9.796883 -3.59375q-3.71875 -3.609375 -3.71875 -8.984375q0 -4.0 2.015625 -6.703125q2.03125 -2.703125 5.796875 -3.671875zm-1.015625 -8.546875q0 2.921875 1.8750076 4.765625q1.875 1.84375 4.875 1.84375q2.90625 0 4.765625 -1.828125q1.859375 -1.84375 1.859375 -4.5q0 -2.765625 -1.921875 -4.65625q-1.90625 -1.890625 -4.765625 -1.890625q-2.875 0 -4.78125 1.859375q-1.9062576 1.84375 -1.9062576 4.40625zm-1.625 18.953125q0 2.15625 1.015625 4.171875q1.03125 2.015625 3.0468826 3.125q2.015625 1.109375 4.34375 1.109375q3.609375 0 5.953125 -2.328125q2.359375 -2.328125 2.359375 -5.90625q0 -3.640625 -2.421875 -6.015625q-2.421875 -2.390625 -6.0625 -2.390625q-3.5625 0 -5.9062576 2.359375q-2.328125 2.34375 -2.328125 5.875zm40.539436 11.84375l-15.90625 -41.03125l5.875 0l10.671875 29.8125q1.28125 3.578125 2.15625 6.71875q0.953125 -3.359375 2.203125 -6.71875l11.09375 -29.8125l5.546875 0l-16.078125 41.03125l-5.5625 0zm29.159286 12.0625l-3.609375 0q8.375 -13.4375 8.375 -26.890625q0 -5.265625 -1.203125 -10.453125q-0.953125 -4.1875 -2.65625 -8.0625q-1.09375 -2.515625 -4.515625 -8.390625l3.609375 0q5.265625 7.03125 7.78125 14.109375q2.15625 6.09375 2.15625 12.765625q0 7.546875 -2.90625 14.609375q-2.890625 7.046875 -7.03125 12.3125z" fill-rule="nonzero"/><path fill="#000000" fill-opacity="0.0" d="m731.69684 90.23622l170.42523 0l0 88.88188l-170.42523 0z" fill-rule="evenodd"/><path fill="#000000" d="m776.8381 138.18246l0 -4.8125l17.390625 -0.03125l0 15.234375q-4.015625 3.1875 -8.265625 4.796875q-4.25 1.609375 -8.734375 1.609375q-6.046875 0 -10.984375 -2.59375q-4.9375 -2.59375 -7.46875 -7.484375q-2.515625 -4.90625 -2.515625 -10.953125q0 -5.984375 2.5 -11.171875q2.515625 -5.203125 7.21875 -7.71875q4.703125 -2.515625 10.828125 -2.515625q4.453125 0 8.046875 1.4375q3.609375 1.4375 5.640625 4.015625q2.046875 2.578125 3.109375 6.71875l-4.890625 1.34375q-0.921875 -3.125 -2.296875 -4.921875q-1.375 -1.796875 -3.921875 -2.875q-2.546875 -1.078125 -5.65625 -1.078125q-3.71875 0 -6.4375 1.140625q-2.71875 1.125 -4.390625 2.984375q-1.65625 1.84375 -2.578125 4.046875q-1.5625 3.8125 -1.5625 8.265625q0 5.484375 1.875 9.1875q1.890625 3.6875 5.5 5.484375q3.625 1.78125 7.671875 1.78125q3.53125 0 6.890625 -1.359375q3.359375 -1.359375 5.09375 -2.890625l0 -7.640625l-12.0625 0zm25.32605 16.09375l0 -41.03125l5.578125 0l21.546875 32.21875l0 -32.21875l5.21875 0l0 41.03125l-5.578125 0l-21.546875 -32.25l0 32.25l-5.21875 0zm41.463013 0l0 -41.03125l14.140625 0q4.78125 0 7.296875 0.578125q3.53125 0.8125 6.03125 2.9375q3.234375 2.75 4.84375 7.015625q1.609375 4.265625 1.609375 9.75q0 4.6875 -1.09375 8.296875q-1.078125 3.609375 -2.796875 5.984375q-1.703125 2.359375 -3.734375 3.71875q-2.03125 1.34375 -4.90625 2.046875q-2.859375 0.703125 -6.578125 0.703125l-14.8125 0zm5.4375 -4.84375l8.75 0q4.0625 0 6.375 -0.75q2.3125 -0.765625 3.6875 -2.125q1.921875 -1.9375 3.0 -5.1875q1.078125 -3.265625 1.078125 -7.921875q0 -6.4375 -2.109375 -9.890625q-2.109375 -3.453125 -5.140625 -4.640625q-2.1875 -0.828125 -7.03125 -0.828125l-8.609375 0l0 31.34375z" fill-rule="nonzero"/><path fill="#000000" fill-opacity="0.0" d="m731.0276 317.18915l170.42517 0l0 88.8819l-170.42517 0z" fill-rule="evenodd"/><path fill="#000000" d="m776.16876 365.1354l0 -4.8125l17.390625 -0.03125l0 15.234375q-4.015625 3.1875 -8.265625 4.796875q-4.25 1.609375 -8.734375 1.609375q-6.046875 0 -10.984375 -2.59375q-4.9375 -2.59375 -7.46875 -7.484375q-2.515625 -4.90625 -2.515625 -10.953125q0 -5.984375 2.5 -11.171875q2.515625 -5.203125 7.21875 -7.71875q4.703125 -2.515625 10.828125 -2.515625q4.453125 0 8.046875 1.4375q3.609375 1.4375 5.640625 4.015625q2.046875 2.578125 3.109375 6.71875l-4.890625 1.34375q-0.921875 -3.125 -2.296875 -4.921875q-1.375 -1.796875 -3.921875 -2.875q-2.546875 -1.078125 -5.65625 -1.078125q-3.71875 0 -6.4375 1.140625q-2.71875 1.125 -4.390625 2.984375q-1.65625 1.84375 -2.578125 4.046875q-1.5625 3.8125 -1.5625 8.265625q0 5.484375 1.875 9.1875q1.890625 3.6875 5.5 5.484375q3.625 1.78125 7.671875 1.78125q3.53125 0 6.890625 -1.359375q3.359375 -1.359375 5.09375 -2.890625l0 -7.640625l-12.0625 0zm25.32605 16.09375l0 -41.03125l5.578125 0l21.546875 32.21875l0 -32.21875l5.21875 0l0 41.03125l-5.578125 0l-21.546875 -32.25l0 32.25l-5.21875 0zm41.463074 0l0 -41.03125l14.140625 0q4.78125 0 7.296875 0.578125q3.53125 0.8125 6.03125 2.9375q3.234375 2.75 4.84375 7.015625q1.609375 4.265625 1.609375 9.75q0 4.6875 -1.09375 8.296875q-1.078125 3.609375 -2.796875 5.984375q-1.703125 2.359375 -3.734375 3.71875q-2.03125 1.34375 -4.90625 2.046875q-2.859375 0.703125 -6.578125 0.703125l-14.8125 0zm5.4375 -4.84375l8.75 0q4.0625 0 6.375 -0.75q2.3125 -0.765625 3.6875 -2.125q1.921875 -1.9375 3.0 -5.1875q1.078125 -3.265625 1.078125 -7.921875q0 -6.4375 -2.109375 -9.890625q-2.109375 -3.453125 -5.140625 -4.640625q-2.1875 -0.828125 -7.03125 -0.828125l-8.609375 0l0 31.34375z" fill-rule="nonzero"/><path fill="#000000" fill-opacity="0.0" d="m282.48425 83.249344l170.4252 0l0 88.8819l-170.4252 0z" fill-rule="evenodd"/><path fill="#000000" d="m315.63852 147.28934l0 -41.03125l18.203125 0q5.484375 0 8.34375 1.109375q2.859375 1.09375 4.5625 3.890625q1.703125 2.796875 1.703125 6.1875q0 4.375 -2.828125 7.375q-2.828125 2.984375 -8.734375 3.796875q2.15625 1.03125 3.28125 2.046875q2.375 2.1875 4.5 5.453125l7.140625 11.171875l-6.828125 0l-5.4375 -8.53125q-2.375 -3.703125 -3.921875 -5.65625q-1.53125 -1.96875 -2.75 -2.75q-1.21875 -0.78125 -2.46875 -1.09375q-0.9375 -0.1875 -3.03125 -0.1875l-6.296875 0l0 18.21875l-5.4375 0zm5.4375 -22.921875l11.671875 0q3.71875 0 5.8125 -0.765625q2.109375 -0.78125 3.203125 -2.46875q1.09375 -1.703125 1.09375 -3.6875q0 -2.90625 -2.125 -4.78125q-2.109375 -1.875 -6.671875 -1.875l-12.984375 0l0 13.578125zm31.713043 22.921875l15.875 -21.390625l-14.0 -19.640625l6.46875 0l7.453125 10.515625q2.3125 3.28125 3.296875 5.046875q1.375 -2.25 3.25 -4.671875l8.25 -10.890625l5.90625 0l-14.40625 19.34375l15.53125 21.6875l-6.71875 0l-10.328125 -14.640625q-0.875 -1.265625 -1.796875 -2.75q-1.375 2.25 -1.953125 3.09375l-10.296875 14.296875l-6.53125 0zm52.34677 -6.640625l0 -11.25l-11.171875 0l0 -4.703125l11.171875 0l0 -11.171875l4.765625 0l0 11.171875l11.15625 0l0 4.703125l-11.15625 0l0 11.25l-4.765625 0z" fill-rule="nonzero"/><path fill="#000000" fill-opacity="0.0" d="m282.48425 316.34192l170.4252 0l0 88.88187l-170.4252 0z" fill-rule="evenodd"/><path fill="#000000" d="m322.83252 380.3819l0 -41.03125l18.203125 0q5.484375 0 8.34375 1.109375q2.859375 1.09375 4.5625 3.890625q1.703125 2.796875 1.703125 6.1875q0 4.375 -2.828125 7.375q-2.828125 2.984375 -8.734375 3.796875q2.15625 1.03125 3.28125 2.046875q2.375 2.1875 4.5 5.453125l7.140625 11.171875l-6.828125 0l-5.4375 -8.53125q-2.375 -3.703125 -3.921875 -5.65625q-1.53125 -1.96875 -2.75 -2.75q-1.21875 -0.78125 -2.46875 -1.09375q-0.9375 -0.1875 -3.03125 -0.1875l-6.296875 0l0 18.21875l-5.4375 0zm5.4375 -22.921875l11.671875 0q3.71875 0 5.8125 -0.765625q2.109375 -0.78125 3.203125 -2.46875q1.09375 -1.703125 1.09375 -3.6875q0 -2.90625 -2.125 -4.78125q-2.109375 -1.875 -6.671875 -1.875l-12.984375 0l0 13.578125zm31.713043 22.921875l15.875 -21.390625l-14.0 -19.640625l6.46875 0l7.453125 10.515625q2.3125 3.28125 3.296875 5.046875q1.375 -2.25 3.25 -4.671875l8.25 -10.890625l5.90625 0l-14.40625 19.34375l15.53125 21.6875l-6.71875 0l-10.328125 -14.640625q-0.875 -1.265625 -1.796875 -2.75q-1.375 2.25 -1.953125 3.09375l-10.296875 14.296875l-6.53125 0zm39.799896 -12.3125l0 -5.078125l15.484375 0l0 5.078125l-15.484375 0z" fill-rule="nonzero"/><path fill="#000000" fill-opacity="0.0" d="m506.48425 83.249344l170.42517 0l0 88.8819l-170.42517 0z" fill-rule="evenodd"/><path fill="#000000" d="m553.189 147.28934l0 -36.1875l-13.515625 0l0 -4.84375l32.53125 0l0 4.84375l-13.578125 0l0 36.1875l-5.4375 0zm20.408936 0l15.875 -21.390625l-14.0 -19.640625l6.46875 0l7.453125 10.515625q2.3125 3.28125 3.296875 5.046875q1.375 -2.25 3.25 -4.671875l8.25 -10.890625l5.90625 0l-14.40625 19.34375l15.53125 21.6875l-6.71875 0l-10.328125 -14.640625q-0.875 -1.265625 -1.796875 -2.75q-1.375 2.25 -1.953125 3.09375l-10.296875 14.296875l-6.53125 0zm52.34674 -6.640625l0 -11.25l-11.171875 0l0 -4.703125l11.171875 0l0 -11.171875l4.765625 0l0 11.171875l11.15625 0l0 4.703125l-11.15625 0l0 11.25l-4.765625 0z" fill-rule="nonzero"/><path fill="#000000" fill-opacity="0.0" d="m506.48425 316.34192l170.42517 0l0 88.88187l-170.42517 0z" fill-rule="evenodd"/><path fill="#000000" d="m560.383 380.3819l0 -36.1875l-13.515625 0l0 -4.84375l32.53125 0l0 4.84375l-13.578125 0l0 36.1875l-5.4375 0zm20.408936 0l15.875 -21.390625l-14.0 -19.640625l6.46875 0l7.453125 10.515625q2.3125 3.28125 3.296875 5.046875q1.375 -2.25 3.25 -4.671875l8.25 -10.890625l5.90625 0l-14.40625 19.34375l15.53125 21.6875l-6.71875 0l-10.328125 -14.640625q-0.875 -1.265625 -1.796875 -2.75q-1.375 2.25 -1.953125 3.09375l-10.296875 14.296875l-6.53125 0zm39.799927 -12.3125l0 -5.078125l15.484375 0l0 5.078125l-15.484375 0z" fill-rule="nonzero"/></g></svg>