<svg version="1.1" viewBox="0.0 0.0 487.501312335958 515.0341207349081" fill="none" stroke="none" stroke-linecap="square" stroke-miterlimit="10" xmlns:xlink="http://www.w3.org/1999/xlink" xmlns="http://www.w3.org/2000/svg"><clipPath id="p.0"><path d="m0 0l487.5013 0l0 515.0341l-487.5013 0l0 -515.0341z" clip-rule="nonzero"/></clipPath><g clip-path="url(#p.0)"><path fill="#000000" fill-opacity="0.0" d="m0 0l487.5013 0l0 515.0341l-487.5013 0z" fill-rule="evenodd"/><path fill="#cccccc" d="m3.1254544 266.22046l0 0c0 -132.54832 107.45166 -239.99998 240.0 -239.99998l0 0c63.651947 0 124.6969 25.285643 169.70563 70.29437c45.008728 45.008728 70.29437 106.053665 70.29437 169.70561l0 0c0 132.54834 -107.45166 240.0 -240.0 240.0l0 0c-132.54834 0 -240.0 -107.45166 -240.0 -240.0z" fill-rule="evenodd"/><path stroke="#000000" stroke-width="4.0" stroke-linejoin="round" stroke-linecap="butt" d="m3.1254544 266.22046l0 0c0 -132.54832 107.45166 -239.99998 240.0 -239.99998l0 0c63.651947 0 124.6969 25.285643 169.70563 70.29437c45.008728 45.008728 70.29437 106.053665 70.29437 169.70561l0 0c0 132.54834 -107.45166 240.0 -240.0 240.0l0 0c-132.54834 0 -240.0 -107.45166 -240.0 -240.0z" fill-rule="evenodd"/><path fill="#ffffff" d="m292.2908 34.573597l0 102.157486l0 0c0 56.420013 -22.012085 102.157486 -49.165344 102.157486c-27.153275 0 -49.16536 -45.737473 -49.16536 -102.157486l0 -102.157486z" fill-rule="evenodd"/><path stroke="#000000" stroke-width="2.0" stroke-linejoin="round" stroke-linecap="butt" d="m292.2908 34.573597l0 102.157486l0 0c0 56.420013 -22.012085 102.157486 -49.165344 102.157486c-27.153275 0 -49.16536 -45.737473 -49.16536 -102.157486l0 -102.157486z" fill-rule="evenodd"/><path fill="#ffffff" d="m290.4686 0l0 103.1811l0 0c0 56.98536 -21.24356 103.1811 -47.448837 103.1811c-26.205246 0 -47.448807 -46.19574 -47.448807 -103.1811l0 -103.1811z" fill-rule="evenodd"/><path stroke="#ffffff" stroke-width="1.0" stroke-linejoin="round" stroke-linecap="butt" d="m290.4686 0l0 103.1811l0 0c0 56.98536 -21.24356 103.1811 -47.448837 103.1811c-26.205246 0 -47.448807 -46.19574 -47.448807 -103.1811l0 -103.1811z" fill-rule="evenodd"/><path fill="#ff0000" d="m62.668137 174.74048l0 0c0 -26.509659 21.490334 -47.999992 48.0 -47.999992l0 0c12.730392 0 24.939377 5.0571213 33.94113 14.058876c9.0017395 9.0017395 14.058868 21.210724 14.058868 33.941116l0 0c0 26.509674 -21.490326 48.0 -48.0 48.0l0 0c-26.509666 0 -48.0 -21.490326 -48.0 -48.0z" fill-rule="evenodd"/><path stroke="#000000" stroke-width="1.0" stroke-linejoin="round" stroke-linecap="butt" d="m62.668137 174.74048l0 0c0 -26.509659 21.490334 -47.999992 48.0 -47.999992l0 0c12.730392 0 24.939377 5.0571213 33.94113 14.058876c9.0017395 9.0017395 14.058868 21.210724 14.058868 33.941116l0 0c0 26.509674 -21.490326 48.0 -48.0 48.0l0 0c-26.509666 0 -48.0 -21.490326 -48.0 -48.0z" fill-rule="evenodd"/><path fill="#000000" d="m93.14137 183.00049l-6.296875 -16.21875l2.328125 0l4.21875 11.78125q0.5 1.421875 0.84375 2.65625q0.375 -1.328125 0.875 -2.65625l4.390625 -11.78125l2.1875 0l-6.359375 16.21875l-2.1875 0zm10.470917 0l0 -16.21875l5.578125 0q1.890625 0 2.890625 0.234375q1.390625 0.3125 2.375 1.15625q1.296875 1.09375 1.921875 2.78125q0.640625 1.6875 0.640625 3.84375q0 1.859375 -0.4375 3.28125q-0.421875 1.421875 -1.109375 2.359375q-0.671875 0.9375 -1.46875 1.484375q-0.796875 0.53125 -1.9375 0.8125q-1.125 0.265625 -2.609375 0.265625l-5.84375 0zm2.140625 -1.90625l3.46875 0q1.59375 0 2.5 -0.296875q0.921875 -0.3125 1.46875 -0.84375q0.765625 -0.765625 1.1875 -2.046875q0.421875 -1.296875 0.421875 -3.140625q0 -2.546875 -0.84375 -3.90625q-0.828125 -1.359375 -2.015625 -1.828125q-0.859375 -0.328125 -2.78125 -0.328125l-3.40625 0l0 12.390625zm14.220993 1.90625l0 -16.21875l5.578125 0q1.890625 0 2.890625 0.234375q1.390625 0.3125 2.375 1.15625q1.296875 1.09375 1.921875 2.78125q0.640625 1.6875 0.640625 3.84375q0 1.859375 -0.4375 3.28125q-0.421875 1.421875 -1.109375 2.359375q-0.671875 0.9375 -1.46875 1.484375q-0.796875 0.53125 -1.9375 0.8125q-1.125 0.265625 -2.609375 0.265625l-5.84375 0zm2.140625 -1.90625l3.46875 0q1.59375 0 2.5 -0.296875q0.921875 -0.3125 1.46875 -0.84375q0.765625 -0.765625 1.1875 -2.046875q0.421875 -1.296875 0.421875 -3.140625q0 -2.546875 -0.84375 -3.90625q-0.828125 -1.359375 -2.015625 -1.828125q-0.859375 -0.328125 -2.78125 -0.328125l-3.40625 0l0 12.390625z" fill-rule="nonzero"/><path fill="#3d85c6" d="m63.7607 371.5588l0 0c0 -26.509674 21.49033 -48.0 48.000004 -48.0l0 0c12.730385 0 24.93937 5.057129 33.941124 14.058868c9.0017395 9.0017395 14.058868 21.210724 14.058868 33.94113l0 0c0 26.509674 -21.490326 48.0 -47.999992 48.0l0 0c-26.509674 0 -48.000004 -21.490326 -48.000004 -48.0z" fill-rule="evenodd"/><path stroke="#000000" stroke-width="1.0" stroke-linejoin="round" stroke-linecap="butt" d="m63.7607 371.5588l0 0c0 -26.509674 21.49033 -48.0 48.000004 -48.0l0 0c12.730385 0 24.93937 5.057129 33.941124 14.058868c9.0017395 9.0017395 14.058868 21.210724 14.058868 33.94113l0 0c0 26.509674 -21.490326 48.0 -47.999992 48.0l0 0c-26.509674 0 -48.000004 -21.490326 -48.000004 -48.0z" fill-rule="evenodd"/><path fill="#000000" d="m90.03573 380.8788l0 -18.125l2.390625 0l0 15.984375l8.9375 0l0 2.140625l-11.328125 0zm27.117546 -6.359375l2.40625 0.609375q-0.765625 2.953125 -2.734375 4.515625q-1.953125 1.546875 -4.78125 1.546875q-2.9374924 0 -4.7812424 -1.1875q-1.828125 -1.203125 -2.78125 -3.46875q-0.953125 -2.265625 -0.953125 -4.859375q0 -2.828125 1.078125 -4.9375q1.078125 -2.109375 3.078125 -3.203125q2.0 -1.09375 4.3906174 -1.09375q2.734375 0 4.578125 1.390625q1.859375 1.375 2.59375 3.890625l-2.359375 0.546875q-0.640625 -1.96875 -1.84375 -2.875q-1.1875 -0.90625 -3.015625 -0.90625q-2.078125 0 -3.4843674 1.0q-1.40625 1.0 -1.984375 2.703125q-0.5625 1.6875 -0.5625 3.46875q0 2.3125 0.671875 4.046875q0.671875 1.71875 2.09375 2.578125q1.4218674 0.84375 3.0781174 0.84375q2.015625 0 3.40625 -1.15625q1.40625 -1.15625 1.90625 -3.453125zm9.744293 3.421875l0 -4.96875l-4.9375 0l0 -2.078125l4.9375 0l0 -4.9375l2.109375 0l0 4.9375l4.921875 0l0 2.078125l-4.921875 0l0 4.96875l-2.109375 0z" fill-rule="nonzero"/><path fill="#93c47d" d="m197.53401 294.77692l0 0c0 -26.509674 21.490341 -48.000015 48.0 -48.000015l0 0c12.730392 0 24.939377 5.057129 33.941147 14.058884c9.0017395 9.0017395 14.058868 21.210724 14.058868 33.94113l0 0c0 26.509644 -21.490326 48.0 -48.000015 48.0l0 0c-26.509659 0 -48.0 -21.490356 -48.0 -48.0z" fill-rule="evenodd"/><path stroke="#000000" stroke-width="1.0" stroke-linejoin="round" stroke-linecap="butt" d="m197.53401 294.77692l0 0c0 -26.509674 21.490341 -48.000015 48.0 -48.000015l0 0c12.730392 0 24.939377 5.057129 33.941147 14.058884c9.0017395 9.0017395 14.058868 21.210724 14.058868 33.94113l0 0c0 26.509644 -21.490326 48.0 -48.000015 48.0l0 0c-26.509659 0 -48.0 -21.490356 -48.0 -48.0z" fill-rule="evenodd"/><path fill="#000000" d="m227.13745 302.2569l5.859375 -15.265625l2.1875 0l6.234375 15.265625l-2.296875 0l-1.78125 -4.625l-6.375 0l-1.6875 4.625l-2.140625 0zm4.40625 -6.265625l5.171875 0l-1.59375 -4.234375q-0.71875 -1.921875 -1.078125 -3.15625q-0.296875 1.46875 -0.828125 2.90625l-1.671875 4.484375zm11.475693 6.265625l0 -15.265625l2.078125 0l8.015625 11.984375l0 -11.984375l1.9375 0l0 15.265625l-2.078125 0l-8.015625 -12.0l0 12.0l-1.9375 0zm14.449387 -4.578125l0 -1.890625l5.765625 0l0 1.890625l-5.765625 0z" fill-rule="nonzero"/><path fill="#434343" d="m331.30734 371.5588l0 0c0 -26.509674 21.490326 -48.0 48.0 -48.0l0 0c12.730377 0 24.939362 5.057129 33.94113 14.058868c9.0017395 9.0017395 14.058868 21.210724 14.058868 33.94113l0 0c0 26.509674 -21.490326 48.0 -48.0 48.0l0 0c-26.509674 0 -48.0 -21.490326 -48.0 -48.0z" fill-rule="evenodd"/><path stroke="#000000" stroke-width="1.0" stroke-linejoin="round" stroke-linecap="butt" d="m331.30734 371.5588l0 0c0 -26.509674 21.490326 -48.0 48.0 -48.0l0 0c12.730377 0 24.939362 5.057129 33.94113 14.058868c9.0017395 9.0017395 14.058868 21.210724 14.058868 33.94113l0 0c0 26.509674 -21.490326 48.0 -48.0 48.0l0 0c-26.509674 0 -48.0 -21.490326 -48.0 -48.0z" fill-rule="evenodd"/><path fill="#ffffff" d="m364.40686 373.05444l0 -1.796875l6.453125 -0.015625l0 5.671875q-1.484375 1.1875 -3.0625 1.796875q-1.578125 0.59375 -3.25 0.59375q-2.25 0 -4.09375 -0.96875q-1.828125 -0.96875 -2.765625 -2.78125q-0.9375 -1.828125 -0.9375 -4.078125q0 -2.234375 0.921875 -4.15625q0.9375 -1.9375 2.6875 -2.875q1.75 -0.9375 4.03125 -0.9375q1.65625 0 2.984375 0.546875q1.34375 0.53125 2.09375 1.5q0.765625 0.953125 1.171875 2.484375l-1.828125 0.5q-0.34375 -1.15625 -0.859375 -1.828125q-0.5 -0.671875 -1.453125 -1.0625q-0.9375 -0.40625 -2.09375 -0.40625q-1.390625 0 -2.40625 0.421875q-1.0 0.421875 -1.625 1.109375q-0.625 0.6875 -0.96875 1.515625q-0.578125 1.40625 -0.578125 3.0625q0 2.046875 0.703125 3.421875q0.703125 1.375 2.046875 2.046875q1.34375 0.65625 2.859375 0.65625q1.3125 0 2.546875 -0.5q1.25 -0.515625 1.90625 -1.078125l0 -2.84375l-4.484375 0zm9.417847 5.984375l0 -15.265625l2.078125 0l8.0155945 11.984375l0 -11.984375l1.9375 0l0 15.265625l-2.078125 0l-8.0155945 -12.0l0 12.0l-1.9375 0zm15.418091 0l0 -15.265625l5.265625 0q1.78125 0 2.71875 0.21875q1.3125 0.296875 2.234375 1.09375q1.203125 1.015625 1.796875 2.609375q0.609375 1.578125 0.609375 3.625q0 1.734375 -0.40625 3.078125q-0.40625 1.34375 -1.046875 2.234375q-0.625 0.875 -1.390625 1.390625q-0.75 0.5 -1.8125 0.765625q-1.0625 0.25 -2.453125 0.25l-5.515625 0zm2.03125 -1.796875l3.25 0q1.515625 0 2.375 -0.28125q0.859375 -0.28125 1.375 -0.796875q0.703125 -0.71875 1.109375 -1.921875q0.40625 -1.21875 0.40625 -2.953125q0 -2.390625 -0.796875 -3.671875q-0.78125 -1.296875 -1.90625 -1.734375q-0.8125 -0.3125 -2.609375 -0.3125l-3.203125 0l0 11.671875z" fill-rule="nonzero"/><path fill="#3d85c6" d="m330.21478 174.74048l0 0c0 -26.509659 21.490326 -47.999992 48.0 -47.999992l0 0c12.730377 0 24.939362 5.0571213 33.9411 14.058876c9.00177 9.0017395 14.058899 21.210724 14.058899 33.941116l0 0c0 26.509674 -21.490356 48.0 -48.0 48.0l0 0c-26.509674 0 -48.0 -21.490326 -48.0 -48.0z" fill-rule="evenodd"/><path stroke="#000000" stroke-width="1.0" stroke-linejoin="round" stroke-linecap="butt" d="m330.21478 174.74048l0 0c0 -26.509659 21.490326 -47.999992 48.0 -47.999992l0 0c12.730377 0 24.939362 5.0571213 33.9411 14.058876c9.00177 9.0017395 14.058899 21.210724 14.058899 33.941116l0 0c0 26.509674 -21.490356 48.0 -48.0 48.0l0 0c-26.509674 0 -48.0 -21.490326 -48.0 -48.0z" fill-rule="evenodd"/><path fill="#000000" d="m360.50037 184.06049l0 -15.984375l-5.96875 0l0 -2.140625l14.375 0l0 2.140625l-6.0 0l0 15.984375l-2.40625 0zm23.79956 -6.359375l2.40625 0.609375q-0.765625 2.953125 -2.734375 4.515625q-1.953125 1.546875 -4.78125 1.546875q-2.9375 0 -4.78125 -1.1875q-1.828125 -1.203125 -2.78125 -3.46875q-0.953125 -2.265625 -0.953125 -4.859375q0 -2.828125 1.078125 -4.9375q1.078125 -2.109375 3.078125 -3.203125q2.0 -1.09375 4.390625 -1.09375q2.734375 0 4.578125 1.390625q1.859375 1.375 2.59375 3.890625l-2.359375 0.546875q-0.640625 -1.96875 -1.84375 -2.875q-1.1875 -0.90625 -3.015625 -0.90625q-2.078125 0 -3.484375 1.0q-1.40625 1.0 -1.984375 2.703125q-0.5625 1.6875 -0.5625 3.46875q0 2.3125 0.671875 4.046875q0.671875 1.71875 2.09375 2.578125q1.421875 0.84375 3.078125 0.84375q2.015625 0 3.40625 -1.15625q1.40625 -1.15625 1.90625 -3.453125zm9.744293 3.421875l0 -4.96875l-4.9375 0l0 -2.078125l4.9375 0l0 -4.9375l2.109375 0l0 4.9375l4.921875 0l0 2.078125l-4.921875 0l0 4.96875l-2.109375 0z" fill-rule="nonzero"/></g></svg>