<svg version="1.1" viewBox="0.0 0.0 959.490813648294 506.29396325459317" fill="none" stroke="none" stroke-linecap="square" stroke-miterlimit="10" xmlns:xlink="http://www.w3.org/1999/xlink" xmlns="http://www.w3.org/2000/svg"><clipPath id="p.0"><path d="m0 0l959.4908 0l0 506.29398l-959.4908 0l0 -506.29398z" clip-rule="nonzero"/></clipPath><g clip-path="url(#p.0)"><path fill="#000000" fill-opacity="0.0" d="m0 0l959.4908 0l0 506.29398l-959.4908 0z" fill-rule="evenodd"/><path fill="#000000" fill-opacity="0.0" d="m12.377953 9.175853l935.24414 0l0 479.62207l-935.24414 0z" fill-rule="evenodd"/><path stroke="#000000" stroke-width="4.0" stroke-linejoin="round" stroke-linecap="butt" d="m12.377953 9.175853l935.24414 0l0 479.62207l-935.24414 0z" fill-rule="evenodd"/><path fill="#ff0000" d="m47.089237 38.677166l192.0 0l0 192.0l-192.0 0z" fill-rule="evenodd"/><path stroke="#000000" stroke-width="3.0" stroke-linejoin="round" stroke-linecap="butt" d="m47.089237 38.677166l192.0 0l0 192.0l-192.0 0z" fill-rule="evenodd"/><path fill="#e638e3" d="m463.6964 230.67717l-159.99936 0l-32.00064 -32.00064l0 -159.99936l192.0 0z" fill-rule="evenodd"/><path stroke="#000000" stroke-width="3.0" stroke-linejoin="round" stroke-linecap="butt" d="m463.6964 230.67717l-159.99936 0l-32.00064 -32.00064l0 -159.99936l192.0 0z" fill-rule="evenodd"/><path fill="#666666" d="m496.3036 230.67717l159.99933 0l32.00067 -32.00064l0 -159.99936l-192.0 0z" fill-rule="evenodd"/><path stroke="#000000" stroke-width="3.0" stroke-linejoin="round" stroke-linecap="butt" d="m496.3036 230.67717l159.99933 0l32.00067 -32.00064l0 -159.99936l-192.0 0z" fill-rule="evenodd"/><path fill="#666666" d="m912.91077 230.67717l-159.99939 0l-32.00061 -32.00064l0 -159.99936l192.0 0z" fill-rule="evenodd"/><path stroke="#000000" stroke-width="3.0" stroke-linejoin="round" stroke-linecap="butt" d="m912.91077 230.67717l-159.99939 0l-32.00061 -32.00064l0 -159.99936l192.0 0z" fill-rule="evenodd"/><path fill="#ff0000" d="m47.089237 459.73358l159.99936 0l32.00064 -32.00064l0 -159.99936l-192.0 0z" fill-rule="evenodd"/><path stroke="#000000" stroke-width="3.0" stroke-linejoin="round" stroke-linecap="butt" d="m47.089237 459.73358l159.99936 0l32.00064 -32.00064l0 -159.99936l-192.0 0z" fill-rule="evenodd"/><path fill="#ff0000" d="m463.6964 459.73358l-159.99936 0l-32.00064 -32.00064l0 -159.99936l192.0 0z" fill-rule="evenodd"/><path stroke="#000000" stroke-width="3.0" stroke-linejoin="round" stroke-linecap="butt" d="m463.6964 459.73358l-159.99936 0l-32.00064 -32.00064l0 -159.99936l192.0 0z" fill-rule="evenodd"/><path fill="#fc8afa" d="m496.3036 459.73358l159.99933 0l32.00067 -32.00064l0 -159.99936l-192.0 0z" fill-rule="evenodd"/><path stroke="#000000" stroke-width="3.0" stroke-linejoin="round" stroke-linecap="butt" d="m496.3036 459.73358l159.99933 0l32.00067 -32.00064l0 -159.99936l-192.0 0z" fill-rule="evenodd"/><path fill="#666666" d="m912.91077 459.73358l-159.99939 0l-32.00061 -32.00064l0 -159.99936l192.0 0z" fill-rule="evenodd"/><path stroke="#000000" stroke-width="3.0" stroke-linejoin="round" stroke-linecap="butt" d="m912.91077 459.73358l-159.99939 0l-32.00061 -32.00064l0 -159.99936l192.0 0z" fill-rule="evenodd"/><path fill="#000000" fill-opacity="0.0" d="m282.48425 59.249344l170.4252 0l0 132.50394l-170.4252 0z" fill-rule="evenodd"/><path fill="#000000" d="m296.83948 113.04934l0 -33.390625l14.796875 0q4.46875 0 6.796875 0.90625q2.328125 0.890625 3.71875 3.171875q1.390625 2.265625 1.390625 5.03125q0 3.546875 -2.3125 5.984375q-2.296875 2.4375 -7.109375 3.109375q1.765625 0.828125 2.671875 1.65625q1.9375 1.78125 3.671875 4.4375l5.796875 9.09375l-5.546875 0l-4.421875 -6.953125q-1.9375 -3.0 -3.1875 -4.59375q-1.25 -1.59375 -2.25 -2.234375q-0.984375 -0.640625 -2.015625 -0.890625q-0.75 -0.15625 -2.453125 -0.15625l-5.125 0l0 14.828125l-4.421875 0zm4.421875 -18.65625l9.5 0q3.015625 0 4.71875 -0.625q1.71875 -0.625 2.609375 -2.0q0.890625 -1.390625 0.890625 -3.0q0 -2.375 -1.71875 -3.890625q-1.71875 -1.53125 -5.4375 -1.53125l-10.5625 0l0 11.046875zm25.943634 18.65625l8.84375 -12.578125l-8.1875 -11.609375l5.125 0l3.71875 5.671875q1.046875 1.609375 1.6875 2.703125q1.0 -1.5 1.84375 -2.65625l4.078125 -5.71875l4.890625 0l-8.359375 11.390625l9.0 12.796875l-5.03125 0l-4.96875 -7.515625l-1.3125 -2.03125l-6.359375 9.546875l-4.96875 0zm22.984375 0.5625l9.6875 -34.53125l3.28125 0l-9.671875 34.53125l-3.296875 0zm25.056366 -0.5625l0 -29.453125l-11.0 0l0 -3.9375l26.46875 0l0 3.9375l-11.046875 0l0 29.453125l-4.421875 0zm16.749481 0l8.84375 -12.578125l-8.1875 -11.609375l5.125 0l3.71875 5.671875q1.046875 1.609375 1.6875 2.703125q1.0 -1.5 1.84375 -2.65625l4.078125 -5.71875l4.890625 0l-8.359375 11.390625l9.0 12.796875l-5.03125 0l-4.96875 -7.515625l-1.3125 -2.03125l-6.359375 9.546875l-4.96875 0zm34.671875 -5.40625l0 -9.15625l-9.09375 0l0 -3.828125l9.09375 0l0 -9.078125l3.875 0l0 9.078125l9.09375 0l0 3.828125l-9.09375 0l0 9.15625l-3.875 0z" fill-rule="nonzero"/><path fill="#000000" d="m350.09222 178.86185q-3.390625 -4.28125 -5.734375 -10.015625q-2.34375 -5.75 -2.34375 -11.890625q0 -5.421875 1.75 -10.390625q2.046875 -5.765625 6.328125 -11.484375l2.9375 0q-2.75 4.734375 -3.640625 6.765625q-1.390625 3.140625 -2.1875 6.5625q-0.96875 4.265625 -0.96875 8.5625q0 10.96875 6.796875 21.890625l-2.9375 0zm6.8337708 -38.84375l0 -3.9375l21.625 0l0 3.1875q-3.1875 3.40625 -6.328125 9.03125q-3.125 5.625 -4.828125 11.5625q-1.234375 4.203125 -1.578125 9.1875l-4.21875 0q0.078125 -3.9375 1.546875 -9.515625q1.484375 -5.59375 4.25 -10.765625q2.78125 -5.1875 5.890625 -8.75l-16.359375 0zm29.510468 38.84375l-2.9375 0q6.8125 -10.921875 6.8125 -21.890625q0 -4.28125 -0.984375 -8.5q-0.78125 -3.40625 -2.15625 -6.546875q-0.890625 -2.0625 -3.671875 -6.84375l2.9375 0q4.28125 5.71875 6.328125 11.484375q1.75 4.96875 1.75 10.390625q0 6.140625 -2.359375 11.890625q-2.34375 5.734375 -5.71875 10.015625z" fill-rule="nonzero"/><path fill="#000000" fill-opacity="0.0" d="m281.87665 299.892l170.4252 0l0 119.590546l-170.4252 0z" fill-rule="evenodd"/><path fill="#000000" d="m301.01727 343.452l-9.984375 -25.765625l3.6875 0l6.703125 18.71875q0.8125 2.25 1.359375 4.21875q0.59375 -2.109375 1.390625 -4.21875l6.953125 -18.71875l3.484375 0l-10.09375 25.765625l-3.5 0zm16.652344 0l0 -25.765625l8.875 0q3.0 0 4.59375 0.359375q2.203125 0.515625 3.765625 1.84375q2.046875 1.734375 3.046875 4.421875q1.015625 2.671875 1.015625 6.109375q0 2.9375 -0.6875 5.203125q-0.671875 2.265625 -1.75 3.765625q-1.078125 1.484375 -2.359375 2.34375q-1.265625 0.84375 -3.0625 1.28125q-1.796875 0.4375 -4.140625 0.4375l-9.296875 0zm3.40625 -3.046875l5.5 0q2.546875 0 4.0 -0.46875q1.453125 -0.46875 2.3125 -1.34375q1.21875 -1.203125 1.890625 -3.25q0.671875 -2.046875 0.671875 -4.96875q0 -4.046875 -1.328125 -6.21875q-1.328125 -2.171875 -3.21875 -2.90625q-1.375 -0.53125 -4.40625 -0.53125l-5.421875 0l0 19.6875zm22.591797 3.046875l0 -25.765625l8.875 0q3.0 0 4.59375 0.359375q2.203125 0.515625 3.765625 1.84375q2.046875 1.734375 3.046875 4.421875q1.015625 2.671875 1.015625 6.109375q0 2.9375 -0.6875 5.203125q-0.671875 2.265625 -1.75 3.765625q-1.078125 1.484375 -2.359375 2.34375q-1.265625 0.84375 -3.0625 1.28125q-1.796875 0.4375 -4.140625 0.4375l-9.296875 0zm3.40625 -3.046875l5.5 0q2.546875 0 4.0 -0.46875q1.453125 -0.46875 2.3125 -1.34375q1.21875 -1.203125 1.890625 -3.25q0.671875 -2.046875 0.671875 -4.96875q0 -4.046875 -1.328125 -6.21875q-1.328125 -2.171875 -3.21875 -2.90625q-1.375 -0.53125 -4.40625 -0.53125l-5.421875 0l0 19.6875zm41.453125 3.046875l0 -6.171875l-11.1875 0l0 -2.90625l11.765625 -16.6875l2.578125 0l0 16.6875l3.484375 0l0 2.90625l-3.484375 0l0 6.171875l-3.15625 0zm0 -9.078125l0 -11.609375l-8.078125 11.609375l8.078125 0zm14.740234 -4.890625q-1.96875 -0.734375 -2.921875 -2.0625q-0.9375 -1.34375 -0.9375 -3.203125q0 -2.8125 2.015625 -4.71875q2.03125 -1.921875 5.375 -1.921875q3.375 0 5.4375 1.96875q2.0625 1.953125 2.0625 4.765625q0 1.796875 -0.953125 3.125q-0.9375 1.3125 -2.84375 2.046875q2.375 0.765625 3.609375 2.5q1.234375 1.71875 1.234375 4.109375q0 3.296875 -2.34375 5.546875q-2.328125 2.25 -6.140625 2.25q-3.8125 0 -6.15625 -2.25q-2.34375 -2.265625 -2.34375 -5.640625q0 -2.515625 1.28125 -4.203125q1.28125 -1.703125 3.625 -2.3125zm-0.625 -5.375q0 1.828125 1.171875 3.0q1.1875 1.15625 3.0625 1.15625q1.828125 0 3.0 -1.140625q1.171875 -1.15625 1.171875 -2.828125q0 -1.75 -1.21875 -2.9375q-1.203125 -1.1875 -2.984375 -1.1875q-1.8125 0 -3.015625 1.171875q-1.1875 1.15625 -1.1875 2.765625zm-1.015625 11.90625q0 1.359375 0.640625 2.625q0.640625 1.265625 1.90625 1.96875q1.265625 0.6875 2.71875 0.6875q2.265625 0 3.734375 -1.453125q1.484375 -1.46875 1.484375 -3.71875q0 -2.28125 -1.515625 -3.78125q-1.515625 -1.5 -3.8125 -1.5q-2.234375 0 -3.703125 1.484375q-1.453125 1.46875 -1.453125 3.6875zm25.44336 7.4375l-9.984375 -25.765625l3.6875 0l6.703125 18.71875q0.8125 2.25 1.359375 4.21875q0.59375 -2.109375 1.390625 -4.21875l6.953125 -18.71875l3.484375 0l-10.09375 25.765625l-3.5 0z" fill-rule="nonzero"/><path fill="#000000" d="m349.48462 406.7045q-3.390625 -4.28125 -5.734375 -10.015625q-2.34375 -5.75 -2.34375 -11.890625q0 -5.421875 1.75 -10.390625q2.046875 -5.765625 6.328125 -11.484375l2.9375 0q-2.75 4.734375 -3.640625 6.765625q-1.390625 3.140625 -2.1875 6.5625q-0.96875 4.265625 -0.96875 8.5625q0 10.96875 6.796875 21.890625l-2.9375 0zm28.11502 -13.75l0 3.9375l-22.078125 0q-0.046875 -1.484375 0.484375 -2.84375q0.84375 -2.265625 2.703125 -4.453125q1.859375 -2.1875 5.359375 -5.046875q5.453125 -4.46875 7.359375 -7.078125q1.921875 -2.609375 1.921875 -4.9375q0 -2.4375 -1.75 -4.109375q-1.75 -1.671875 -4.546875 -1.671875q-2.953125 0 -4.734375 1.78125q-1.78125 1.78125 -1.796875 4.921875l-4.21875 -0.4375q0.4375 -4.71875 3.25 -7.1875q2.828125 -2.46875 7.59375 -2.46875q4.8125 0 7.609375 2.671875q2.796875 2.65625 2.796875 6.59375q0 2.015625 -0.828125 3.953125q-0.8125 1.921875 -2.71875 4.0625q-1.890625 2.140625 -6.3125 5.890625q-3.6875 3.09375 -4.734375 4.203125q-1.046875 1.09375 -1.734375 2.21875l16.375 0zm8.229218 13.75l-2.9375 0q6.8125 -10.921875 6.8125 -21.890625q0 -4.28125 -0.984375 -8.5q-0.78125 -3.40625 -2.15625 -6.546875q-0.890625 -2.0625 -3.671875 -6.84375l2.9375 0q4.28125 5.71875 6.328125 11.484375q1.75 4.96875 1.75 10.390625q0 6.140625 -2.359375 11.890625q-2.34375 5.734375 -5.71875 10.015625z" fill-rule="nonzero"/><path fill="#000000" fill-opacity="0.0" d="m507.69684 50.23622l170.42523 0l0 158.3622l-170.42523 0z" fill-rule="evenodd"/><path fill="#000000" d="m552.8381 98.182465l0 -4.8125l17.390625 -0.03125l0 15.234375q-4.015625 3.1875 -8.265625 4.796875q-4.25 1.609375 -8.734375 1.609375q-6.046875 0 -10.984375 -2.59375q-4.9375 -2.59375 -7.46875 -7.484375q-2.515625 -4.90625 -2.515625 -10.953125q0 -5.984375 2.5 -11.171875q2.515625 -5.203125 7.21875 -7.71875q4.703125 -2.515625 10.828125 -2.515625q4.453125 0 8.046875 1.4375q3.609375 1.4375 5.640625 4.015625q2.046875 2.578125 3.109375 6.71875l-4.890625 1.34375q-0.921875 -3.125 -2.296875 -4.921875q-1.375 -1.796875 -3.921875 -2.875q-2.546875 -1.078125 -5.65625 -1.078125q-3.71875 0 -6.4375 1.140625q-2.71875 1.125 -4.390625 2.984375q-1.65625 1.84375 -2.578125 4.046875q-1.5625 3.8125 -1.5625 8.265625q0 5.484375 1.875 9.1875q1.890625 3.6875 5.5 5.484375q3.625 1.78125 7.671875 1.78125q3.53125 0 6.890625 -1.359375q3.359375 -1.359375 5.09375 -2.890625l0 -7.640625l-12.0625 0zm25.32605 16.09375l0 -41.03125l5.578125 0l21.546875 32.21875l0 -32.21875l5.21875 0l0 41.03125l-5.578125 0l-21.546875 -32.25l0 32.25l-5.21875 0zm41.463013 0l0 -41.03125l14.140625 0q4.78125 0 7.296875 0.578125q3.53125 0.8125 6.03125 2.9375q3.234375 2.75 4.84375 7.015625q1.609375 4.265625 1.609375 9.75q0 4.6875 -1.09375 8.296875q-1.078125 3.609375 -2.796875 5.984375q-1.703125 2.359375 -3.734375 3.71875q-2.03125 1.34375 -4.90625 2.046875q-2.859375 0.703125 -6.578125 0.703125l-14.8125 0zm5.4375 -4.84375l8.75 0q4.0625 0 6.375 -0.75q2.3125 -0.765625 3.6875 -2.125q1.921875 -1.9375 3.0 -5.1875q1.078125 -3.265625 1.078125 -7.921875q0 -6.4375 -2.109375 -9.890625q-2.109375 -3.453125 -5.140625 -4.640625q-2.1875 -0.828125 -7.03125 -0.828125l-8.609375 0l0 31.34375z" fill-rule="nonzero"/><path fill="#000000" d="m571.2834 195.1387q-4.171875 -5.265625 -7.0625 -12.3125q-2.875 -7.0625 -2.875 -14.609375q0 -6.671875 2.15625 -12.765625q2.515625 -7.078125 7.78125 -14.109375l3.609375 0q-3.390625 5.828125 -4.46875 8.3125q-1.71875 3.859375 -2.6875 8.0625q-1.203125 5.234375 -1.203125 10.53125q0 13.453125 8.359375 26.890625l-3.609375 0zm34.2157 -43.046875l-5.015625 0.390625q-0.671875 -2.96875 -1.90625 -4.3125q-2.046875 -2.15625 -5.03125 -2.15625q-2.40625 0 -4.234375 1.34375q-2.375 1.734375 -3.75 5.0625q-1.375 3.328125 -1.421875 9.5q1.8125 -2.78125 4.4375 -4.125q2.640625 -1.34375 5.515625 -1.34375q5.046875 0 8.578125 3.71875q3.546875 3.703125 3.546875 9.578125q0 3.859375 -1.671875 7.1875q-1.65625 3.3125 -4.578125 5.078125q-2.90625 1.765625 -6.59375 1.765625q-6.296875 0 -10.28125 -4.625q-3.96875 -4.640625 -3.96875 -15.28125q0 -11.890625 4.390625 -17.296875q3.84375 -4.703125 10.328125 -4.703125q4.84375 0 7.9375 2.71875q3.09375 2.703125 3.71875 7.5zm-20.578125 17.6875q0 2.609375 1.09375 4.984375q1.109375 2.375 3.09375 3.625q2.0 1.25 4.171875 1.25q3.203125 0 5.484375 -2.578125q2.296875 -2.578125 2.296875 -7.0q0 -4.25 -2.265625 -6.703125q-2.265625 -2.453125 -5.703125 -2.453125q-3.421875 0 -5.796875 2.453125q-2.375 2.453125 -2.375 6.421875zm31.008179 25.359375l-3.609375 0q8.375 -13.4375 8.375 -26.890625q0 -5.265625 -1.203125 -10.453125q-0.953125 -4.1875 -2.65625 -8.0625q-1.09375 -2.515625 -4.515625 -8.390625l3.609375 0q5.265625 7.03125 7.78125 14.109375q2.15625 6.09375 2.15625 12.765625q0 7.546875 -2.90625 14.609375q-2.890625 7.046875 -7.03125 12.3125z" fill-rule="nonzero"/><path fill="#000000" fill-opacity="0.0" d="m731.69684 50.23622l170.42523 0l0 158.3622l-170.42523 0z" fill-rule="evenodd"/><path fill="#000000" d="m776.8381 98.182465l0 -4.8125l17.390625 -0.03125l0 15.234375q-4.015625 3.1875 -8.265625 4.796875q-4.25 1.609375 -8.734375 1.609375q-6.046875 0 -10.984375 -2.59375q-4.9375 -2.59375 -7.46875 -7.484375q-2.515625 -4.90625 -2.515625 -10.953125q0 -5.984375 2.5 -11.171875q2.515625 -5.203125 7.21875 -7.71875q4.703125 -2.515625 10.828125 -2.515625q4.453125 0 8.046875 1.4375q3.609375 1.4375 5.640625 4.015625q2.046875 2.578125 3.109375 6.71875l-4.890625 1.34375q-0.921875 -3.125 -2.296875 -4.921875q-1.375 -1.796875 -3.921875 -2.875q-2.546875 -1.078125 -5.65625 -1.078125q-3.71875 0 -6.4375 1.140625q-2.71875 1.125 -4.390625 2.984375q-1.65625 1.84375 -2.578125 4.046875q-1.5625 3.8125 -1.5625 8.265625q0 5.484375 1.875 9.1875q1.890625 3.6875 5.5 5.484375q3.625 1.78125 7.671875 1.78125q3.53125 0 6.890625 -1.359375q3.359375 -1.359375 5.09375 -2.890625l0 -7.640625l-12.0625 0zm25.32605 16.09375l0 -41.03125l5.578125 0l21.546875 32.21875l0 -32.21875l5.21875 0l0 41.03125l-5.578125 0l-21.546875 -32.25l0 32.25l-5.21875 0zm41.463013 0l0 -41.03125l14.140625 0q4.78125 0 7.296875 0.578125q3.53125 0.8125 6.03125 2.9375q3.234375 2.75 4.84375 7.015625q1.609375 4.265625 1.609375 9.75q0 4.6875 -1.09375 8.296875q-1.078125 3.609375 -2.796875 5.984375q-1.703125 2.359375 -3.734375 3.71875q-2.03125 1.34375 -4.90625 2.046875q-2.859375 0.703125 -6.578125 0.703125l-14.8125 0zm5.4375 -4.84375l8.75 0q4.0625 0 6.375 -0.75q2.3125 -0.765625 3.6875 -2.125q1.921875 -1.9375 3.0 -5.1875q1.078125 -3.265625 1.078125 -7.921875q0 -6.4375 -2.109375 -9.890625q-2.109375 -3.453125 -5.140625 -4.640625q-2.1875 -0.828125 -7.03125 -0.828125l-8.609375 0l0 31.34375z" fill-rule="nonzero"/><path fill="#000000" d="m795.2834 195.1387q-4.171875 -5.265625 -7.0625 -12.3125q-2.875 -7.0625 -2.875 -14.609375q0 -6.671875 2.15625 -12.765625q2.515625 -7.078125 7.78125 -14.109375l3.609375 0q-3.390625 5.828125 -4.46875 8.3125q-1.71875 3.859375 -2.6875 8.0625q-1.203125 5.234375 -1.203125 10.53125q0 13.453125 8.359375 26.890625l-3.609375 0zm8.059448 -22.8125l5.296875 -0.453125q0.578125 3.875 2.71875 5.828125q2.15625 1.9375 5.171875 1.9375q3.640625 0 6.15625 -2.734375q2.515625 -2.75 2.515625 -7.296875q0 -4.3125 -2.421875 -6.796875q-2.40625 -2.484375 -6.328125 -2.484375q-2.4375 0 -4.40625 1.109375q-1.953125 1.09375 -3.078125 2.859375l-4.71875 -0.625l3.96875 -21.078125l20.40625 0l0 4.828125l-16.375 0l-2.21875 11.015625q3.703125 -2.5625 7.765625 -2.5625q5.375 0 9.0625 3.71875q3.703125 3.71875 3.703125 9.578125q0 5.5625 -3.25 9.625q-3.953125 4.984375 -10.78125 4.984375q-5.59375 0 -9.140625 -3.140625q-3.53125 -3.140625 -4.046875 -8.3125zm36.586304 22.8125l-3.609375 0q8.375 -13.4375 8.375 -26.890625q0 -5.265625 -1.203125 -10.453125q-0.953125 -4.1875 -2.65625 -8.0625q-1.09375 -2.515625 -4.515625 -8.390625l3.609375 0q5.265625 7.03125 7.78125 14.109375q2.15625 6.09375 2.15625 12.765625q0 7.546875 -2.90625 14.609375q-2.890625 7.046875 -7.03125 12.3125z" fill-rule="nonzero"/><path fill="#000000" fill-opacity="0.0" d="m731.69684 282.2362l170.42523 0l0 158.36221l-170.42523 0z" fill-rule="evenodd"/><path fill="#000000" d="m776.8381 330.18246l0 -4.8125l17.390625 -0.03125l0 15.234375q-4.015625 3.1875 -8.265625 4.796875q-4.25 1.609375 -8.734375 1.609375q-6.046875 0 -10.984375 -2.59375q-4.9375 -2.59375 -7.46875 -7.484375q-2.515625 -4.90625 -2.515625 -10.953125q0 -5.984375 2.5 -11.171875q2.515625 -5.203125 7.21875 -7.71875q4.703125 -2.515625 10.828125 -2.515625q4.453125 0 8.046875 1.4375q3.609375 1.4375 5.640625 4.015625q2.046875 2.578125 3.109375 6.71875l-4.890625 1.34375q-0.921875 -3.125 -2.296875 -4.921875q-1.375 -1.796875 -3.921875 -2.875q-2.546875 -1.078125 -5.65625 -1.078125q-3.71875 0 -6.4375 1.140625q-2.71875 1.125 -4.390625 2.984375q-1.65625 1.84375 -2.578125 4.046875q-1.5625 3.8125 -1.5625 8.265625q0 5.484375 1.875 9.1875q1.890625 3.6875 5.5 5.484375q3.625 1.78125 7.671875 1.78125q3.53125 0 6.890625 -1.359375q3.359375 -1.359375 5.09375 -2.890625l0 -7.640625l-12.0625 0zm25.32605 16.09375l0 -41.03125l5.578125 0l21.546875 32.21875l0 -32.21875l5.21875 0l0 41.03125l-5.578125 0l-21.546875 -32.25l0 32.25l-5.21875 0zm41.463013 0l0 -41.03125l14.140625 0q4.78125 0 7.296875 0.578125q3.53125 0.8125 6.03125 2.9375q3.234375 2.75 4.84375 7.015625q1.609375 4.265625 1.609375 9.75q0 4.6875 -1.09375 8.296875q-1.078125 3.609375 -2.796875 5.984375q-1.703125 2.359375 -3.734375 3.71875q-2.03125 1.34375 -4.90625 2.046875q-2.859375 0.703125 -6.578125 0.703125l-14.8125 0zm5.4375 -4.84375l8.75 0q4.0625 0 6.375 -0.75q2.3125 -0.765625 3.6875 -2.125q1.921875 -1.9375 3.0 -5.1875q1.078125 -3.265625 1.078125 -7.921875q0 -6.4375 -2.109375 -9.890625q-2.109375 -3.453125 -5.140625 -4.640625q-2.1875 -0.828125 -7.03125 -0.828125l-8.609375 0l0 31.34375z" fill-rule="nonzero"/><path fill="#000000" d="m795.2834 427.1387q-4.171875 -5.265625 -7.0625 -12.3125q-2.875 -7.0625 -2.875 -14.609375q0 -6.671875 2.15625 -12.765625q2.515625 -7.078125 7.78125 -14.109375l3.609375 0q-3.390625 5.828125 -4.46875 8.3125q-1.71875 3.859375 -2.6875 8.0625q-1.203125 5.234375 -1.203125 10.53125q0 13.453125 8.359375 26.890625l-3.609375 0zm24.215698 -12.0625l0 -9.828125l-17.796875 0l0 -4.609375l18.71875 -26.59375l4.109375 0l0 26.59375l5.546875 0l0 4.609375l-5.546875 0l0 9.828125l-5.03125 0zm0 -14.4375l0 -18.515625l-12.84375 18.515625l12.84375 0zm20.430054 26.5l-3.609375 0q8.375 -13.4375 8.375 -26.890625q0 -5.265625 -1.203125 -10.453125q-0.953125 -4.1875 -2.65625 -8.0625q-1.09375 -2.515625 -4.515625 -8.390625l3.609375 0q5.265625 7.03125 7.78125 14.109375q2.15625 6.09375 2.15625 12.765625q0 7.546875 -2.90625 14.609375q-2.890625 7.046875 -7.03125 12.3125z" fill-rule="nonzero"/><path fill="#000000" fill-opacity="0.0" d="m506.48425 291.24933l170.42517 0l0 132.50397l-170.42517 0z" fill-rule="evenodd"/><path fill="#000000" d="m526.6943 345.04935l0 -33.390625l14.796875 0q4.46875 0 6.796875 0.90625q2.328125 0.890625 3.71875 3.171875q1.390625 2.265625 1.390625 5.03125q0 3.546875 -2.3125 5.984375q-2.296875 2.4375 -7.109375 3.109375q1.765625 0.828125 2.671875 1.65625q1.9375 1.78125 3.671875 4.4375l5.796875 9.09375l-5.546875 0l-4.421875 -6.953125q-1.9375 -3.0 -3.1875 -4.59375q-1.25 -1.59375 -2.25 -2.234375q-0.984375 -0.640625 -2.015625 -0.890625q-0.75 -0.15625 -2.453125 -0.15625l-5.125 0l0 14.828125l-4.421875 0zm4.421875 -18.65625l9.5 0q3.015625 0 4.71875 -0.625q1.71875 -0.625 2.609375 -2.0q0.890625 -1.390625 0.890625 -3.0q0 -2.375 -1.71875 -3.890625q-1.71875 -1.53125 -5.4375 -1.53125l-10.5625 0l0 11.046875zm25.943665 18.65625l8.84375 -12.578125l-8.1875 -11.609375l5.125 0l3.71875 5.671875q1.046875 1.609375 1.6875 2.703125q1.0 -1.5 1.84375 -2.65625l4.078125 -5.71875l4.890625 0l-8.359375 11.390625l9.0 12.796875l-5.03125 0l-4.96875 -7.515625l-1.3125 -2.03125l-6.359375 9.546875l-4.96875 0zm22.984375 0.5625l9.6875 -34.53125l3.28125 0l-9.671875 34.53125l-3.296875 0zm25.056335 -0.5625l0 -29.453125l-11.0 0l0 -3.9375l26.46875 0l0 3.9375l-11.046875 0l0 29.453125l-4.421875 0zm16.749512 0l8.84375 -12.578125l-8.1875 -11.609375l5.125 0l3.71875 5.671875q1.046875 1.609375 1.6875 2.703125q1.0 -1.5 1.84375 -2.65625l4.078125 -5.71875l4.890625 0l-8.359375 11.390625l9.0 12.796875l-5.03125 0l-4.96875 -7.515625l-1.3125 -2.03125l-6.359375 9.546875l-4.96875 0zm24.46875 -10.03125l0 -4.109375l12.59375 0l0 4.109375l-12.59375 0z" fill-rule="nonzero"/><path fill="#000000" d="m574.0922 410.86185q-3.390625 -4.28125 -5.734375 -10.015625q-2.34375 -5.75 -2.34375 -11.890625q0 -5.421875 1.75 -10.390625q2.046875 -5.765625 6.328125 -11.484375l2.9375 0q-2.75 4.734375 -3.640625 6.765625q-1.390625 3.140625 -2.1875 6.5625q-0.96875 4.265625 -0.96875 8.5625q0 10.96875 6.796875 21.890625l-2.9375 0zm6.58374 -18.625l4.109375 -0.546875q0.703125 3.484375 2.390625 5.03125q1.703125 1.53125 4.140625 1.53125q2.890625 0 4.890625 -2.0q2.0 -2.015625 2.0 -4.96875q0 -2.828125 -1.859375 -4.65625q-1.84375 -1.84375 -4.6875 -1.84375q-1.15625 0 -2.890625 0.453125l0.453125 -3.59375q0.40625 0.046875 0.65625 0.046875q2.625 0 4.71875 -1.359375q2.09375 -1.375 2.09375 -4.234375q0 -2.25 -1.53125 -3.71875q-1.515625 -1.484375 -3.9375 -1.484375q-2.390625 0 -3.984375 1.5q-1.59375 1.5 -2.046875 4.515625l-4.09375 -0.734375q0.75 -4.125 3.40625 -6.390625q2.671875 -2.265625 6.640625 -2.265625q2.734375 0 5.03125 1.171875q2.296875 1.171875 3.515625 3.203125q1.21875 2.03125 1.21875 4.296875q0 2.171875 -1.171875 3.953125q-1.15625 1.765625 -3.421875 2.8125q2.953125 0.6875 4.59375 2.84375q1.640625 2.15625 1.640625 5.390625q0 4.375 -3.1875 7.421875q-3.1875 3.03125 -8.0625 3.03125q-4.40625 0 -7.3125 -2.609375q-2.890625 -2.625 -3.3125 -6.796875zm29.760498 18.625l-2.9375 0q6.8125 -10.921875 6.8125 -21.890625q0 -4.28125 -0.984375 -8.5q-0.78125 -3.40625 -2.15625 -6.546875q-0.890625 -2.0625 -3.671875 -6.84375l2.9375 0q4.28125 5.71875 6.328125 11.484375q1.75 4.96875 1.75 10.390625q0 6.140625 -2.359375 11.890625q-2.34375 5.734375 -5.71875 10.015625z" fill-rule="nonzero"/><path fill="#000000" fill-opacity="0.0" d="m57.87664 299.892l170.4252 0l0 119.590546l-170.4252 0z" fill-rule="evenodd"/><path fill="#000000" d="m77.017265 343.452l-9.984375 -25.765625l3.6875 0l6.703125 18.71875q0.8125 2.25 1.359375 4.21875q0.59375 -2.109375 1.390625 -4.21875l6.953125 -18.71875l3.484375 0l-10.09375 25.765625l-3.5 0zm16.652344 0l0 -25.765625l8.875 0q3.0 0 4.59375 0.359375q2.203125 0.515625 3.765625 1.84375q2.046875 1.734375 3.046875 4.421875q1.015625 2.671875 1.015625 6.109375q0 2.9375 -0.6875 5.203125q-0.671875 2.265625 -1.75 3.765625q-1.078125 1.484375 -2.359375 2.34375q-1.265625 0.84375 -3.0625 1.28125q-1.796875 0.4375 -4.140625 0.4375l-9.296875 0zm3.40625 -3.046875l5.5 0q2.546875 0 4.0 -0.46875q1.453125 -0.46875 2.3125 -1.34375q1.21875 -1.203125 1.890625 -3.25q0.671875 -2.046875 0.671875 -4.96875q0 -4.046875 -1.328125 -6.21875q-1.328125 -2.171875 -3.21875 -2.90625q-1.375 -0.53125 -4.40625 -0.53125l-5.421875 0l0 19.6875zm22.591797 3.046875l0 -25.765625l8.875008 0q3.0 0 4.59375 0.359375q2.203125 0.515625 3.765625 1.84375q2.046875 1.734375 3.046875 4.421875q1.015625 2.671875 1.015625 6.109375q0 2.9375 -0.6875 5.203125q-0.671875 2.265625 -1.75 3.765625q-1.078125 1.484375 -2.359375 2.34375q-1.265625 0.84375 -3.0625 1.28125q-1.796875 0.4375 -4.140625 0.4375l-9.296883 0zm3.40625 -3.046875l5.5000076 0q2.546875 0 4.0 -0.46875q1.453125 -0.46875 2.3125 -1.34375q1.21875 -1.203125 1.890625 -3.25q0.671875 -2.046875 0.671875 -4.96875q0 -4.046875 -1.328125 -6.21875q-1.328125 -2.171875 -3.21875 -2.90625q-1.375 -0.53125 -4.40625 -0.53125l-5.4218826 0l0 19.6875zm41.453133 3.046875l0 -6.171875l-11.1875 0l0 -2.90625l11.765625 -16.6875l2.578125 0l0 16.6875l3.484375 0l0 2.90625l-3.484375 0l0 6.171875l-3.15625 0zm0 -9.078125l0 -11.609375l-8.078125 11.609375l8.078125 0zm14.740234 -4.890625q-1.96875 -0.734375 -2.921875 -2.0625q-0.9375 -1.34375 -0.9375 -3.203125q0 -2.8125 2.015625 -4.71875q2.03125 -1.921875 5.375 -1.921875q3.375 0 5.4375 1.96875q2.0625 1.953125 2.0625 4.765625q0 1.796875 -0.953125 3.125q-0.9375 1.3125 -2.84375 2.046875q2.375 0.765625 3.609375 2.5q1.234375 1.71875 1.234375 4.109375q0 3.296875 -2.34375 5.546875q-2.328125 2.25 -6.140625 2.25q-3.8125 0 -6.15625 -2.25q-2.34375 -2.265625 -2.34375 -5.640625q0 -2.515625 1.28125 -4.203125q1.28125 -1.703125 3.625 -2.3125zm-0.625 -5.375q0 1.828125 1.171875 3.0q1.1875 1.15625 3.0625 1.15625q1.828125 0 3.0 -1.140625q1.171875 -1.15625 1.171875 -2.828125q0 -1.75 -1.21875 -2.9375q-1.203125 -1.1875 -2.984375 -1.1875q-1.8125 0 -3.015625 1.171875q-1.1875 1.15625 -1.1875 2.765625zm-1.015625 11.90625q0 1.359375 0.640625 2.625q0.640625 1.265625 1.90625 1.96875q1.265625 0.6875 2.71875 0.6875q2.265625 0 3.734375 -1.453125q1.484375 -1.46875 1.484375 -3.71875q0 -2.28125 -1.515625 -3.78125q-1.515625 -1.5 -3.8125 -1.5q-2.234375 0 -3.703125 1.484375q-1.453125 1.46875 -1.453125 3.6875zm25.44336 7.4375l-9.984375 -25.765625l3.6875 0l6.703125 18.71875q0.8125 2.25 1.359375 4.21875q0.59375 -2.109375 1.390625 -4.21875l6.953125 -18.71875l3.484375 0l-10.09375 25.765625l-3.5 0z" fill-rule="nonzero"/><path fill="#000000" d="m125.484604 406.7045q-3.390625 -4.28125 -5.734375 -10.015625q-2.34375 -5.75 -2.34375 -11.890625q0 -5.421875 1.75 -10.390625q2.046875 -5.765625 6.328125 -11.484375l2.9375 0q-2.75 4.734375 -3.640625 6.765625q-1.390625 3.140625 -2.1875 6.5625q-0.96875 4.265625 -0.96875 8.5625q0 10.96875 6.796875 21.890625l-2.9375 0zm22.005646 -9.8125l-4.09375 0l0 -26.125q-1.484375 1.40625 -3.890625 2.828125q-2.390625 1.40625 -4.3125 2.109375l0 -3.96875q3.4375 -1.609375 6.015625 -3.90625q2.578125 -2.3125 3.640625 -4.46875l2.640625 0l0 33.53125zm14.338608 9.8125l-2.9375 0q6.8125 -10.921875 6.8125 -21.890625q0 -4.28125 -0.984375 -8.5q-0.78125 -3.40625 -2.15625 -6.546875q-0.890625 -2.0625 -3.671875 -6.84375l2.9375 0q4.28125 5.71875 6.328125 11.484375q1.75 4.96875 1.75 10.390625q0 6.140625 -2.359375 11.890625q-2.34375 5.734375 -5.71875 10.015625z" fill-rule="nonzero"/><path fill="#000000" fill-opacity="0.0" d="m57.87664 75.892l170.4252 0l0 119.59056l-170.4252 0z" fill-rule="evenodd"/><path fill="#000000" d="m77.017265 119.451996l-9.984375 -25.765625l3.6875 0l6.703125 18.71875q0.8125 2.25 1.359375 4.21875q0.59375 -2.109375 1.390625 -4.21875l6.953125 -18.71875l3.484375 0l-10.09375 25.765625l-3.5 0zm16.652344 0l0 -25.765625l8.875 0q3.0 0 4.59375 0.359375q2.203125 0.515625 3.765625 1.84375q2.046875 1.734375 3.046875 4.421875q1.015625 2.671875 1.015625 6.109375q0 2.9375 -0.6875 5.203125q-0.671875 2.265625 -1.75 3.765625q-1.078125 1.484375 -2.359375 2.34375q-1.265625 0.84375 -3.0625 1.28125q-1.796875 0.4375 -4.140625 0.4375l-9.296875 0zm3.40625 -3.046875l5.5 0q2.546875 0 4.0 -0.46875q1.453125 -0.46875 2.3125 -1.34375q1.21875 -1.203125 1.890625 -3.25q0.671875 -2.046875 0.671875 -4.96875q0 -4.046875 -1.328125 -6.21875q-1.328125 -2.171875 -3.21875 -2.90625q-1.375 -0.53125 -4.40625 -0.53125l-5.421875 0l0 19.6875zm22.591797 3.046875l0 -25.765625l8.875008 0q3.0 0 4.59375 0.359375q2.203125 0.515625 3.765625 1.84375q2.046875 1.734375 3.046875 4.421875q1.015625 2.671875 1.015625 6.109375q0 2.9375 -0.6875 5.203125q-0.671875 2.265625 -1.75 3.765625q-1.078125 1.484375 -2.359375 2.34375q-1.265625 0.84375 -3.0625 1.28125q-1.796875 0.4375 -4.140625 0.4375l-9.296883 0zm3.40625 -3.046875l5.5000076 0q2.546875 0 4.0 -0.46875q1.453125 -0.46875 2.3125 -1.34375q1.21875 -1.203125 1.890625 -3.25q0.671875 -2.046875 0.671875 -4.96875q0 -4.046875 -1.328125 -6.21875q-1.328125 -2.171875 -3.21875 -2.90625q-1.375 -0.53125 -4.40625 -0.53125l-5.4218826 0l0 19.6875zm41.453133 3.046875l0 -6.171875l-11.1875 0l0 -2.90625l11.765625 -16.6875l2.578125 0l0 16.6875l3.484375 0l0 2.90625l-3.484375 0l0 6.171875l-3.15625 0zm0 -9.078125l0 -11.609375l-8.078125 11.609375l8.078125 0zm14.740234 -4.890625q-1.96875 -0.734375 -2.921875 -2.0625q-0.9375 -1.34375 -0.9375 -3.203125q0 -2.8125 2.015625 -4.71875q2.03125 -1.921875 5.375 -1.921875q3.375 0 5.4375 1.96875q2.0625 1.953125 2.0625 4.765625q0 1.796875 -0.953125 3.125q-0.9375 1.3125 -2.84375 2.046875q2.375 0.765625 3.609375 2.5q1.234375 1.71875 1.234375 4.109375q0 3.296875 -2.34375 5.546875q-2.328125 2.25 -6.140625 2.25q-3.8125 0 -6.15625 -2.25q-2.34375 -2.265625 -2.34375 -5.640625q0 -2.515625 1.28125 -4.203125q1.28125 -1.703125 3.625 -2.3125zm-0.625 -5.375q0 1.828125 1.171875 3.0q1.1875 1.15625 3.0625 1.15625q1.828125 0 3.0 -1.140625q1.171875 -1.15625 1.171875 -2.828125q0 -1.75 -1.21875 -2.9375q-1.203125 -1.1875 -2.984375 -1.1875q-1.8125 0 -3.015625 1.171875q-1.1875 1.15625 -1.1875 2.765625zm-1.015625 11.90625q0 1.359375 0.640625 2.625q0.640625 1.265625 1.90625 1.96875q1.265625 0.6875 2.71875 0.6875q2.265625 0 3.734375 -1.453125q1.484375 -1.46875 1.484375 -3.71875q0 -2.28125 -1.515625 -3.78125q-1.515625 -1.5 -3.8125 -1.5q-2.234375 0 -3.703125 1.484375q-1.453125 1.46875 -1.453125 3.6875zm25.44336 7.4375l-9.984375 -25.765625l3.6875 0l6.703125 18.71875q0.8125 2.25 1.359375 4.21875q0.59375 -2.109375 1.390625 -4.21875l6.953125 -18.71875l3.484375 0l-10.09375 25.765625l-3.5 0z" fill-rule="nonzero"/><path fill="#000000" d="m125.484604 182.7045q-3.390625 -4.28125 -5.734375 -10.015625q-2.34375 -5.75 -2.34375 -11.890625q0 -5.421875 1.75 -10.390625q2.046875 -5.765625 6.328125 -11.484375l2.9375 0q-2.75 4.734375 -3.640625 6.765625q-1.390625 3.140625 -2.1875 6.5625q-0.96875 4.265625 -0.96875 8.5625q0 10.96875 6.796875 21.890625l-2.9375 0zm12.880646 -27.921875q-2.546875 -0.9375 -3.78125 -2.671875q-1.234375 -1.734375 -1.234375 -4.140625q0 -3.640625 2.609375 -6.125q2.625 -2.484375 6.984375 -2.484375q4.375 0 7.03125 2.546875q2.671875 2.53125 2.671875 6.171875q0 2.328125 -1.21875 4.046875q-1.21875 1.71875 -3.703125 2.65625q3.078125 1.0 4.671875 3.234375q1.609375 2.234375 1.609375 5.328125q0 4.28125 -3.03125 7.203125q-3.015625 2.90625 -7.96875 2.90625q-4.9375 0 -7.96875 -2.921875q-3.03125 -2.921875 -3.03125 -7.296875q0 -3.265625 1.640625 -5.453125q1.65625 -2.203125 4.71875 -3.0zm-0.828125 -6.953125q0 2.375 1.53125 3.875q1.53125 1.5 3.96875 1.5q2.359375 0 3.875 -1.484375q1.515625 -1.5 1.515625 -3.65625q0 -2.265625 -1.5625 -3.796875q-1.5625 -1.53125 -3.875 -1.53125q-2.34375 0 -3.90625 1.5q-1.546875 1.5 -1.546875 3.59375zm-1.3125 15.421875q0 1.765625 0.828125 3.40625q0.828125 1.625 2.46875 2.53125q1.640625 0.90625 3.53125 0.90625q2.9375 0 4.84375 -1.890625q1.921875 -1.890625 1.921875 -4.8125q0 -2.96875 -1.96875 -4.890625q-1.96875 -1.9375 -4.9375 -1.9375q-2.890625 0 -4.796875 1.921875q-1.890625 1.90625 -1.890625 4.765625zm25.604233 19.453125l-2.9375 0q6.8125 -10.921875 6.8125 -21.890625q0 -4.28125 -0.984375 -8.5q-0.78125 -3.40625 -2.15625 -6.546875q-0.890625 -2.0625 -3.671875 -6.84375l2.9375 0q4.28125 5.71875 6.328125 11.484375q1.75 4.96875 1.75 10.390625q0 6.140625 -2.359375 11.890625q-2.34375 5.734375 -5.71875 10.015625z" fill-rule="nonzero"/></g></svg>