<svg version="1.1" viewBox="0.0 0.0 487.501312335958 515.0341207349081" fill="none" stroke="none" stroke-linecap="square" stroke-miterlimit="10" xmlns:xlink="http://www.w3.org/1999/xlink" xmlns="http://www.w3.org/2000/svg"><clipPath id="p.0"><path d="m0 0l487.5013 0l0 515.0341l-487.5013 0l0 -515.0341z" clip-rule="nonzero"/></clipPath><g clip-path="url(#p.0)"><path fill="#000000" fill-opacity="0.0" d="m0 0l487.5013 0l0 515.0341l-487.5013 0z" fill-rule="evenodd"/><path fill="#cccccc" d="m3.1254544 266.22046l0 0c0 -132.54832 107.45166 -239.99998 240.0 -239.99998l0 0c63.651947 0 124.6969 25.285643 169.70563 70.29437c45.008728 45.008728 70.29437 106.053665 70.29437 169.70561l0 0c0 132.54834 -107.45166 240.0 -240.0 240.0l0 0c-132.54834 0 -240.0 -107.45166 -240.0 -240.0z" fill-rule="evenodd"/><path stroke="#000000" stroke-width="4.0" stroke-linejoin="round" stroke-linecap="butt" d="m3.1254544 266.22046l0 0c0 -132.54832 107.45166 -239.99998 240.0 -239.99998l0 0c63.651947 0 124.6969 25.285643 169.70563 70.29437c45.008728 45.008728 70.29437 106.053665 70.29437 169.70561l0 0c0 132.54834 -107.45166 240.0 -240.0 240.0l0 0c-132.54834 0 -240.0 -107.45166 -240.0 -240.0z" fill-rule="evenodd"/><path fill="#ffffff" d="m292.2908 34.573597l0 102.157486l0 0c0 56.420013 -22.012085 102.157486 -49.165344 102.157486c-27.153275 0 -49.16536 -45.737473 -49.16536 -102.157486l0 -102.157486z" fill-rule="evenodd"/><path stroke="#000000" stroke-width="2.0" stroke-linejoin="round" stroke-linecap="butt" d="m292.2908 34.573597l0 102.157486l0 0c0 56.420013 -22.012085 102.157486 -49.165344 102.157486c-27.153275 0 -49.16536 -45.737473 -49.16536 -102.157486l0 -102.157486z" fill-rule="evenodd"/><path fill="#ffffff" d="m290.4686 0l0 103.1811l0 0c0 56.98536 -21.24356 103.1811 -47.448837 103.1811c-26.205246 0 -47.448807 -46.19574 -47.448807 -103.1811l0 -103.1811z" fill-rule="evenodd"/><path stroke="#ffffff" stroke-width="1.0" stroke-linejoin="round" stroke-linecap="butt" d="m290.4686 0l0 103.1811l0 0c0 56.98536 -21.24356 103.1811 -47.448837 103.1811c-26.205246 0 -47.448807 -46.19574 -47.448807 -103.1811l0 -103.1811z" fill-rule="evenodd"/><path fill="#ff0000" d="m62.668137 174.74048l0 0c0 -26.509659 21.490334 -47.999992 48.0 -47.999992l0 0c12.730392 0 24.939377 5.0571213 33.94113 14.058876c9.0017395 9.0017395 14.058868 21.210724 14.058868 33.941116l0 0c0 26.509674 -21.490326 48.0 -48.0 48.0l0 0c-26.509666 0 -48.0 -21.490326 -48.0 -48.0z" fill-rule="evenodd"/><path stroke="#000000" stroke-width="1.0" stroke-linejoin="round" stroke-linecap="butt" d="m62.668137 174.74048l0 0c0 -26.509659 21.490334 -47.999992 48.0 -47.999992l0 0c12.730392 0 24.939377 5.0571213 33.94113 14.058876c9.0017395 9.0017395 14.058868 21.210724 14.058868 33.941116l0 0c0 26.509674 -21.490326 48.0 -48.0 48.0l0 0c-26.509666 0 -48.0 -21.490326 -48.0 -48.0z" fill-rule="evenodd"/><path fill="#000000" d="m95.56282 184.34048l0 -4.5625l-8.265625 0l0 -2.15625l8.703125 -12.359375l1.90625 0l0 12.359375l2.578125 0l0 2.15625l-2.578125 0l0 4.5625l-2.34375 0zm0 -6.71875l0 -8.59375l-5.96875 8.59375l5.96875 0zm10.934311 -3.625q-1.46875 -0.53125 -2.171875 -1.515625q-0.703125 -1.0 -0.703125 -2.375q0 -2.09375 1.5 -3.5q1.5 -1.421875 3.984375 -1.421875q2.5 0 4.015625 1.453125q1.53125 1.453125 1.53125 3.53125q0 1.328125 -0.703125 2.3125q-0.6875 0.984375 -2.109375 1.515625q1.75 0.5625 2.671875 1.84375q0.921875 1.28125 0.921875 3.046875q0 2.453125 -1.734375 4.125q-1.734375 1.65625 -4.5625 1.65625q-2.8125 0 -4.546875 -1.671875q-1.734375 -1.671875 -1.734375 -4.171875q0 -1.859375 0.9375 -3.109375q0.953125 -1.265625 2.703125 -1.71875zm-0.46875 -3.96875q0 1.34375 0.859375 2.203125q0.875 0.859375 2.265625 0.859375q1.359375 0 2.21875 -0.84375q0.875 -0.859375 0.875 -2.09375q0 -1.28125 -0.890625 -2.15625q-0.890625 -0.890625 -2.21875 -0.890625q-1.34375 0 -2.234375 0.859375q-0.875 0.859375 -0.875 2.0625zm-0.765625 8.8125q0 1.0 0.46875 1.9375q0.484375 0.9375 1.421875 1.453125q0.9375 0.515625 2.015625 0.515625q1.6875 0 2.78125 -1.078125q1.09375 -1.09375 1.09375 -2.75q0 -1.703125 -1.140625 -2.796875q-1.125 -1.109375 -2.8125 -1.109375q-1.65625 0 -2.75 1.09375q-1.078125 1.09375 -1.078125 2.734375zm18.856186 5.5l-7.40625 -19.078125l2.734375 0l4.96875 13.859375q0.59375 1.671875 1.0 3.125q0.4375 -1.5625 1.03125 -3.125l5.15625 -13.859375l2.578125 0l-7.484375 19.078125l-2.578125 0z" fill-rule="nonzero"/><path fill="#3c78d8" d="m63.7607 371.5588l0 0c0 -26.509674 21.49033 -48.0 48.000004 -48.0l0 0c12.730385 0 24.93937 5.057129 33.941124 14.058868c9.0017395 9.0017395 14.058868 21.210724 14.058868 33.94113l0 0c0 26.509674 -21.490326 48.0 -47.999992 48.0l0 0c-26.509674 0 -48.000004 -21.490326 -48.000004 -48.0z" fill-rule="evenodd"/><path stroke="#000000" stroke-width="1.0" stroke-linejoin="round" stroke-linecap="butt" d="m63.7607 371.5588l0 0c0 -26.509674 21.49033 -48.0 48.000004 -48.0l0 0c12.730385 0 24.93937 5.057129 33.941124 14.058868c9.0017395 9.0017395 14.058868 21.210724 14.058868 33.94113l0 0c0 26.509674 -21.490326 48.0 -47.999992 48.0l0 0c-26.509674 0 -48.000004 -21.490326 -48.000004 -48.0z" fill-rule="evenodd"/><path fill="#000000" d="m96.14836 383.8388l0 -24.8125l8.546875 0q2.890625 0 4.421875 0.359375q2.1249924 0.484375 3.6406174 1.78125q1.953125 1.65625 2.921875 4.234375q0.984375 2.578125 0.984375 5.890625q0 2.828125 -0.671875 5.015625q-0.65625 2.1875 -1.6875 3.625q-1.03125 1.421875 -2.265625 2.25q-1.21875 0.8125 -2.9531174 1.234375q-1.734375 0.421875 -3.984375 0.421875l-8.953125 0zm3.28125 -2.921875l5.296875 0q2.453125 0 3.84375 -0.453125q1.4062424 -0.46875 2.2343674 -1.296875q1.171875 -1.171875 1.8125 -3.140625q0.65625 -1.96875 0.65625 -4.78125q0 -3.890625 -1.28125 -5.96875q-1.265625 -2.09375 -3.0937424 -2.8125q-1.328125 -0.5 -4.25 -0.5l-5.21875 0l0 18.953125zm20.168251 -4.53125l0 -3.0625l9.359383 0l0 3.0625l-9.359383 0z" fill-rule="nonzero"/><path fill="#93c47d" d="m197.53401 294.77692l0 0c0 -26.509674 21.490341 -48.000015 48.0 -48.000015l0 0c12.730392 0 24.939377 5.057129 33.941147 14.058884c9.0017395 9.0017395 14.058868 21.210724 14.058868 33.94113l0 0c0 26.509644 -21.490326 48.0 -48.000015 48.0l0 0c-26.509659 0 -48.0 -21.490356 -48.0 -48.0z" fill-rule="evenodd"/><path stroke="#000000" stroke-width="1.0" stroke-linejoin="round" stroke-linecap="butt" d="m197.53401 294.77692l0 0c0 -26.509674 21.490341 -48.000015 48.0 -48.000015l0 0c12.730392 0 24.939377 5.057129 33.941147 14.058884c9.0017395 9.0017395 14.058868 21.210724 14.058868 33.94113l0 0c0 26.509644 -21.490326 48.0 -48.000015 48.0l0 0c-26.509659 0 -48.0 -21.490356 -48.0 -48.0z" fill-rule="evenodd"/><path fill="#000000" d="m234.36792 296.89752l2.03125 0.515625q-0.640625 2.484375 -2.296875 3.796875q-1.640625 1.3125 -4.03125 1.3125q-2.46875 0 -4.015625 -1.0q-1.546875 -1.015625 -2.359375 -2.921875q-0.796875 -1.90625 -0.796875 -4.09375q0 -2.390625 0.90625 -4.15625q0.921875 -1.78125 2.59375 -2.703125q1.6875 -0.921875 3.703125 -0.921875q2.296875 0 3.859375 1.171875q1.5625 1.171875 2.171875 3.28125l-1.984375 0.46875q-0.53125 -1.671875 -1.546875 -2.421875q-1.0 -0.765625 -2.53125 -0.765625q-1.765625 0 -2.953125 0.84375q-1.171875 0.84375 -1.65625 2.265625q-0.484375 1.421875 -0.484375 2.921875q0 1.953125 0.5625 3.40625q0.578125 1.453125 1.765625 2.171875q1.203125 0.71875 2.609375 0.71875q1.6875 0 2.859375 -0.96875q1.1875 -0.984375 1.59375 -2.921875zm3.9024963 -2.078125q0 -3.796875 2.03125 -5.9375q2.046875 -2.15625 5.28125 -2.15625q2.109375 0 3.796875 1.015625q1.703125 1.0 2.59375 2.8125q0.890625 1.796875 0.890625 4.09375q0 2.3125 -0.9375 4.15625q-0.9375 1.828125 -2.65625 2.78125q-1.703125 0.9375 -3.703125 0.9375q-2.15625 0 -3.859375 -1.046875q-1.6875 -1.046875 -2.5625 -2.84375q-0.875 -1.796875 -0.875 -3.8125zm2.078125 0.03125q0 2.765625 1.484375 4.359375q1.484375 1.578125 3.734375 1.578125q2.28125 0 3.75 -1.59375q1.46875 -1.609375 1.46875 -4.5625q0 -1.859375 -0.640625 -3.25q-0.625 -1.390625 -1.84375 -2.15625q-1.203125 -0.765625 -2.703125 -0.765625q-2.15625 0 -3.703125 1.484375q-1.546875 1.46875 -1.546875 4.90625zm15.105331 7.40625l0 -15.265625l2.0781097 0l8.015625 11.984375l0 -11.984375l1.9375 0l0 15.265625l-2.078125 0l-8.015625 -12.0l0 12.0l-1.9374847 0z" fill-rule="nonzero"/><path fill="#434343" d="m331.30734 371.5588l0 0c0 -26.509674 21.490326 -48.0 48.0 -48.0l0 0c12.730377 0 24.939362 5.057129 33.94113 14.058868c9.0017395 9.0017395 14.058868 21.210724 14.058868 33.94113l0 0c0 26.509674 -21.490326 48.0 -48.0 48.0l0 0c-26.509674 0 -48.0 -21.490326 -48.0 -48.0z" fill-rule="evenodd"/><path stroke="#000000" stroke-width="1.0" stroke-linejoin="round" stroke-linecap="butt" d="m331.30734 371.5588l0 0c0 -26.509674 21.490326 -48.0 48.0 -48.0l0 0c12.730377 0 24.939362 5.057129 33.94113 14.058868c9.0017395 9.0017395 14.058868 21.210724 14.058868 33.94113l0 0c0 26.509674 -21.490326 48.0 -48.0 48.0l0 0c-26.509674 0 -48.0 -21.490326 -48.0 -48.0z" fill-rule="evenodd"/><path fill="#ffffff" d="m364.40686 373.05444l0 -1.796875l6.453125 -0.015625l0 5.671875q-1.484375 1.1875 -3.0625 1.796875q-1.578125 0.59375 -3.25 0.59375q-2.25 0 -4.09375 -0.96875q-1.828125 -0.96875 -2.765625 -2.78125q-0.9375 -1.828125 -0.9375 -4.078125q0 -2.234375 0.921875 -4.15625q0.9375 -1.9375 2.6875 -2.875q1.75 -0.9375 4.03125 -0.9375q1.65625 0 2.984375 0.546875q1.34375 0.53125 2.09375 1.5q0.765625 0.953125 1.171875 2.484375l-1.828125 0.5q-0.34375 -1.15625 -0.859375 -1.828125q-0.5 -0.671875 -1.453125 -1.0625q-0.9375 -0.40625 -2.09375 -0.40625q-1.390625 0 -2.40625 0.421875q-1.0 0.421875 -1.625 1.109375q-0.625 0.6875 -0.96875 1.515625q-0.578125 1.40625 -0.578125 3.0625q0 2.046875 0.703125 3.421875q0.703125 1.375 2.046875 2.046875q1.34375 0.65625 2.859375 0.65625q1.3125 0 2.546875 -0.5q1.25 -0.515625 1.90625 -1.078125l0 -2.84375l-4.484375 0zm9.417847 5.984375l0 -15.265625l2.078125 0l8.0155945 11.984375l0 -11.984375l1.9375 0l0 15.265625l-2.078125 0l-8.0155945 -12.0l0 12.0l-1.9375 0zm15.418091 0l0 -15.265625l5.265625 0q1.78125 0 2.71875 0.21875q1.3125 0.296875 2.234375 1.09375q1.203125 1.015625 1.796875 2.609375q0.609375 1.578125 0.609375 3.625q0 1.734375 -0.40625 3.078125q-0.40625 1.34375 -1.046875 2.234375q-0.625 0.875 -1.390625 1.390625q-0.75 0.5 -1.8125 0.765625q-1.0625 0.25 -2.453125 0.25l-5.515625 0zm2.03125 -1.796875l3.25 0q1.515625 0 2.375 -0.28125q0.859375 -0.28125 1.375 -0.796875q0.703125 -0.71875 1.109375 -1.921875q0.40625 -1.21875 0.40625 -2.953125q0 -2.390625 -0.796875 -3.671875q-0.78125 -1.296875 -1.90625 -1.734375q-0.8125 -0.3125 -2.609375 -0.3125l-3.203125 0l0 11.671875z" fill-rule="nonzero"/><path fill="#3d85c6" d="m330.21478 174.74048l0 0c0 -26.509659 21.490326 -47.999992 48.0 -47.999992l0 0c12.730377 0 24.939362 5.0571213 33.9411 14.058876c9.00177 9.0017395 14.058899 21.210724 14.058899 33.941116l0 0c0 26.509674 -21.490356 48.0 -48.0 48.0l0 0c-26.509674 0 -48.0 -21.490326 -48.0 -48.0z" fill-rule="evenodd"/><path stroke="#000000" stroke-width="1.0" stroke-linejoin="round" stroke-linecap="butt" d="m330.21478 174.74048l0 0c0 -26.509659 21.490326 -47.999992 48.0 -47.999992l0 0c12.730377 0 24.939362 5.0571213 33.9411 14.058876c9.00177 9.0017395 14.058899 21.210724 14.058899 33.941116l0 0c0 26.509674 -21.490356 48.0 -48.0 48.0l0 0c-26.509674 0 -48.0 -21.490326 -48.0 -48.0z" fill-rule="evenodd"/><path fill="#000000" d="m358.25348 187.02048l0 -24.8125l8.546875 0q2.890625 0 4.421875 0.359375q2.125 0.484375 3.640625 1.78125q1.953125 1.65625 2.921875 4.234375q0.984375 2.578125 0.984375 5.890625q0 2.828125 -0.671875 5.015625q-0.65625 2.1875 -1.6875 3.625q-1.03125 1.421875 -2.265625 2.25q-1.21875 0.8125 -2.953125 1.234375q-1.734375 0.421875 -3.984375 0.421875l-8.953125 0zm3.28125 -2.921875l5.296875 0q2.453125 0 3.84375 -0.453125q1.40625 -0.46875 2.234375 -1.296875q1.171875 -1.171875 1.8125 -3.140625q0.65625 -1.96875 0.65625 -4.78125q0 -3.890625 -1.28125 -5.96875q-1.265625 -2.09375 -3.09375 -2.8125q-1.328125 -0.5 -4.25 -0.5l-5.21875 0l0 18.953125zm27.761993 -1.09375l0 -6.796875l-6.765625 0l0 -2.84375l6.765625 0l0 -6.75l2.875 0l0 6.75l6.75 0l0 2.84375l-6.75 0l0 6.796875l-2.875 0z" fill-rule="nonzero"/></g></svg>