<svg version="1.1" viewBox="0.0 0.0 475.9186351706037 1224.8976377952756" fill="none" stroke="none" stroke-linecap="square" stroke-miterlimit="10" xmlns:xlink="http://www.w3.org/1999/xlink" xmlns="http://www.w3.org/2000/svg"><clipPath id="p.0"><path d="m0 0l475.91864 0l0 1224.8976l-475.91864 0l0 -1224.8976z" clip-rule="nonzero"/></clipPath><g clip-path="url(#p.0)"><path fill="#000000" fill-opacity="0.0" d="m0 0l475.91864 0l0 1224.8976l-475.91864 0z" fill-rule="evenodd"/><path fill="#000000" fill-opacity="0.0" d="m216.20052 20.523996l0 0c-31.188034 19.065409 -53.796204 107.918785 -53.812057 211.48918l65.95274 0.107543945z" fill-rule="evenodd"/><path fill="#000000" fill-opacity="0.0" d="m216.20052 20.523996l0 0c-31.188034 19.065409 -53.796204 107.918785 -53.812057 211.48918" fill-rule="evenodd"/><path stroke="#000000" stroke-width="22.31496062992126" stroke-linejoin="round" stroke-linecap="butt" d="m216.20052 20.523996l0 0c-31.188034 19.065409 -53.796204 107.918785 -53.812057 211.48918" fill-rule="evenodd"/><path fill="#000000" fill-opacity="0.0" d="m162.33858 230.43842l0.06300354 854.29926" fill-rule="evenodd"/><path stroke="#000000" stroke-width="22.31496062992126" stroke-linejoin="round" stroke-linecap="butt" d="m162.33858 230.43842l0.06300354 854.29926" fill-rule="evenodd"/><path fill="#000000" fill-opacity="0.0" d="m258.6972 230.70427l-0.06298828 854.29913" fill-rule="evenodd"/><path stroke="#000000" stroke-width="22.31496062992126" stroke-linejoin="round" stroke-linecap="butt" d="m258.6972 230.70427l-0.06298828 854.29913" fill-rule="evenodd"/><path fill="#000000" fill-opacity="0.0" d="m162.33858 848.85895l-67.21259 64.09448" fill-rule="evenodd"/><path stroke="#000000" stroke-width="22.31496062992126" stroke-linejoin="round" stroke-linecap="butt" d="m162.33858 848.85895l-67.21259 64.09448" fill-rule="evenodd"/><path fill="#000000" fill-opacity="0.0" d="m98.919815 905.0903l-0.9448776 77.85828" fill-rule="evenodd"/><path stroke="#000000" stroke-width="22.31496062992126" stroke-linejoin="round" stroke-linecap="butt" d="m98.919815 905.0903l-0.9448776 77.85828" fill-rule="evenodd"/><path fill="#000000" fill-opacity="0.0" d="m94.319534 974.0772l67.2126 64.09454" fill-rule="evenodd"/><path stroke="#000000" stroke-width="22.31496062992126" stroke-linejoin="round" stroke-linecap="butt" d="m94.319534 974.0772l67.2126 64.09454" fill-rule="evenodd"/><path fill="#000000" fill-opacity="0.0" d="m183.00993 1105.7413l54.897644 0" fill-rule="evenodd"/><path stroke="#000000" stroke-width="22.31496062992126" stroke-linejoin="round" stroke-linecap="butt" d="m183.00993 1105.7413l54.897644 0" fill-rule="evenodd"/><path fill="#000000" fill-opacity="0.0" d="m204.83527 20.789839l0 0c31.188034 19.065409 53.796204 107.91878 53.812042 211.48918l-65.95273 0.107559204z" fill-rule="evenodd"/><path fill="#000000" fill-opacity="0.0" d="m204.83527 20.789839l0 0c31.188034 19.065409 53.796204 107.91878 53.812042 211.48918" fill-rule="evenodd"/><path stroke="#000000" stroke-width="22.31496062992126" stroke-linejoin="round" stroke-linecap="butt" d="m204.83527 20.789839l0 0c31.188034 19.065409 53.796204 107.91878 53.812042 211.48918" fill-rule="evenodd"/><path fill="#000000" fill-opacity="0.0" d="m258.6972 849.12476l67.212585 64.09454" fill-rule="evenodd"/><path stroke="#000000" stroke-width="22.31496062992126" stroke-linejoin="round" stroke-linecap="butt" d="m258.6972 849.12476l67.212585 64.09454" fill-rule="evenodd"/><path fill="#000000" fill-opacity="0.0" d="m322.11597 905.35614l0.94488525 77.858215" fill-rule="evenodd"/><path stroke="#000000" stroke-width="22.31496062992126" stroke-linejoin="round" stroke-linecap="butt" d="m322.11597 905.35614l0.94488525 77.858215" fill-rule="evenodd"/><path fill="#000000" fill-opacity="0.0" d="m326.71625 974.3431l-67.212585 64.09442" fill-rule="evenodd"/><path stroke="#000000" stroke-width="22.31496062992126" stroke-linejoin="round" stroke-linecap="butt" d="m326.71625 974.3431l-67.212585 64.09442" fill-rule="evenodd"/><path fill="#000000" fill-opacity="0.0" d="m161.78455 320.71738l97.95276 -0.25195312" fill-rule="evenodd"/><path stroke="#000000" stroke-width="22.31496062992126" stroke-linejoin="round" stroke-linecap="butt" d="m161.78455 320.71738l97.95276 -0.25195312" fill-rule="evenodd"/><path fill="#000000" fill-opacity="0.0" d="m161.78455 551.00085l97.95276 -0.25195312" fill-rule="evenodd"/><path stroke="#000000" stroke-width="22.31496062992126" stroke-linejoin="round" stroke-linecap="butt" d="m161.78455 551.00085l97.95276 -0.25195312" fill-rule="evenodd"/><path fill="#000000" fill-opacity="0.0" d="m159.31758 1076.9402l31.559052 32.125977" fill-rule="evenodd"/><path stroke="#000000" stroke-width="22.31496062992126" stroke-linejoin="round" stroke-linecap="butt" d="m159.31758 1076.9402l31.559052 32.125977" fill-rule="evenodd"/><path fill="#000000" fill-opacity="0.0" d="m261.6202 1077.0393l-31.559036 32.125977" fill-rule="evenodd"/><path stroke="#000000" stroke-width="22.31496062992126" stroke-linejoin="round" stroke-linecap="butt" d="m261.6202 1077.0393l-31.559036 32.125977" fill-rule="evenodd"/></g></svg>